<svg width="65" height="65" viewBox="0 0 65 65" fill="none" xmlns="http://www.w3.org/2000/svg">
<path d="M32.5 62.5C49.0685 62.5 62.5 49.0685 62.5 32.5C62.5 15.9315 49.0685 2.5 32.5 2.5C15.9315 2.5 2.5 15.9315 2.5 32.5C2.5 49.0685 15.9315 62.5 32.5 62.5Z" fill="white"/>
<path fill-rule="evenodd" clip-rule="evenodd" d="M32.5 3C16.2076 3 3 16.2076 3 32.5C3 48.7924 16.2076 62 32.5 62C48.7924 62 62 48.7924 62 32.5C62 16.2076 48.7924 3 32.5 3ZM2 32.5C2 15.6553 15.6553 2 32.5 2C49.3447 2 63 15.6553 63 32.5C63 49.3447 49.3447 63 32.5 63C15.6553 63 2 49.3447 2 32.5Z" fill="url(#paint0_linear_6183_3114)"/>
<path fill-rule="evenodd" clip-rule="evenodd" d="M31.9992 14.6509C28.5678 14.6509 25.2134 15.6684 22.3603 17.5748C19.5072 19.4812 17.2834 22.1909 15.9703 25.3611C14.6571 28.5313 14.3135 32.0197 14.983 35.3852C15.6524 38.7507 17.3048 41.8421 19.7312 44.2685C22.1576 46.6948 25.249 48.3472 28.6145 49.0167C31.9799 49.6861 35.4684 49.3425 38.6386 48.0294C41.8088 46.7162 44.5184 44.4925 46.4248 41.6394C48.3312 38.7863 49.3488 35.4319 49.3488 32.0005C49.3488 31.6415 49.6398 31.3505 49.9988 31.3505C50.3577 31.3505 50.6488 31.6415 50.6488 32.0005C50.6488 35.689 49.555 39.2947 47.5057 42.3616C45.4565 45.4285 42.5438 47.8189 39.1361 49.2304C35.7283 50.642 31.9785 51.0113 28.3608 50.2917C24.7432 49.5721 21.4201 47.7959 18.8119 45.1877C16.2038 42.5795 14.4276 39.2565 13.708 35.6388C12.9884 32.0212 13.3577 28.2714 14.7692 24.8636C16.1808 21.4558 18.5711 18.5432 21.638 16.4939C24.7049 14.4447 28.3106 13.3509 31.9992 13.3509C32.3582 13.3509 32.6492 13.6419 32.6492 14.0009C32.6492 14.3599 32.3582 14.6509 31.9992 14.6509Z" fill="#72207E"/>
<path d="M41.03 29.941H46.139M43.585 27.3865V32.495M33.739 32.5L46.14 20.099H40.45L46.0215 13H39.735C39.11 13 38.5325 13.3335 38.22 13.875L33 22.9165H37.47L33.739 32.5Z" stroke="#72207E" stroke-linecap="round" stroke-linejoin="round"/>
<defs>
<linearGradient id="paint0_linear_6183_3114" x1="1.84949" y1="32.5" x2="63.1378" y2="32.5" gradientUnits="userSpaceOnUse">
<stop stop-color="#D9DADA"/>
<stop offset="0.08" stop-color="#ABACAC"/>
<stop offset="0.17" stop-color="white"/>
<stop offset="0.32" stop-color="#ABACAC"/>
<stop offset="0.47" stop-color="#ABACAC"/>
<stop offset="0.6" stop-color="white"/>
<stop offset="0.69" stop-color="#D9DADA"/>
<stop offset="0.86" stop-color="#ABACAC"/>
<stop offset="1" stop-color="#D9DADA"/>
</linearGradient>
</defs>
</svg>
