<svg width="65" height="65" viewBox="0 0 65 65" fill="none" xmlns="http://www.w3.org/2000/svg">
<path d="M32.5 63C49.3447 63 63 49.3447 63 32.5C63 15.6553 49.3447 2 32.5 2C15.6553 2 2 15.6553 2 32.5C2 49.3447 15.6553 63 32.5 63Z" fill="white"/>
<mask id="mask0_6181_101" style="mask-type:luminance" maskUnits="userSpaceOnUse" x="2" y="2" width="61" height="61">
<path d="M32.5 63C49.3447 63 63 49.3447 63 32.5C63 15.6553 49.3447 2 32.5 2C15.6553 2 2 15.6553 2 32.5C2 49.3447 15.6553 63 32.5 63Z" fill="white"/>
</mask>
<g mask="url(#mask0_6181_101)">
<path d="M50.9056 65.2201C51.0347 65.0653 50.9572 66.072 50.9572 66.072L51.0863 66.6141C51.0863 66.6141 51.0218 67.4789 50.9572 67.7887C50.8927 68.0985 51.0218 68.5115 51.0218 68.5115C51.0218 68.5115 51.0734 69.6086 50.57 70.0346C50.0795 70.4605 49.9634 70.6799 49.9634 70.6799C49.9634 70.6799 49.873 70.951 49.5503 71.1317C49.2277 71.2995 49.1631 71.5318 48.7759 71.8674C48.3887 72.203 48.2338 72.5128 47.7562 72.4999C47.2787 72.4999 46.5817 72.4095 46.388 72.3192C46.1944 72.2417 45.6007 72.2546 44.9295 71.7125C44.2583 71.1833 44.1035 71.093 44.1035 71.093C44.1035 71.093 43.6646 71.1317 43.3677 70.8348C43.058 70.5509 42.5546 69.8152 42.5546 69.8152C42.5546 69.8152 41.8576 69.8926 41.6252 69.7893C41.3929 69.699 41.0573 69.8668 40.6314 69.8539C40.1925 69.8539 39.8828 69.8022 39.8828 69.8022C39.8828 69.8022 40.0118 70.4734 39.1858 70.809C38.3597 71.1446 37.2109 71.6996 36.7592 71.6738C36.7592 71.6738 35.1845 72.061 34.5133 72.0868C33.8421 72.1127 33.0548 71.8287 32.7579 71.7125C32.4481 71.5964 32.19 71.5964 32.7579 71.506C33.3258 71.4286 33.3 71.2091 33.3 71.2091H31.9706L32.9903 71.0543C32.9903 71.0543 32.0093 70.951 32.0609 70.8477C32.0996 70.7445 33.1193 70.8606 32.9128 70.7574C32.6934 70.6541 31.8544 70.6799 31.6995 70.5251C31.5446 70.3573 32.1384 70.4734 31.9835 70.396C31.8286 70.3185 31.0025 69.5441 30.938 69.1569C30.8734 68.7697 31.2349 69.0407 31.2349 69.0407C31.2349 69.0407 32.2545 70.1378 32.1513 69.8797C32.0351 69.6215 31.3381 68.7438 31.2607 68.2921C31.1703 67.8403 31.5188 68.3953 31.5188 68.1501C31.5188 67.9049 31.4543 67.8532 31.5188 67.6338C31.5834 67.4144 31.9319 68.5502 32.048 68.5115C32.1513 68.4599 32.0093 68.0081 31.9319 67.6596C31.8673 67.3111 31.777 67.1175 31.8802 66.9497C31.9835 66.7819 32.0093 67.3757 32.1255 67.324C32.2287 67.2724 32.19 67.0917 32.19 67.0917L32.4481 66.9497L32.2287 66.7174H32.4611C32.4611 66.7174 32.2674 66.5367 32.1513 66.3044C32.048 66.0591 32.5514 66.3431 32.5514 66.3431C32.5514 66.3431 32.2545 66.2011 32.1384 65.8784C32.0222 65.5686 32.0093 65.375 32.0222 65.3363C32.048 65.2976 32.2029 65.7364 32.3707 65.7752C32.5385 65.8139 32.7837 65.8526 32.7837 65.8526L32.8741 65.4267C32.8741 65.4267 32.8483 65.1298 32.8225 64.7555C32.8095 64.4844 32.7966 64.1747 32.6934 63.9294C32.8612 64.123 33.0806 64.3683 33.1451 64.4457C33.3 64.6006 33.4549 64.6651 33.4549 64.6651C33.4549 64.6651 33.3904 64.2908 33.1839 63.8649C33.0419 63.5551 32.8741 63.3615 32.8095 63.2711L33.7518 64.265C33.7518 64.265 33.7131 63.9552 33.5065 63.6196C33.3129 63.297 33.4807 63.2582 33.4807 63.2582L33.6098 63.297C33.6098 63.297 33.4807 63.0517 33.0032 62.8065C32.5127 62.5483 32.5127 62.4967 32.5127 62.4967L33.3517 62.7807L33.3129 62.6258L33.6227 62.6774L33.3129 62.174L33.9712 62.7807L34.4101 62.9356L34.8618 63.1808L35.1845 63.297C35.1845 63.297 35.1587 63.155 35.0038 62.9614C34.8489 62.7678 34.5908 62.6 34.5908 62.6L34.1519 62.3547L34.9393 62.5612C34.9393 62.5612 34.8231 62.316 34.7456 62.0449C34.6553 61.7739 34.6166 61.3867 34.6166 61.3867C34.6166 61.3867 34.3068 60.8188 33.9583 60.5864C33.6098 60.3541 31.9964 59.67 31.0025 59.2699C30.0087 58.8697 26.6528 57.5016 26.1752 56.9595C25.6976 56.4174 23.7099 54.0553 23.6583 53.8617C23.6066 53.6681 23.4646 53.6423 23.4646 53.6423C23.4646 53.6423 23.6583 55.63 22.5482 55.6558C21.4382 55.6816 20.767 55.6687 19.9668 55.1524C19.1665 54.6361 18.7664 54.0811 18.7664 54.0811C18.7664 54.0811 17.5789 53.5906 17.4498 53.5261C17.3208 53.4616 15.5654 53.2551 14.2101 52.6226C12.8677 51.9901 11.6932 49.7314 11.3705 49.2151C11.0478 48.6988 10.9316 48.4148 10.9316 48.4148L11.1382 47.8856C11.1382 47.8856 11.2027 48.4794 11.5383 48.5955C11.8739 48.7117 11.4996 48.1438 11.6932 48.0018C11.8868 47.8598 11.9126 48.2212 12.4289 48.4664C12.9452 48.7117 13.2033 48.7375 13.3066 48.5955C13.4098 48.4664 14.1585 48.8149 14.1585 48.8149L14.5328 48.6213C14.5328 48.6213 14.365 48.1438 15.2943 48.6601C16.0042 49.0602 16.0946 49.1376 16.0946 49.1634C16.1204 49.1376 16.3398 48.9311 16.7787 48.8278C17.2433 48.7117 17.8629 48.9053 17.8629 48.9053L18.8567 48.9311C18.8567 48.9311 18.9213 48.6859 20.1604 48.7633C21.3995 48.8278 21.6447 49.1247 21.6447 49.1247C21.6447 49.1247 20.9994 49.4345 21.3091 49.5894C21.6189 49.7443 24.394 50.1186 24.8457 49.925C25.2975 49.7314 25.0781 48.9827 26.614 48.7633C28.15 48.5439 30.2281 48.1696 30.6153 48.0921C31.0025 48.0147 32.1384 47.6533 33.584 47.4726C34.0616 47.408 33.7647 47.2015 34.9522 47.2919C35.4168 47.3306 34.4359 48.0663 34.6553 48.2341C35.391 48.8149 35.1587 48.8666 35.1587 48.8666L35.6104 49.1634C35.6104 49.1634 37.1077 49.783 37.1722 49.5894C37.2368 49.3958 38.7856 50.2735 39.0825 50.3122C39.5472 50.3896 39.9731 49.9508 39.9731 49.9508C39.9731 49.9508 38.9405 49.6797 38.9922 48.9956C39.0696 48.0276 38.4888 47.8469 38.4888 47.8469L38.9663 47.7307L39.6762 47.3951C39.6762 47.3951 39.8311 47.3048 39.9731 47.0337C40.128 46.7627 41.0831 46.4142 41.7543 46.3884C42.4255 46.3626 42.3868 46.6981 41.9867 46.9821C40.2183 48.2599 42.1932 47.692 42.7611 47.5371C42.9805 47.4855 42.8773 48.1696 42.6449 48.4019C42.4126 48.6342 42.4255 49.2151 42.4255 49.3183C42.4255 49.3829 42.361 49.9895 42.2835 50.5574C42.3997 50.4542 42.49 50.3251 42.49 50.1702C42.49 49.8217 43.0063 50.1831 43.0063 50.1831C43.0063 50.1831 42.632 49.0602 43.058 49.5248C43.4839 49.9895 43.2903 49.1376 43.2903 49.1376L43.7679 49.0215L44.4778 48.6859C44.4778 48.6859 44.6327 48.5955 44.7746 48.3245C44.9295 48.0534 45.8718 47.7049 46.5558 47.6791C47.2399 47.6533 47.5368 47.692 47.9886 47.7565C48.4403 47.8211 49.1631 48.1567 49.0599 48.3761C48.9566 48.5955 48.2854 49.1118 48.0402 49.3441C47.8079 49.5765 47.227 50.5187 47.227 50.622C47.227 50.7252 47.0205 52.4935 46.956 52.7646C46.8914 53.0356 46.6333 53.9779 46.6333 53.9779C46.6333 53.9779 46.6075 54.0166 46.5688 54.0811C46.6462 54.1199 46.7624 54.0811 46.9172 53.7972C47.1754 53.3454 47.2012 53.9908 47.2012 54.1715C47.2012 54.3522 47.5239 54.6491 47.6401 54.4296C47.7433 54.2102 47.9498 54.662 47.9498 54.8298C47.9498 54.9976 48.208 55.3073 48.4274 55.2686C48.6468 55.2299 48.5952 55.4235 48.5823 55.6171C48.5565 55.8236 48.9308 55.8107 48.9308 55.8107L48.5178 56.327H49.034C49.034 56.327 48.5565 56.5593 48.479 56.882C48.3887 57.2047 48.8663 57.2176 48.8663 57.2176L48.3241 57.6694L48.7372 58.2889L48.763 59.115C48.763 59.115 48.4919 59.3731 49.4471 58.702C49.8214 58.4309 49.3309 59.8378 49.3309 59.8378C49.3309 59.8378 49.7569 59.4377 50.0279 59.4635C50.4022 59.4893 50.3893 59.6442 50.2861 60.1088C50.1828 60.5735 50.1441 60.9736 50.0795 61.0898C50.015 61.1931 50.1957 60.9349 50.3506 60.7155C50.5055 60.4961 50.5184 61.3996 50.2602 61.761C50.0021 62.1224 49.9376 62.4193 49.9376 62.4193L50.2473 62.7678C50.2473 62.7678 50.3119 63.1421 50.3119 63.297C50.3119 63.4518 50.2344 63.8649 50.2344 63.8649C50.2344 63.8649 50.4151 64.4199 50.4926 64.0456C50.5829 63.6713 50.6604 63.297 50.7765 63.5809C50.8927 63.8649 50.9056 64.5102 50.9056 64.5102L50.8669 65.0007C50.8669 65.0007 50.7378 65.3621 50.8669 65.2201H50.9056Z" fill="url(#paint0_linear_6181_101)"/>
</g>
<path d="M51.1119 22.4837C51.241 22.7031 51.1506 21.2059 51.1506 21.2059L51.2797 20.3798C51.2797 20.3798 51.2151 19.0762 51.1506 18.6244C51.0861 18.1727 51.2151 17.5402 51.2151 17.5402C51.2151 17.5402 51.2539 15.901 50.7634 15.2943C50.26 14.6877 50.1567 14.365 50.1567 14.365C50.1567 14.365 50.0664 13.952 49.7437 13.7196C49.421 13.4873 49.3565 13.1388 48.9693 12.6612C48.582 12.1837 48.4272 11.7319 47.9496 11.7706C47.472 11.8094 46.775 11.9901 46.5814 12.1191C46.3878 12.2482 45.807 12.274 45.1358 13.113C44.4646 13.952 44.3097 14.081 44.3097 14.081C44.3097 14.081 43.8709 14.0552 43.574 14.5199C43.2642 14.9716 42.7738 16.0946 42.7738 16.0946C42.7738 16.0946 42.0768 16.03 41.8444 16.1849C41.6121 16.3398 41.2765 16.0946 40.8506 16.1462C40.4117 16.1849 40.1019 16.2624 40.1019 16.2624C40.1019 16.2624 40.231 15.2427 39.4049 14.7909C38.5789 14.3392 37.4301 13.5777 36.9784 13.6422C36.9784 13.6422 35.4166 13.1517 34.7454 13.1517C34.0742 13.1517 33.2998 13.6293 32.99 13.8229C32.6802 14.0165 32.4221 14.0423 32.99 14.1198C33.5579 14.2101 33.5321 14.5328 33.5321 14.5328L32.2156 14.6361L33.2352 14.7909C33.2352 14.7909 32.2543 15.0104 32.3059 15.1653C32.3446 15.3201 33.3643 15.0749 33.1449 15.2556C32.9255 15.4234 32.0865 15.4234 31.9316 15.6945C31.7767 15.9526 32.3704 15.7332 32.2156 15.8623C32.0607 15.9913 31.2475 17.2046 31.183 17.7854C31.1184 18.3663 31.4798 17.9403 31.4798 17.9403C31.4798 17.9403 32.4995 16.2237 32.3834 16.6238C32.2801 17.011 31.5831 18.3792 31.4928 19.0762C31.4024 19.7732 31.7509 18.9084 31.7509 19.2698C31.7509 19.6312 31.6864 19.7215 31.7509 20.0442C31.8154 20.3669 32.1639 18.6373 32.2672 18.7019C32.3705 18.7664 32.2285 19.4634 32.1639 19.9797C32.0994 20.496 32.009 20.8058 32.1252 21.0381C32.2285 21.2704 32.2543 20.3927 32.3575 20.4573C32.4608 20.5218 32.4221 20.8058 32.4221 20.8058L32.6802 20.9994L32.4608 21.3608L32.6931 21.335C32.6931 21.335 32.4995 21.6189 32.3834 21.9803C32.2801 22.3546 32.7835 21.89 32.7835 21.89C32.7835 21.89 32.4866 22.1223 32.3834 22.5999C32.2801 23.0774 32.2543 23.3614 32.2801 23.4259C32.3059 23.4905 32.4608 22.8193 32.6286 22.7548C32.7964 22.6902 33.0416 22.5999 33.0416 22.5999L33.132 23.2323C33.132 23.2323 33.1062 23.6841 33.0933 24.252C33.0804 24.665 33.0804 25.1297 32.9642 25.504C33.132 25.1942 33.3385 24.8199 33.4159 24.7038C33.5708 24.4714 33.7257 24.3553 33.7257 24.3553C33.7257 24.3553 33.6612 24.9232 33.4676 25.5686C33.3256 26.0461 33.1707 26.3559 33.0933 26.4721L34.0226 24.9103C34.0226 24.9103 33.9839 25.3879 33.7903 25.8912C33.5966 26.3946 33.7644 26.4333 33.7644 26.4333L33.8935 26.3688C33.8935 26.3688 33.7773 26.7302 33.2869 27.1433C32.7964 27.5563 32.7964 27.6466 32.7964 27.6466L33.6225 27.1691L33.5837 27.4014L33.8806 27.311L33.5837 28.0855L34.2291 27.1303L34.668 26.8722L35.1197 26.485L35.4424 26.2914C35.4424 26.2914 35.4166 26.5108 35.2746 26.8077C35.1197 27.1174 34.8616 27.3756 34.8616 27.3756L34.4227 27.7628L35.1972 27.4014C35.1972 27.4014 35.0939 27.7628 35.0035 28.1758C34.9132 28.5889 34.8745 29.1697 34.8745 29.1697C34.8745 29.1697 34.5647 30.0345 34.2291 30.4088C33.8806 30.7831 32.2801 31.9061 31.2862 32.5772C30.2924 33.2484 26.9623 35.4943 26.4847 36.3462C26.0071 37.1852 24.1485 40.1151 24.0839 40.3991C24.0194 40.683 23.8645 40.7088 23.8645 40.7088C23.8645 40.7088 24.0969 39.9989 22.9997 39.7795C21.8897 39.5601 21.2185 39.4827 20.3795 40.128C19.5406 40.7734 19.0759 41.5349 19.0759 41.5349C19.0759 41.5349 17.8368 42.077 17.7077 42.1674C17.5787 42.2577 15.7974 42.2706 14.3906 43.0064C12.9837 43.7421 12.0156 44.6585 11.6413 45.3684C11.267 46.0783 11.125 46.4913 11.125 46.4913L11.2799 47.3174C11.2799 47.3174 11.409 46.4526 11.7575 46.3235C12.106 46.1945 11.6671 46.9947 11.8478 47.227C12.0156 47.4594 12.0801 46.9302 12.6223 46.6462C13.1644 46.3623 13.4225 46.3623 13.5129 46.5817C13.6032 46.8011 14.3776 46.3881 14.3776 46.3881L14.7261 46.7366C14.7261 46.7366 14.5067 47.4336 15.4877 46.8011C16.2363 46.3235 16.3266 46.2074 16.3396 46.1815C16.3654 46.2203 16.559 46.5559 16.9849 46.7753C17.4367 47.0076 18.0691 46.814 18.0691 46.814L19.063 46.9173C19.063 46.9173 19.1017 47.2787 20.3408 47.369C21.5799 47.4594 21.851 47.0592 21.851 47.0592C21.851 47.0592 21.2443 46.4913 21.567 46.3235C21.8897 46.1557 24.7422 46.7108 25.2069 46.9689C25.6586 47.227 25.4521 48.3629 26.9881 48.6081C28.5241 48.8405 30.5892 49.2793 30.9894 49.3697C31.3766 49.46 32.5124 49.9376 33.9581 50.1183C34.4356 50.1828 35.1972 50.6088 36.3846 50.4022C36.8493 50.3248 37.5205 50.0796 37.7399 49.7956C38.4627 48.8792 35.5327 47.9111 35.5327 47.9111L35.9845 47.4465C35.9845 47.4465 37.4688 46.4268 37.5334 46.7108C37.5979 46.9947 38.0497 47.227 38.0497 47.7562C38.0497 48.2725 38.566 47.7046 38.566 47.7046C38.566 47.7046 38.2046 49.4213 38.6176 48.6985C39.0306 47.9757 38.8499 49.2535 38.8499 49.2535L39.3275 49.4084L40.0374 49.8601C40.0374 49.8601 40.1923 49.9892 40.3343 50.3764C40.4892 50.7636 41.4443 51.2412 42.1155 51.2412C42.7867 51.2412 43.0835 51.1509 43.5482 51.0476C43.9999 50.9444 44.7228 50.3764 44.6066 50.0537C44.5033 49.7311 43.8322 48.9953 43.5869 48.6727C43.3546 48.35 42.7608 46.956 42.7608 46.814C42.7608 46.7237 42.6834 45.8072 42.6189 44.9683C42.735 45.1232 42.8254 45.3039 42.8254 45.5362C42.8254 46.0525 43.3417 45.4846 43.3417 45.4846C43.3417 45.4846 42.9803 47.2012 43.3933 46.4784C43.8063 45.7556 43.6256 47.0334 43.6256 47.0334L44.1032 47.1883L44.8131 47.6401C44.8131 47.6401 44.968 47.7691 45.11 48.1564C45.2649 48.5436 46.22 49.0212 46.8912 49.0212C47.5624 49.0212 47.8592 48.9308 48.3239 48.8275C48.7886 48.7243 49.4985 48.1564 49.3823 47.8337C49.279 47.511 48.6079 46.7753 48.3626 46.4526C48.1303 46.1299 47.5366 44.7359 47.5366 44.594C47.5366 44.452 47.3171 41.806 47.2526 41.3929C47.1881 40.9799 46.9299 39.5988 46.9299 39.5988C46.9299 39.5988 46.9041 39.5472 46.8525 39.4568C46.9299 39.3923 47.0461 39.4568 47.201 39.857C47.4591 40.5281 47.4849 39.5472 47.4849 39.2761C47.4849 38.9922 47.8076 38.5404 47.9238 38.8631C48.027 39.1858 48.2335 38.4888 48.2335 38.2306C48.2335 37.9725 48.4917 37.4949 48.7111 37.5336C48.9305 37.5724 48.8789 37.3013 48.866 36.9915C48.8402 36.6947 49.2145 36.6947 49.2145 36.6947L48.8015 35.9331L49.3178 35.8944C49.3178 35.8944 48.8402 35.5975 48.7498 35.12C48.6595 34.6424 49.1371 34.6037 49.1371 34.6037L48.595 33.9583L49.008 33.0032L49.0338 31.777C49.0338 31.777 48.7627 31.4027 49.7179 32.3578C50.0922 32.7321 49.5888 30.667 49.5888 30.667C49.5888 30.667 50.0148 31.2478 50.2858 31.1962C50.6601 31.1187 50.6472 30.9122 50.544 30.2152C50.4407 29.5182 50.3891 28.9116 50.3245 28.7696C50.26 28.6147 50.4407 28.989 50.5956 29.3117C50.7505 29.6344 50.7634 28.2662 50.4923 27.7499C50.2342 27.2336 50.1696 26.7689 50.1696 26.7689L50.4794 26.2268C50.4794 26.2268 50.544 25.6589 50.544 25.4266C50.544 25.1942 50.4536 24.5876 50.4536 24.5876C50.4536 24.5876 50.6214 23.7486 50.7118 24.3036C50.8021 24.8716 50.8795 25.4137 50.9957 24.9748C51.099 24.536 51.1248 23.5679 51.1248 23.5679L51.0861 22.8322C51.0861 22.8322 50.957 22.2901 51.0861 22.5095L51.1119 22.4837Z" fill="url(#paint1_linear_6181_101)"/>
<path fill-rule="evenodd" clip-rule="evenodd" d="M32.5 2.5C15.9315 2.5 2.5 15.9315 2.5 32.5C2.5 49.0685 15.9315 62.5 32.5 62.5C49.0685 62.5 62.5 49.0685 62.5 32.5C62.5 15.9315 49.0685 2.5 32.5 2.5ZM1.5 32.5C1.5 15.3792 15.3792 1.5 32.5 1.5C49.6208 1.5 63.5 15.3792 63.5 32.5C63.5 49.6208 49.6208 63.5 32.5 63.5C15.3792 63.5 1.5 49.6208 1.5 32.5Z" fill="url(#paint2_linear_6181_101)"/>
<path d="M18.9736 31.9194C18.5863 31.9194 18.2378 31.7645 17.9668 31.4805C17.6957 31.1837 17.5538 30.7706 17.5796 30.3447V30.2672C17.244 30.6932 16.8568 30.7577 16.6373 30.7577C16.4437 30.7577 16.263 30.7061 16.0823 30.6028C15.7596 30.435 15.5402 30.1253 15.4628 29.7639C15.437 29.5961 15.437 29.4412 15.4628 29.2863C15.2175 29.4928 14.8949 29.609 14.5722 29.609C14.0946 29.609 13.6428 29.3637 13.3847 28.9636C13.1653 28.6151 13.1136 28.1763 13.2427 27.7761C13.3718 27.3889 13.6557 27.0662 14.043 26.9113C13.5009 26.821 13.0749 26.3563 13.0491 25.7755C13.0491 25.427 13.1653 25.1172 13.3976 24.8849C13.5396 24.7429 13.7074 24.6396 13.8881 24.5751C13.5267 24.4331 13.2427 24.1621 13.0878 23.8136C12.92 23.4264 12.9458 22.9875 13.1395 22.6261C13.3847 22.1614 13.8623 21.8775 14.3786 21.8775C14.6883 21.8775 14.9852 21.9807 15.2304 22.1743C15.1659 21.9936 15.1401 21.8 15.1659 21.6064C15.2175 21.245 15.4241 20.9223 15.7338 20.7287C15.9145 20.6126 16.134 20.548 16.3534 20.548C16.6632 20.548 16.9471 20.6642 17.1665 20.8707C17.102 20.4964 17.1924 20.1092 17.4247 19.7994C17.6828 19.4638 18.0701 19.2573 18.4831 19.2444C18.9478 19.2444 19.335 19.4251 19.5931 19.7349C19.8642 20.0446 19.9803 20.4448 19.9158 20.8449C20.1481 20.5609 20.4837 20.3931 20.8322 20.3931C21.0258 20.3931 21.2323 20.4448 21.4001 20.5351C21.7228 20.7158 21.9422 21.0127 22.0068 21.3741C22.0326 21.529 22.0326 21.6968 22.0068 21.8517C22.2649 21.6451 22.5747 21.5419 22.8974 21.5419C23.3879 21.5419 23.8267 21.7871 24.0849 22.1873C24.3043 22.5358 24.3559 22.9617 24.2268 23.3618C24.0978 23.7619 23.8009 24.0717 23.4266 24.2266C23.9945 24.317 24.4205 24.7945 24.4334 25.3883C24.4334 25.7239 24.3172 26.0336 24.0849 26.266C23.9429 26.4079 23.7751 26.5112 23.5815 26.5757C23.9429 26.7177 24.2268 26.9888 24.3817 27.3373C24.5495 27.7245 24.5237 28.1633 24.3301 28.5247C24.0978 28.9894 23.6202 29.2734 23.091 29.2734C22.7812 29.2734 22.4714 29.1701 22.2391 28.9765C22.3037 29.1572 22.3295 29.3508 22.3037 29.5444C22.2649 29.9058 22.0584 30.2156 21.7486 30.4092C21.555 30.5254 21.3356 30.5899 21.1291 30.5899C20.8193 30.5899 20.5224 30.4608 20.2901 30.2414C20.3676 30.6157 20.2901 31.0288 20.032 31.3515C19.7867 31.687 19.3995 31.8936 18.9736 31.9194Z" fill="#8ABD24"/>
<path d="M18.5858 19.8766C19.0634 19.8766 19.3989 20.3155 19.3215 20.7543C19.2828 20.9996 19.2699 21.0899 19.2441 21.2448C19.2053 21.4771 19.3473 21.6966 19.5796 21.7482C19.5926 21.7482 19.6184 21.7482 19.6313 21.7482C19.6829 21.7482 19.7474 21.774 19.7991 21.7869C19.8378 21.7869 19.8765 21.7998 19.9152 21.7998C20.1088 21.7998 20.2766 21.6708 20.3412 21.4771C20.3412 21.4513 20.3412 21.4384 20.3541 21.4126C20.4186 21.1674 20.651 21.0125 20.8833 21.0125C20.9736 21.0125 21.064 21.0383 21.1543 21.077C21.4641 21.2448 21.5416 21.6578 21.3221 21.916C21.3092 21.9289 21.2963 21.9547 21.2834 21.9676C21.1285 22.1483 21.1543 22.4323 21.335 22.5872C21.3867 22.6388 21.4383 22.6775 21.4899 22.7292C21.5803 22.8066 21.6835 22.8582 21.7997 22.8582C21.9288 22.8582 22.0578 22.8066 22.1353 22.6904C22.2256 22.5872 22.2902 22.4968 22.4322 22.3548C22.5741 22.2258 22.7678 22.1483 22.9485 22.1483C23.1937 22.1483 23.4389 22.2645 23.5938 22.4968C23.852 22.9099 23.6454 23.4262 23.2195 23.5939C23.0259 23.6714 22.9097 23.7101 22.7807 23.7617C22.5483 23.8392 22.4193 24.0844 22.4967 24.3168C22.5225 24.3813 22.5354 24.4587 22.5612 24.5233C22.6129 24.7169 22.7936 24.846 22.9872 24.846C23.0259 24.846 23.0646 24.846 23.0904 24.833C23.1033 24.833 23.1163 24.833 23.1421 24.833C23.1808 24.833 23.2195 24.8201 23.2711 24.8201C23.5551 24.8201 23.8262 25.0396 23.8391 25.3622C23.8391 25.6978 23.5809 25.9431 23.284 25.9431C23.2582 25.9431 23.2195 25.9431 23.1937 25.9431C23.1808 25.9431 23.1679 25.9431 23.155 25.9431C23.1292 25.9431 23.1033 25.9431 23.0775 25.9431C22.871 25.9431 22.6903 26.098 22.6516 26.3045C22.6516 26.3561 22.6258 26.4077 22.6258 26.4594C22.6258 26.4723 22.6258 26.4852 22.6258 26.4981C22.5741 26.7304 22.7161 26.9757 22.9485 27.0273C23.0775 27.0531 23.2066 27.0918 23.3873 27.1435C23.8262 27.2725 24.0714 27.7888 23.8391 28.2148C23.71 28.4858 23.4389 28.6149 23.1679 28.6149C23.0001 28.6149 22.8323 28.5633 22.7032 28.4471C22.5354 28.3051 22.4451 28.2277 22.3289 28.1502C22.2515 28.0857 22.1482 28.0599 22.0578 28.0599C21.9417 28.0599 21.8126 28.1115 21.7352 28.2019C21.6835 28.2535 21.6319 28.318 21.5803 28.3697C21.4125 28.5374 21.4125 28.8085 21.5803 28.9763C21.5803 28.9763 21.5803 28.9892 21.6061 29.0021C21.8384 29.2474 21.8126 29.6604 21.5028 29.854C21.4125 29.9056 21.3221 29.9314 21.2189 29.9314C20.9995 29.9314 20.7929 29.7895 20.6768 29.57C20.6768 29.5442 20.651 29.5313 20.638 29.5055C20.5606 29.3635 20.4057 29.2732 20.2508 29.2732C20.1992 29.2732 20.1605 29.2732 20.1088 29.299C20.0443 29.3248 19.9798 29.3377 19.9281 29.3635C19.6958 29.4281 19.5538 29.6862 19.6313 29.9185C19.67 30.0476 19.7087 30.1638 19.7474 30.3316C19.8636 30.7704 19.5409 31.248 19.0504 31.2609C19.0504 31.2609 19.0246 31.2609 19.0117 31.2609C18.5471 31.2609 18.2373 30.835 18.276 30.3832C18.2889 30.1896 18.3018 30.0476 18.3147 29.8798C18.3276 29.6604 18.1857 29.4668 17.9662 29.4281C17.9662 29.4281 17.9662 29.4281 17.9533 29.4281C17.9017 29.4281 17.8501 29.4022 17.7984 29.3893C17.7597 29.3893 17.721 29.3764 17.6823 29.3764C17.5274 29.3764 17.3725 29.4668 17.295 29.6088C17.2821 29.6346 17.2563 29.6733 17.2434 29.6991C17.0885 29.9573 16.9078 30.1121 16.7013 30.1121C16.6239 30.1121 16.5335 30.0863 16.4561 30.0476C16.1334 29.8798 16.0689 29.4539 16.2883 29.1957C16.4432 29.015 16.4174 28.7311 16.2366 28.5762C16.185 28.5374 16.1463 28.4987 16.0947 28.4471C16.0172 28.3697 15.9011 28.3309 15.7978 28.3309C15.6945 28.3309 15.5913 28.3697 15.5138 28.4342C15.4106 28.5245 15.3202 28.6278 15.1653 28.7569C15.0234 28.8989 14.8298 28.9634 14.6361 28.9634C14.3909 28.9634 14.1457 28.8472 14.0037 28.6149C13.7455 28.2019 13.9391 27.6727 14.378 27.5049C14.5587 27.4403 14.6749 27.4016 14.8039 27.35C15.0234 27.2725 15.1395 27.0273 15.075 26.8079C15.0492 26.7304 15.0363 26.6659 15.0105 26.5884C14.9588 26.3948 14.7781 26.2529 14.5845 26.2529C14.5587 26.2529 14.5329 26.2529 14.52 26.2529C14.5071 26.2529 14.4942 26.2529 14.4683 26.2529H14.4425C14.4038 26.2529 14.3651 26.2658 14.3135 26.2658C14.0295 26.2658 13.7714 26.0463 13.7584 25.7237C13.7584 25.401 14.0166 25.1428 14.3135 25.1428C14.3522 25.1428 14.378 25.1428 14.4167 25.1428C14.4296 25.1428 14.4425 25.1428 14.4554 25.1428C14.4813 25.1428 14.5071 25.1428 14.52 25.1428C14.7265 25.1428 14.9072 25.0008 14.9459 24.7943C14.9459 24.7556 14.9588 24.7298 14.9717 24.6911C14.9717 24.6653 14.9846 24.6394 14.9975 24.6007C15.0621 24.3684 14.9201 24.1231 14.6878 24.0715C14.5587 24.0328 14.4425 24.007 14.236 23.9553C13.7843 23.8263 13.5519 23.31 13.7843 22.884C13.9262 22.613 14.1844 22.4839 14.4554 22.4839C14.6232 22.4839 14.791 22.5355 14.933 22.6517C15.1137 22.8066 15.2041 22.8711 15.346 22.9744C15.4235 23.026 15.5138 23.0518 15.6042 23.0518C15.7204 23.0518 15.8365 23.0002 15.9269 22.9099C15.9785 22.8582 16.0172 22.8066 16.0689 22.755C16.2366 22.5872 16.2496 22.3161 16.0689 22.1354C16.0689 22.1354 16.043 22.1096 16.0301 22.0967C15.7978 21.8515 15.8236 21.4255 16.1463 21.2319C16.2366 21.1803 16.3399 21.1416 16.4303 21.1416C16.6626 21.1416 16.8691 21.2835 16.9595 21.5159C16.9595 21.5417 16.9724 21.5675 16.9853 21.5804C17.0498 21.7482 17.2176 21.8515 17.3983 21.8515C17.4499 21.8515 17.4887 21.8515 17.5403 21.8256C17.6048 21.7998 17.6694 21.7869 17.7339 21.7611C17.8501 21.5417 17.9146 21.4255 18.0308 21.219C17.992 21.077 17.9533 20.9867 17.9017 20.7543C17.7855 20.3026 18.1211 19.8379 18.6116 19.825C18.6116 19.825 18.6374 19.825 18.6503 19.825M18.5858 18.5859H18.4954C17.8759 18.6117 17.308 18.9086 16.9465 19.3991C16.8304 19.554 16.7271 19.7347 16.6626 19.9154C16.5722 19.9025 16.4819 19.8895 16.3786 19.8895C16.0301 19.8895 15.6945 19.9928 15.3977 20.1735C15.0105 20.4058 14.7265 20.7801 14.5974 21.2319C14.5329 21.2319 14.4683 21.2319 14.3909 21.2319C13.6294 21.2319 12.9324 21.6449 12.5839 22.329C12.2999 22.8711 12.2741 23.5036 12.5064 24.0715C12.5839 24.2651 12.6871 24.4329 12.8162 24.5878C12.5452 24.9234 12.4032 25.3493 12.4161 25.7882C12.4419 26.2658 12.6355 26.7046 12.9324 27.0144C12.8033 27.1822 12.7129 27.3758 12.6484 27.5694C12.4548 28.1502 12.5322 28.7827 12.8549 29.299C13.2292 29.8927 13.8746 30.2541 14.5845 30.2541C14.7007 30.2541 14.8168 30.2541 14.933 30.2283C15.0879 30.6413 15.3848 30.9769 15.7849 31.1834C16.0559 31.3254 16.3528 31.4029 16.6497 31.4029C16.7788 31.4029 16.9336 31.39 17.1143 31.3383C17.2047 31.5449 17.3338 31.7385 17.4887 31.9063C17.8759 32.3193 18.3922 32.5516 18.9601 32.5516H19.0504C19.67 32.5258 20.225 32.2289 20.5993 31.7256C20.7155 31.5578 20.8187 31.39 20.8833 31.1964C20.9736 31.2093 21.0769 31.2222 21.1802 31.2222C21.5157 31.2222 21.8384 31.1318 22.1224 30.9511C22.5225 30.693 22.8065 30.3187 22.9355 29.8927C23.0001 29.8927 23.0775 29.8927 23.1421 29.8927C23.9165 29.8927 24.6135 29.4668 24.962 28.7827C25.2331 28.2664 25.2718 27.621 25.0265 27.066C24.9491 26.8724 24.8458 26.7046 24.7168 26.5497C24.9878 26.2141 25.1298 25.7882 25.1169 25.3493C25.1169 24.8718 24.9104 24.4329 24.6006 24.1102C24.7297 23.9424 24.82 23.7488 24.8975 23.5423C25.0911 22.9615 25.0136 22.3419 24.678 21.8256C24.3037 21.2319 23.6584 20.8705 22.9485 20.8705C22.8323 20.8705 22.7161 20.8705 22.6129 20.8963C22.458 20.4962 22.1611 20.1606 21.7739 19.9541C21.4899 19.7992 21.1931 19.7217 20.8833 19.7217C20.7284 19.7217 20.5864 19.7347 20.4444 19.7734C20.367 19.5927 20.2637 19.4249 20.1347 19.2829C19.7474 18.8311 19.1795 18.573 18.5858 18.573V18.5859Z" fill="white"/>
<path d="M17.6184 27.5567C18.317 27.5567 18.8833 26.9904 18.8833 26.2918C18.8833 25.5932 18.317 25.0269 17.6184 25.0269C16.9198 25.0269 16.3535 25.5932 16.3535 26.2918C16.3535 26.9904 16.9198 27.5567 17.6184 27.5567Z" fill="white"/>
<path d="M24.1755 21.0771C25.0523 21.0771 25.7631 20.3663 25.7631 19.4895C25.7631 18.6126 25.0523 17.9019 24.1755 17.9019C23.2987 17.9019 22.5879 18.6126 22.5879 19.4895C22.5879 20.3663 23.2987 21.0771 24.1755 21.0771Z" fill="#8ABD24"/>
<path d="M23.9039 32.9906C24.6453 32.9906 25.2462 32.3896 25.2462 31.6483C25.2462 30.9069 24.6453 30.3059 23.9039 30.3059C23.1625 30.3059 22.5615 30.9069 22.5615 31.6483C22.5615 32.3896 23.1625 32.9906 23.9039 32.9906Z" fill="#8ABD24"/>
<path d="M13.1264 21.0255C13.6325 21.0255 14.0428 20.6152 14.0428 20.109C14.0428 19.6029 13.6325 19.1926 13.1264 19.1926C12.6203 19.1926 12.21 19.6029 12.21 20.109C12.21 20.6152 12.6203 21.0255 13.1264 21.0255Z" fill="#8ABD24"/>
<path fill-rule="evenodd" clip-rule="evenodd" d="M31.1523 27.7101C31.26 27.928 31.1707 28.1919 30.9529 28.2996C28.6575 29.4347 26.5496 31.0496 24.7684 33.1208C24.0966 33.9196 23.4907 34.7406 22.9619 35.5968C22.8342 35.8036 22.5631 35.8677 22.3563 35.74C22.1496 35.6123 22.0855 35.3411 22.2132 35.1344C22.7682 34.2359 23.4008 33.3796 24.0966 32.5525L24.0996 32.5489L24.0996 32.5489C25.958 30.3874 28.1607 28.6987 30.5628 27.5108C30.7806 27.4031 31.0445 27.4923 31.1523 27.7101Z" fill="#8ABD24"/>
<defs>
<linearGradient id="paint0_linear_6181_101" x1="60.8687" y1="53.6276" x2="39.5955" y2="83.9282" gradientUnits="userSpaceOnUse">
<stop stop-color="#CCCCCC"/>
<stop offset="0.26" stop-color="#F2F2F2"/>
</linearGradient>
<linearGradient id="paint1_linear_6181_101" x1="10.015" y1="53.9776" x2="63.7611" y2="14.3521" gradientUnits="userSpaceOnUse">
<stop stop-color="#ABACAC"/>
<stop offset="0.17" stop-color="#E6E6E6"/>
<stop offset="0.32" stop-color="#ABACAC"/>
<stop offset="0.47" stop-color="#ABACAC"/>
<stop offset="0.6" stop-color="#E6E6E6"/>
<stop offset="0.69" stop-color="#D9DADA"/>
<stop offset="0.78" stop-color="#D9DADA"/>
<stop offset="0.9" stop-color="#ABACAC"/>
<stop offset="1" stop-color="#666666"/>
</linearGradient>
<linearGradient id="paint2_linear_6181_101" x1="1.35463" y1="32.5" x2="63.6583" y2="32.5" gradientUnits="userSpaceOnUse">
<stop stop-color="#D9DADA"/>
<stop offset="0.08" stop-color="#ABACAC"/>
<stop offset="0.17" stop-color="white"/>
<stop offset="0.32" stop-color="#ABACAC"/>
<stop offset="0.47" stop-color="#ABACAC"/>
<stop offset="0.6" stop-color="white"/>
<stop offset="0.69" stop-color="#D9DADA"/>
<stop offset="0.86" stop-color="#ABACAC"/>
<stop offset="1" stop-color="#D9DADA"/>
</linearGradient>
</defs>
</svg>
