<svg width="65" height="65" viewBox="0 0 65 65" fill="none" xmlns="http://www.w3.org/2000/svg">
<path d="M32.5 63C49.3447 63 63 49.3447 63 32.5C63 15.6553 49.3447 2 32.5 2C15.6553 2 2 15.6553 2 32.5C2 49.3447 15.6553 63 32.5 63Z" fill="white"/>
<path fill-rule="evenodd" clip-rule="evenodd" d="M32.5 2.5C15.9315 2.5 2.5 15.9315 2.5 32.5C2.5 49.0685 15.9315 62.5 32.5 62.5C49.0685 62.5 62.5 49.0685 62.5 32.5C62.5 15.9315 49.0685 2.5 32.5 2.5ZM1.5 32.5C1.5 15.3792 15.3792 1.5 32.5 1.5C49.6208 1.5 63.5 15.3792 63.5 32.5C63.5 49.6208 49.6208 63.5 32.5 63.5C15.3792 63.5 1.5 49.6208 1.5 32.5Z" fill="url(#paint0_linear_6183_2676)"/>
<path d="M32.4072 52.4411C33.2544 52.4411 34.086 52.1901 34.7763 51.7037C47.1238 43.3099 49.5713 29.0954 49.9949 21.9725L32.4072 13.7983V52.4254V52.4411Z" fill="#CE7367"/>
<path fill-rule="evenodd" clip-rule="evenodd" d="M32.3906 13.2471L50.4975 21.6625L50.4773 22.0022C50.0512 29.1664 47.5879 43.5854 35.0441 52.1149C34.266 52.662 33.3342 52.9411 32.3905 52.9411C31.4429 52.9411 30.5308 52.66 29.744 52.1355L29.5214 51.987V51.9672C17.1336 43.4046 14.7116 29.1253 14.3036 22.0011L14.2842 21.6623L14.5919 21.5192C18.8751 19.5266 23.2722 17.483 26.5983 15.9376C28.2614 15.1649 29.6568 14.5167 30.6364 14.0617L32.1795 13.3451C32.1796 13.3451 32.1799 13.3449 32.3905 13.7984L32.1795 13.3451L32.3906 13.2471ZM32.3904 14.3497L31.0577 14.9687C30.0781 15.4237 28.6827 16.0718 27.0197 16.8445C23.7735 18.3527 19.5074 20.3355 15.3225 22.2822C15.7856 29.4614 18.314 43.146 30.3024 51.2901L30.5214 51.4389V51.4413C31.0924 51.7688 31.7308 51.9411 32.3905 51.9411C33.1398 51.9411 33.8697 51.7191 34.4716 51.295L34.4784 51.2902C46.4356 43.1618 48.9791 29.463 49.4577 22.282L32.3904 14.3497Z" fill="url(#paint1_linear_6183_2676)"/>
<path d="M21.9577 42.3526C21.1105 42.3526 20.3888 41.6937 20.2633 40.8151V40.7209C19.871 41.5054 19.2435 41.5995 18.9767 41.5995C18.8355 41.5995 18.71 41.5838 18.5688 41.5368C18.1452 41.4113 17.8 41.1132 17.6118 40.7052C17.5333 40.517 17.4863 40.3287 17.4863 40.1247C17.1725 40.5327 16.6704 40.7837 16.137 40.7837C15.682 40.7837 15.2584 40.6111 14.9446 40.2816C14.5837 39.9208 14.4112 39.4187 14.4582 38.9167C14.5053 38.4146 14.772 37.9753 15.1799 37.6772C15.1485 37.6772 15.1329 37.6772 15.1015 37.6772C14.4425 37.6772 13.8777 37.2379 13.6894 36.5946C13.5796 36.1397 13.6738 35.6847 13.9405 35.3238C14.0503 35.1669 14.2072 35.0414 14.3641 34.9473C13.8934 34.8845 13.4855 34.6335 13.2188 34.2569C12.9207 33.849 12.8265 33.3156 12.9677 32.8292C13.1717 32.0918 13.8463 31.5741 14.6151 31.5741C14.8661 31.5741 15.1015 31.6211 15.3211 31.731C15.1956 31.527 15.1172 31.3074 15.0858 31.072C15.0387 30.6327 15.2113 30.1934 15.5251 29.8796C15.7918 29.6129 16.1527 29.4717 16.5292 29.4717C16.7959 29.4717 17.047 29.5345 17.2666 29.66C17.094 29.2364 17.094 28.75 17.298 28.3264C17.5019 27.8557 17.9099 27.5105 18.4119 27.385C18.5531 27.338 18.71 27.3223 18.8512 27.3223C19.7298 27.3223 20.4829 28.0126 20.5457 28.8912C20.7967 28.3891 21.2831 28.0754 21.8479 28.0754C21.9734 28.0754 22.1146 28.091 22.2401 28.1381C22.6637 28.2636 23.0089 28.5617 23.1815 28.9696C23.2599 29.1579 23.307 29.3462 23.307 29.5345C23.6365 29.1265 24.1228 28.8912 24.6563 28.8912C25.1113 28.8912 25.5349 29.0638 25.8487 29.3933C26.2095 29.7541 26.3821 30.2405 26.335 30.7425C26.288 31.2446 26.0212 31.6996 25.6133 31.982C25.6447 31.982 25.6604 31.982 25.6918 31.982C26.3664 31.982 26.9469 32.437 27.1195 33.0802C27.2293 33.5039 27.1352 33.9588 26.8841 34.304C26.7586 34.4609 26.6174 34.6021 26.4448 34.6962C26.9155 34.759 27.3235 35.01 27.5902 35.3866C27.8883 35.7945 27.9824 36.3279 27.8412 36.8143C27.6529 37.5517 26.9783 38.0694 26.1938 38.0694C25.9428 38.0694 25.6918 38.0067 25.4721 37.9125C25.5976 38.1008 25.6761 38.3205 25.7075 38.5558C25.7545 38.9951 25.5976 39.4187 25.2838 39.7325C25.0014 39.9992 24.6563 40.1404 24.2797 40.1404C24.013 40.1404 23.7463 40.062 23.4953 39.9208C23.6835 40.3444 23.6992 40.8464 23.4953 41.3014C23.2913 41.7721 22.8834 42.1173 22.397 42.2428C22.2558 42.2899 22.0989 42.3056 21.9577 42.3056V42.3526Z" fill="#AE1022"/>
<path d="M18.8502 28.1224C19.3209 28.1224 19.7288 28.5146 19.7602 28.9853C19.7602 29.2834 19.7916 29.3932 19.7916 29.5972C19.7916 29.8796 20.0426 30.0993 20.325 30.0993C20.3407 30.0993 20.3721 30.0993 20.3878 30.0993C20.4505 30.0993 20.529 30.0993 20.5917 30.0993C20.5917 30.0993 20.5917 30.0993 20.6074 30.0993C20.8898 30.0993 21.1252 29.8796 21.1408 29.5972C21.1408 29.5658 21.1408 29.5501 21.1408 29.5188C21.1565 29.1579 21.4546 28.8755 21.8155 28.8755C21.8782 28.8755 21.941 28.8755 22.0038 28.9069C22.4274 29.0324 22.6156 29.4874 22.4274 29.8639C22.4274 29.8953 22.396 29.911 22.396 29.9267C22.2548 30.1934 22.3646 30.5072 22.6156 30.6484C22.6941 30.6955 22.7725 30.7268 22.8353 30.7739C22.9294 30.821 23.0236 30.8523 23.1177 30.8523C23.306 30.8523 23.5099 30.7425 23.6041 30.5542C23.6825 30.413 23.7453 30.2718 23.8708 30.0836C24.0434 29.8325 24.3415 29.6913 24.6396 29.6913C24.8749 29.6913 25.1102 29.7698 25.2828 29.9581C25.7064 30.3817 25.5966 31.0563 25.1416 31.3544C24.9377 31.4956 24.8121 31.5897 24.6552 31.6682C24.4042 31.8251 24.3258 32.1546 24.467 32.4056C24.514 32.484 24.5611 32.5625 24.5925 32.6409C24.6866 32.8135 24.8749 32.9233 25.0632 32.9233C25.1416 32.9233 25.2357 32.9076 25.3142 32.8606C25.3299 32.8606 25.3456 32.8449 25.3613 32.8292C25.4554 32.7821 25.5495 32.7664 25.6594 32.7664C25.9575 32.7664 26.2399 32.9547 26.3183 33.2842C26.4281 33.7078 26.1143 34.1157 25.6907 34.1314C25.675 34.1314 25.6594 34.1314 25.6437 34.1314C25.3456 34.1471 25.1259 34.3981 25.1416 34.6805C25.1416 34.7433 25.1416 34.806 25.1416 34.8688C25.1416 34.8845 25.1416 34.9002 25.1416 34.9159C25.1416 35.214 25.377 35.4493 25.675 35.4493C25.8476 35.4493 26.0045 35.4493 26.2242 35.465C26.789 35.4964 27.2126 36.0455 27.0557 36.6103C26.9459 37.0339 26.5693 37.285 26.1771 37.285C26.0359 37.285 25.9104 37.2536 25.7849 37.1908C25.5495 37.0653 25.424 37.0025 25.2671 36.9398C25.1887 36.9084 25.1102 36.8927 25.0475 36.8927C24.8592 36.8927 24.6709 36.9869 24.5768 37.1594C24.5297 37.2379 24.4827 37.3163 24.4356 37.3948C24.2787 37.6458 24.3571 37.9596 24.5925 38.1165C24.5925 38.1165 24.6082 38.1165 24.6239 38.1322C24.969 38.3675 25.0475 38.8696 24.7337 39.1677C24.5925 39.2932 24.4513 39.3559 24.2944 39.3559C24.0747 39.3559 23.8551 39.2461 23.6825 39.0578C23.6668 39.0265 23.6354 39.0108 23.6198 38.9951C23.5099 38.8696 23.3687 38.8068 23.2118 38.8068C23.1177 38.8068 23.0236 38.8382 22.9294 38.8853C22.8667 38.9323 22.7882 38.9637 22.7255 39.0108C22.4587 39.152 22.3803 39.4815 22.5215 39.7482C22.5999 39.8894 22.6784 40.0149 22.7725 40.2032C23.0236 40.6895 22.7725 41.3485 22.192 41.4897C22.1136 41.5054 22.0351 41.5211 21.9567 41.5211C21.486 41.5211 21.1095 41.1288 21.0467 40.6582C21.0153 40.4228 20.9839 40.2502 20.9526 40.062C20.9055 39.7952 20.6859 39.607 20.4191 39.607C20.4191 39.607 20.4191 39.607 20.4034 39.607C20.3407 39.607 20.2779 39.607 20.2152 39.607C20.2152 39.607 20.2152 39.607 20.1995 39.607C19.9641 39.607 19.7445 39.7639 19.6817 39.9992C19.6817 40.0306 19.666 40.0777 19.6504 40.1247C19.5248 40.517 19.3052 40.768 18.9914 40.768C18.9286 40.768 18.8659 40.768 18.8031 40.7366C18.3795 40.6111 18.1756 40.1404 18.3795 39.7639C18.5207 39.4972 18.4109 39.1834 18.1599 39.0422C18.0971 39.0108 18.0344 38.9637 17.9716 38.9323C17.8932 38.8853 17.799 38.8539 17.7049 38.8539C17.5323 38.8539 17.3754 38.9323 17.2656 39.0735C17.1558 39.2147 17.0773 39.3559 16.9518 39.5442C16.7792 39.8109 16.4811 39.9521 16.183 39.9521C15.9477 39.9521 15.728 39.8737 15.5398 39.6854C15.1162 39.2618 15.2103 38.5872 15.681 38.2734C15.8692 38.1479 16.0104 38.0694 16.1516 37.9753C16.387 37.8184 16.4654 37.5046 16.3242 37.2536C16.2772 37.1751 16.2301 37.0967 16.183 37.0182C16.0889 36.83 15.9006 36.7201 15.7123 36.7201C15.6496 36.7201 15.5868 36.7201 15.5241 36.7515C15.5084 36.7515 15.4927 36.7515 15.477 36.7672C15.477 36.7672 15.4613 36.7672 15.4456 36.7672C15.3515 36.8143 15.2574 36.83 15.1632 36.83C14.8808 36.83 14.5984 36.6417 14.5043 36.3279C14.3944 35.9043 14.7239 35.4964 15.1318 35.4807C15.1475 35.4807 15.1632 35.4807 15.1789 35.4807C15.4613 35.465 15.681 35.214 15.681 34.9316C15.681 34.8845 15.681 34.8531 15.681 34.806C15.681 34.7747 15.681 34.7433 15.681 34.6962C15.681 34.3981 15.4613 34.1628 15.1632 34.1471C14.9906 34.1471 14.8651 34.1471 14.5984 34.1314C14.0336 34.1 13.61 33.5509 13.7669 32.9861C13.8767 32.5625 14.2689 32.3114 14.6612 32.3114C14.8024 32.3114 14.9436 32.3428 15.0691 32.4056C15.3201 32.5311 15.4613 32.5939 15.6339 32.6723C15.6967 32.7037 15.7751 32.7194 15.8379 32.7194C16.0261 32.7194 16.1987 32.6252 16.2928 32.4527C16.3399 32.3742 16.3713 32.3114 16.4184 32.233C16.5753 31.982 16.5125 31.6525 16.2615 31.4956C16.2458 31.4956 16.2301 31.4799 16.2144 31.4642C15.8692 31.2289 15.7908 30.7268 16.1203 30.413C16.2458 30.2875 16.4184 30.2248 16.5909 30.2248C16.8106 30.2248 17.0459 30.3346 17.1714 30.5386C17.1871 30.5699 17.2028 30.5856 17.2185 30.617C17.3283 30.7739 17.4852 30.8523 17.6578 30.8523C17.752 30.8523 17.8461 30.821 17.9402 30.7739C18.003 30.7268 18.0814 30.6955 18.1442 30.6484C18.2226 30.366 18.2697 30.2091 18.3481 29.911C18.2697 29.7541 18.1913 29.66 18.0657 29.4089C17.8147 28.9069 18.0657 28.2636 18.6462 28.1224C18.7247 28.1067 18.8031 28.091 18.8816 28.091M18.8502 26.5535C18.6306 26.5535 18.4109 26.5849 18.2069 26.6476C17.4852 26.8516 16.889 27.3536 16.5909 28.0283C16.4968 28.2479 16.4341 28.4833 16.387 28.7186C15.8535 28.75 15.3515 28.9853 14.9749 29.3619C14.5827 29.7384 14.3474 30.2718 14.316 30.821C13.3276 30.9465 12.4803 31.6525 12.2136 32.6409C12.0254 33.3626 12.1509 34.1314 12.5902 34.7276C12.7314 34.9316 12.904 35.1041 13.0922 35.2453C12.8569 35.716 12.8098 36.2495 12.9353 36.7829C13.0922 37.3477 13.4374 37.8027 13.8767 38.1008C13.7826 38.3361 13.7041 38.5872 13.6884 38.8382C13.61 39.5756 13.8767 40.313 14.4101 40.8307C14.8808 41.3014 15.4927 41.5524 16.1673 41.5524C16.4968 41.5524 16.8263 41.4897 17.1244 41.3642C17.4225 41.8035 17.8618 42.1329 18.3952 42.2742C18.5992 42.3369 18.8031 42.3683 19.0071 42.3683C19.3679 42.3683 19.7131 42.2742 20.0112 42.1173C20.4662 42.7291 21.1879 43.1214 21.9881 43.1214C22.2077 43.1214 22.4274 43.09 22.6313 43.0272C23.353 42.839 23.9492 42.3212 24.2473 41.6309C24.3415 41.4112 24.4199 41.1759 24.4356 40.9249C24.9533 40.8935 25.4554 40.6738 25.8476 40.2973C26.2556 39.8894 26.4909 39.3716 26.5223 38.8225C27.5264 38.697 28.3736 37.9753 28.6246 36.9712C28.8129 36.2808 28.6717 35.5121 28.2481 34.9159C28.1069 34.7119 27.9343 34.5393 27.746 34.3981C27.9814 33.9274 28.0284 33.394 27.9029 32.8606C27.7617 32.2958 27.4166 31.8251 26.9616 31.527C27.0557 31.2916 27.1342 31.0406 27.1498 30.7739C27.2126 30.0365 26.9616 29.3148 26.4438 28.797C25.9731 28.3264 25.3456 28.0753 24.6866 28.0753C24.3571 28.0753 24.0277 28.1381 23.7296 28.2636C23.4315 27.8243 22.9922 27.5105 22.4901 27.3693C22.2862 27.3066 22.0822 27.2909 21.8782 27.2909C21.5174 27.2909 21.1722 27.3693 20.8741 27.5262C20.4191 26.9143 19.6974 26.5221 18.8973 26.5221L18.8502 26.5535Z" fill="white"/>
<path d="M19.227 37.5515C20.0762 37.5515 20.7646 36.8632 20.7646 36.014C20.7646 35.1648 20.0762 34.4764 19.227 34.4764C18.3778 34.4764 17.6895 35.1648 17.6895 36.014C17.6895 36.8632 18.3778 37.5515 19.227 37.5515Z" fill="white"/>
<path d="M25.1876 28.1225C26.2534 28.1225 27.1174 27.2585 27.1174 26.1927C27.1174 25.1269 26.2534 24.2629 25.1876 24.2629C24.1218 24.2629 23.2578 25.1269 23.2578 26.1927C23.2578 27.2585 24.1218 28.1225 25.1876 28.1225Z" fill="#AE1022"/>
<path d="M18.7723 45.8358C19.6735 45.8358 20.404 45.1052 20.404 44.2041C20.404 43.3029 19.6735 42.5724 18.7723 42.5724C17.8712 42.5724 17.1406 43.3029 17.1406 44.2041C17.1406 45.1052 17.8712 45.8358 18.7723 45.8358Z" fill="#AE1022"/>
<path d="M12.2604 30.9936C12.8756 30.9936 13.3744 30.4949 13.3744 29.8797C13.3744 29.2645 12.8756 28.7657 12.2604 28.7657C11.6452 28.7657 11.1465 29.2645 11.1465 29.8797C11.1465 30.4949 11.6452 30.9936 12.2604 30.9936Z" fill="#AE1022"/>
<defs>
<linearGradient id="paint0_linear_6183_2676" x1="1.21554" y1="32.5" x2="63.7845" y2="32.5" gradientUnits="userSpaceOnUse">
<stop stop-color="#D9DADA"/>
<stop offset="0.08" stop-color="#ABACAC"/>
<stop offset="0.17" stop-color="white"/>
<stop offset="0.32" stop-color="#ABACAC"/>
<stop offset="0.47" stop-color="#ABACAC"/>
<stop offset="0.6" stop-color="white"/>
<stop offset="0.69" stop-color="#D9DADA"/>
<stop offset="0.86" stop-color="#ABACAC"/>
<stop offset="1" stop-color="#D9DADA"/>
</linearGradient>
<linearGradient id="paint1_linear_6183_2676" x1="13.9869" y1="33.0962" x2="50.8097" y2="33.0962" gradientUnits="userSpaceOnUse">
<stop stop-color="#ABACAC"/>
<stop offset="0.17" stop-color="white"/>
<stop offset="0.32" stop-color="#ABACAC"/>
<stop offset="0.47" stop-color="#ABACAC"/>
<stop offset="0.6" stop-color="white"/>
<stop offset="0.69" stop-color="#D9DADA"/>
<stop offset="0.78" stop-color="#D9DADA"/>
<stop offset="0.9" stop-color="#ABACAC"/>
<stop offset="1" stop-color="#666666"/>
</linearGradient>
</defs>
</svg>
