<svg width="65" height="65" viewBox="0 0 65 65" fill="none" xmlns="http://www.w3.org/2000/svg">
<path d="M32.5 62.5C49.0686 62.5 62.5 49.0685 62.5 32.5C62.5 15.9315 49.0686 2.5 32.5 2.5C15.9315 2.5 2.5 15.9315 2.5 32.5C2.5 49.0685 15.9315 62.5 32.5 62.5Z" fill="white"/>
<path fill-rule="evenodd" clip-rule="evenodd" d="M32.5 3C16.2076 3 3 16.2076 3 32.5C3 48.7924 16.2076 62 32.5 62C48.7924 62 62 48.7924 62 32.5C62 16.2076 48.7924 3 32.5 3ZM2 32.5C2 15.6553 15.6553 2 32.5 2C49.3447 2 63 15.6553 63 32.5C63 49.3447 49.3447 63 32.5 63C15.6553 63 2 49.3447 2 32.5Z" fill="url(#paint0_linear_6183_2888)"/>
<mask id="mask0_6183_2888" style="mask-type:luminance" maskUnits="userSpaceOnUse" x="6" y="6" width="53" height="53">
<path d="M32.4998 58.8426C47.0484 58.8426 58.8424 47.0486 58.8424 32.5C58.8424 17.9514 47.0484 6.15741 32.4998 6.15741C17.9512 6.15741 6.15723 17.9514 6.15723 32.5C6.15723 47.0486 17.9512 58.8426 32.4998 58.8426Z" fill="white"/>
</mask>
<g mask="url(#mask0_6183_2888)">
<path d="M50.6635 20.8951L53.0554 19.8148L52.3301 27.037L46.4505 22.7932L48.9042 21.6975C48.9042 21.6975 40.6789 8.22531 25.5246 13.7654L26.8517 16.1883L19.5986 16.0031L23.3795 9.81482L24.6449 12.1451C41.5585 6.09568 50.648 20.8951 50.648 20.8951H50.6635Z" fill="#0D316E"/>
<path d="M36.4032 27.5926L36.2951 27.2376L36.4649 26.9136C37.3445 25.2778 38.5019 24.3055 39.9063 24.0586C42.2674 23.642 44.3507 25.4784 44.4433 25.5555L44.5822 25.7253C47.7921 30.5247 55.2766 33.3025 59.1038 34.4599C59.0884 34.8148 59.0575 35.1697 59.0266 35.5401C59.0112 35.787 58.9649 36.0185 58.934 36.25C55.0452 35.1234 46.8661 32.2068 43.1779 26.8055C42.8538 26.5432 41.5112 25.5555 40.184 25.787C39.4124 25.9259 38.7334 26.4815 38.147 27.4383C38.6408 29.3827 40.2921 38.1636 32.468 46.1728C32.4988 46.7901 32.684 48.179 33.6408 48.9043C34.4742 49.537 35.7859 49.5833 37.576 48.9969C37.8229 48.9197 43.4248 47.3611 52.684 50.2932C52.2519 50.787 51.8044 51.2654 51.3414 51.7284C43.1316 49.3364 38.1316 50.679 38.1007 50.679C36.8816 51.0802 35.7859 51.2346 34.8291 51.142C33.9649 51.0648 33.2087 50.787 32.5914 50.3086C30.6007 48.7963 30.7242 45.9105 30.7242 45.787V45.4475L30.9865 45.2006C39.1964 37.037 36.4186 27.6852 36.3877 27.5926H36.4032Z" fill="url(#paint1_linear_6183_2888)"/>
<path d="M33.6719 48.9197C32.7151 48.1944 32.5299 46.8055 32.499 46.1882C40.3231 38.179 38.6719 29.3981 38.178 27.4537C38.749 26.4969 39.4435 25.9413 40.2151 25.8024C41.5422 25.5709 42.8848 26.5586 43.2089 26.8209C43.3787 27.0679 43.5484 27.2993 43.7336 27.5308C43.6564 27.5308 43.5793 27.5154 43.4867 27.5C42.6688 27.4228 42.0361 27.5463 41.7891 27.8395C41.5577 28.1172 41.604 28.6265 41.6966 28.9969V29.1203C41.7428 29.5833 42.3447 40.571 35.9095 46.1728C35.7706 46.2963 35.2614 46.8673 35.3694 47.3611C35.4774 47.8858 36.5885 48.5185 37.854 48.9352C37.7151 48.966 37.607 48.9969 37.5762 48.9969C35.8015 49.5833 34.4743 49.537 33.641 48.9043L33.6719 48.9197Z" fill="#7E85B0"/>
<path d="M20.7863 39.1204L20.848 39.0278C27.3912 31.0339 22.9313 23.9197 22.7307 23.6265C22.7307 23.6265 21.635 21.6975 20.6628 21.3889C21.8511 20.9877 23.1628 20.571 23.5949 20.6944C24.7986 21.0494 25.4313 21.5123 25.8017 22.2994C26.2647 23.287 28.3171 30.7716 27.3603 33.966C26.2338 37.716 22.2832 43.1018 21.0023 43.1018C19.243 43.1018 18.7029 43.0247 16.8202 41.1574C16.6505 40.9876 16.4498 40.8179 16.2646 40.6481L16.8048 40.679C19.6134 40.9414 20.74 39.1512 20.7863 39.0895V39.1204Z" fill="#7E85B0"/>
<path d="M23.5952 48.0247C23.765 48.0402 23.9502 48.0247 24.1045 47.9321C28.6878 45.6328 32.2989 40.5093 33.5335 34.568C34.6755 29.0278 33.2403 24.3519 32.2989 22.0525C32.0983 21.5587 31.5428 21.3426 31.0489 21.5433C30.5705 21.7439 30.3391 22.2994 30.5397 22.7933C31.4039 24.8766 32.7156 29.1359 31.6816 34.1821C30.586 39.4754 27.2835 44.1976 23.2711 46.2192C22.8082 46.4507 22.6076 47.0217 22.8545 47.5001C23.0088 47.8087 23.302 47.9939 23.6107 48.0247H23.5952Z" fill="#0D316E"/>
<path d="M27.4069 21.5741C26.6353 19.9383 25.1538 19.3364 24.1044 19.0278C23.1013 18.7346 21.5736 19.213 19.1816 20.0617C18.1785 20.4167 17.1445 20.7716 16.3421 20.9568C15.2927 21.2037 11.1878 20.4321 8.71862 19.9074L7.97788 21.6049C10.4779 22.1451 15.231 23.0092 16.7279 22.6543C17.6229 22.4537 18.7032 22.0679 19.7526 21.6975C21.0643 21.2346 23.055 20.5401 23.5952 20.6944C24.7989 21.0494 25.4316 21.5123 25.802 22.2994C26.2649 23.287 28.3174 30.7716 27.3606 33.966C26.2341 37.716 22.2834 43.1018 21.0026 43.1018C19.2433 43.1018 18.7032 43.0247 16.8205 41.1574C14.66 39.0432 11.1415 37.3611 9.93775 37.0988C9.49022 36.9907 6.75874 36.3271 5.81738 36.1111C5.89454 36.6204 6.018 37.2531 6.23405 38.0092C6.8822 38.1636 9.22788 38.7346 9.55195 38.8117C10.447 39.0123 13.6569 40.5247 15.5859 42.4228C17.3297 44.1512 18.2711 44.6759 19.7834 44.8148C20.1538 44.8457 20.5396 44.8611 21.0026 44.8611C23.8112 44.8457 28.0087 37.9167 29.0273 34.4753C30.1538 30.7253 27.9316 22.7315 27.376 21.5586L27.4069 21.5741Z" fill="url(#paint2_linear_6183_2888)"/>
</g>
<defs>
<linearGradient id="paint0_linear_6183_2888" x1="1.7284" y1="32.5" x2="63.2716" y2="32.5" gradientUnits="userSpaceOnUse">
<stop stop-color="#D9DADA"/>
<stop offset="0.08" stop-color="#ABACAC"/>
<stop offset="0.17" stop-color="white"/>
<stop offset="0.32" stop-color="#ABACAC"/>
<stop offset="0.47" stop-color="#ABACAC"/>
<stop offset="0.6" stop-color="white"/>
<stop offset="0.69" stop-color="#D9DADA"/>
<stop offset="0.86" stop-color="#ABACAC"/>
<stop offset="1" stop-color="#D9DADA"/>
</linearGradient>
<linearGradient id="paint1_linear_6183_2888" x1="31.5379" y1="37.0039" x2="58.6586" y2="39.5246" gradientUnits="userSpaceOnUse">
<stop stop-color="#9E9E9E"/>
<stop offset="0.17" stop-color="#E6E6E6"/>
<stop offset="0.32" stop-color="#9E9E9E"/>
<stop offset="0.47" stop-color="#9E9E9E"/>
<stop offset="0.6" stop-color="#E6E6E6"/>
<stop offset="0.69" stop-color="#D9D9D9"/>
<stop offset="0.78" stop-color="#D9D9D9"/>
<stop offset="0.9" stop-color="#9E9E9E"/>
<stop offset="1" stop-color="#666666"/>
</linearGradient>
<linearGradient id="paint2_linear_6183_2888" x1="6.3553" y1="30.4787" x2="29.3426" y2="32.6152" gradientUnits="userSpaceOnUse">
<stop stop-color="#9E9E9E"/>
<stop offset="0.17" stop-color="#E6E6E6"/>
<stop offset="0.32" stop-color="#9E9E9E"/>
<stop offset="0.47" stop-color="#9E9E9E"/>
<stop offset="0.6" stop-color="#E6E6E6"/>
<stop offset="0.69" stop-color="#D9D9D9"/>
<stop offset="0.78" stop-color="#D9D9D9"/>
<stop offset="0.9" stop-color="#9E9E9E"/>
<stop offset="1" stop-color="#666666"/>
</linearGradient>
</defs>
</svg>
