<svg width="65" height="65" viewBox="0 0 65 65" fill="none" xmlns="http://www.w3.org/2000/svg">
<path d="M32.5 63C49.3447 63 63 49.3447 63 32.5C63 15.6553 49.3447 2 32.5 2C15.6553 2 2 15.6553 2 32.5C2 49.3447 15.6553 63 32.5 63Z" fill="white"/>
<path fill-rule="evenodd" clip-rule="evenodd" d="M32.5 2.5C15.9315 2.5 2.5 15.9315 2.5 32.5C2.5 49.0685 15.9315 62.5 32.5 62.5C49.0685 62.5 62.5 49.0685 62.5 32.5C62.5 15.9315 49.0685 2.5 32.5 2.5ZM1.5 32.5C1.5 15.3792 15.3792 1.5 32.5 1.5C49.6208 1.5 63.5 15.3792 63.5 32.5C63.5 49.6208 49.6208 63.5 32.5 63.5C15.3792 63.5 1.5 49.6208 1.5 32.5Z" fill="url(#paint0_linear_6181_50)"/>
<mask id="mask0_6181_50" style="mask-type:luminance" maskUnits="userSpaceOnUse" x="7" y="7" width="51" height="51">
<path d="M32.5002 57.038C46.2081 57.038 57.3206 46.052 57.3206 32.5C57.3206 18.948 46.2081 7.96191 32.5002 7.96191C18.7922 7.96191 7.67969 18.948 7.67969 32.5C7.67969 46.052 18.7922 57.038 32.5002 57.038Z" fill="white"/>
</mask>
<g mask="url(#mask0_6181_50)">
<path d="M4.72948 34.8377C9.49902 33.253 13.8293 33.5511 22.0034 35.4025C32.8761 37.8657 37.5515 37.4264 46.0708 34.5239C49.444 33.3785 50.3853 32.2489 54.794 29.9269C56.1276 29.2209 57.8535 28.6404 59.9872 28.3737C62.8113 28.0128 55.6256 49.3973 55.6256 49.3973H10.1109C10.1109 49.3973 3.70967 35.1828 4.74517 34.8377H4.72948Z" fill="#BED783"/>
<path d="M7.55298 42.1486C11.0831 41.725 15.0054 42.2428 20.9673 43.5921C31.84 46.0553 36.5154 45.616 45.0347 42.7134C48.4079 41.5681 49.3493 40.4385 53.758 38.1165C55.2955 37.3006 57.3822 36.6574 60.0023 36.4534C62.6224 36.2495 52.3459 53.8529 52.3459 53.8529H11.3812C11.3812 53.8529 5.19958 42.4467 7.55298 42.1486Z" fill="white"/>
<path d="M5.05957 33.9746C9.79774 32.4214 14.1123 32.7351 22.2237 34.5708C33.0964 37.034 37.7718 36.5947 46.2911 33.6922C49.6643 32.5469 50.6056 31.4172 55.0143 29.0952C55.9557 28.5932 57.0853 28.1696 58.2934 27.8401" stroke="url(#paint1_linear_6181_50)" stroke-width="1.41" stroke-linecap="round" stroke-linejoin="round"/>
</g>
<path d="M41.0348 21.7215C40.1562 21.847 39.6698 22.349 39.4188 22.9766C38.4774 21.3135 35.9044 18.6621 33.598 17.6736C31.2446 16.6695 30.0209 20.1212 28.1225 23.7925C27.1497 25.6752 26.0829 26.491 23.5098 26.4439C20.9525 26.3969 20.9995 29.7701 21.8781 32.2804C22.0664 32.8138 22.4273 33.2374 22.8979 33.5826C22.8979 33.5826 24.0276 37.4892 23.9648 40.0936C23.9177 42.6981 24.8905 48.0481 25.0944 49.1621C25.2984 50.276 27.7616 55.5319 29.7698 49.2562C31.7624 42.9805 33.551 35.23 34.7434 38.462C35.9201 41.694 37.0026 44.0473 37.0968 45.3025C37.2066 46.5576 37.8028 49.8367 38.1322 51.6253C38.4303 53.2883 38.7912 54.0728 40.0307 54.1356C41.2544 54.1826 42.133 52.4411 42.7449 49.3503C43.3568 46.2595 43.8745 43.0432 44.2354 40.8624C44.5962 38.6973 44.7531 35.3084 44.4864 33.7709H44.4707C45.4121 32.4843 45.8514 30.2878 45.8671 27.7932C45.9141 23.6042 43.1058 21.4234 41.0505 21.7215H41.0348Z" fill="white"/>
<path fill-rule="evenodd" clip-rule="evenodd" d="M31.5662 16.7969C32.3193 16.4171 33.1462 16.3936 33.9905 16.7538L33.9919 16.7545C35.2955 17.3131 36.6138 18.3093 37.7081 19.3463C38.3721 19.9755 38.9832 20.648 39.4806 21.2906C39.8556 21.0128 40.3228 20.813 40.8933 20.7315C40.9169 20.7281 40.9405 20.7256 40.9642 20.7239C43.8158 20.3548 46.9171 23.2576 46.867 27.8022C46.852 30.1519 46.4767 32.4318 45.5275 33.9874C45.6289 34.8418 45.6399 35.9794 45.5955 37.1202C45.5433 38.4613 45.4107 39.8925 45.222 41.0256C45.1835 41.2583 45.1431 41.503 45.101 41.7585C44.7497 43.8906 44.2756 46.7673 43.7258 49.5445C43.4134 51.1225 43.017 52.4505 42.4932 53.4019C41.9842 54.3266 41.1824 55.1806 39.9922 55.1348L39.9801 55.1343C39.1093 55.0903 38.3941 54.7612 37.9037 54.046C37.4867 53.4379 37.2962 52.6284 37.1484 51.8041C36.824 50.0436 36.2156 46.7046 36.1005 45.3896L36.0995 45.3773C36.0649 44.9165 35.8288 44.1496 35.3893 42.9736C35.2305 42.5489 35.0448 42.0689 34.8428 41.5471C34.5842 40.8789 34.299 40.1423 34.0104 39.3656C33.8504 39.709 33.6788 40.1354 33.4961 40.6362C32.9866 42.0335 32.4494 43.8397 31.8772 45.7632C31.5077 47.0057 31.1236 48.297 30.7229 49.5588L30.7223 49.5609C30.209 51.1648 29.5987 52.2851 28.8056 52.8569C28.3742 53.1678 27.8852 53.318 27.3762 53.2743C26.8888 53.2325 26.4772 53.0213 26.1558 52.7804C25.5331 52.3137 25.0595 51.5934 24.7442 50.996C24.4272 50.3954 24.1868 49.7576 24.1108 49.3421C24.0083 48.7823 23.7114 47.1519 23.4459 45.331C23.1836 43.5321 22.9398 41.4692 22.965 40.0756L22.9651 40.0695C22.9935 38.8891 22.7479 37.3556 22.4764 36.0677C22.3428 35.4343 22.2072 34.8794 22.1051 34.4833C22.0732 34.3596 22.0446 34.2517 22.0205 34.1619C21.554 33.7603 21.1612 33.2537 20.9351 32.6132L20.9343 32.6107C20.4625 31.2629 20.1829 29.6111 20.42 28.2336C20.5397 27.5379 20.8065 26.8262 21.3378 26.2835C21.8945 25.7148 22.6477 25.4279 23.5281 25.4441M22.8979 33.5826C23.8586 33.3048 23.8586 33.3049 23.8586 33.305L23.8598 33.3091L23.8626 33.319L23.873 33.3553C23.8818 33.3867 23.8945 33.4322 23.9106 33.4904C23.9426 33.6069 23.9879 33.7749 24.0418 33.984C24.1495 34.4018 24.2924 34.9863 24.4334 35.6551C24.7107 36.9707 24.9984 38.6912 24.9646 40.1145C24.9431 41.3255 25.1619 43.2382 25.425 45.0425C25.6851 46.8263 25.9766 48.4279 26.0781 48.9819C26.104 49.1234 26.248 49.5604 26.513 50.0624C26.7797 50.5677 27.0856 50.978 27.3552 51.18C27.4801 51.2736 27.5427 51.2813 27.5473 51.2817C27.5472 51.2816 27.5474 51.2817 27.5473 51.2817C27.5477 51.2818 27.5486 51.282 27.5533 51.2806C27.5601 51.2785 27.5877 51.2693 27.636 51.2345C27.8758 51.0616 28.3264 50.4856 28.8171 48.9523C29.1893 47.7799 29.5623 46.5276 29.9287 45.2973C30.5187 43.3162 31.0917 41.3922 31.6172 39.9511C31.8342 39.3559 32.0527 38.8148 32.272 38.3644C32.4814 37.9345 32.7302 37.5045 33.0328 37.1989C33.187 37.0431 33.4102 36.8628 33.7077 36.7677C34.0394 36.6616 34.3984 36.6838 34.7233 36.8496C35.0155 36.9986 35.2136 37.2289 35.3462 37.4289C35.4826 37.6345 35.5911 37.8707 35.6815 38.1158L35.683 38.1198C36.0407 39.1024 36.3785 39.9744 36.6888 40.7751C36.8927 41.3016 37.0848 41.7973 37.2627 42.2735C37.681 43.3927 38.0323 44.4272 38.0934 45.2207C38.1992 46.4198 38.7814 49.6297 39.1157 51.4441L39.1166 51.4488C39.2667 52.2868 39.4057 52.7 39.5532 52.915C39.627 53.0227 39.7113 53.1168 40.0732 53.1364C40.1196 53.1372 40.3651 53.1205 40.7412 52.4374C41.1157 51.7571 41.4644 50.6689 41.7639 49.1561C42.307 46.4128 42.7757 43.5688 43.1275 41.4339C43.1697 41.1784 43.2101 40.933 43.2488 40.6992L43.249 40.698C43.4209 39.6662 43.5472 38.3209 43.597 37.0424C43.6437 35.842 43.6199 34.7724 43.5252 34.0966C43.4194 33.7898 43.4686 33.4469 43.6637 33.1803C44.4122 32.1574 44.8517 30.2294 44.8671 27.7869L44.8671 27.782C44.9098 23.9802 42.4369 22.5308 41.194 22.7111C41.174 22.714 41.154 22.7163 41.134 22.718C40.6837 22.7937 40.479 23.0185 40.3472 23.348C40.2044 23.705 39.8696 23.9485 39.486 23.9743C39.1024 24.0002 38.7379 23.8038 38.5485 23.4692C38.1418 22.7507 37.3358 21.7489 36.3324 20.798C35.3285 19.8466 34.2075 19.023 33.205 18.5931C32.8729 18.4516 32.6645 18.483 32.4669 18.5826C32.21 18.7122 31.8923 19.0054 31.5088 19.5532C30.9602 20.337 30.4479 21.3728 29.849 22.5836C29.5892 23.1087 29.3132 23.6668 29.0109 24.2515M22.8979 33.5826L23.8586 33.305C23.7973 33.0929 23.6674 32.9068 23.4893 32.7762C23.1383 32.5187 22.9272 32.2474 22.8215 31.9487C22.4149 30.7865 22.2319 29.4973 22.391 28.5727C22.4694 28.1172 22.6153 27.8375 22.767 27.6825C22.8933 27.5535 23.0932 27.4364 23.4914 27.4438C24.8766 27.4691 26.0017 27.2666 26.9373 26.6954C27.8729 26.1242 28.488 25.2633 29.0109 24.2515M31.5662 16.7969C30.8725 17.1468 30.3243 17.7578 29.8704 18.4063L31.5662 16.7969ZM29.8704 18.4063C29.2297 19.3216 28.6093 20.5755 27.9759 21.8557L29.8704 18.4063ZM27.9759 21.8557C27.7313 22.3502 27.4847 22.8487 27.2342 23.3331L27.9759 21.8557ZM27.2342 23.3331C26.7843 24.2038 26.3793 24.6928 25.8952 24.9883L27.2342 23.3331ZM25.8952 24.9883C25.411 25.284 24.7159 25.4658 23.5281 25.4441L25.8952 24.9883Z" fill="url(#paint2_linear_6181_50)"/>
<path d="M41.0348 21.7215C40.1562 21.847 39.6698 22.349 39.4188 22.9766C38.4774 21.3135 35.9044 18.6621 33.598 17.6736C31.2446 16.6695 30.0209 20.1212 28.1225 23.7925C27.1497 25.6752 26.0829 26.491 23.5098 26.4439C20.9525 26.3969 20.9995 29.7701 21.8781 32.2804C22.0664 32.8138 22.4273 33.2374 22.8979 33.5826C22.8979 33.5826 24.0276 37.4892 23.9648 40.0936C23.9177 42.6981 24.8905 48.0481 25.0944 49.1621C25.2984 50.276 27.7616 55.5319 29.7698 49.2562C31.7624 42.9805 33.551 35.23 34.7434 38.462C35.9201 41.694 37.0026 44.0473 37.0968 45.3025C37.2066 46.5576 37.8028 49.8367 38.1322 51.6253C38.4303 53.2883 38.7912 54.0728 40.0307 54.1356C41.2544 54.1826 42.133 52.4411 42.7449 49.3503C43.3568 46.2595 43.8745 43.0432 44.2354 40.8624C44.5962 38.6973 44.7531 35.3084 44.4864 33.7709H44.4707C45.4121 32.4843 45.8514 30.2878 45.8671 27.7932C45.9141 23.6042 43.1058 21.4234 41.0505 21.7215H41.0348Z" fill="white"/>
<path d="M41.7566 27.6836C41.7566 27.6836 42.3528 30.3037 41.2702 32.4688C40.376 34.2888 39.9053 34.1946 39.9053 34.1946C39.9053 34.1946 41.2389 30.0213 40.5015 28.2013C40.5015 28.2013 40.9721 26.4127 41.7566 27.6679V27.6836Z" fill="url(#paint3_linear_6181_50)"/>
<path d="M19.5095 21.5649C19.0702 19.7606 17.6582 18.3486 15.8696 17.9249C15.7127 17.8936 15.7127 17.6896 15.8696 17.6582C17.6739 17.2189 19.0859 15.8069 19.5095 14.0183C19.5409 13.8614 19.7449 13.8614 19.7763 14.0183C20.2156 15.8226 21.6276 17.2346 23.4162 17.6582C23.5731 17.6896 23.5731 17.8936 23.4162 17.9249C21.6119 18.3642 20.1999 19.7763 19.7763 21.5649C19.7449 21.7218 19.5409 21.7218 19.5095 21.5649Z" fill="#8ABD24"/>
<path d="M26.2562 29.676C25.864 29.676 25.5502 29.4092 25.4561 29.0327C25.0011 26.9774 23.3851 25.3457 21.3298 24.9064C20.9532 24.828 20.6865 24.4985 20.6865 24.1063C20.6865 23.7297 20.9532 23.4002 21.3298 23.3218C23.3851 22.8668 25.0168 21.2508 25.4561 19.1955C25.5345 18.819 25.864 18.5522 26.2562 18.5522C26.6485 18.5522 26.9622 18.819 27.0407 19.1955C27.4957 21.2508 29.1117 22.8825 31.167 23.3218C31.5435 23.4002 31.8102 23.7297 31.8102 24.1063C31.8102 24.4828 31.5435 24.8123 31.167 24.9064C29.096 25.3614 27.48 26.9774 27.0407 29.0327C26.9622 29.4092 26.6328 29.676 26.2562 29.676Z" fill="#8ABD24"/>
<path d="M26.2561 19.2113C26.2561 19.2113 26.3816 19.2583 26.3973 19.3368C26.8993 21.6588 28.7193 23.4788 31.0413 23.9808C31.1982 24.0122 31.1982 24.2162 31.0413 24.2632C28.7193 24.7653 26.8993 26.5852 26.3973 28.9073C26.3816 28.9857 26.3188 29.0328 26.2561 29.0328C26.1933 29.0328 26.1305 28.9857 26.1149 28.9073C25.6128 26.5852 23.7928 24.7653 21.4708 24.2632C21.3139 24.2319 21.3139 24.0279 21.4708 23.9808C23.7928 23.4788 25.6128 21.6588 26.1149 19.3368C26.1305 19.2583 26.1933 19.2113 26.2561 19.2113ZM26.2561 17.8777C25.55 17.8777 24.9539 18.3641 24.8126 19.0544C24.4204 20.8587 22.9927 22.2864 21.1884 22.6786C20.4981 22.8355 20.0117 23.4317 20.0117 24.122C20.0117 24.8124 20.4981 25.4242 21.1884 25.5654C22.9927 25.9577 24.4204 27.3854 24.8126 29.1897C24.9695 29.88 25.5657 30.3664 26.2561 30.3664C26.9464 30.3664 27.5583 29.88 27.6995 29.1897C28.0917 27.3854 29.5194 25.9577 31.3237 25.5654C32.014 25.4085 32.5004 24.8124 32.5004 24.122C32.5004 23.4317 32.014 22.8198 31.3237 22.6786C29.5194 22.2864 28.0917 20.8587 27.6995 19.0544C27.5426 18.3641 26.9464 17.8777 26.2561 17.8777Z" fill="white"/>
<path d="M26.1297 15.5401C25.8787 14.8341 25.3139 14.2693 24.6079 14.0183C24.4667 13.9712 24.4667 13.7986 24.6079 13.7515C25.3139 13.5005 25.8787 12.9357 26.1297 12.2297C26.1768 12.0885 26.3494 12.0885 26.3964 12.2297C26.6475 12.9357 27.2123 13.5005 27.9183 13.7515C28.0595 13.7986 28.0595 13.9712 27.9183 14.0183C27.2123 14.2693 26.6475 14.8341 26.3964 15.5401C26.3494 15.6813 26.1768 15.6813 26.1297 15.5401Z" fill="#8ABD24"/>
<defs>
<linearGradient id="paint0_linear_6181_50" x1="1.21554" y1="32.5" x2="63.7845" y2="32.5" gradientUnits="userSpaceOnUse">
<stop stop-color="#D9DADA"/>
<stop offset="0.08" stop-color="#ABACAC"/>
<stop offset="0.17" stop-color="white"/>
<stop offset="0.32" stop-color="#ABACAC"/>
<stop offset="0.47" stop-color="#ABACAC"/>
<stop offset="0.6" stop-color="white"/>
<stop offset="0.69" stop-color="#D9DADA"/>
<stop offset="0.86" stop-color="#ABACAC"/>
<stop offset="1" stop-color="#D9DADA"/>
</linearGradient>
<linearGradient id="paint1_linear_6181_50" x1="4.09644" y1="30.4181" x2="59.2194" y2="32.5357" gradientUnits="userSpaceOnUse">
<stop stop-color="#ABACAC"/>
<stop offset="0.17" stop-color="white"/>
<stop offset="0.32" stop-color="#ABACAC"/>
<stop offset="0.47" stop-color="#ABACAC"/>
<stop offset="0.6" stop-color="white"/>
<stop offset="0.69" stop-color="#D9DADA"/>
<stop offset="0.78" stop-color="#D9DADA"/>
<stop offset="0.9" stop-color="#ABACAC"/>
<stop offset="1" stop-color="#666666"/>
</linearGradient>
<linearGradient id="paint2_linear_6181_50" x1="22.2076" y1="49.6641" x2="47.6243" y2="24.2474" gradientUnits="userSpaceOnUse">
<stop stop-color="#ABACAC"/>
<stop offset="0.17" stop-color="white"/>
<stop offset="0.32" stop-color="#ABACAC"/>
<stop offset="0.47" stop-color="#ABACAC"/>
<stop offset="0.6" stop-color="white"/>
<stop offset="0.69" stop-color="#D9DADA"/>
<stop offset="0.78" stop-color="#D9DADA"/>
<stop offset="0.9" stop-color="#ABACAC"/>
<stop offset="1" stop-color="#666666"/>
</linearGradient>
<linearGradient id="paint3_linear_6181_50" x1="16.136" y1="44.9732" x2="54.1512" y2="22.7729" gradientUnits="userSpaceOnUse">
<stop stop-color="#ABACAC"/>
<stop offset="0.17" stop-color="white"/>
<stop offset="0.32" stop-color="#ABACAC"/>
<stop offset="0.47" stop-color="#ABACAC"/>
<stop offset="0.6" stop-color="white"/>
<stop offset="0.69" stop-color="#D9DADA"/>
<stop offset="0.78" stop-color="#D9DADA"/>
<stop offset="0.9" stop-color="#ABACAC"/>
<stop offset="1" stop-color="#666666"/>
</linearGradient>
</defs>
</svg>
