<svg width="65" height="65" viewBox="0 0 65 65" fill="none" xmlns="http://www.w3.org/2000/svg">
<path d="M32.5 62.5C49.0685 62.5 62.5 49.0685 62.5 32.5C62.5 15.9315 49.0685 2.5 32.5 2.5C15.9315 2.5 2.5 15.9315 2.5 32.5C2.5 49.0685 15.9315 62.5 32.5 62.5Z" fill="white"/>
<path fill-rule="evenodd" clip-rule="evenodd" d="M32.5 3C16.2076 3 3 16.2076 3 32.5C3 48.7924 16.2076 62 32.5 62C48.7924 62 62 48.7924 62 32.5C62 16.2076 48.7924 3 32.5 3ZM2 32.5C2 15.6553 15.6553 2 32.5 2C49.3447 2 63 15.6553 63 32.5C63 49.3447 49.3447 63 32.5 63C15.6553 63 2 49.3447 2 32.5Z" fill="url(#paint0_linear_6183_3216)"/>
<path d="M49.0435 41.097C49.3623 39.8852 48.9414 38.4311 48.9924 37.1811C49.0435 36.0204 49.0435 34.847 49.1965 33.6862C49.5409 31.1607 50.7909 29.1709 51.9261 26.9388C53.0103 24.7832 51.8751 22.2704 53.2782 20.1658C53.6225 19.6556 53.648 19.0944 53.9159 18.5714C54.12 18.1888 54.5792 18.074 54.898 17.8316C55.2552 17.5638 55.4083 16.9898 55.7526 16.7602C55.9695 16.6199 56.671 15.9949 56.8751 16.0714C57.4618 16.2883 58.8904 16.3393 59.5154 16.3903C59.9873 16.4286 61.2373 16.4541 61.5945 15.9949C62.3088 15.0638 61.9644 14.5026 61.9644 14.5026C62.6404 14.2347 62.3853 14.324 62.8445 13.7628C63.2144 13.3036 63.495 12.5 63.6481 11.9388C63.8011 11.3393 63.0868 11.1097 62.6531 10.9694C61.9899 10.7526 61.3011 10.4975 60.6251 10.3316C60.1276 10.2041 59.4134 10.1276 59.1327 9.61736C58.9542 9.28573 58.9414 8.87757 58.5588 8.71175C58.2654 8.5842 57.9975 8.39287 57.7042 8.26532C57.0154 7.98471 56.2501 7.85716 55.523 7.97196C54.9491 8.06124 54.4261 8.06124 54.0945 8.04849C53.8139 8.04849 53.444 7.93369 53.2144 8.15053C53.0741 8.27808 52.9848 8.43114 52.7935 8.50767C51.671 8.87757 50.8674 9.56634 50.0001 10.3444C49.694 10.6123 49.4899 10.9184 49.2858 11.2883C49.0179 11.7857 49.3751 11.9133 49.3751 12.4362C48.6353 13.4822 48.2782 14.9235 47.2833 15.7653C47.0282 15.9822 46.9389 16.2755 46.7475 16.5434C46.5817 16.7602 46.3649 16.7475 46.1353 16.8495C45.6378 17.0791 45.1914 17.2959 44.7067 17.5383C44.273 17.7679 43.8649 17.7169 43.444 17.8699C43.2399 17.9464 43.1761 18.176 42.9593 18.2526C42.7807 18.3163 42.5766 18.2908 42.398 18.2781C41.8496 18.2271 41.6583 18.597 41.1863 18.648C40.5996 18.7245 40.0384 18.8903 39.4644 19.1072C38.8011 19.1072 38.1378 19.1327 37.4618 19.1582C36.9899 19.1709 36.7348 18.9541 36.2246 19.0689C35.7016 19.1964 35.0511 19.0306 34.5154 19.0051C33.9287 18.9796 33.3292 18.9669 32.7424 18.9541C31.5562 18.9286 30.37 19.1327 29.1838 19.1072C28.6098 19.0944 28.1506 19.2347 27.5766 19.222C26.9516 19.2092 26.3394 19.2985 25.7271 19.4388C24.5537 19.7066 23.3674 20.0128 22.2195 20.3827C21.5307 20.5995 20.9185 20.9311 20.3062 21.2245C19.8725 21.4286 19.4261 21.5561 19.0179 21.7985C18.023 22.4235 17.6021 23.5077 17.0919 24.4005C16.4924 25.4592 16.3139 26.875 15.8802 28.0102C15.4848 29.0816 14.8598 29.8087 14.171 30.5485C12.7552 32.0791 10.2679 32.3852 8.50774 31.6072C8.22713 31.4796 6.14805 29.7322 5.9057 30.4464C5.72713 30.9949 7.42356 32.0791 7.79346 32.2959C9.73223 33.4184 12.1174 33.4311 14.0435 32.2704C14.5409 31.9771 14.898 31.6454 15.3572 31.1607C15.7526 30.7653 16.1225 30.4209 16.4542 29.8597C16.7475 29.3623 17.0026 28.9158 17.296 28.3674C17.4491 28.0868 17.4746 27.7041 17.6404 27.5C18.023 28.3419 17.296 29.8087 16.9771 30.5868C16.7093 31.2245 16.3776 31.8112 16.2756 32.5C16.1991 33.0485 16.0077 33.2908 15.8292 33.75C15.4338 34.7322 14.8853 35.5485 14.1965 36.3521C13.5077 37.1556 12.7552 37.7551 11.8496 38.2908C10.944 38.8138 11.2628 39.7832 11.2628 40.6378C11.2628 41.7857 10.8419 42.8572 10.3572 43.8648C9.93631 44.7449 9.45162 45.8291 9.46438 46.7985C9.46438 47.0663 9.18376 48.1378 9.54091 48.2653C10.0256 48.4566 10.5996 48.5077 11.1225 48.5587C11.7603 48.6097 12.347 48.4311 12.972 48.4439C13.3674 48.4566 13.2144 48.4439 13.3292 48.0995C13.3802 47.972 13.5077 47.9592 13.5588 47.8572C13.6098 47.7679 13.0996 47.5638 13.0358 47.5C12.87 47.347 12.8827 47.1301 12.7807 46.9388C12.6021 46.5944 12.1174 46.6072 11.9516 46.2373C11.569 45.4082 12.245 44.2092 12.4746 43.4056C12.8062 42.2194 13.5715 41.2245 14.2986 40.2551C14.5919 39.847 14.898 39.2857 15.3827 39.0816C15.6123 38.9796 15.6506 39.6684 15.6761 39.7832C15.9057 40.8674 16.4542 41.8495 16.6072 42.9464C16.773 44.1199 16.8368 45.3061 16.9006 46.4796C17.2705 46.7602 17.296 47.3342 17.4236 47.7424C17.921 47.7296 18.2654 47.972 18.7756 47.972C19.2858 47.972 19.6557 47.7806 20.1787 47.9082C20.6378 48.023 21.148 47.6148 21.5945 47.449C21.4924 46.9771 21.3394 47.1174 21.6583 46.7985C21.5052 46.6327 21.2501 46.6837 21.0715 46.5051C20.9312 46.3648 20.7781 46.3138 20.6251 46.199C20.1787 45.8546 20.0001 45.8163 19.4006 45.9184C18.5588 46.0587 18.4312 44.2347 18.4312 43.6735C18.4312 41.7475 19.1072 40.0638 20.5103 38.7373C21.3776 37.9209 22.3853 37.2577 23.2782 36.4669C24.0435 35.7781 24.9873 35.4975 25.7016 34.7066C26.4287 33.9031 26.9516 32.9082 27.2705 31.875C27.5384 31.0077 27.1557 29.9107 28.1889 29.4133C28.6608 29.1837 29.1838 29.4388 29.6429 29.5663C30.2297 29.7322 30.8547 29.7832 31.4542 29.8852C32.6021 30.0638 33.7628 30.2296 34.898 30.4337C36.097 30.6505 37.2705 30.9822 38.4695 31.2118C39.5409 31.4158 40.6378 31.5051 41.6965 31.7347C42.7424 31.9643 42.5894 33.1888 42.5894 34.0816C42.5894 35.2551 42.5894 36.4413 42.6149 37.6148C42.6149 38.75 42.7297 39.8725 42.3725 40.9694C42.194 41.5179 42.3343 41.7857 42.3853 42.3087" fill="white"/>
<path fill-rule="evenodd" clip-rule="evenodd" d="M55.3662 6.98418C56.3081 6.83546 57.259 7.00448 58.0806 7.33922L58.0914 7.34361L58.102 7.34824C58.2983 7.43359 58.4786 7.53605 58.6097 7.6106L58.6246 7.61907C58.773 7.70339 58.8671 7.75576 58.9566 7.79467L58.5579 8.71174L58.9555 7.79419C59.4678 8.01618 59.7088 8.41306 59.8345 8.69458C59.8804 8.79743 59.9213 8.90991 59.9465 8.97933C59.9512 8.99215 59.9553 9.00351 59.9588 9.01306C59.9774 9.06336 59.9899 9.09471 59.999 9.11535C60.017 9.127 60.057 9.14899 60.1341 9.17662C60.2181 9.20671 60.3191 9.23398 60.4486 9.2643C60.4817 9.27205 60.5231 9.28138 60.5686 9.29162C60.6638 9.31309 60.7767 9.33853 60.8673 9.36162C61.4129 9.49575 61.9805 9.68796 62.4883 9.85991C62.6533 9.91577 62.8119 9.96949 62.9615 10.0184C62.9711 10.0215 62.9814 10.0248 62.9924 10.0283C63.1917 10.0923 63.604 10.2247 63.944 10.4632C64.1364 10.5982 64.367 10.8073 64.5176 11.1189C64.679 11.4528 64.7089 11.8228 64.6161 12.1862L64.6141 12.194L64.612 12.2019C64.4572 12.7694 64.1343 13.7545 63.6224 14.3901L63.6176 14.396C63.5259 14.5081 63.4729 14.5835 63.4323 14.6428C63.43 14.6462 63.4268 14.651 63.4228 14.6569C63.3903 14.7054 63.306 14.8314 63.206 14.9355C63.1505 14.9932 63.0938 15.0424 63.0373 15.0849C62.9949 15.5454 62.8031 16.0613 62.387 16.6036L62.383 16.6088C62.1254 16.9399 61.7746 17.1081 61.5168 17.199C61.2441 17.295 60.9577 17.3452 60.7076 17.373C60.2062 17.4287 59.707 17.4092 59.4337 17.387C59.3511 17.3803 59.2182 17.3715 59.0603 17.361C58.7728 17.3419 58.4005 17.3172 58.0895 17.2889C57.7363 17.2568 57.3072 17.2096 56.9314 17.1252C56.922 17.1318 56.9123 17.1387 56.9022 17.1459C56.8056 17.2156 56.7059 17.2929 56.6038 17.372L56.6028 17.3728C56.5542 17.4105 56.5025 17.4506 56.4554 17.4861C56.4212 17.5118 56.3781 17.5437 56.333 17.5746C56.3297 17.5785 56.3255 17.5838 56.3204 17.5905C56.2867 17.635 56.2492 17.6942 56.1821 17.8038C56.1752 17.8151 56.1677 17.8275 56.1595 17.8409C56.0518 18.0188 55.8345 18.3778 55.4995 18.6299C55.3633 18.7331 55.2264 18.8124 55.1252 18.8689C55.0751 18.8968 55.0371 18.9176 55.0045 18.9353C54.9558 18.9618 54.9192 18.9817 54.8731 19.0091C54.8263 19.0368 54.7996 19.0558 54.7858 19.0664C54.725 19.1945 54.6838 19.3297 54.618 19.5455C54.6064 19.5835 54.594 19.624 54.5806 19.6675C54.4935 19.9506 54.3668 20.3383 54.1079 20.7227C53.5846 21.509 53.5086 22.3912 53.4814 23.5565C53.4794 23.6415 53.4778 23.7285 53.4761 23.8174C53.456 24.8664 53.431 26.1705 52.8186 27.3881L52.8166 27.3921C52.6097 27.799 52.4046 28.1891 52.2054 28.5681C51.2607 30.3651 50.4472 31.9126 50.1868 33.8191C50.0794 34.6347 50.0528 35.4408 50.0246 36.2987C50.0147 36.5996 50.0046 36.9069 49.9907 37.2231C49.9907 37.2238 49.9906 37.2244 49.9906 37.225L48.9916 37.1811L49.9907 37.2219C49.9907 37.2223 49.9907 37.2227 49.9907 37.2231C49.9742 37.6303 50.0155 38.05 50.0649 38.5507C50.0809 38.7131 50.0977 38.884 50.1137 39.0658C50.1735 39.7463 50.2168 40.5642 50.0097 41.3514L48.0755 40.8425C48.1872 40.418 48.1795 39.9029 48.1214 39.2409C48.1103 39.1151 48.0969 38.9808 48.083 38.8406C48.0304 38.3129 47.9695 37.7016 47.9924 37.1403L47.9925 37.1372C48.0043 36.87 48.0133 36.5933 48.0226 36.3102C48.0515 35.426 48.0825 34.4784 48.2042 33.5555L48.2048 33.5511C48.5169 31.2625 49.5256 29.3533 50.4798 27.5474C50.6683 27.1907 50.8546 26.8379 51.033 26.4871C51.0327 26.4879 51.0323 26.4887 51.0319 26.4895L51.9252 26.9388L51.0339 26.4855C51.0336 26.486 51.0333 26.4866 51.033 26.4871C51.4326 25.6911 51.4522 24.8251 51.4781 23.677C51.4794 23.6219 51.4806 23.5662 51.482 23.5098C51.5089 22.3548 51.5668 20.9288 52.4452 19.6111L52.4484 19.6064C52.5328 19.4814 52.5906 19.3345 52.6691 19.0793C52.678 19.0503 52.6875 19.0186 52.6977 18.9847C52.7659 18.7573 52.8645 18.4289 53.025 18.1156L53.0288 18.1082L53.0327 18.1008C53.2656 17.6642 53.6246 17.4242 53.8531 17.2888C53.9283 17.2441 54.0217 17.1931 54.089 17.1563C54.1138 17.1427 54.1351 17.1311 54.1506 17.1224C54.2308 17.0777 54.2698 17.0524 54.2921 17.0355L54.2968 17.0319M54.2968 17.0319C54.2966 17.032 54.2969 17.0316 54.2978 17.0306C54.3046 17.0223 54.3461 16.9722 54.4765 16.7593L54.4816 16.7509C54.5404 16.655 54.6259 16.5153 54.7259 16.3832C54.8307 16.2449 54.983 16.0709 55.1971 15.9282L55.2085 15.9206C55.2118 15.9182 55.225 15.9089 55.2524 15.8883C55.286 15.863 55.3262 15.8319 55.3771 15.7924L55.3885 15.7836C55.4836 15.7098 55.6075 15.6137 55.7333 15.5231C55.8584 15.433 56.0212 15.3219 56.1881 15.2366C56.2703 15.1946 56.3888 15.1403 56.5278 15.1047C56.6451 15.0746 56.9156 15.0203 57.2212 15.1336C57.3711 15.1888 57.7432 15.2492 58.2706 15.2972C58.5874 15.326 58.8562 15.3433 59.104 15.3592C59.2747 15.3702 59.4356 15.3805 59.5953 15.3936C59.794 15.4097 60.1558 15.422 60.4867 15.3853C60.6526 15.3668 60.7752 15.3397 60.8521 15.3126C60.8531 15.3123 60.8541 15.3119 60.8551 15.3116C61.0011 15.1037 61.0356 14.971 61.0439 14.9159L60.4888 14.0113L61.5951 13.5729C61.6874 13.5363 61.7512 13.5107 61.7965 13.4919C61.8569 13.4044 61.9405 13.2876 62.0668 13.133C62.2499 12.9042 62.4396 12.4572 62.5854 12.0027C62.5128 11.9755 62.435 11.9501 62.3445 11.9208L62.3415 11.9199C62.1466 11.8562 61.9592 11.7927 61.777 11.7311C61.291 11.5666 60.8422 11.4147 60.386 11.3028L60.3758 11.3004C60.3461 11.2927 60.2985 11.282 60.2388 11.2685C60.0413 11.224 59.7115 11.1497 59.4594 11.0594C59.0882 10.9263 58.5677 10.6667 58.2557 10.0993L58.2514 10.0915C58.1713 9.94279 58.1171 9.79918 58.0825 9.70546C58.0725 9.6782 58.064 9.65523 58.0568 9.63546C58.0471 9.609 58.0395 9.5883 58.0329 9.57078C57.8863 9.49995 57.7539 9.42469 57.6515 9.36646L57.6366 9.35798C57.4936 9.27673 57.401 9.22515 57.3144 9.18668C56.762 8.96373 56.1867 8.87941 55.6781 8.95971L55.6759 8.96006C55.0258 9.06119 54.4412 9.06191 54.0717 9.04836C54.0124 9.04773 53.9579 9.04465 53.9123 9.04134C53.8636 9.03781 53.8157 9.03326 53.7792 9.02981L53.7756 9.02946C53.7689 9.02883 53.7626 9.02823 53.7565 9.02766C53.7475 9.03693 53.7384 9.04625 53.7293 9.05533C53.6158 9.1688 53.4343 9.328 53.164 9.43614L53.1351 9.44768L53.1056 9.45742C52.2036 9.75464 51.5385 10.307 50.667 11.0888L50.6578 11.097C50.501 11.2342 50.3761 11.397 50.2262 11.6551C50.2859 11.8171 50.3742 12.109 50.3742 12.4362V12.7541L50.1906 13.0137C49.9566 13.3446 49.7768 13.7068 49.5589 14.1459C49.483 14.2986 49.4026 14.4607 49.3136 14.634C48.999 15.2467 48.5874 15.9704 47.93 16.5273C47.9298 16.5275 47.9287 16.5284 47.9265 16.5308C47.9242 16.5333 47.9202 16.5378 47.9143 16.5456C47.9015 16.5624 47.8834 16.5893 47.8544 16.6391C47.8399 16.664 47.8247 16.6909 47.8058 16.7247C47.7881 16.7563 47.7658 16.7964 47.743 16.8362C47.6966 16.9173 47.6362 17.0185 47.5604 17.1246L47.5509 17.1379L47.541 17.1508C47.3017 17.4638 47.0137 17.6059 46.798 17.6822C46.7289 17.7067 46.6474 17.7304 46.6083 17.7419C46.6007 17.7441 46.5947 17.7458 46.5907 17.747C46.5594 17.7564 46.5465 17.761 46.5422 17.7627C46.064 17.9835 45.6327 18.193 45.1621 18.4282C44.8035 18.6156 44.4681 18.6799 44.2353 18.719C44.1883 18.7269 44.1469 18.7337 44.1102 18.7397C44.0215 18.7543 43.9595 18.7645 43.9088 18.7752C43.8161 18.8768 43.6087 19.083 43.293 19.1949C42.906 19.3325 42.4847 19.291 42.3558 19.2783C42.3427 19.277 42.3327 19.276 42.3259 19.2755L42.3152 19.2748L42.3046 19.2738C42.3038 19.2737 42.303 19.2736 42.3024 19.2736C42.2926 19.2776 42.271 19.2872 42.229 19.3093C42.2184 19.3149 42.2047 19.3226 42.1881 19.3318C42.052 19.4079 41.7215 19.5926 41.3066 19.6406C40.8254 19.7043 40.3455 19.8429 39.8169 20.0426L39.6461 20.1072H39.4635C38.8316 20.1072 38.1969 20.1311 37.5275 20.1564L37.488 20.1579C37.1559 20.1668 36.8622 20.1009 36.7135 20.0675C36.6907 20.0624 36.6713 20.0581 36.6557 20.0549C36.5404 20.0312 36.5054 20.031 36.4491 20.0432C36.0199 20.1456 35.5911 20.1203 35.2771 20.0897C35.1065 20.0731 34.9783 20.0571 34.8678 20.0432C34.7229 20.0251 34.6086 20.0108 34.4691 20.0041C33.9062 19.9796 33.3296 19.9671 32.7518 19.9545L32.7201 19.9539C32.72 19.9539 32.7201 19.9539 32.7201 19.9539C32.1835 19.9423 31.6385 19.9825 31.0373 20.0278L31.016 20.0294C30.4368 20.073 29.8031 20.1207 29.1614 20.1069C28.9573 20.1024 28.767 20.1243 28.5018 20.157L28.4821 20.1595C28.2336 20.1902 27.9145 20.2296 27.5548 20.2217C27.5544 20.2217 27.554 20.2217 27.5535 20.2217L27.5757 19.2219L27.5548 20.2217C27.5546 20.2217 27.555 20.2217 27.5548 20.2217C27.0381 20.2112 26.512 20.2846 25.9496 20.4135C24.7935 20.6774 23.6365 20.9764 22.5253 21.3345L22.5189 21.3365C22.0477 21.4849 21.6309 21.6894 21.1487 21.9261C21.0173 21.9906 20.881 22.0575 20.7375 22.1263L20.7311 22.1293C20.5331 22.2225 20.3249 22.3053 20.1536 22.3734C20.1084 22.3914 20.0658 22.4083 20.0266 22.4242C19.8253 22.5056 19.6722 22.5737 19.5384 22.652C19.5419 22.6497 19.5455 22.6475 19.549 22.6453L19.0171 21.7985L19.5276 22.6583C19.5312 22.6562 19.5348 22.6541 19.5384 22.652C19.2177 22.8563 18.9626 23.1486 18.7158 23.5361C18.547 23.8013 18.4257 24.0315 18.2899 24.2889C18.1944 24.4701 18.0917 24.6648 17.9604 24.8948C17.9607 24.8943 17.9609 24.8938 17.9612 24.8933L17.0911 24.4005L17.9593 24.8967C17.9597 24.896 17.96 24.8954 17.9604 24.8948C17.7702 25.2311 17.6235 25.6341 17.483 26.1068L16.8634 26.8694C16.7368 27.0253 16.6597 27.1859 16.6112 27.3048C16.5628 27.4237 16.5274 27.541 16.5037 27.6212C16.497 27.6436 16.4912 27.6635 16.4859 27.6817C16.4686 27.7405 16.4569 27.7803 16.4427 27.8223C16.4259 27.8722 16.4171 27.8888 16.4172 27.8885L16.4134 27.8957C16.3657 27.9848 16.319 28.0712 16.2731 28.1555L15.8793 28.0102L16.2708 28.1598C16.0428 28.5779 15.8313 28.9458 15.5919 29.3517C15.3583 29.7469 15.1121 29.9922 14.7499 30.3532C14.7173 30.3857 14.6838 30.4191 14.6493 30.4536L14.6397 30.4632L14.6304 30.473C14.5389 30.5696 14.4542 30.657 14.3739 30.737C14.0721 31.0378 13.8331 31.233 13.5346 31.4091L13.5264 31.4139C11.9984 32.3348 10.1156 32.3743 8.5288 31.5589L8.92067 30.6968C8.95234 30.7112 8.97266 30.723 8.97281 30.7228C8.97288 30.7227 8.96804 30.7196 8.95725 30.7125C10.3822 31.3176 12.3633 31.0291 13.436 29.8694L13.4382 29.8671C14.1116 29.1438 14.6185 28.5383 14.9412 27.664L14.9451 27.6533C15.0942 27.2631 15.2069 26.844 15.3358 26.3644C15.375 26.2188 15.4156 26.0677 15.4592 25.91C15.6349 25.2751 15.8557 24.5527 16.2209 23.9078L16.2228 23.9044C16.2876 23.7909 16.3667 23.6427 16.4545 23.4781C16.6261 23.1566 16.8312 22.7724 17.0288 22.462C17.366 21.9322 17.8159 21.3721 18.4851 20.9517L18.4958 20.945L18.5065 20.9386C18.7784 20.7772 19.0498 20.6619 19.2767 20.5701C19.3387 20.545 19.396 20.5222 19.4501 20.5006C19.6095 20.4372 19.7404 20.385 19.8765 20.3211C19.8754 20.3216 19.8743 20.3222 19.8732 20.3227L20.3053 21.2245L19.8795 20.3197C19.8785 20.3202 19.8775 20.3206 19.8765 20.3211C19.9801 20.2715 20.0891 20.2177 20.2031 20.1616C20.6978 19.9178 21.2852 19.6285 21.9151 19.4298C21.914 19.4302 21.913 19.4305 21.9119 19.4309L22.2186 20.3827L21.9183 19.4288C21.9172 19.4292 21.9162 19.4295 21.9151 19.4298C23.0985 19.0487 24.3134 18.7356 25.5029 18.464C25.5026 18.4641 25.5031 18.464 25.5029 18.464C26.1647 18.3124 26.8631 18.2072 27.5962 18.2222L27.598 18.2222C27.8021 18.2267 27.9917 18.2048 28.2568 18.1721L28.2766 18.1696C28.5253 18.1389 28.8449 18.0994 29.2051 18.1074C29.7416 18.1189 30.2861 18.0787 30.8872 18.0334L30.9085 18.0318C31.4877 17.9882 32.1214 17.9405 32.7631 17.9543L32.8046 17.9552C33.3764 17.9676 33.9725 17.9806 34.558 18.0061L34.5621 18.0062C34.7606 18.0157 35.0238 18.0471 35.232 18.0719C35.3267 18.0832 35.41 18.0932 35.4707 18.0991C35.7438 18.1257 35.8968 18.1193 35.9868 18.0974L35.9955 18.0952L36.0042 18.0933C36.4545 17.992 36.8038 18.0436 37.0576 18.0957C37.1148 18.1074 37.1608 18.1172 37.1988 18.1252C37.3275 18.1525 37.3633 18.1601 37.4296 18.1586L37.4685 18.1572C38.0669 18.1346 38.6735 18.1117 39.2829 18.1077C39.8461 17.9039 40.4307 17.7379 41.0561 17.6564L41.067 17.6549L41.078 17.6538C41.0743 17.6555 41.0779 17.6538 41.078 17.6538C41.0856 17.6502 41.1251 17.6304 41.2962 17.5402C41.5402 17.4115 41.9279 17.2332 42.478 17.2813C42.498 17.2828 42.5179 17.2843 42.535 17.2857L42.5429 17.2863C42.5487 17.2867 42.5542 17.2871 42.5595 17.2876C42.5868 17.2598 42.618 17.2297 42.6513 17.2003C42.7535 17.1105 42.8981 17.0063 43.092 16.9336L43.1013 16.9301C43.378 16.8295 43.6618 16.7849 43.8323 16.7581C43.8592 16.7539 43.8833 16.7501 43.9041 16.7466C44.0865 16.716 44.1673 16.6919 44.238 16.6545L44.2482 16.649L44.2586 16.6438C44.7502 16.3981 45.2063 16.1765 45.7154 15.9415L45.7218 15.9386L45.7283 15.9357C45.8423 15.885 45.9455 15.8526 46.0131 15.8323C46.0166 15.8259 46.0203 15.8193 46.0242 15.8123C46.0479 15.7695 46.0788 15.7137 46.1268 15.6313C46.225 15.4631 46.3789 15.2208 46.6347 15.0034L46.6364 15.0019C46.973 14.7172 47.2369 14.3 47.5344 13.7206C47.592 13.6082 47.6527 13.4856 47.7166 13.3565C47.8881 13.01 48.083 12.6161 48.307 12.2445C48.3004 12.2261 48.2932 12.2057 48.2853 12.183C48.2371 12.0455 48.1744 11.8287 48.187 11.5575C48.1996 11.2851 48.2839 11.0382 48.4045 10.8142L48.4093 10.8052C48.636 10.3944 48.9056 9.97398 49.3358 9.5961C50.1704 8.84755 51.079 8.05211 52.3527 7.60126L52.3827 7.56891C52.4166 7.53241 52.4697 7.47581 52.5346 7.41631C52.9301 7.04801 53.3988 7.01573 53.6446 7.01823C53.7658 7.01947 53.8822 7.03056 53.9536 7.03736L53.9645 7.0384C54.0531 7.0468 54.0796 7.04848 54.0936 7.04848H54.1128L54.132 7.04921C54.4269 7.06056 54.8804 7.05975 55.3685 6.98383L55.5222 7.97195L55.3662 6.98418M42.6908 17.2937C42.6924 17.2936 42.6932 17.2935 42.6931 17.2936L42.6908 17.2937ZM14.5547 33.1293C12.3077 34.4815 9.5345 34.4599 7.29155 33.1614L7.28687 33.1586C7.0746 33.0342 6.51096 32.6797 6.00964 32.2694C5.7637 32.0681 5.48792 31.8174 5.27895 31.5449C5.17446 31.4087 5.05724 31.2294 4.9797 31.0162C4.90138 30.8008 4.84086 30.4842 4.95396 30.1369L4.95778 30.1251C5.09707 29.7146 5.42057 29.4197 5.83013 29.3164C6.15927 29.2334 6.46142 29.2945 6.6439 29.3456C7.02313 29.4518 7.41645 29.6736 7.71921 29.8617C8.04244 30.0625 8.35979 30.2877 8.59833 30.4586C8.62551 30.4781 8.65132 30.4966 8.67587 30.5142C8.7639 30.5773 8.83565 30.6288 8.89573 30.6706C8.92499 30.691 8.94498 30.7044 8.95725 30.7125C8.94182 30.7059 8.92646 30.6993 8.91116 30.6925L8.5288 31.5589C8.4506 31.5187 8.37262 31.4762 8.29593 31.4318C8.136 31.3379 7.66918 31.0432 7.27642 30.7217C7.07434 30.5563 6.93638 30.4196 6.86593 30.3277C6.84907 30.3057 6.84283 30.2949 6.84282 30.2949C6.84281 30.2949 6.85019 30.3077 6.85931 30.3328C6.87759 30.383 6.92416 30.5458 6.8557 30.756L5.90483 30.4464L6.85181 30.7677C6.77311 30.9997 6.56766 31.193 6.31929 31.2556C6.20929 31.2834 6.1294 31.2755 6.10166 31.2707C6.10253 31.2709 6.10347 31.2712 6.10446 31.2715C6.19198 31.296 6.38141 31.3851 6.66379 31.5605C6.92571 31.7232 7.19589 31.9142 7.43367 32.0845C7.45677 32.101 7.47992 32.1176 7.5029 32.1341C7.59282 32.1986 7.68026 32.2614 7.75315 32.3121L7.76067 32.3173C7.76494 32.3203 7.76953 32.3235 7.77442 32.3269C7.77436 32.3269 7.77447 32.327 7.77442 32.3269C7.84366 32.375 7.97181 32.4624 8.09307 32.5175L8.10258 32.5218C9.83828 33.289 12.1725 33.1926 13.9152 32.0591C13.9159 32.0586 13.9165 32.0582 13.9172 32.0578C14.2741 31.8254 14.6061 31.5496 14.9031 31.2287C14.9843 31.1415 15.066 31.0531 15.1477 30.963C15.1494 30.9611 15.1511 30.9592 15.1529 30.9572C15.4981 30.5761 15.8437 30.164 16.1536 29.6829L16.2489 29.7391C16.2329 29.7767 16.2169 29.8141 16.201 29.8513C16.1502 29.9703 16.1002 30.0875 16.0527 30.2033C16.0101 30.3046 15.9582 30.4184 15.9016 30.5427C15.7939 30.7792 15.6689 31.0536 15.5574 31.3512L15.3564 31.1607L15.5545 31.3589C15.4381 31.6707 15.3367 32.0078 15.2855 32.3535L15.2843 32.3618C15.2664 32.4904 15.2402 32.5858 15.205 32.6794C15.0069 32.8386 14.7948 32.9875 14.5547 33.1293ZM14.8986 33.3816C14.9536 33.2409 15.0081 33.12 15.0547 33.0191C15.0674 32.9914 15.079 32.9664 15.0898 32.9433C15.1217 32.8745 15.146 32.8223 15.1702 32.7655C15.1827 32.7364 15.1943 32.708 15.205 32.6794C15.3181 32.5886 15.4265 32.4945 15.533 32.3965C15.535 32.3947 15.537 32.3928 15.539 32.391C15.7184 32.2255 15.8922 32.0489 16.0728 31.8585C16.1053 31.8261 16.1385 31.7931 16.1724 31.7596C16.4683 31.4661 16.8121 31.1253 17.1337 30.6529C17.1339 30.6524 17.1342 30.652 17.1345 30.6516C17.1954 30.5621 17.2554 30.4679 17.3142 30.3684C17.6121 29.8634 17.8744 29.4044 18.1754 28.8419C18.2508 28.7028 18.3019 28.5681 18.3377 28.462C18.3661 28.3777 18.3923 28.2883 18.4108 28.2251C18.4147 28.2117 18.4183 28.1995 18.4214 28.1887C18.444 28.1127 18.4556 28.0786 18.4633 28.0596C18.4637 28.0586 18.4641 28.0578 18.4644 28.0571C18.4602 28.0657 18.4453 28.0941 18.4156 28.1306L17.6395 27.5L17.0125 27.785C17.079 27.5702 17.1403 27.353 17.1981 27.1413C17.2277 27.0329 17.2564 26.9258 17.2844 26.8213C17.3194 26.6907 17.3534 26.564 17.3868 26.4433C17.4189 26.3274 17.4508 26.2153 17.483 26.1068L17.8817 25.6162L18.5499 27.0862C18.908 27.8741 18.7051 28.7773 18.5274 29.3593C18.3772 29.8513 18.161 30.3566 18.0096 30.7104C17.9677 30.8084 17.9308 30.8947 17.9016 30.966L17.8983 30.974C17.806 31.1936 17.7215 31.3808 17.646 31.5481C17.4543 31.9727 17.3204 32.2694 17.2644 32.6431C17.2647 32.6415 17.2649 32.6398 17.2651 32.6382L16.2747 32.5L17.2639 32.6466C17.2641 32.6454 17.2643 32.6443 17.2644 32.6431C17.2112 33.0213 17.1151 33.304 17.0093 33.5515C16.9491 33.6923 16.9114 33.7715 16.8792 33.8392C16.8411 33.919 16.8108 33.9827 16.7603 34.1125L16.756 34.1235C16.3095 35.2326 15.6936 36.141 14.9549 37.0028C14.1846 37.9015 13.3433 38.5686 12.3578 39.1515L12.3488 39.1569C12.2721 39.2012 12.2562 39.2306 12.2522 39.238C12.2433 39.2544 12.222 39.3028 12.2125 39.4204C12.2024 39.5449 12.2082 39.6958 12.2237 39.9124C12.226 39.9435 12.2285 39.9767 12.2311 40.0116C12.2448 40.1925 12.262 40.4196 12.262 40.6378C12.262 40.95 12.2362 41.2551 12.1905 41.5521C11.9125 42.0393 11.6706 42.5655 11.5115 43.1333C11.4677 43.286 11.3993 43.4687 11.3054 43.7183C11.2477 43.8716 11.1821 44.0459 11.1194 44.2297L10.3564 43.8648L11.1188 44.2315C11.0859 44.3279 11.0539 44.4269 11.0241 44.5268C10.9721 44.7016 10.9182 44.9069 10.8815 45.1308C10.6297 45.7368 10.4571 46.3033 10.4634 46.7853L10.4636 46.7985C10.4636 46.8999 10.4517 46.9997 10.4442 47.0586C10.4362 47.1226 10.4256 47.1939 10.4162 47.2571L10.4145 47.2691C10.4045 47.3363 10.3951 47.4008 10.3869 47.4626C10.2071 47.4308 10.0485 47.391 9.9072 47.3352L9.89188 47.3291L9.87637 47.3236C9.88682 47.3273 9.89713 47.3311 9.9072 47.3352C10.0923 47.4097 10.2132 47.5373 10.28 47.6432C10.3419 47.7413 10.3568 47.8178 10.3589 47.8284C10.3597 47.8323 10.3596 47.832 10.3594 47.8268C10.3588 47.8126 10.3568 47.7626 10.3646 47.6647C10.3698 47.6005 10.3776 47.5332 10.3869 47.4626C10.6215 47.504 10.8925 47.5316 11.2091 47.5625C11.2066 47.5623 11.204 47.5621 11.2014 47.5619L11.1217 48.5587L11.2188 47.5634C11.2156 47.5631 11.2123 47.5628 11.2091 47.5625C11.4148 47.578 11.6295 47.5591 11.9263 47.5234C11.9271 47.526 11.9279 47.5286 11.9287 47.5311C11.971 47.6668 12.0605 47.9271 12.2882 48.1673C12.2878 48.1699 12.2875 48.1717 12.2874 48.1729C12.2868 48.1766 12.2873 48.1724 12.2882 48.1673C12.3073 48.1874 12.3276 48.2077 12.3487 48.2274C12.4058 48.2814 12.4571 48.318 12.4814 48.3349C12.5148 48.3581 12.5452 48.3768 12.5669 48.3897C12.6098 48.4152 12.6534 48.4384 12.6847 48.4549C12.7203 48.4737 12.7468 48.4873 12.7701 48.4994C12.8014 48.5155 12.8272 48.5287 12.8621 48.5477C12.8967 48.5665 12.9105 48.5753 12.9106 48.5752C12.9107 48.5751 12.9025 48.5697 12.8893 48.5594L12.8884 48.5587C12.8767 48.5496 12.7914 48.4834 12.7124 48.3609C12.6695 48.2944 12.602 48.171 12.574 47.9993L12.9997 47.5382L13.0004 47.5374L13.0349 47.5L12.5692 47.9658C12.5641 47.9259 12.5615 47.8852 12.5615 47.8439C12.5615 47.8271 12.5619 47.8103 12.5628 47.7933C12.5648 47.7544 12.5692 47.7151 12.5761 47.6757C12.6372 47.6212 12.7058 47.5742 12.7804 47.5369C12.8054 47.5244 12.8296 47.5137 12.8528 47.5046C12.8716 47.4972 12.8897 47.4907 12.9069 47.4852C12.9385 47.4749 12.967 47.4677 12.9912 47.4624C12.9952 47.4616 12.9991 47.4608 13.0029 47.46C13.0332 47.4539 13.0556 47.4513 13.0672 47.45C13.0727 47.4494 13.0778 47.4489 13.0825 47.4485C13.084 47.4484 13.0854 47.4482 13.0868 47.4481C13.1014 47.447 13.1103 47.4468 13.1107 47.4468C13.1109 47.4469 13.108 47.4469 13.1012 47.4469C13.0973 47.4469 13.093 47.4468 13.0882 47.4467C13.0869 47.4467 13.0856 47.4467 13.0842 47.4467C13.0661 47.4463 13.0409 47.4456 13.0034 47.4444L12.9916 47.4441C12.9389 47.443 12.8866 47.443 12.8347 47.4439C12.8019 47.4445 12.7692 47.4454 12.7368 47.4466C12.7057 47.4478 12.6748 47.4492 12.6443 47.4509C12.6503 47.4372 12.6567 47.4235 12.6635 47.41C12.6655 47.406 12.6675 47.4021 12.6695 47.3981C12.6762 47.3853 12.683 47.373 12.6899 47.3612C12.7456 47.2665 12.8081 47.2037 12.847 47.1694C12.8674 47.1515 12.8826 47.1403 12.8845 47.1389C12.8845 47.1389 12.8839 47.1394 12.8808 47.1416L12.8619 47.155L12.8573 47.1583C12.8063 47.1946 12.673 47.2896 12.5504 47.4569C12.3548 47.4709 12.1727 47.4932 12.0172 47.5124C12.0046 47.5139 11.9922 47.5154 11.98 47.5169C11.9555 47.4927 11.9236 47.4562 11.8976 47.4093C11.8967 47.4077 11.8958 47.4061 11.8949 47.4045C11.8939 47.4026 11.893 47.4008 11.8922 47.399C11.8862 47.3869 11.8832 47.3789 11.8829 47.3782C11.8828 47.3777 11.8839 47.3807 11.8862 47.3881C11.8897 47.399 11.8937 47.4124 11.901 47.4377L11.9027 47.4435C11.9066 47.4572 11.9118 47.475 11.9176 47.4946C11.9108 47.491 11.9037 47.4872 11.8962 47.4832C11.8894 47.4797 11.8817 47.4757 11.8732 47.4713C11.7138 47.3892 11.2715 47.1611 11.0407 46.6519C11.0414 46.6533 11.0421 46.6548 11.0428 46.6563L11.9507 46.2373L11.0382 46.6463C11.0391 46.6482 11.0399 46.65 11.0407 46.6519C10.803 46.1337 10.8057 45.5925 10.8815 45.1308C10.9941 44.8596 11.1226 44.5804 11.258 44.2974C11.4233 43.9536 11.5896 43.587 11.738 43.1999L12.4734 43.4055L11.7396 43.1959C11.9363 42.6821 12.1013 42.1323 12.1905 41.5521C12.5651 40.8956 13.0052 40.3103 13.396 39.7904C13.428 39.7479 13.4597 39.7058 13.4909 39.6641C13.4891 39.6667 13.4874 39.6691 13.4857 39.6715L14.2977 40.2551L13.4977 39.6551C13.4954 39.6581 13.4932 39.6611 13.4909 39.6641C13.5142 39.6314 13.5472 39.5829 13.5867 39.5251C13.6955 39.3655 13.853 39.1346 13.9877 38.9664C14.2006 38.7009 14.5226 38.3602 14.9878 38.1626C14.9837 38.1643 14.9797 38.1661 14.9757 38.1678L15.3819 39.0816L14.9938 38.16C14.9918 38.1609 14.9898 38.1617 14.9878 38.1626C15.2298 38.0584 15.533 38.0294 15.833 38.1502C16.1022 38.2587 16.2611 38.4451 16.3412 38.5601C16.4913 38.7752 16.5522 39.0118 16.5778 39.1191C16.6103 39.2554 16.6299 39.3887 16.6418 39.476C16.6576 39.5923 16.6578 39.5959 16.6543 39.5794M16.6543 39.5794C16.7424 39.9943 16.8857 40.3941 17.0558 40.8686C17.074 40.9195 17.0925 40.9712 17.1113 41.0239C17.257 41.432 17.4172 41.8945 17.5237 42.3952C17.5024 42.537 17.4848 42.6801 17.4708 42.8243L16.6064 42.9464L17.4707 42.8258C17.4437 43.1041 17.4303 43.3868 17.4303 43.6735C17.4303 43.996 17.4643 44.6906 17.6338 45.3193C17.6854 45.5105 17.7597 45.736 17.8726 45.9569C17.8747 45.9949 17.8768 46.033 17.8789 46.0709C17.7815 45.9342 17.6591 45.8005 17.5041 45.6829L16.8997 46.4796L17.8983 46.4253L17.8959 46.3828C17.8903 46.2793 17.8847 46.1753 17.8789 46.0709C18.0588 46.3235 18.1533 46.5863 18.2103 46.777C18.2179 46.8025 18.2252 46.828 18.2322 46.8533C18.0252 46.7983 17.7351 46.734 17.3971 46.7427L17.4227 47.7424L18.3772 47.4441C18.3595 47.3875 18.3425 47.3156 18.3146 47.192L18.3113 47.1774C18.2912 47.0885 18.2652 46.9733 18.2322 46.8533C18.272 46.8639 18.3088 46.8742 18.3423 46.8835L18.3619 46.889C18.5874 46.9517 18.6754 46.9719 18.7747 46.9719C18.8857 46.9719 18.9632 46.9595 19.1019 46.9373C19.1302 46.9328 19.161 46.9278 19.1951 46.9225C19.3119 46.9312 19.4351 46.9263 19.5641 46.9048L19.5675 46.9042C19.7049 46.8808 19.7825 46.8719 19.8309 46.8695C19.835 46.8693 19.8386 46.8692 19.8418 46.8691C19.8671 46.8842 19.9201 46.9188 20.0134 46.9908L20.0242 46.999C20.0978 47.0542 20.1659 47.0976 20.2197 47.1302C20.2462 47.1463 20.2712 47.161 20.2908 47.1725C20.3124 47.1851 20.3261 47.1931 20.3404 47.2016C20.3434 47.2034 20.3463 47.2051 20.3489 47.2067C20.3502 47.2075 20.3514 47.2082 20.3526 47.2089C20.3629 47.2152 20.3696 47.2195 20.3736 47.2221C20.4162 47.2639 20.4599 47.3014 20.5038 47.335C20.5248 47.414 20.5489 47.473 20.5586 47.4968L20.5591 47.498C20.5663 47.5155 20.5739 47.5334 20.5781 47.5431L20.5794 47.5461L20.5896 47.5705C20.5955 47.5848 20.605 47.6086 20.6162 47.6603L20.978 47.5821C21.021 47.5963 21.0561 47.6061 21.0801 47.6128C21.0865 47.6146 21.0921 47.6162 21.0969 47.6175C21.1323 47.6277 21.1445 47.6317 21.1446 47.6316C21.1446 47.6315 21.1342 47.6279 21.1219 47.6224C21.1005 47.6129 21.068 47.5965 21.0306 47.5707L21.5936 47.449L21.43 47.0084L21.6574 46.7985L20.9503 46.0914C20.9459 46.0958 20.9411 46.1005 20.936 46.1056C20.876 46.1654 20.7719 46.2691 20.6946 46.3735C20.6436 46.4425 20.5647 46.562 20.5143 46.7262C20.4992 46.7754 20.488 46.8241 20.4802 46.8719C20.4801 46.8719 20.4803 46.8718 20.4802 46.8719C20.4171 46.9003 20.3755 46.9149 20.3519 46.9222C20.2692 46.9042 20.1892 46.8911 20.112 46.882C20.1075 46.8815 20.103 46.8809 20.0985 46.8804C20.0085 46.8703 19.9223 46.8655 19.8402 46.8645C19.8295 46.8615 19.8231 46.8585 19.8231 46.8585C19.8231 46.8585 19.8265 46.8601 19.834 46.8644C19.7377 46.8635 19.6471 46.8679 19.5626 46.8751C19.5615 46.8752 19.5603 46.8753 19.5592 46.8754C19.4766 46.8825 19.3997 46.8923 19.3291 46.9024C19.2791 46.9096 19.2348 46.9163 19.1951 46.9225C18.7238 46.8873 18.3556 46.6293 18.1177 46.3372C18.0202 46.2175 17.9396 46.088 17.8726 45.9569C17.8311 45.2116 17.7832 44.4446 17.7024 43.6735C17.6723 43.3853 17.6375 43.0966 17.5968 42.8082C17.5772 42.668 17.5524 42.5302 17.5237 42.3952C17.7738 40.728 18.5293 39.2332 19.8224 38.0106L19.8241 38.0091C20.296 37.5649 20.7988 37.1691 21.2702 36.8028C21.3145 36.7684 21.3585 36.7343 21.4022 36.7004C21.8331 36.366 22.2339 36.0549 22.6115 35.7207C22.6105 35.7216 22.6094 35.7226 22.6083 35.7236L23.2773 36.4668L22.6142 35.7183C22.6133 35.7191 22.6124 35.7199 22.6115 35.7207C23.0264 35.348 23.4856 35.0726 23.8515 34.8531C23.8993 34.8244 23.9455 34.7967 23.9898 34.7698C24.4023 34.5198 24.7069 34.3151 24.9586 34.0364C25.5727 33.3577 26.0311 32.497 26.3141 31.5801C26.3465 31.4751 26.3669 31.3365 26.3838 31.1175C26.3869 31.0774 26.39 31.0311 26.3934 30.9806C26.4055 30.8012 26.4212 30.5673 26.453 30.3566C26.4966 30.0665 26.5824 29.7099 26.7925 29.3653C27.0117 29.0056 27.3311 28.7164 27.7522 28.5132C27.7517 28.5135 27.7511 28.5138 27.7505 28.514L28.188 29.4133L27.7542 28.5123C27.7535 28.5126 27.7529 28.5129 27.7522 28.5132C28.2682 28.2628 28.7698 28.3038 29.122 28.3765C29.298 28.4129 29.4614 28.4625 29.5891 28.5029C29.6315 28.5163 29.6688 28.5283 29.7026 28.5391C29.7836 28.5651 29.8447 28.5848 29.9097 28.6028L29.914 28.604C30.2533 28.6999 30.5682 28.7441 30.945 28.797C31.146 28.8252 31.3646 28.8559 31.614 28.8982C31.6117 28.8978 31.6093 28.8975 31.607 28.8971L31.4533 29.8852L31.6211 28.8994C31.6187 28.899 31.6164 28.8986 31.614 28.8982C31.9013 28.9429 32.1921 28.9871 32.485 29.0317C33.3429 29.1623 34.218 29.2956 35.0741 29.4495L35.0751 29.4496C35.7029 29.5632 36.3192 29.7059 36.9106 29.8442L37.0044 29.8661C37.5691 29.9983 38.1108 30.125 38.656 30.2295C39.111 30.3161 39.5719 30.3811 40.0602 30.45C40.1154 30.4578 40.1711 30.4656 40.2271 30.4735C40.7674 30.55 41.3388 30.6341 41.9076 30.7574L41.9101 30.758C42.3748 30.86 42.7632 31.0911 43.0481 31.4367C43.3188 31.7651 43.4475 32.1378 43.5135 32.4566C43.6113 32.9286 43.5996 33.4895 43.5918 33.8604C43.5901 33.9452 43.5885 34.02 43.5885 34.0816C43.5885 35.257 43.5885 36.4323 43.6138 37.5931L43.614 37.6039V37.6148C43.614 37.7954 43.6183 37.9883 43.6228 38.191C43.6431 39.1062 43.6677 40.2189 43.3225 41.279C43.2795 41.4113 43.2801 41.4766 43.2874 41.5538C43.2932 41.6137 43.3034 41.6768 43.3227 41.7945C43.3405 41.9033 43.3635 42.0459 43.3797 42.2116L41.3892 42.4058C41.3847 42.3605 41.3744 42.3014 41.3619 42.2302C41.3049 41.905 41.2036 41.327 41.4208 40.6598C41.651 39.9528 41.6386 39.2627 41.6228 38.3806C41.6186 38.1441 41.6141 37.8938 41.614 37.6257C41.6141 37.6293 41.6142 37.6329 41.6143 37.6365L42.614 37.6148H41.614C41.614 37.6185 41.614 37.6221 41.614 37.6257C41.5885 36.4449 41.5885 35.2532 41.5885 34.0868V34.0816C41.5885 33.9728 41.5906 33.8599 41.5925 33.7558L41.5932 33.7159C41.5953 33.5968 41.597 33.4864 41.5961 33.3787C41.5943 33.1582 41.5816 32.9904 41.5551 32.8623C41.538 32.78 41.5199 32.7374 41.5105 32.7192C41.5155 32.7208 41.5187 32.7221 41.5205 32.7229C41.5216 32.7236 41.5222 32.7238 41.5222 32.7238M41.4822 32.7117C41.495 32.7145 41.5042 32.7171 41.5105 32.7192C41.5065 32.7113 41.5041 32.708 41.5041 32.708C41.5037 32.7075 41.5041 32.708 41.5041 32.708C41.5108 32.7161 41.5176 32.7212 41.5205 32.7229M41.4822 32.7117C40.9928 32.6056 40.4869 32.5303 39.9467 32.4538C39.8912 32.4459 39.8352 32.438 39.7789 32.4301C39.2972 32.3622 38.7871 32.2904 38.2815 32.1941C37.6947 32.0817 37.1148 31.946 36.559 31.816C36.5243 31.8078 36.4897 31.7997 36.4552 31.7917C35.8605 31.6526 35.2907 31.5211 34.7197 31.4178C33.8925 31.2691 33.0563 31.1418 32.2062 31.0124C31.9058 30.9666 31.6037 30.9206 31.2996 30.8733L31.2925 30.8722L31.2855 30.871C31.1533 30.8485 30.9976 30.8264 30.8277 30.8022C30.3838 30.739 29.8432 30.6621 29.3723 30.5293C29.2661 30.4997 29.1508 30.4626 29.059 30.4331C29.0324 30.4246 29.0078 30.4167 28.9859 30.4098C28.8717 30.3736 28.7887 30.3499 28.7176 30.3352C28.6578 30.3229 28.6241 30.3208 28.6085 30.3208C28.5269 30.3623 28.508 30.3934 28.5005 30.4057C28.4834 30.4338 28.454 30.4996 28.4307 30.6543C28.4122 30.7769 28.4044 30.8921 28.3938 31.0477C28.3894 31.1137 28.3844 31.1871 28.3779 31.2713C28.3589 31.5174 28.3266 31.8413 28.2252 32.1699M19.9392 48.8793C19.858 48.8597 19.7807 48.858 19.6139 48.882C19.5888 48.8856 19.5569 48.8909 19.5193 48.897C19.3486 48.925 19.0619 48.9719 18.7747 48.9719C18.3842 48.9719 18.0584 48.8808 17.8565 48.8243C17.8459 48.8214 17.8358 48.8185 17.8259 48.8158C17.6071 48.7549 17.5296 48.7399 17.4483 48.742L16.6934 48.7614L16.4682 48.0406C16.4237 47.8982 16.3904 47.7507 16.3663 47.6439L16.3638 47.6326C16.3361 47.5103 16.3167 47.4257 16.2939 47.3493C16.2784 47.2972 16.2657 47.2654 16.2578 47.2478L15.9263 46.9964L15.9011 46.5317C15.8369 45.3512 15.7749 44.2092 15.6162 43.0863L15.616 43.0846C15.555 42.6481 15.4126 42.2143 15.2277 41.6962C15.2092 41.6443 15.1901 41.5914 15.1707 41.5374C15.1105 41.3697 15.0466 41.1921 14.984 41.0067C14.2786 41.9484 13.6945 42.7529 13.4368 43.6749L13.4352 43.6803C13.3676 43.9172 13.2718 44.1717 13.1894 44.3905L13.1773 44.4226C13.086 44.6652 13.0044 44.8842 12.9411 45.097C12.8452 45.4195 12.8294 45.6111 12.8376 45.7186C12.8393 45.7195 12.8411 45.7204 12.843 45.7214C12.9131 45.7578 13.0536 45.8308 13.1851 45.9262C13.3444 46.0417 13.5294 46.2145 13.6647 46.473C13.727 46.5907 13.7657 46.6991 13.7903 46.776C13.7995 46.781 13.8084 46.7857 13.8168 46.7903C13.8845 46.8271 14.0106 46.8969 14.124 46.9859C14.1728 47.0242 14.293 47.1217 14.393 47.2767C14.4915 47.4293 14.694 47.8564 14.4402 48.328C14.3788 48.4441 14.3064 48.5342 14.2403 48.6023C14.2252 48.6668 14.1926 48.7803 14.1232 48.9018C14.0203 49.0818 13.8664 49.23 13.6749 49.3258C13.512 49.4072 13.3634 49.4294 13.2881 49.4378C13.1671 49.4512 13.0301 49.4465 12.9566 49.444M12.9452 49.4436C12.7378 49.4398 12.5329 49.4647 12.2427 49.4998C12.2193 49.5026 12.1953 49.5055 12.1708 49.5085C11.865 49.5453 11.4704 49.5898 11.0419 49.5555L11.0332 49.5548L11.0246 49.554C10.9966 49.5512 10.9679 49.5485 10.9384 49.5456C10.4617 49.4999 9.78581 49.4349 9.184 49.1998C8.59375 48.9783 8.43815 48.428 8.39592 48.2115C8.34526 47.9519 8.35632 47.6876 8.37106 47.5044C8.38673 47.3095 8.41529 47.1164 8.4354 46.9805L8.43601 46.9764C8.44734 46.8998 8.454 46.8515 8.45792 46.8231C8.46187 46.7945 8.46303 46.7861 8.46336 46.7893C8.45449 45.5554 9.05284 44.2726 9.45423 43.4333L9.45519 43.4313C9.92669 42.4511 10.262 41.5499 10.262 40.6378C10.262 40.5019 10.2518 40.3649 10.2384 40.186C10.2354 40.1449 10.2322 40.1017 10.2289 40.0557C10.2129 39.8339 10.1956 39.5495 10.219 39.2594C10.243 38.9625 10.3122 38.6165 10.4981 38.2773C10.6888 37.9295 10.9725 37.6432 11.3434 37.4279C12.1674 36.94 12.83 36.4087 13.4364 35.7013C14.074 34.9574 14.5545 34.2345 14.8986 33.3816M14.0243 48.7825L14.0252 48.7818C14.0204 48.7855 14.0196 48.7859 14.0243 48.7825ZM14.6254 39.5583C14.6255 39.558 14.6269 39.5619 14.6293 39.5709C14.6265 39.5631 14.6253 39.5586 14.6254 39.5583ZM11.9625 47.5191C11.9521 47.5203 11.9418 47.5216 11.9316 47.5228C11.9299 47.523 11.9281 47.5232 11.9263 47.5234C11.9233 47.5136 11.9204 47.5039 11.9176 47.4946C11.9351 47.5039 11.95 47.5121 11.9625 47.5191ZM14.5547 33.1293C14.5561 33.1285 14.5574 33.1277 14.5588 33.1269L14.0426 32.2705L14.5506 33.1318C14.552 33.131 14.5533 33.1301 14.5547 33.1293ZM16.1536 29.6829L16.2489 29.7391L16.1536 29.6829ZM58.1603 9.6293C58.1599 9.62914 58.1595 9.62897 58.1592 9.62881L58.1603 9.6293Z" fill="white"/>
<mask id="mask0_6183_3216" style="mask-type:luminance" maskUnits="userSpaceOnUse" x="2" y="2" width="61" height="61">
<path d="M32.5 62.5C49.0685 62.5 62.5 49.0685 62.5 32.5C62.5 15.9315 49.0685 2.5 32.5 2.5C15.9315 2.5 2.5 15.9315 2.5 32.5C2.5 49.0685 15.9315 62.5 32.5 62.5Z" fill="white"/>
</mask>
<g mask="url(#mask0_6183_3216)">
<g style="mix-blend-mode:multiply">
<path d="M62.6531 84.949C61.9899 85.1658 61.3011 85.4209 60.6251 85.5867C60.1276 85.7143 59.4134 85.7908 59.1327 86.301C58.9542 86.6327 58.9414 87.0408 58.5588 87.2066C58.2654 87.3342 57.9975 87.5255 57.7042 87.6531C57.0154 87.9337 56.2501 88.0612 55.523 87.9464C54.9491 87.8571 54.4261 87.8571 54.0945 87.8699C53.8139 87.8699 53.444 87.9847 53.2144 87.7679C53.0741 87.6403 52.9848 87.4872 52.7935 87.4107C51.671 87.0408 50.8674 86.352 50.0001 85.574C49.694 85.3061 49.4899 85 49.2858 84.6301C49.0179 84.1327 49.3751 84.0051 49.3751 83.4821C48.6353 82.4362 48.2782 80.9949 47.2833 80.1531C47.0282 79.9362 46.9389 79.6429 46.7475 79.375C46.5817 79.1582 46.3649 79.1709 46.1353 79.0689C45.6378 78.8393 45.1914 78.6225 44.7067 78.3801C44.273 78.1505 43.8649 78.2015 43.444 78.0485C43.2399 77.9719 43.1761 77.7423 42.9593 77.6658C42.7807 77.602 42.5766 77.6276 42.398 77.6403C41.8496 77.6913 41.6583 77.3214 41.1863 77.2704C40.5996 77.1939 40.0384 77.0281 39.4644 76.8112C38.8011 76.8112 38.1378 76.7857 37.4618 76.7602C36.9899 76.7474 36.7348 76.9643 36.2246 76.8495C35.7016 76.7219 35.0511 76.8878 34.5154 76.9133C33.9287 76.9388 33.3292 76.9515 32.7424 76.9643C31.5562 76.9898 30.37 76.7857 29.1838 76.8112C28.6098 76.824 28.1506 76.6837 27.5766 76.6964C26.9516 76.7092 26.3394 76.6199 25.7271 76.4796C24.5537 76.2117 23.3674 75.9056 22.2195 75.5357C21.5307 75.3189 20.9185 74.9872 20.3062 74.6939C19.8725 74.4898 19.4261 74.3622 19.0179 74.1199C18.023 73.4949 17.6021 72.4107 17.0919 71.5179C16.4924 70.4592 16.3139 69.0434 15.8802 67.9082C15.4848 66.8367 14.8598 66.1097 14.171 65.3699C12.7552 63.8393 10.2679 63.5332 8.50774 64.3112C8.22713 64.4388 6.14805 66.1862 5.9057 65.4719C5.72713 64.9235 7.42356 63.8393 7.79346 63.6224C9.73223 62.5 12.1174 62.4872 14.0435 63.648C14.5409 63.9413 14.898 64.273 15.3572 64.7577C15.7526 65.1531 16.1225 65.4974 16.4542 66.0587C16.7475 66.5561 17.0026 67.0026 17.296 67.551C17.4491 67.8316 17.4746 68.2143 17.6404 68.4184C18.023 67.5765 17.296 66.1097 16.9771 65.3316C16.7093 64.6939 16.3776 64.1071 16.2756 63.4184C16.1991 62.8699 16.0077 62.6276 15.8292 62.1684C15.4338 61.1862 14.8853 60.3699 14.1965 59.5663C13.5077 58.7628 12.7552 58.1633 11.8496 57.6276C10.944 57.1046 11.2628 56.1352 11.2628 55.2806C11.2628 54.1327 10.8419 53.0612 10.3572 52.0536C9.93631 51.1735 9.45162 50.0893 9.46438 49.1199C9.46438 48.852 9.18376 47.7806 9.54091 47.6531C10.0256 47.4617 10.5996 47.4107 11.1225 47.3597C11.7603 47.3087 12.347 47.4872 12.972 47.4745C13.3674 47.4617 13.2144 47.4745 13.3292 47.8189C13.3802 47.9464 13.5077 47.9592 13.5588 48.0612C13.6098 48.1505 13.0996 48.3546 13.0358 48.4184C12.87 48.5714 12.8827 48.7883 12.7807 48.9796C12.6021 49.324 12.1174 49.3112 11.9516 49.6811C11.569 50.5102 12.245 51.7092 12.4746 52.5128C12.8062 53.699 13.5715 54.6939 14.2986 55.6633C14.5919 56.0714 14.898 56.6327 15.3827 56.8367C15.6123 56.9388 15.6506 56.25 15.6761 56.1352C15.9057 55.051 16.4542 54.0689 16.6072 52.9719C16.773 51.7985 16.8368 49.5663 16.9006 48.3801C17.2705 48.0995 17.296 47.5255 17.4236 47.1173C17.921 47.1301 18.2654 46.8878 18.7756 46.8878C19.2858 46.8878 19.6557 47.0791 20.1787 46.9515C20.6378 46.8367 21.148 47.2449 21.5945 47.4107C21.4924 47.8827 21.3394 47.7424 21.6583 48.0612C21.5052 48.227 21.2501 48.176 21.0715 48.3546C20.9312 48.4949 20.7781 48.5459 20.6251 48.6607C20.1787 49.0051 20.0001 49.0434 19.4006 48.9413C18.5588 48.801 18.4312 51.6709 18.4185 52.2321C18.4185 54.1582 19.0945 55.8418 20.4975 57.1684C21.3649 57.9847 22.3725 58.648 23.2654 59.4388C24.0307 60.1276 24.9746 60.4082 25.6889 61.199C26.4159 62.0026 26.9389 62.9974 27.2577 64.0306C27.5256 64.898 27.1429 65.9949 28.1761 66.4923C28.648 66.7219 29.171 66.4668 29.6302 66.3393C30.2169 66.1735 30.8419 66.1224 31.4414 66.0204C32.5894 65.8418 33.7501 65.676 34.8853 65.4719C36.0843 65.2551 37.2577 64.9235 38.4567 64.6939C39.5282 64.4898 40.6251 64.4005 41.6838 64.1709C42.7297 63.9413 42.5766 62.7168 42.5766 61.824C42.5766 60.6505 42.5766 59.4643 42.6021 58.2908C42.6021 57.1556 42.7169 56.0332 42.3598 54.9362C42.1812 54.3878 42.1429 53.0995 42.194 52.5893C42.2322 52.1429 41.8878 51.7474 41.9771 51.2755C43.9797 51.7602 41.8751 46.7857 44.12 46.9005C44.7195 46.9388 45.3572 47.0026 45.9567 47.0536C46.148 47.0791 46.2246 47.2577 46.4159 47.2704C46.62 47.2704 46.8241 47.1939 47.0282 47.1811C47.245 47.1811 47.3215 47.2577 47.3598 47.449C47.3981 47.6403 47.7935 47.1684 47.8827 47.1556C48.4822 47.0918 49.0817 47.0153 49.6812 46.977C50.1787 46.9388 51.6583 46.9643 51.62 47.8699C51.9134 48.2526 51.7603 48.2398 51.4414 48.3929C51.0588 48.5714 50.8164 48.9413 50.4083 49.0689C50.1404 49.0306 50.0511 48.8393 49.796 48.9413C49.643 49.0051 49.5664 49.2219 49.4389 49.324C49.0307 49.5791 48.8904 50.0255 48.8139 50.4719C48.6098 51.6582 48.7501 53.6352 49.0435 54.8087C49.3623 56.0204 48.9414 57.4745 48.9924 58.7245C49.0435 59.8852 49.0435 61.0587 49.1965 62.2194C49.5409 64.7449 50.7909 66.7347 51.9261 68.9668C53.0103 71.1225 51.8751 73.6352 53.2782 75.7398C53.6225 76.25 53.648 76.8112 53.9159 77.3342C54.12 77.7168 54.5792 77.8316 54.898 78.074C55.2552 78.3418 55.4083 78.9158 55.7526 79.1454C55.9695 79.2857 56.671 79.9107 56.8751 79.8342C57.4618 79.6174 58.8904 79.5663 59.5154 79.5153C59.9873 79.477 61.2373 79.4515 61.5945 79.9107C62.3088 80.8418 61.9644 81.4031 61.9644 81.4031C62.6404 81.6709 62.3853 81.5816 62.8445 82.1429C63.2144 82.602 63.495 83.4056 63.6481 83.9668C63.8011 84.5663 63.0868 84.7959 62.6531 84.9362V84.949Z" fill="url(#paint1_linear_6183_3216)"/>
<path d="M46.1485 62.3597C45.9062 61.0587 46.0465 59.7066 46.1868 58.3929C46.3526 56.8878 46.5057 55.3827 46.6332 53.8776C46.7353 52.6531 47.0797 51.0204 46.7353 49.8469C45.6511 50.3316 46.1613 54.5791 46.1485 55.6633C46.123 57.7806 45.7659 60.2806 46.1485 62.3597Z" fill="white"/>
</g>
</g>
<path d="M62.6531 10.9694C61.9899 10.7526 61.3011 10.4975 60.6251 10.3316C60.1276 10.2041 59.4134 10.1276 59.1327 9.61736C58.9542 9.28573 58.9414 8.87757 58.5588 8.71175C58.2654 8.5842 57.9975 8.39287 57.7042 8.26532C57.0154 7.98471 56.2501 7.85716 55.523 7.97196C54.9491 8.06124 54.4261 8.06124 54.0945 8.04849C53.8139 8.04849 53.444 7.93369 53.2144 8.15053C53.0741 8.27808 52.9848 8.43114 52.7935 8.50767C51.671 8.87757 50.8674 9.56634 50.0001 10.3444C49.694 10.6123 49.4899 10.9184 49.2858 11.2883C49.0179 11.7857 49.3751 11.9133 49.3751 12.4362C48.6353 13.4822 48.2781 14.9235 47.2832 15.7653C47.0281 15.9822 46.9389 16.2755 46.7475 16.5434C46.5817 16.7602 46.3649 16.7475 46.1353 16.8495C45.6378 17.0791 45.1914 17.2959 44.7067 17.5383C44.273 17.7679 43.8649 17.7169 43.444 17.8699C43.2399 17.9464 43.1761 18.176 42.9593 18.2526C42.7807 18.3163 42.5766 18.2908 42.398 18.2781C41.8496 18.2271 41.6582 18.597 41.1863 18.648C40.5996 18.7245 40.0384 18.8903 39.4644 19.1072C38.8011 19.1072 38.1378 19.1327 37.4618 19.1582C36.9899 19.1709 36.7348 18.9541 36.2246 19.0689C35.7016 19.1964 35.0511 19.0306 34.5154 19.0051C33.9287 18.9796 33.3292 18.9669 32.7424 18.9541C31.5562 18.9286 30.37 19.1327 29.1838 19.1072C28.6098 19.0944 28.1506 19.2347 27.5766 19.222C26.9516 19.2092 26.3394 19.2985 25.7271 19.4388C24.5537 19.7066 23.3674 20.0128 22.2195 20.3827C21.5307 20.5995 20.9185 20.9311 20.3062 21.2245C19.8725 21.4286 19.4261 21.5561 19.0179 21.7985C18.023 22.4235 17.6021 23.5077 17.0919 24.4005C16.4924 25.4592 16.3139 26.875 15.8802 28.0102C15.4848 29.0816 14.8598 29.8087 14.171 30.5485C12.7552 32.0791 10.2679 32.3852 8.50774 31.6072C8.22713 31.4796 6.14805 29.7322 5.9057 30.4464C5.72713 30.9949 7.42356 32.0791 7.79346 32.2959C9.73223 33.4184 12.1174 33.4311 14.0435 32.2704C14.5409 31.9771 14.898 31.6454 15.3572 31.1607C15.7526 30.7653 16.1225 30.4209 16.4542 29.8597C16.7475 29.3623 17.0026 28.9158 17.296 28.3674C17.4491 28.0868 17.4746 27.7041 17.6404 27.5C18.023 28.3419 17.296 29.8087 16.9771 30.5868C16.7093 31.2245 16.3776 31.8112 16.2756 32.5C16.1991 33.0485 16.0077 33.2908 15.8292 33.75C15.4338 34.7322 14.8853 35.5485 14.1965 36.3521C13.5077 37.1556 12.7552 37.7551 11.8496 38.2908C10.944 38.8138 11.2628 39.7832 11.2628 40.6378C11.2628 41.7857 10.8419 42.8572 10.3572 43.8648C9.93631 44.7449 9.45162 45.8291 9.46438 46.7985C9.46438 47.0663 9.18376 48.1378 9.54091 48.2653C10.0256 48.4566 10.5996 48.5077 11.1225 48.5587C11.7603 48.6097 12.347 48.4311 12.972 48.4439C13.3674 48.4566 13.2144 48.4439 13.3292 48.0995C13.3802 47.972 13.5077 47.9592 13.5588 47.8572C13.6098 47.7679 13.0996 47.5638 13.0358 47.5C12.87 47.347 12.8827 47.1301 12.7807 46.9388C12.6021 46.5944 12.1174 46.6072 11.9516 46.2373C11.569 45.4082 12.245 44.2092 12.4746 43.4056C12.8062 42.2194 13.5715 41.2245 14.2986 40.2551C14.5919 39.847 14.898 39.2857 15.3827 39.0816C15.6123 38.9796 15.6506 39.6684 15.6761 39.7832C15.9057 40.8674 16.4542 41.8495 16.6072 42.9464C16.773 44.1199 16.8368 45.3061 16.9006 46.4796C17.2705 46.7602 17.296 47.3342 17.4236 47.7424C17.921 47.7296 18.2654 47.972 18.7756 47.972C19.2858 47.972 19.6557 47.7806 20.1787 47.9082C20.6378 48.023 21.148 47.6148 21.5945 47.449C21.4924 46.9771 21.3394 47.1174 21.6583 46.7985C21.5052 46.6327 21.2501 46.6837 21.0715 46.5051C20.9312 46.3648 20.7781 46.3138 20.6251 46.199C20.1787 45.8546 20.0001 45.8163 19.4006 45.9184C18.5588 46.0587 18.4312 44.2347 18.4312 43.6735C18.4312 41.7475 19.1072 40.0638 20.5103 38.7373C21.3776 37.9209 22.3853 37.2577 23.2781 36.4669C24.0435 35.7781 24.9873 35.4975 25.7016 34.7066C26.4287 33.9031 26.9516 32.9082 27.2705 31.875C27.5384 31.0077 27.1557 29.9107 28.1889 29.4133C28.6608 29.1837 29.1838 29.4388 29.6429 29.5663C30.2297 29.7322 30.8547 29.7832 31.4542 29.8852C32.6021 30.0638 33.7628 30.2296 34.898 30.4337C36.097 30.6505 37.2705 30.9822 38.4695 31.2118C39.5409 31.4158 40.6378 31.5051 41.6965 31.7347C42.7424 31.9643 42.5894 33.1888 42.5894 34.0816C42.5894 35.2551 42.5894 36.4413 42.6149 37.6148C42.6149 38.75 42.7297 39.8725 42.3725 40.9694C42.194 41.5179 42.3343 41.7857 42.3853 42.3087C42.4236 42.7551 42.0792 43.1505 42.1685 43.6225C44.171 43.1378 42.0664 48.1123 44.3113 47.9975C44.9108 47.9592 45.5486 47.8954 46.148 47.8444C46.3394 47.8189 46.4159 47.6403 46.6072 47.6276C46.8113 47.6276 47.0154 47.7041 47.2195 47.7169C47.4363 47.7169 47.5128 47.6403 47.5511 47.449C47.5894 47.2577 47.9848 47.7296 48.0741 47.7424C48.6736 47.8061 49.273 47.8827 49.8725 47.9209C50.37 47.9592 51.8496 47.9337 51.8113 47.0281C52.1047 46.6454 51.9516 46.6582 51.6327 46.5051C51.2501 46.3265 51.0077 45.9567 50.5996 45.8291C50.3317 45.8674 50.2424 46.0587 49.9873 45.9566C49.8343 45.8929 49.7577 45.676 49.6302 45.574C49.222 45.3189 49.0817 44.8725 49.0052 44.426C48.8011 43.2398 48.7501 42.2704 49.0562 41.097C49.3751 39.8852 48.9542 38.4311 49.0052 37.1811C49.0562 36.0204 49.0562 34.847 49.2093 33.6862C49.5537 31.1607 50.8037 29.1709 51.9389 26.9388C53.0231 24.7832 51.8878 22.2704 53.2909 20.1658C53.6353 19.6556 53.6608 19.0944 53.9287 18.5714C54.1327 18.1888 54.5919 18.074 54.9108 17.8316C55.2679 17.5638 55.421 16.9898 55.7654 16.7602C55.9822 16.6199 56.6838 15.9949 56.8878 16.0714C57.4746 16.2883 58.9031 16.3393 59.5281 16.3903C60.0001 16.4286 61.2501 16.4541 61.6072 15.9949C62.3215 15.0638 61.9771 14.5026 61.9771 14.5026C62.6531 14.2347 62.398 14.324 62.8572 13.7628C63.2271 13.3036 63.5077 12.5 63.6608 11.9388C63.8139 11.3393 63.0996 11.1097 62.6659 10.9694H62.6531Z" fill="url(#paint2_linear_6183_3216)"/>
<path d="M46.1476 32.3214C45.9052 33.6225 46.0455 34.9745 46.1858 36.2883C46.3516 37.7934 46.5047 39.2985 46.6323 40.8036C46.7343 42.0281 47.0787 43.6607 46.7343 44.8342C45.6501 44.3495 46.1603 40.1021 46.1476 39.0179C46.122 36.9005 45.7649 34.4005 46.1476 32.3214Z" fill="white"/>
<path fill-rule="evenodd" clip-rule="evenodd" d="M23.535 18.1438C23.5598 18.3634 23.402 18.5614 23.1825 18.5863C20.3944 18.9015 18.5322 19.9895 17.3697 20.9875C16.787 21.4877 16.3783 21.967 16.1168 22.3182C15.9862 22.4937 15.8925 22.6369 15.8325 22.7343C15.8026 22.783 15.781 22.8202 15.7675 22.8442C15.7607 22.8562 15.756 22.8649 15.7532 22.8701L15.7506 22.8749L15.7504 22.8752L15.7504 22.8753C15.6489 23.0713 15.4078 23.1481 15.2116 23.0467C15.0153 22.9453 14.9384 22.704 15.0398 22.5078L15.3774 22.6821C15.0398 22.5078 15.0399 22.5076 15.04 22.5073L15.0403 22.5068L15.041 22.5055L15.0429 22.5019L15.049 22.4904C15.0541 22.481 15.0612 22.468 15.0704 22.4516C15.0889 22.4189 15.1157 22.3727 15.1513 22.3148C15.2226 22.199 15.3294 22.0362 15.4751 21.8404C15.7666 21.449 16.2148 20.9246 16.8486 20.3805C18.1191 19.2898 20.1282 18.1266 23.0926 17.7913C23.3121 17.7665 23.5102 17.9243 23.535 18.1438Z" fill="#72207E"/>
<path d="M26.9766 22.5765C26.8491 22.3597 26.7853 22.1046 26.7215 21.9515C26.4027 21.199 25.8032 21.4286 25.4715 21.6199C25.2292 21.7602 24.2598 22.3597 23.3414 22.9209C22.7802 23.2653 22.2317 23.3163 21.8363 23.4311C20.7904 23.7117 19.9996 23.5842 19.1323 24.7321C18.2649 25.8801 18.5965 25.8291 20.2164 25.9311C20.5863 25.9566 20.867 25.9694 21.1093 25.9821C21.7726 27.1429 22.844 29.8852 22.3593 32.1174C22.3083 32.3342 22.1807 32.5383 22.0659 32.7296C22.0022 32.7934 21.9256 32.8827 21.8491 32.9847C21.4282 33.5332 21.0073 34.0561 20.1527 34.8725C19.3108 35.676 17.742 37.2066 17.3083 37.7551C16.9129 38.2526 16.594 38.3673 16.6195 38.6607C16.5557 39.0689 16.9894 39.3367 17.5889 39.4643C18.3159 39.6173 18.571 39.5153 18.9537 38.6607C19.3363 37.8189 19.6552 37.2321 20.6884 36.4031C21.7215 35.574 22.8568 34.5153 23.52 34.3112C23.6858 34.2602 23.8134 34.1582 23.9154 34.0561C24.4256 33.7372 24.4639 33.2398 24.0685 32.7934C23.52 32.1811 23.6731 30.0128 23.5328 28.5587C23.3925 27.1046 22.8695 26.0714 22.9971 25.8291C23.0353 25.7398 23.1119 25.625 23.1756 25.4847C23.3925 25.2551 23.52 24.9872 23.8134 24.8214C24.3746 24.5026 25.5991 24.2857 26.0965 24.1199C26.645 23.9413 27.8312 24.0434 26.9511 22.5893L26.9766 22.5765Z" fill="#72207E"/>
<defs>
<linearGradient id="paint0_linear_6183_3216" x1="1.84949" y1="32.5" x2="63.1378" y2="32.5" gradientUnits="userSpaceOnUse">
<stop stop-color="#D9DADA"/>
<stop offset="0.08" stop-color="#ABACAC"/>
<stop offset="0.17" stop-color="white"/>
<stop offset="0.32" stop-color="#ABACAC"/>
<stop offset="0.47" stop-color="#ABACAC"/>
<stop offset="0.6" stop-color="white"/>
<stop offset="0.69" stop-color="#D9DADA"/>
<stop offset="0.86" stop-color="#ABACAC"/>
<stop offset="1" stop-color="#D9DADA"/>
</linearGradient>
<linearGradient id="paint1_linear_6183_3216" x1="34.796" y1="47.9975" x2="34.796" y2="61.6327" gradientUnits="userSpaceOnUse">
<stop stop-color="#D9D9D9"/>
<stop offset="0.58" stop-color="white"/>
</linearGradient>
<linearGradient id="paint2_linear_6183_3216" x1="14.5026" y1="53.2271" x2="59.9236" y2="7.80614" gradientUnits="userSpaceOnUse">
<stop stop-color="#ABACAC"/>
<stop offset="0.17" stop-color="#E6E6E6"/>
<stop offset="0.32" stop-color="#ABACAC"/>
<stop offset="0.47" stop-color="#ABACAC"/>
<stop offset="0.6" stop-color="#E6E6E6"/>
<stop offset="0.69" stop-color="#D9DADA"/>
<stop offset="0.78" stop-color="#D9DADA"/>
<stop offset="0.9" stop-color="#ABACAC"/>
<stop offset="1" stop-color="#666666"/>
</linearGradient>
</defs>
</svg>
