<svg width="66" height="66" viewBox="0 0 66 66" fill="none" xmlns="http://www.w3.org/2000/svg">
<path d="M32.7419 62.854C49.3723 62.854 62.8539 49.3724 62.8539 32.742C62.8539 16.1116 49.3723 2.63 32.7419 2.63C16.1115 2.63 2.62988 16.1116 2.62988 32.742C2.62988 49.3724 16.1115 62.854 32.7419 62.854Z" fill="white"/>
<path fill-rule="evenodd" clip-rule="evenodd" d="M32.742 5.26C17.5641 5.26 5.26 17.5641 5.26 32.742C5.26 47.9199 17.5641 60.224 32.742 60.224C47.9199 60.224 60.2241 47.9199 60.2241 32.742C60.2241 17.5641 47.9199 5.26 32.742 5.26ZM0 32.742C0 14.6591 14.6591 0 32.742 0C50.8249 0 65.4841 14.6591 65.4841 32.742C65.4841 50.8249 50.8249 65.484 32.742 65.484C14.6591 65.484 0 50.8249 0 32.742Z" fill="white"/>
<path d="M32.7419 62.854C49.3723 62.854 62.8539 49.3724 62.8539 32.742C62.8539 16.1116 49.3723 2.63 32.7419 2.63C16.1115 2.63 2.62988 16.1116 2.62988 32.742C2.62988 49.3724 16.1115 62.854 32.7419 62.854Z" fill="white"/>
<path fill-rule="evenodd" clip-rule="evenodd" d="M32.7419 3.13C16.3876 3.13 3.12988 16.3878 3.12988 32.742C3.12988 49.0963 16.3876 62.354 32.7419 62.354C49.0962 62.354 62.3539 49.0963 62.3539 32.742C62.3539 16.3878 49.0962 3.13 32.7419 3.13ZM2.12988 32.742C2.12988 15.8355 15.8354 2.13 32.7419 2.13C49.6485 2.13 63.3539 15.8355 63.3539 32.742C63.3539 49.6486 49.6485 63.354 32.7419 63.354C15.8354 63.354 2.12988 49.6486 2.12988 32.742Z" fill="url(#paint0_linear_6183_3004)"/>
<path d="M48.1606 44.0324C48.0077 43.5736 47.8421 43.1276 47.8038 42.6052C47.8293 42.0827 47.8421 41.5602 47.8675 41.025C47.9058 40.7192 47.9568 40.4261 47.9568 40.1075C47.9568 39.4831 47.9313 38.8714 47.9185 38.247C47.893 37.75 47.8548 37.253 47.893 36.7433C47.9313 36.0807 48.0205 35.4308 48.1479 34.8064C48.1861 34.6025 48.2371 34.4113 48.2626 34.2074H48.3136C48.3136 34.2074 52.7227 28.6387 53.156 25.0451C53.156 25.0451 54.3538 17.7306 55.7938 16.9023C55.7938 16.9023 59.3873 17.0934 60.7126 16.1504C60.7126 16.1504 62.6241 17.0552 62.6878 13.1048L58.6482 11.359C58.6482 11.359 58.5718 9.39655 54.0989 8.13498C51.9581 7.53606 51.5758 5.39521 50.9514 4.7708C50.327 4.14638 50.0976 10.0847 50.0976 10.0847L49.6771 10.5434C49.5496 10.6709 49.4222 10.7983 49.3075 10.9385C49.3075 10.9385 47.8421 12.353 45.6248 15.9083C45.6248 15.9083 44.1083 20.9163 31.1486 21.4006C31.1486 21.4006 19.4249 20.241 15.9715 25.8097C15.9715 25.8097 13.9708 30.8178 10.6449 34.131C9.5362 34.921 7.84137 35.864 6.45237 35.8895C4.7193 35.9278 1.99227 36.0297 1.87758 37.4187C1.76289 38.795 2.54022 38.3235 3.11366 38.6166C3.69985 38.9096 4.5409 38.8204 5.13982 39.0116C5.29274 39.0626 5.44566 39.0498 5.58583 39.0116C5.95538 39.0881 6.37591 39.1518 6.8474 39.1645C7.17872 39.5468 7.17872 39.738 7.66296 39.4703C8.22366 39.1645 7.66296 39.6488 8.44029 39.5595C9.23037 39.4703 8.54224 39.8781 9.52346 39.4576C10.5047 39.0371 10.2243 39.8399 11.3075 38.8459C12.3907 37.8647 12.5436 38.5019 13.2445 37.2785C13.9453 36.0679 13.6522 36.3865 14.1492 35.4945C14.6589 34.6025 15.1177 33.7232 15.3088 33.3409C15.5127 32.9586 15.7039 32.7675 15.7039 32.7675C15.7039 32.7675 15.8695 32.2068 16.0989 31.5441C16.1881 32.3342 16.3793 35.6092 14.0473 38.8969C14.0218 38.8969 14.009 38.9224 13.9963 38.9351C13.9581 38.9734 13.9326 39.0371 13.9198 39.0881C13.8561 39.1773 13.4483 39.8144 13.1298 40.7574C13.0915 40.8339 13.0406 40.9103 13.0023 40.9868L12.9641 41.076C12.8622 41.522 12.7475 41.9043 12.7602 42.4268C12.7602 42.7963 12.8622 43.1276 12.9131 43.4589C12.9514 43.8795 12.9768 44.3 13.0278 44.7205" fill="white"/>
<path d="M48.1606 44.0324C48.0077 43.5736 47.8421 43.1276 47.8038 42.6052C47.8293 42.0827 47.8421 41.5602 47.8675 41.025C47.9058 40.7192 47.9568 40.4261 47.9568 40.1075C47.9568 39.4831 47.9313 38.8714 47.9185 38.247C47.893 37.75 47.8548 37.253 47.893 36.7433C47.9313 36.0807 48.0205 35.4308 48.1479 34.8064C48.1861 34.6025 48.2371 34.4113 48.2626 34.2074H48.3136C48.3136 34.2074 52.7227 28.6387 53.156 25.0451C53.156 25.0451 54.3538 17.7306 55.7938 16.9023C55.7938 16.9023 59.3873 17.0934 60.7126 16.1504C60.7126 16.1504 62.6241 17.0552 62.6878 13.1048L58.6482 11.359C58.6482 11.359 58.5718 9.39655 54.0989 8.13498C51.9581 7.53606 51.5758 5.39521 50.9514 4.7708C50.327 4.14638 50.0976 10.0847 50.0976 10.0847L49.6771 10.5434C49.5496 10.6709 49.4222 10.7983 49.3075 10.9385C49.3075 10.9385 47.8421 12.353 45.6248 15.9083C45.6248 15.9083 44.1083 20.9163 31.1486 21.4006C31.1486 21.4006 19.4249 20.241 15.9715 25.8097C15.9715 25.8097 13.9708 30.8178 10.6449 34.131C9.5362 34.921 7.84137 35.864 6.45237 35.8895C4.7193 35.9278 1.99227 36.0297 1.87758 37.4187C1.76289 38.795 2.54022 38.3235 3.11366 38.6166C3.69985 38.9096 4.5409 38.8204 5.13982 39.0116C5.29274 39.0626 5.44566 39.0498 5.58583 39.0116C5.95538 39.0881 6.37591 39.1518 6.8474 39.1645C7.17872 39.5468 7.17872 39.738 7.66296 39.4703C8.22366 39.1645 7.66296 39.6487 8.44029 39.5595C9.23037 39.4703 8.54224 39.8781 9.52346 39.4576C10.5047 39.0371 10.2243 39.8399 11.3075 38.8459C12.3907 37.8647 12.5436 38.5019 13.2445 37.2785C13.9453 36.0679 13.6522 36.3865 14.1492 35.4945C14.6589 34.6025 15.1177 33.7232 15.3088 33.3409C15.5127 32.9586 15.7039 32.7675 15.7039 32.7675C15.7039 32.7675 15.8695 32.2068 16.0989 31.5441C16.1881 32.3342 16.3793 35.6092 14.0473 38.8969C14.0218 38.8969 14.009 38.9224 13.9963 38.9351C13.9581 38.9734 13.9326 39.0371 13.9198 39.0881C13.8561 39.1773 13.4483 39.8144 13.1298 40.7574C13.0915 40.8339 13.0406 40.9103 13.0023 40.9868L12.9641 41.076C12.8622 41.522 12.7475 41.9043 12.7602 42.4268C12.7602 42.7963 12.8622 43.1276 12.9131 43.4589C12.9514 43.8795 12.9768 44.3 13.0278 44.7205" stroke="white" stroke-width="3" stroke-miterlimit="10"/>
<path d="M17.9728 44.7461C17.8964 44.7078 17.9091 44.4275 17.8454 44.351C17.7434 44.2364 17.7052 44.0707 17.6415 43.9178C17.5141 43.5865 17.3866 43.2424 17.2592 42.9111C17.119 42.4905 16.8769 41.8534 17.0553 41.3946C17.1318 41.1907 17.2719 41.0251 17.4249 40.8722C19.1197 39.6106 24.1787 35.7112 25.4403 33.0734C25.4403 33.0734 28.6898 32.4107 31.06 33.4047C31.06 33.4047 38.6167 35.3034 42.6563 35.227C42.7072 35.3926 42.7455 35.571 42.7964 35.7494C42.9366 36.3229 42.9876 36.9345 43.115 37.5207C43.2934 38.3618 43.51 39.1901 43.663 40.0566C43.8541 41.2035 44.0453 42.3504 44.2491 43.4845" fill="white"/>
<path fill-rule="evenodd" clip-rule="evenodd" d="M26.3892 34.4459C25.4921 35.8683 23.9774 37.3701 22.5952 38.6067C21.0341 40.0035 19.433 41.2413 18.521 41.9256C18.5342 41.979 18.5517 42.0403 18.5741 42.1114C18.5971 42.1845 18.6178 42.2458 18.642 42.3171C18.6511 42.3442 18.6608 42.3728 18.6713 42.404C18.7327 42.564 18.7937 42.7257 18.853 42.8828L18.8537 42.8848C18.9157 43.0489 18.9757 43.208 19.0354 43.3635C19.0475 43.3932 19.0582 43.4206 19.0672 43.4444C19.0782 43.4735 19.0881 43.5008 19.0954 43.5207C19.1261 43.5663 19.1517 43.6099 19.1725 43.6479C19.2125 43.721 19.2417 43.7876 19.2627 43.8413C19.3033 43.9451 19.3272 44.0358 19.3406 44.0922C19.3547 44.1515 19.3645 44.2037 19.3703 44.2367C19.3744 44.2595 19.3795 44.2902 19.382 44.3046C19.3825 44.308 19.3829 44.3105 19.3831 44.3118C19.3847 44.3207 19.3853 44.3243 19.3854 44.3245C19.3854 44.3246 19.3849 44.3218 19.3839 44.3174C19.3823 44.3097 19.3745 44.2724 19.3577 44.2202C19.3431 44.1748 19.3049 44.0635 19.2239 43.9325C19.1628 43.8337 19.043 43.6679 18.8397 43.5225C18.8283 43.5143 18.8167 43.5062 18.8048 43.4983C18.796 43.4923 18.787 43.4865 18.7779 43.4807L18.5645 43.5628L17.302 46.0877C16.957 45.9152 16.7649 45.6601 16.6721 45.51C16.5769 45.356 16.5266 45.216 16.5015 45.1377C16.4809 45.0735 16.4649 45.0105 16.453 44.9571C16.3992 44.8571 16.3626 44.7707 16.3384 44.7109C16.3138 44.65 16.2918 44.5894 16.2798 44.5563C16.2785 44.5529 16.2774 44.5498 16.2764 44.547L16.2616 44.5068C16.2581 44.4977 16.2567 44.4944 16.2569 44.4947L16.2489 44.4756L16.2415 44.4562C16.176 44.2861 16.1109 44.1135 16.0477 43.9461L16.0469 43.944C15.9829 43.7744 15.9209 43.61 15.8592 43.4495L15.8469 43.4177L15.8362 43.3854C15.8292 43.3645 15.8208 43.3398 15.8112 43.3118C15.7484 43.1274 15.6372 42.8009 15.569 42.4714C15.4942 42.1103 15.4107 41.4927 15.6539 40.8597C15.8459 40.3534 16.1699 40.0058 16.3642 39.8115L16.4415 39.7342L16.5292 39.6689C17.3614 39.0494 19.0091 37.7898 20.5949 36.371C22.2436 34.8958 23.6018 33.4408 24.0871 32.4262L24.4092 31.7528L25.1406 31.6036L25.4403 33.0734C25.1406 31.6036 25.1402 31.6037 25.1406 31.6036L25.1437 31.603L25.148 31.6021L25.1602 31.5997L25.1986 31.5923C25.2303 31.5863 25.274 31.5783 25.3288 31.5688C25.4382 31.5499 25.5921 31.5251 25.7824 31.4991C26.1616 31.4474 26.6918 31.3902 27.3053 31.3673C28.4653 31.324 30.0732 31.3959 31.5263 31.9748C31.5794 31.9879 31.6527 32.0058 31.7445 32.028C31.954 32.0785 32.2594 32.1511 32.6389 32.2381C33.3987 32.4122 34.4527 32.6434 35.6294 32.872C38.0243 33.3373 40.7834 33.7621 42.6279 33.7272L43.7576 33.7058L44.0899 34.7858C44.1275 34.9079 44.1578 35.0263 44.18 35.1134L44.1874 35.1425C44.2081 35.2239 44.2226 35.2808 44.2387 35.3373L44.2467 35.3651L44.2535 35.3932C44.3408 35.7502 44.397 36.1052 44.4428 36.4004C44.4463 36.4228 44.4497 36.4448 44.453 36.4665C44.497 36.7504 44.5325 36.9802 44.5808 37.2021L44.5824 37.2095C44.636 37.4622 44.6998 37.7406 44.7669 38.0332C44.8959 38.5961 45.037 39.2113 45.1401 39.7959L45.1414 39.803L45.1426 39.81C45.334 40.9585 45.5236 42.0959 45.7255 43.2191L42.7728 43.7499C42.5674 42.6072 42.375 41.4532 42.1846 40.3103C42.0927 39.7907 41.9856 39.3266 41.8702 38.8261C41.799 38.517 41.7245 38.1939 41.6484 37.8355C41.5802 37.5211 41.5313 37.2038 41.4903 36.9386C41.4862 36.9119 41.4822 36.8857 41.4782 36.8602C41.4698 36.8056 41.4615 36.7531 41.4534 36.7025C39.4383 36.5975 37.0287 36.2 35.0572 35.817C33.8398 35.5804 32.7521 35.3418 31.9688 35.1623C31.5768 35.0724 31.2602 34.9972 31.0407 34.9443C30.9309 34.9178 30.8454 34.8968 30.7868 34.8824L30.7194 34.8657L30.6952 34.8596C30.6951 34.8596 30.6945 34.8595 31.06 33.4047L30.6952 34.8596L30.5845 34.8318L30.4799 34.788C29.592 34.4156 28.4442 34.3269 27.4173 34.3652C27.0232 34.38 26.6702 34.4124 26.3892 34.4459ZM18.5831 43.5254L18.7428 43.4589C18.7114 43.44 18.6784 43.4218 18.6436 43.4044L18.5831 43.5254Z" fill="white"/>
<mask id="mask0_6183_3004" style="mask-type:luminance" maskUnits="userSpaceOnUse" x="2" y="2" width="61" height="61">
<path d="M32.742 62.8667C49.3794 62.8667 62.8667 49.3794 62.8667 32.742C62.8667 16.1045 49.3794 2.61719 32.742 2.61719C16.1045 2.61719 2.61719 16.1045 2.61719 32.742C2.61719 49.3794 16.1045 62.8667 32.742 62.8667Z" fill="white"/>
</mask>
<g mask="url(#mask0_6183_3004)">
<g style="mix-blend-mode:multiply">
<path d="M25.4401 67.4797C24.1785 64.8419 19.1195 60.9297 17.4247 59.6809C17.2718 59.528 17.1316 59.3496 17.0551 59.1584C16.8767 58.6997 17.1188 58.0625 17.259 57.642C17.3865 57.3107 17.5139 56.9666 17.6413 56.6353C17.705 56.4824 17.7433 56.3295 17.8452 56.202C17.9089 56.1256 17.9599 50.1873 18.0363 50.1363C18.2148 50.0726 18.699 49.1168 18.8774 49.0531C19.2342 49.0531 19.7439 48.8875 20.037 48.7091C20.4321 48.4797 20.4958 47.817 20.6869 47.5877C20.6869 47.524 20.6614 47.4602 20.6487 47.3838C20.5213 47.3838 20.3301 47.422 20.139 47.4475C20.0498 47.3456 19.8586 47.2054 19.4254 47.1926C18.7117 47.1799 18.4824 47.0907 18.304 47.0652C18.1256 47.0525 17.2718 47.1162 17.1953 47.1417C17.1316 47.1544 17.0042 47.1162 16.915 47.2054C16.8895 47.2054 16.8767 47.2054 16.864 47.2181C16.7366 47.3456 16.4944 48.7855 16.3797 49.0276C16.367 49.0659 16.3288 49.4864 16.2905 50.0981C16.0994 50.0981 15.921 50.0981 15.6789 50.0981C15.2838 50.0471 14.8506 49.9579 14.4428 50.0089C14.2389 50.0853 14.035 50.149 13.8439 50.2255C13.7292 50.2765 13.538 50.3402 13.4616 50.4421C13.1685 50.8754 13.3214 51.9203 13.3341 52.4683C13.3341 52.9653 13.3086 53.424 13.2704 53.8955C13.2194 54.5454 13.1048 55.1571 13.041 55.7943C13.0028 56.2148 12.9646 56.648 12.9264 57.0558C12.8881 57.3871 12.7862 57.7185 12.7734 58.088C12.7734 58.5977 12.8881 58.9928 12.9773 59.4388L13.0156 59.528C13.0538 59.6044 13.092 59.6809 13.143 59.7574C13.4616 60.6876 13.8566 61.3375 13.9331 61.4267C13.9331 61.4904 13.9713 61.5414 14.0095 61.5796C14.0223 61.5924 14.0478 61.6051 14.0605 61.6179C16.3797 64.9056 16.1886 68.1806 16.1121 68.9706L25.4401 67.4797Z" fill="url(#paint1_linear_6183_3004)"/>
<path d="M50.6718 46.7594L50.4679 46.6702C50.4679 46.6702 50.4552 46.6447 50.4424 46.6319C50.4424 46.5937 50.3915 46.6064 50.3405 46.6319C49.2701 46.5172 48.1742 46.4026 47.1292 46.6574C46.9763 46.6956 46.8106 46.7466 46.6832 46.8486C46.594 46.925 46.5175 47.0142 46.4538 47.1162C46.4283 47.1544 46.4156 47.2054 46.3901 47.2563C46.2882 47.3073 46.1735 47.3583 46.097 47.4475C46.0206 47.5367 45.9696 47.6514 45.9186 47.7533C45.6765 48.365 45.6892 49.0404 45.702 49.703C45.702 49.9451 45.7147 50.1745 45.7275 50.4166C45.7275 50.5823 45.702 50.7607 45.702 50.9264C45.702 51.0665 45.7147 51.2067 45.7912 51.3214C45.7912 51.3341 45.8167 51.3469 45.8294 51.3596C45.8422 51.4488 45.8422 51.5508 45.8676 51.64C45.8931 51.7802 45.9314 51.9203 46.0333 52.0223C46.0333 52.0223 46.0588 52.035 46.0715 52.0478C45.9823 52.1242 45.9059 52.2007 45.8931 52.3281C45.8549 52.6085 46.0333 52.9016 46.0715 53.1692C46.1353 53.5515 46.1862 53.9337 46.2245 54.316C46.2245 55.4757 46.2499 56.6353 46.2627 57.7949C46.2754 58.6742 46.2117 59.528 46.1862 60.3818L51.0286 60.2926C50.9012 59.7956 50.8502 59.2986 50.7865 58.8016C50.6846 58.19 50.5954 57.5783 50.4934 56.9666C50.4297 56.648 50.3277 56.3677 50.2385 56.0746C50.1239 55.5649 50.0092 55.0551 49.8945 54.5327C49.8435 53.9975 49.92 53.5387 49.9964 53.0545C50.0474 52.7104 50.2768 50.3529 50.3532 50.0216H50.3405C50.4679 49.754 50.5826 49.4737 50.6591 49.1806C50.8502 48.4415 50.8502 47.6386 51.2198 46.9887L50.8375 46.8103L50.7228 46.7594H50.6718Z" fill="url(#paint2_linear_6183_3004)"/>
</g>
</g>
<path d="M17.9718 44.746C17.8954 44.7078 17.9081 44.4274 17.8444 44.351C17.7425 44.2363 17.7042 44.0706 17.6405 43.9177C17.5131 43.5864 17.3857 43.2423 17.2582 42.911C17.118 42.4905 16.8759 41.8533 17.0543 41.3946C17.1308 41.1907 17.271 41.025 17.4239 40.8721C19.1187 39.6105 24.1777 35.7111 25.4393 33.0733C25.4393 33.0733 28.6888 32.4107 31.059 33.4046C31.059 33.4046 38.6157 35.3034 42.6553 35.2269C42.7063 35.3926 42.7445 35.571 42.7955 35.7494C42.9356 36.3228 42.9866 36.9345 43.114 37.5207C43.2924 38.3617 43.5091 39.19 43.662 40.0565C43.8531 41.2034 44.0443 42.3503 44.2482 43.4844" fill="white"/>
<path d="M15.6279 44.0579C15.6279 44.0579 15.6534 44.0579 15.6662 44.0579C15.7299 44.2491 15.8573 44.3892 15.9465 44.5549" fill="white"/>
<path d="M58.6482 11.359C58.6482 11.359 58.5718 9.39655 54.0989 8.13498C51.9581 7.53606 51.5758 5.39521 50.9514 4.7708C50.327 4.14638 50.0976 10.0847 50.0976 10.0847L49.6771 10.5434C49.5496 10.6709 49.4222 10.7983 49.3075 10.9385C49.3075 10.9385 47.8421 12.353 45.6248 15.9083C45.6248 15.9083 44.1083 20.9163 31.1486 21.4006C31.1486 21.4006 19.4249 20.241 15.9715 25.8097C15.9715 25.8097 13.9708 30.8178 10.6449 34.131C9.5362 34.9211 7.84137 35.864 6.45236 35.8895C4.7193 35.9278 1.99227 36.0297 1.87758 37.4187C1.76289 38.795 2.54022 38.3235 3.11366 38.6166C3.69985 38.9096 4.5409 38.8204 5.13982 39.0116C5.29274 39.0626 5.44566 39.0498 5.58583 39.0116C5.95538 39.0881 6.37591 39.1518 6.8474 39.1645C7.17872 39.5468 7.17872 39.738 7.66296 39.4703C8.22366 39.1645 7.66296 39.6488 8.44029 39.5596C9.23037 39.4703 8.54224 39.8781 9.52346 39.4576C10.5047 39.0371 10.2243 39.8399 11.3075 38.8459C12.3907 37.8647 12.5436 38.5019 13.2445 37.2785C13.9453 36.0679 13.6522 36.3865 14.1492 35.4945C14.6589 34.6025 15.1177 33.7232 15.3088 33.3409C15.5127 32.9586 15.7039 32.7675 15.7039 32.7675C15.7039 32.7675 15.8695 32.2068 16.0989 31.5441C16.1881 32.3342 16.3793 35.6092 14.0473 38.8969C14.0218 38.8969 14.009 38.9224 13.9963 38.9351C13.9581 38.9734 13.9326 39.0371 13.9198 39.0881C13.8561 39.1773 13.4483 39.8144 13.1298 40.7574C13.0915 40.8339 13.0406 40.9103 13.0023 40.9868L12.9641 41.076C12.8622 41.522 12.7475 41.9043 12.7602 42.4268C12.7602 42.7963 12.8622 43.1276 12.9131 43.459C12.9514 43.8795 12.9768 44.3 13.0278 44.7205C13.0915 45.3577 13.1935 45.9693 13.2572 46.6192C13.2954 47.0907 13.3209 47.5495 13.3209 48.0465C13.3209 48.5944 13.1553 49.6394 13.4483 50.0726C13.5248 50.1873 13.716 50.251 13.8306 50.2893C14.0345 50.3657 14.2257 50.4294 14.4296 50.5059C14.8373 50.5569 15.2706 50.4677 15.6657 50.4167C16.0479 50.404 16.2646 50.4167 16.6469 50.404C16.6596 50.404 16.7998 50.3275 16.8253 50.302C16.9654 50.1746 17.0292 50.0217 17.1056 49.856C17.1693 49.7668 17.284 49.805 17.3477 49.7158C17.3605 49.6649 17.3732 49.6266 17.386 49.5757C17.1311 49.308 17.0419 48.8238 16.7233 48.6072C16.3793 48.3651 15.7166 48.4033 15.4235 48.0592C15.0922 47.6897 15.0795 45.9948 15.1559 45.4341C15.2451 44.9626 15.5127 44.5039 15.6019 44.0324C15.6019 44.0324 15.6274 44.0324 15.6402 44.0324C15.7039 44.2235 15.8313 44.3637 15.9205 44.5294C15.997 44.695 16.2263 45.638 16.3028 45.8037C16.4048 46.0458 16.6469 47.4858 16.787 47.6132C16.787 47.6132 16.8253 47.626 16.838 47.626C16.9272 47.7152 17.0547 47.6769 17.1184 47.6897C17.1948 47.7152 18.0486 47.7789 18.227 47.7661C18.4054 47.7534 18.6348 47.6642 19.3484 47.6387C19.7817 47.6387 19.9728 47.4985 20.062 47.3838C20.2532 47.4093 20.4571 47.4603 20.5718 47.4475C20.5718 47.3838 20.5972 47.3074 20.61 47.2437C20.4188 47.0143 20.3551 46.3644 19.9601 46.1223C19.667 45.9439 19.1573 45.7655 18.8005 45.7782C18.6221 45.7145 18.1378 44.7715 17.9594 44.695C17.883 44.6568 17.8957 44.3765 17.832 44.3C17.73 44.1853 17.6918 44.0196 17.6281 43.8667C17.5007 43.5354 17.3732 43.1913 17.2458 42.86C17.1056 42.4395 16.8635 41.8023 17.0419 41.3436C17.1184 41.1397 17.2585 40.974 17.4115 40.8211C19.1063 39.5596 24.1653 35.6602 25.4269 33.0223C25.4269 33.0223 28.6764 32.3597 31.0466 33.3536C31.0466 33.3536 38.6033 35.2524 42.6429 35.1759C42.6938 35.3416 42.7321 35.52 42.783 35.6984C42.9232 36.2718 42.9742 36.8835 43.1016 37.4697C43.28 38.3107 43.4967 39.139 43.6496 40.0056C43.8407 41.1524 44.0319 42.2993 44.2358 43.4335C44.274 43.8158 44.2995 44.1981 44.2995 44.5803C44.2995 44.8479 44.1848 45.1793 44.274 45.4469C44.3887 45.7909 44.8729 45.7272 44.9749 46.0968C45.0895 46.4663 45.0768 46.8486 45.1405 47.2564C45.2679 48.1102 45.3444 49.0532 45.7777 49.7286C46.058 50.1618 46.5805 50.1618 47.0392 50.2638C47.4088 50.353 47.8166 50.4294 48.2116 50.4294C48.4155 50.1109 48.8997 50.2256 49.2311 50.2638C49.3712 50.251 49.5114 50.2383 49.6516 50.2383C49.7153 50.2383 49.8045 50.2638 49.8045 50.2256C49.8682 50.1618 49.8682 50.0726 49.9064 49.9962C49.9829 49.7923 50.1741 49.8942 50.327 49.8942C50.327 49.8942 50.327 49.8687 50.327 49.856H50.3652C50.3397 49.3972 50.0721 48.9003 49.7408 48.6199C49.5751 48.4797 49.3967 48.416 49.2311 48.3268C49.1164 48.2376 49.0017 48.1484 48.8997 48.072C48.5939 47.8936 47.5872 47.6514 47.5872 47.1799C47.5872 47.1799 47.5617 47.1799 47.549 47.1799V47.1417C48.5812 47.2564 49.8172 47.5495 50.8622 47.2437C50.9896 47.2054 51.1298 47.1162 51.1935 46.9888C51.2317 46.9123 51.1935 46.8231 51.1425 46.7594C50.9004 46.3007 50.4926 45.5871 50.1103 45.3322C49.9319 45.2175 49.779 45.0646 49.5879 45.0136C49.3967 44.9499 49.1673 45.0136 48.9635 45.0264C48.836 44.9244 48.6449 44.9881 48.4792 45.0009C48.3518 44.695 48.2881 44.351 48.1861 44.0196C48.0332 43.5609 47.8675 43.1149 47.8293 42.5924C47.8548 42.07 47.8675 41.5475 47.893 41.0123C47.9313 40.7064 47.9822 40.4133 47.9822 40.0948C47.9822 39.4703 47.9568 38.8587 47.944 38.2343C47.9185 37.7373 47.8803 37.2403 47.9185 36.7306C47.9567 36.0679 48.046 35.418 48.1734 34.7936C48.2116 34.5897 48.2626 34.3986 48.2881 34.1947H48.339C48.339 34.1947 52.7482 28.6259 53.1814 25.0324C53.1814 25.0324 54.3793 17.7178 55.8193 16.8895C55.8193 16.8895 59.4128 17.0807 60.7381 16.1377C60.7381 16.1377 62.6496 17.0424 62.7133 13.0921L58.6737 11.3463L58.6482 11.359Z" fill="url(#paint3_linear_6183_3004)"/>
<path fill-rule="evenodd" clip-rule="evenodd" d="M27.0202 36.6031L26.8339 36.2045C26.6138 36.3073 26.5187 36.5692 26.6215 36.7893C26.7243 37.0094 26.986 37.1045 27.2061 37.0019L27.2058 37.002L27.2056 37.0021C27.2056 37.0021 27.2059 37.002 27.2063 37.0018L27.2064 37.0017L27.2129 36.9988C27.2195 36.9959 27.2305 36.9911 27.2458 36.9846C27.2763 36.9716 27.3239 36.9521 27.3879 36.9279C27.5158 36.8795 27.7087 36.8124 27.9598 36.7417C28.4623 36.6005 29.1965 36.4456 30.1097 36.3974C31.9319 36.3011 34.4772 36.6287 37.3309 38.3558C37.5388 38.4816 37.8094 38.4151 37.9352 38.2072C38.061 37.9993 37.9945 37.7287 37.7866 37.6029C34.7657 35.7747 32.0418 35.4141 30.0633 35.5186C29.0761 35.5707 28.2772 35.7384 27.7216 35.8946C27.4437 35.9727 27.2263 36.0481 27.0762 36.1049C27.0012 36.1334 26.9429 36.1572 26.9022 36.1744C26.8819 36.183 26.866 36.19 26.8546 36.1951L26.8408 36.2013L26.8365 36.2033L26.835 36.204L26.8344 36.2042C26.8342 36.2044 26.8339 36.2045 27.0202 36.6031Z" fill="#0D316E"/>
<path d="M49.8171 18.6354C47.3194 20.4576 47.1283 21.8339 45.4589 22.6112C42.923 23.7963 36.3476 23.1337 34.2195 23.6689C34.2195 23.6689 32.9961 22.5475 32.41 22.3436C32.3335 22.3181 30.3201 21.5918 28.7017 22.573C27.7587 23.121 26.7393 24.6756 28.5615 25.5549C28.9948 25.7715 29.4281 26.0264 29.135 26.4851C29.135 26.4851 29.2242 27.186 29.6957 28.0398L30.0397 28.5113C29.7976 28.6642 29.4918 28.8171 29.3006 28.8681C28.982 28.4348 28.3321 27.1605 27.9244 26.3577C27.3 25.1344 27.0196 24.6119 26.8285 24.3953C26.2168 23.7071 24.9934 23.1974 23.9485 23.5797C23.2859 23.8346 22.3938 24.6119 23.8721 27.0204L24.4582 27.9506C24.9297 28.677 25.363 29.3524 25.3248 29.62C25.2993 29.7601 24.9934 30.0915 24.6749 30.1679C24.5857 30.1934 24.5474 30.1807 24.4328 30.1169C23.9485 29.7729 23.6427 28.8554 23.4006 28.1672C23.2731 27.7849 23.1584 27.4281 23.0055 27.1478C22.6487 26.4724 22.0243 25.9882 21.3107 25.797C20.9029 25.6951 20.253 25.6441 19.5521 25.9754C18.8003 26.3195 18.4562 26.8929 18.1504 27.3899C17.972 27.6703 17.8063 27.9506 17.6279 28.078C17.3731 28.2564 17.1564 28.4348 16.9398 28.6005C16.634 28.8426 17.7044 29.8493 18.1886 29.4543C18.3798 29.3014 18.5837 29.1357 18.7875 28.9955C19.2081 28.7025 19.4502 28.3074 19.6796 27.9251C19.8962 27.5683 20.1383 27.186 20.4696 27.0331C20.6608 26.9312 20.7627 26.9566 20.801 26.9694C20.9794 27.0204 21.247 27.2115 21.4254 27.5556C21.5401 27.7595 21.642 28.078 21.7567 28.4094C22.0625 29.3269 22.4193 30.3845 23.2859 30.9835C23.8338 31.3658 24.5347 31.4805 25.2228 31.3148C26.1658 31.0727 26.8794 30.3463 26.9686 29.7856C27.0961 29.1612 26.6501 28.4731 25.9619 27.4154L25.3757 26.4979C24.6749 25.351 24.6749 24.8031 24.7513 24.6629C24.866 24.6629 25.1973 24.7776 25.4012 25.0197C25.5287 25.1726 25.9747 26.0391 26.3315 26.7273C27.1088 28.2437 27.644 29.2631 28.0136 29.6327C28.2557 29.8876 28.6125 30.0405 29.033 30.0787C29.7339 30.1297 30.4475 29.8111 30.8935 29.5562C31.2376 29.9513 31.2886 30.0277 31.7473 30.2316C32.3717 30.4992 33.0471 30.4483 33.0471 30.4483C34.4871 30.3463 34.589 29.7474 35.137 27.9761C35.583 26.5361 35.2644 25.4784 35.2644 25.4784C35.2644 25.4784 34.7165 24.8923 36.1055 24.5737C38.1571 23.8601 42.3496 24.905 45.8412 23.5287C48.0075 22.6749 48.4408 20.7125 50.1611 19.4764C51.9707 18.1766 55.5515 14.8889 58.4187 15.8064L58.9284 15.3222C55.1182 13.6273 51.5884 17.2591 49.7534 18.5844L49.8171 18.6354Z" fill="#0D316E"/>
<defs>
<linearGradient id="paint0_linear_6183_3004" x1="1.99273" y1="32.742" x2="63.4783" y2="32.742" gradientUnits="userSpaceOnUse">
<stop stop-color="#D9DADA"/>
<stop offset="0.08" stop-color="#ABACAC"/>
<stop offset="0.17" stop-color="white"/>
<stop offset="0.32" stop-color="#ABACAC"/>
<stop offset="0.47" stop-color="#ABACAC"/>
<stop offset="0.6" stop-color="white"/>
<stop offset="0.69" stop-color="#D9DADA"/>
<stop offset="0.86" stop-color="#ABACAC"/>
<stop offset="1" stop-color="#D9DADA"/>
</linearGradient>
<linearGradient id="paint1_linear_6183_3004" x1="19.1068" y1="46.8995" x2="19.1068" y2="59.9485" gradientUnits="userSpaceOnUse">
<stop stop-color="#CCCCCC"/>
<stop offset="0.58" stop-color="#F2F2F2"/>
</linearGradient>
<linearGradient id="paint2_linear_6183_3004" x1="48.429" y1="46.8995" x2="48.429" y2="59.9485" gradientUnits="userSpaceOnUse">
<stop stop-color="#CCCCCC"/>
<stop offset="0.58" stop-color="#F2F2F2"/>
</linearGradient>
<linearGradient id="paint3_linear_6183_3004" x1="16.494" y1="53.131" x2="59.604" y2="10.021" gradientUnits="userSpaceOnUse">
<stop stop-color="#ABACAC"/>
<stop offset="0.17" stop-color="#E6E6E6"/>
<stop offset="0.32" stop-color="#ABACAC"/>
<stop offset="0.47" stop-color="#ABACAC"/>
<stop offset="0.6" stop-color="#E6E6E6"/>
<stop offset="0.69" stop-color="#D9DADA"/>
<stop offset="0.78" stop-color="#D9DADA"/>
<stop offset="0.9" stop-color="#ABACAC"/>
<stop offset="1" stop-color="#666666"/>
</linearGradient>
</defs>
</svg>
