<svg width="67" height="67" viewBox="0 0 67 67" fill="none" xmlns="http://www.w3.org/2000/svg">
<path d="M33.5 64C50.3447 64 64 50.3447 64 33.5C64 16.6553 50.3447 3 33.5 3C16.6553 3 3 16.6553 3 33.5C3 50.3447 16.6553 64 33.5 64Z" fill="white"/>
<path fill-rule="evenodd" clip-rule="evenodd" d="M33.5001 5.63012C18.1079 5.63012 5.63012 18.1079 5.63012 33.5001C5.63012 48.8923 18.1079 61.3701 33.5001 61.3701C48.8923 61.3701 61.3701 48.8923 61.3701 33.5001C61.3701 18.1079 48.8923 5.63012 33.5001 5.63012ZM0.370117 33.5001C0.370117 15.2029 15.2029 0.370117 33.5001 0.370117C51.7973 0.370117 66.6301 15.2029 66.6301 33.5001C66.6301 51.7973 51.7973 66.6301 33.5001 66.6301C15.2029 66.6301 0.370117 51.7973 0.370117 33.5001Z" fill="white"/>
<mask id="mask0_6183_2580" style="mask-type:luminance" maskUnits="userSpaceOnUse" x="3" y="3" width="61" height="61">
<path d="M33.5 64C50.3447 64 64 50.3447 64 33.5C64 16.6553 50.3447 3 33.5 3C16.6553 3 3 16.6553 3 33.5C3 50.3447 16.6553 64 33.5 64Z" fill="white"/>
</mask>
<g mask="url(#mask0_6183_2580)">
<path fill-rule="evenodd" clip-rule="evenodd" d="M57.997 74.6487C57.855 74.739 57.7518 74.8681 57.6227 75.0875C57.4936 75.3069 57.2871 75.5651 57.0935 75.7716C56.8999 75.9652 56.5256 76.3395 56.3965 76.4815C56.2803 76.6235 56.048 76.9849 55.9835 77.114C55.9318 77.2559 55.9447 77.6174 55.9447 77.6174V77.8239C55.9447 77.9529 55.8802 78.1207 55.8802 78.1207C55.8802 78.1207 56.0351 78.4176 55.9964 78.5596C55.9576 78.7016 55.8028 78.7919 55.8028 78.7919L55.8415 78.9597L56.048 79.0113L55.906 79.0888C55.906 79.0888 56.0093 79.0888 56.048 79.1017H56.0609L55.7124 79.192L56.0093 79.2566L55.6737 79.3598C55.6737 79.3598 55.2348 79.8761 54.9251 80.2246C54.6024 80.5731 54.512 80.8571 54.512 80.8571V81.012C54.512 81.012 54.4346 81.4766 54.4088 81.5799C54.383 81.6832 54.1764 82.1478 54.099 82.2769C54.0215 82.406 53.8279 82.6899 53.8279 82.6899C53.8279 82.6899 53.7634 82.7674 53.7505 82.8577C53.7505 82.961 53.6085 82.9352 53.6085 82.9352C53.6085 82.9352 53.402 83.0772 52.989 83.103C52.5759 83.1159 52.5501 82.9868 52.2662 82.9223C51.9951 82.8577 51.6337 82.7157 51.4788 82.6125C51.3239 82.5092 51.1819 82.3801 51.1819 82.3801H50.8334C50.8334 82.3801 50.4849 82.3801 50.3946 82.3801C50.3042 82.3801 49.9687 82.1091 49.8525 82.0962C49.7492 82.0962 49.646 81.98 49.646 81.98L49.4524 82.1091C49.4524 82.1091 49.3104 82.1865 49.1684 82.2382C49.0264 82.2769 48.6263 82.1865 48.3811 82.1865C48.1358 82.1865 48.0067 82.0575 47.8002 82.0704C47.5937 82.0704 47.1161 81.8897 46.8967 81.8897C46.6773 81.8897 46.4579 81.709 46.3417 81.6961C46.2255 81.6832 45.9287 81.5025 45.7738 81.3992C45.6189 81.2959 45.2962 81.1023 45.1026 81.0378C44.909 80.9732 44.7541 80.7926 44.8057 80.5989C44.8574 80.3924 44.909 80.2246 45.1542 79.4631C45.3995 78.7016 45.7996 78.4692 45.7996 78.4692C45.7996 78.4692 45.1671 77.6303 44.8444 77.1011C44.5218 76.559 43.9926 75.6813 43.8506 75.294C43.7086 74.9068 43.0374 74.1453 42.6631 73.8226C42.2888 73.4999 41.708 73.3837 41.708 73.3837C41.708 73.3837 40.5334 72.8933 40.0687 72.8029C39.5912 72.7126 37.7325 71.951 37.2033 71.8994C36.6612 71.8478 35.3705 71.7832 35.0865 71.8607C34.7896 71.9381 33.486 71.8607 32.6728 71.8736C31.8597 71.8736 31.1369 71.9123 30.4141 72.0027C29.6912 72.0801 28.2973 72.5577 27.226 72.5835C26.1546 72.6093 24.3992 72.6609 23.5086 72.6609C22.618 72.6609 22.4115 72.4286 22.4115 72.4286C22.4115 72.4286 22.0243 72.377 21.6887 72.5448C21.3531 72.7126 21.0304 72.9836 20.9788 73.1127C20.9272 73.2418 19.9333 73.9 19.701 74.2098C19.4687 74.5067 18.8233 75.1391 18.6039 75.3198C18.3844 75.5005 17.7649 76.1717 17.61 76.3782C17.4551 76.5848 16.2289 77.669 15.945 78.082C15.661 78.495 15.0673 79.4889 14.8091 79.9019C14.551 80.315 13.983 80.4441 13.712 80.5602C13.4409 80.6764 13.3635 81.0249 13.2473 80.9733C13.1312 80.9216 13.299 80.7538 13.3119 80.6377C13.3248 80.5215 13.2731 79.9407 13.2086 79.3469C13.1441 78.7403 13.3248 78.8048 13.5313 77.7335C13.7249 76.6751 14.2025 76.1975 14.2025 76.1975C14.2025 76.1975 14.3186 75.4876 14.7704 74.8294C15.0931 74.3776 15.6223 73.8871 15.6223 73.8871C15.6223 73.8871 15.7126 73.7839 15.7901 73.6935C15.8675 73.6032 15.932 73.4999 15.932 73.4999C15.932 73.4999 16.0611 73.3708 16.3193 73.0869C16.5774 72.79 16.4612 72.9191 16.5516 72.8158C16.6419 72.7126 16.7323 72.648 16.8097 72.6222C16.8872 72.5835 16.913 72.5319 16.9904 72.4544C17.0679 72.377 17.1582 72.2737 17.1582 72.2737L17.3002 72.093L17.4293 71.8607L17.5067 71.7316L17.7133 71.5638L17.9069 71.4735L17.9456 71.3702L18.023 71.254L18.165 71.1121C18.165 71.1121 18.2554 71.0733 18.3328 71.0604C18.4103 71.0475 18.4361 70.9701 18.4361 70.9701L18.578 70.8281L18.7071 70.7248L18.8491 70.5829L18.9265 70.4925L19.1589 70.3634L19.2105 70.2602H19.3912V70.1182L19.4816 70.0278L19.6235 69.9891L19.5461 69.8084L19.6752 69.6277C19.6752 69.6277 19.0169 68.5435 18.7071 67.64C18.3973 66.7494 18.4103 66.0395 18.3586 64.9165C18.307 63.7936 18.9782 62.632 19.1589 62.1544C19.3396 61.6768 19.559 60.7346 19.559 60.7346C19.559 60.7346 19.843 60.3474 19.6106 59.1857C19.3783 58.024 19.5203 57.7917 19.146 57.2883C18.7717 56.7849 18.0359 56.359 17.9456 55.804C17.8552 55.249 17.8294 54.6552 17.9198 53.9066C18.0101 53.158 18.3328 51.9576 18.4748 51.351C18.5135 51.1703 18.578 50.9766 18.6426 50.783C18.6297 50.4991 18.6168 50.2538 18.6039 50.0473C18.72 49.957 18.862 49.8666 19.004 49.7892C19.004 49.7634 19.0169 49.7375 19.0298 49.7246C19.0814 49.5439 19.146 49.2471 19.275 49.2212C19.5461 49.1696 20.5529 49.1438 20.7465 49.1438C20.9401 49.1438 20.9917 49.4665 21.4047 49.4278C21.8178 49.389 21.8049 49.4665 22.1017 49.389C22.2824 49.3503 22.3599 49.815 22.3599 49.815L22.2695 50.3442C22.2695 50.3442 22.2695 50.5636 22.347 50.783C22.4244 51.0025 22.2179 51.0412 22.063 51.0541C21.921 51.067 22.1405 51.0412 21.8823 51.2348C21.6629 51.4026 21.3531 51.7382 21.1079 52.3061C21.1595 53.3129 20.8626 53.4807 21.1724 54.126C21.2628 54.0228 21.2111 54.1002 21.2886 53.9195C21.8178 53.1838 21.8178 49.6472 22.7342 49.4536C23.1343 49.2083 24.5283 49.7763 25.264 49.7117C25.3286 49.8795 25.3415 50.0344 25.3673 50.2926C24.709 50.8863 25.0575 51.209 23.9733 51.5187C23.8571 52.1512 23.5215 52.6546 23.3796 53.2483C23.0053 54.7456 25.2124 58.6565 26.1546 59.0179L26.7484 59.6245V59.7278C27.1098 59.973 28.3618 60.4506 29.0072 60.8766C29.1362 60.8249 29.2911 60.7604 29.4718 60.67L37.113 60.1408C38.0423 60.1408 38.9329 60.0634 38.9329 60.0634L39.5524 59.7407L39.8106 59.1728C39.8751 58.5274 39.7461 58.6694 39.8106 58.024C40.0042 57.2367 40.1978 56.4493 40.3785 55.662C40.3527 55.1715 40.443 56.0879 40.4172 55.6104C40.4947 55.2231 40.6883 54.41 40.7786 53.9582C40.7399 53.7517 40.7141 53.5452 40.6754 53.3387C40.7399 52.8353 41.2175 52.8611 41.4111 52.5255C41.7596 51.9189 41.7725 50.783 42.0565 50.1635C42.9083 49.8666 44.3411 50.2667 45.2188 50.7701C45.2575 50.7701 45.18 50.8088 45.2188 50.8088C45.1155 51.4542 45.3478 51.4026 44.8832 51.6349C44.5605 51.7898 44.354 51.7511 44.1733 52.0609C43.9022 52.5513 43.4892 53.5839 43.3859 54.126C43.2181 55.0037 43.657 58.1531 43.928 58.6565C43.928 58.7081 43.928 58.7598 43.928 58.8114C43.9538 58.8114 43.9667 58.8114 43.9926 58.8114C44.0442 57.4174 44.0829 56.0105 44.1345 54.6036C44.2378 54.1518 44.3411 53.713 44.4443 53.2612C44.4701 52.9386 44.2765 52.6675 44.3281 52.4094C44.3798 51.9834 44.6508 51.9576 45.0122 51.906C45.2575 51.2864 45.2833 50.2667 45.5156 49.5439C46.3933 49.1696 47.5163 49.1825 48.6134 49.2083C48.7295 49.3761 48.8457 49.5568 48.9619 49.7246C48.9619 49.7763 48.9619 49.8279 48.9619 49.8795C48.7812 50.1248 48.6005 50.37 48.4198 50.6152C48.0584 50.925 47.4646 50.8863 47.2323 51.3122C46.432 52.7578 47.2968 57.2367 47.6711 58.9017C47.8518 59.6245 48.1616 61.7801 48.4069 62.1157C48.6521 62.4513 48.6908 62.8643 48.7941 62.9934C48.8973 63.1224 49.2846 63.5096 49.3491 63.6C49.4136 63.6903 49.5814 64.0388 49.6718 64.1808C49.775 64.3228 49.7879 64.7229 49.7879 65.0069C49.7879 65.2909 49.646 65.9362 49.6202 66.4009C49.5943 66.8785 49.7105 67.7949 49.7879 68.6984C49.8654 69.6019 50.059 70.0278 50.3559 70.5441C50.6527 71.0604 50.9496 71.1766 51.2207 71.3057C51.4788 71.4218 51.724 71.7187 52.008 71.7187C52.3049 71.7187 52.9115 71.7316 53.1955 71.7187C53.4665 71.6929 53.4924 71.6413 53.815 71.4864C54.1377 71.3444 54.2668 71.2928 54.9251 71.254C55.5833 71.2153 55.8802 71.3315 56.2029 71.4606C56.5256 71.6025 57.0806 71.9381 57.3258 72.2092C57.5582 72.4673 57.8292 73.074 57.8292 73.074C57.8292 73.074 57.9196 73.1514 58.0357 73.345C58.139 73.5386 58.0874 73.8484 58.0874 73.8484C58.0874 73.8484 58.139 74.0549 58.1648 74.1582C58.1906 74.2614 58.1003 74.597 57.9712 74.6874L57.997 74.6487Z" fill="url(#paint0_linear_6183_2580)"/>
</g>
<path fill-rule="evenodd" clip-rule="evenodd" d="M57.998 24.7103C57.856 24.62 57.7527 24.4909 57.6237 24.2715C57.4946 24.052 57.2881 23.7939 57.0945 23.5874C56.9009 23.3938 56.5266 23.0195 56.3975 22.8775C56.2813 22.7355 56.049 22.3741 55.9844 22.245C55.9328 22.103 55.9457 21.7416 55.9457 21.7416V21.5351C55.9457 21.406 55.8812 21.2383 55.8812 21.2383C55.8812 21.2383 56.0361 20.9414 55.9973 20.7994C55.9586 20.6574 55.8037 20.5671 55.8037 20.5671L55.8425 20.3993L56.049 20.3476L55.907 20.2702C55.907 20.2702 56.0103 20.2702 56.049 20.2573H56.0619L55.7134 20.1669L56.0103 20.1024L55.6747 19.9991C55.6747 19.9991 55.2358 19.4829 54.926 19.1344C54.6034 18.7859 54.513 18.5019 54.513 18.5019V18.347C54.513 18.347 54.4356 17.8824 54.4097 17.7791C54.3839 17.6758 54.1774 17.2112 54.1 17.0821C54.0225 16.953 53.8289 16.6691 53.8289 16.6691C53.8289 16.6691 53.7644 16.5916 53.7515 16.5013C53.7515 16.398 53.6095 16.4238 53.6095 16.4238C53.6095 16.4238 53.403 16.2818 52.9899 16.256C52.5769 16.2431 52.5511 16.3722 52.2671 16.4367C51.9961 16.5013 51.6347 16.6432 51.4798 16.7465C51.3249 16.8498 51.1829 16.9788 51.1829 16.9788H50.8344C50.8344 16.9788 50.4859 16.9788 50.3956 16.9788C50.3052 16.9788 49.9696 17.2499 49.8535 17.2628C49.7502 17.2628 49.6469 17.379 49.6469 17.379L49.4533 17.2499C49.4533 17.2499 49.3114 17.1724 49.1694 17.1208C49.0274 17.0821 48.6273 17.1724 48.382 17.1724C48.1368 17.1724 48.0077 17.3015 47.8012 17.2886C47.5947 17.2886 47.1171 17.4693 46.8977 17.4693C46.6783 17.4693 46.4588 17.65 46.3427 17.6629C46.2265 17.6758 45.9296 17.8565 45.7747 17.9598C45.6199 18.0631 45.2972 18.2567 45.1036 18.3212C44.91 18.3857 44.7551 18.5664 44.8067 18.76C44.8583 18.9666 44.91 19.1344 45.1552 19.8959C45.4004 20.6574 45.8006 20.8898 45.8006 20.8898C45.8006 20.8898 45.1681 21.7287 44.8454 22.2579C44.5227 22.8 43.9935 23.6777 43.8516 24.065C43.7096 24.4522 43.0384 25.2137 42.6641 25.5364C42.2898 25.8591 41.7089 25.9752 41.7089 25.9752C41.7089 25.9752 40.5344 26.4657 40.0697 26.5561C39.5921 26.6464 37.7335 27.408 37.2043 27.4596C36.6622 27.5112 35.3714 27.5757 35.0875 27.4983C34.7906 27.4209 33.487 27.4983 32.6738 27.4854C31.8607 27.4854 31.1378 27.4467 30.415 27.3563C29.6922 27.2789 28.2982 26.8013 27.2269 26.7755C26.1556 26.7497 24.4002 26.6981 23.5096 26.6981C22.619 26.6981 22.4125 26.9304 22.4125 26.9304C22.4125 26.9304 22.0253 26.982 21.6897 26.8142C21.3541 26.6464 21.0314 26.3754 20.9798 26.2463C20.9282 26.1172 19.9343 25.4589 19.702 25.1492C19.4696 24.8523 18.8243 24.2198 18.6048 24.0391C18.3854 23.8584 17.7659 23.1873 17.611 22.9807C17.4561 22.7742 16.2299 21.69 15.9459 21.277C15.662 20.8639 15.0682 19.8701 14.8101 19.457C14.5519 19.044 13.984 18.9149 13.713 18.7988C13.4419 18.6826 13.3645 18.3341 13.2483 18.3857C13.1321 18.4374 13.2999 18.6052 13.3128 18.7213C13.3257 18.8375 13.2741 19.4183 13.2096 20.0121C13.145 20.6187 13.3257 20.5542 13.5323 21.6255C13.7259 22.6839 14.2034 23.1614 14.2034 23.1614C14.2034 23.1614 14.3196 23.8713 14.7714 24.5296C15.094 24.9814 15.6232 25.4719 15.6232 25.4719C15.6232 25.4719 15.7136 25.5751 15.791 25.6655C15.8685 25.7558 15.933 25.8591 15.933 25.8591C15.933 25.8591 16.0621 25.9881 16.3202 26.2721C16.5784 26.569 16.4622 26.4399 16.5526 26.5432C16.6429 26.6464 16.7333 26.711 16.8107 26.7368C16.8882 26.7755 16.914 26.8271 16.9914 26.9046C17.0689 26.982 17.1592 27.0853 17.1592 27.0853L17.3012 27.266L17.4303 27.4983L17.5077 27.6274L17.7142 27.7952L17.9078 27.8855L17.9466 27.9888L18.024 28.1049L18.166 28.2469C18.166 28.2469 18.2563 28.2857 18.3338 28.2986C18.4112 28.3115 18.437 28.3889 18.437 28.3889L18.579 28.5309L18.7081 28.6341L18.8501 28.7761L18.9275 28.8665L19.1599 28.9956L19.2115 29.0988H19.3922V29.2408L19.4825 29.3311L19.6245 29.3699L19.5471 29.5506L19.6761 29.7313C19.6761 29.7313 19.0179 30.8155 18.7081 31.719C18.3983 32.6096 18.4112 33.3195 18.3596 34.4424C18.308 35.5654 18.9792 36.727 19.1599 37.2046C19.3406 37.6822 19.56 38.6244 19.56 38.6244C19.56 38.6244 19.8439 39.0116 19.6116 40.1733C19.3793 41.335 19.5213 41.5673 19.1469 42.0707C18.7726 42.5741 18.0369 43 17.9466 43.555C17.8562 44.11 17.8304 45.504 17.9207 46.2397C18.0111 46.9884 18.3338 48.1887 18.4758 48.7954C18.5145 48.9761 18.579 49.1697 18.6436 49.3633C18.6307 49.6473 18.6177 49.8925 18.6048 50.099C18.721 50.1894 18.863 50.2797 19.005 50.3572C19.005 50.383 19.0179 50.4088 19.0308 50.4217C19.0824 50.6024 19.1469 50.8993 19.276 50.9251C19.5471 50.9767 20.5538 51.0025 20.7475 51.0025C20.9411 51.0025 21.509 50.9251 21.922 50.9638C22.3351 51.0025 22.4512 51.0671 22.619 51.0025C22.7868 50.9251 22.8772 50.5766 22.8772 50.5766L22.7868 50.0474C22.7868 50.0474 22.3738 49.7892 22.4383 49.5698C22.5158 49.3504 22.2318 49.3117 22.0898 49.2988C21.9478 49.2859 21.6897 49.131 21.4315 48.9374C21.2121 48.7696 20.9023 48.434 20.6571 47.8661C20.7087 46.8593 20.8636 45.8525 21.1734 45.2071C21.2637 45.3104 21.2121 45.233 21.2896 45.4137C21.8188 46.1494 21.8833 49.2859 22.8126 49.4795C23.2128 49.7247 24.5293 49.5569 25.2779 49.6215C25.3425 49.4537 25.3554 49.2988 25.3812 49.0406C24.7229 48.4469 25.0714 48.1242 23.9872 47.8144C23.871 47.182 23.5354 46.6786 23.3935 46.0848C23.0191 44.5876 25.2263 40.6767 26.1685 40.3153L26.7623 39.7086V39.6054C27.1237 39.3601 28.3757 38.8826 29.021 38.4566C29.1501 38.5082 29.305 38.5728 29.4857 38.6631L37.1268 39.1923C38.0562 39.1923 38.9468 39.2698 38.9468 39.2698L39.5663 39.5925L39.8245 40.1604C39.889 40.8057 39.7599 40.6638 39.8245 41.3091C40.0181 42.0965 40.2117 42.8838 40.3924 43.6712C40.3666 44.1617 40.3408 44.6521 40.302 45.1426C40.3795 45.5298 40.5731 46.343 40.6634 46.7947C40.6247 47.0013 40.5989 47.2078 40.5602 47.4143C40.6247 47.9177 41.1023 47.8919 41.2959 48.2275C41.6444 48.8341 41.6573 49.9699 41.9413 50.5895C42.7932 50.8864 44.8067 51.2994 45.6844 50.8089C45.7231 50.8089 45.7747 50.8089 45.8135 50.8089C45.607 50.1894 45.3875 49.402 44.9487 49.0535C44.6647 48.8341 44.2388 49.0019 44.0581 48.6921C43.787 48.2016 43.374 47.1691 43.2707 46.627C43.1029 45.7493 43.6709 41.1801 43.9419 40.6896C43.9419 40.638 43.9419 40.5863 43.9419 40.5347C43.9677 40.5347 43.9806 40.5347 44.0064 40.5347C44.0581 41.9287 44.0968 43.3356 44.1484 44.7425C44.2517 45.1942 44.3549 45.6331 44.4582 46.0848C44.484 46.4075 44.2904 46.6786 44.342 46.9367C44.3937 47.3627 44.6647 47.3885 45.0261 47.4401C45.2714 48.0597 45.2972 49.0793 45.5295 49.8022C46.4072 50.1765 47.5301 50.1636 48.6273 50.1377C48.7434 49.9699 48.8596 49.7892 48.9758 49.6215C48.9758 49.5698 48.9758 49.5182 48.9758 49.4666C48.7951 49.2213 48.6144 48.9761 48.4337 48.7308C48.0723 48.4211 47.4785 48.4598 47.2462 48.0339C46.4459 46.5882 47.3107 42.1094 47.685 40.4443C47.8657 39.7215 48.1755 37.566 48.4207 37.2304C48.666 36.8948 48.7047 36.4818 48.808 36.3527C48.9112 36.2236 49.2984 35.8364 49.363 35.7461C49.4275 35.6557 49.5953 35.3072 49.6857 35.1653C49.7889 35.0233 49.8018 34.6231 49.8018 34.3392C49.8018 34.0552 49.6599 33.4099 49.634 32.9452C49.6082 32.4676 49.7244 31.5512 49.8018 30.6477C49.8793 29.7442 50.0729 29.3182 50.3698 28.8019C50.6666 28.2857 50.9635 28.1695 51.2345 28.0404C51.4927 27.9242 51.7379 27.6274 52.0219 27.6274C52.3188 27.6274 52.9254 27.6145 53.2094 27.6274C53.4804 27.6532 53.5062 27.7048 53.8289 27.8597C54.1516 28.0017 54.2807 28.0533 54.9389 28.092C55.5972 28.1308 55.8941 28.0146 56.2168 27.8855C56.5395 27.7435 57.0945 27.408 57.3397 27.1369C57.572 26.8788 57.8431 26.2721 57.8431 26.2721C57.8431 26.2721 57.9334 26.1947 58.0496 26.0011C58.1529 25.8074 58.1012 25.4977 58.1012 25.4977C58.1012 25.4977 58.1529 25.2912 58.1787 25.1879C58.2045 25.0846 58.1141 24.749 57.9851 24.6587L57.998 24.7103Z" fill="url(#paint1_linear_6183_2580)"/>
<path fill-rule="evenodd" clip-rule="evenodd" d="M33.5 3.5C16.9315 3.5 3.5 16.9315 3.5 33.5C3.5 50.0685 16.9315 63.5 33.5 63.5C50.0685 63.5 63.5 50.0685 63.5 33.5C63.5 16.9315 50.0685 3.5 33.5 3.5ZM2.5 33.5C2.5 16.3792 16.3792 2.5 33.5 2.5C50.6208 2.5 64.5 16.3792 64.5 33.5C64.5 50.6208 50.6208 64.5 33.5 64.5C16.3792 64.5 2.5 50.6208 2.5 33.5Z" fill="url(#paint2_linear_6183_2580)"/>
<path fill-rule="evenodd" clip-rule="evenodd" d="M38.2704 24.136C38.4023 24.3401 38.3438 24.6124 38.1398 24.7444L37.9009 24.3749C38.1398 24.7444 38.1395 24.7445 38.1393 24.7447L38.1388 24.745L38.1374 24.7459L38.1336 24.7483L38.1214 24.756C38.1113 24.7623 38.0972 24.7709 38.0793 24.7815C38.0435 24.8029 37.9921 24.8327 37.9257 24.8689C37.7928 24.9412 37.5998 25.0394 37.3508 25.1479C36.853 25.3648 36.1301 25.6236 35.2169 25.7992C33.3865 26.1512 30.8017 26.1664 27.75 24.8566C27.5267 24.7608 27.4233 24.5021 27.5192 24.2788C27.615 24.0555 27.8737 23.9521 28.097 24.048C30.9698 25.2809 33.3737 25.2575 35.0508 24.935C35.8914 24.7734 36.552 24.5361 36.9993 24.3412C37.2228 24.2438 37.3927 24.1571 37.5047 24.0961C37.5606 24.0656 37.6021 24.0416 37.6285 24.0258C37.6417 24.0179 37.6511 24.0121 37.6567 24.0086L37.662 24.0054L37.6623 24.0052L37.6623 24.0051C37.8664 23.8735 38.1385 23.932 38.2704 24.136Z" fill="#007E32"/>
<path fill-rule="evenodd" clip-rule="evenodd" d="M27.8981 42.3805L27.6641 42.0079C27.4583 42.1371 27.3962 42.4087 27.5254 42.6145C27.6545 42.8202 27.9259 42.8823 28.1316 42.7534L28.1314 42.7536L28.1313 42.7536C28.1314 42.7536 28.1316 42.7535 28.1317 42.7534L28.132 42.7532L28.1373 42.75C28.143 42.7466 28.1525 42.7409 28.1658 42.7332C28.1924 42.7178 28.2343 42.6943 28.2907 42.6645C28.4036 42.6049 28.5747 42.5205 28.7997 42.426C29.2498 42.2371 29.9139 42.0086 30.7567 41.8586C32.4383 41.5593 34.842 41.57 37.6957 42.8467C37.9176 42.946 38.1778 42.8466 38.2771 42.6248C38.3763 42.4029 38.2769 42.1427 38.0551 42.0434C35.0231 40.687 32.4382 40.6655 30.6025 40.9922C29.6867 41.1552 28.96 41.4043 28.459 41.6147C28.2084 41.7199 28.0139 41.8155 27.8801 41.8862C27.8131 41.9215 27.7613 41.9506 27.7251 41.9715C27.707 41.982 27.6929 41.9904 27.6827 41.9965L27.6704 42.004L27.6665 42.0064L27.6651 42.0073L27.6646 42.0076C27.6643 42.0078 27.6641 42.0079 27.8981 42.3805Z" fill="#007E32"/>
<defs>
<linearGradient id="paint0_linear_6183_2580" x1="35.6932" y1="50.1377" x2="35.6932" y2="62.619" gradientUnits="userSpaceOnUse">
<stop stop-color="#CCCCCC"/>
<stop offset="0.58" stop-color="#F2F2F2"/>
</linearGradient>
<linearGradient id="paint1_linear_6183_2580" x1="16.7591" y1="48.4856" x2="51.2474" y2="13.9972" gradientUnits="userSpaceOnUse">
<stop stop-color="#ABACAC"/>
<stop offset="0.17" stop-color="#E6E6E6"/>
<stop offset="0.32" stop-color="#ABACAC"/>
<stop offset="0.47" stop-color="#ABACAC"/>
<stop offset="0.6" stop-color="#E6E6E6"/>
<stop offset="0.69" stop-color="#D9DADA"/>
<stop offset="0.78" stop-color="#D9DADA"/>
<stop offset="0.9" stop-color="#ABACAC"/>
<stop offset="1" stop-color="#666666"/>
</linearGradient>
<linearGradient id="paint2_linear_6183_2580" x1="2.35463" y1="33.5" x2="64.6454" y2="33.5" gradientUnits="userSpaceOnUse">
<stop stop-color="#D9DADA"/>
<stop offset="0.08" stop-color="#ABACAC"/>
<stop offset="0.17" stop-color="white"/>
<stop offset="0.32" stop-color="#ABACAC"/>
<stop offset="0.47" stop-color="#ABACAC"/>
<stop offset="0.6" stop-color="white"/>
<stop offset="0.69" stop-color="#D9DADA"/>
<stop offset="0.86" stop-color="#ABACAC"/>
<stop offset="1" stop-color="#D9DADA"/>
</linearGradient>
</defs>
</svg>
