<svg width="65" height="65" viewBox="0 0 65 65" fill="none" xmlns="http://www.w3.org/2000/svg">
<path d="M32.5 62.5C49.0685 62.5 62.5 49.0685 62.5 32.5C62.5 15.9315 49.0685 2.5 32.5 2.5C15.9315 2.5 2.5 15.9315 2.5 32.5C2.5 49.0685 15.9315 62.5 32.5 62.5Z" fill="white"/>
<path fill-rule="evenodd" clip-rule="evenodd" d="M32.5 3C16.2076 3 3 16.2076 3 32.5C3 48.7924 16.2076 62 32.5 62C48.7924 62 62 48.7924 62 32.5C62 16.2076 48.7924 3 32.5 3ZM2 32.5C2 15.6553 15.6553 2 32.5 2C49.3447 2 63 15.6553 63 32.5C63 49.3447 49.3447 63 32.5 63C15.6553 63 2 49.3447 2 32.5Z" fill="url(#paint0_linear_6181_36)"/>
<path fill-rule="evenodd" clip-rule="evenodd" d="M31.9992 14.6511C28.5678 14.6511 25.2134 15.6686 22.3603 17.575C19.5072 19.4814 17.2834 22.191 15.9703 25.3612C14.6571 28.5315 14.3135 32.0199 14.983 35.3854C15.6524 38.7509 17.3048 41.8423 19.7312 44.2686C22.1576 46.695 25.249 48.3474 28.6145 49.0168C31.9799 49.6863 35.4684 49.3427 38.6386 48.0296C41.8088 46.7164 44.5184 44.4927 46.4248 41.6395C48.3312 38.7864 49.3488 35.4321 49.3488 32.0006C49.3488 31.6417 49.6398 31.3506 49.9988 31.3506C50.3577 31.3506 50.6488 31.6417 50.6488 32.0006C50.6488 35.6892 49.555 39.2949 47.5057 42.3618C45.4565 45.4287 42.5438 47.8191 39.1361 49.2306C35.7283 50.6421 31.9785 51.0115 28.3608 50.2919C24.7432 49.5723 21.4201 47.7961 18.8119 45.1879C16.2038 42.5797 14.4276 39.2567 13.708 35.639C12.9884 32.0213 13.3577 28.2715 14.7692 24.8638C16.1808 21.456 18.5711 18.5433 21.638 16.4941C24.7049 14.4449 28.3106 13.3511 31.9992 13.3511C32.3582 13.3511 32.6492 13.6421 32.6492 14.0011C32.6492 14.3601 32.3582 14.6511 31.9992 14.6511Z" fill="#8ABD24"/>
<path fill-rule="evenodd" clip-rule="evenodd" d="M45.8404 13.4107C46.3897 13.3153 46.9528 13.3327 47.4952 13.462C48.0376 13.5913 48.5479 13.8296 48.9952 14.1626C49.4425 14.4955 49.8173 14.916 50.0968 15.3985C50.3762 15.881 50.5545 16.4154 50.6207 16.969C50.687 17.5227 50.6398 18.084 50.482 18.6188C50.3248 19.1517 50.0612 19.6471 49.707 20.075L49.6837 20.1041C49.6765 20.1132 49.669 20.1221 49.6613 20.1307L49.6385 20.1562L44.1597 26.5861C44.0362 26.731 43.8553 26.8145 43.6649 26.8145C43.4745 26.8145 43.2937 26.731 43.1702 26.5861L37.6322 20.0861L37.623 20.0751C37.1326 19.473 36.8231 18.7442 36.7305 17.9733C36.6378 17.2023 36.7658 16.4209 37.0996 15.7199C37.4334 15.0188 37.9592 14.4268 38.616 14.0127C39.2727 13.5986 40.0334 13.3793 40.8097 13.3803H40.8126C41.4814 13.3806 42.1402 13.5445 42.731 13.8577C43.0721 14.0385 43.3846 14.2658 43.6601 14.5321C43.8551 14.34 44.0693 14.1672 44.2998 14.0169C44.7668 13.7124 45.291 13.5061 45.8404 13.4107ZM47.1938 14.7266C46.8231 14.6382 46.4383 14.6263 46.0628 14.6915C45.6873 14.7567 45.3291 14.8977 45.0099 15.1058C44.6907 15.314 44.4172 15.585 44.2061 15.9023C44.0862 16.0825 43.8845 16.1913 43.668 16.1923C43.4515 16.1933 43.2487 16.0865 43.1271 15.9073C42.8707 15.5295 42.5256 15.2202 42.1222 15.0063C41.7188 14.7925 41.2692 14.6806 40.8126 14.6803H40.8093C40.2788 14.6796 39.7581 14.8294 39.3094 15.1123C38.8607 15.3953 38.5014 15.7997 38.2734 16.2787C38.0454 16.7576 37.9579 17.2915 38.0212 17.8182C38.0842 18.3426 38.2941 18.8385 38.6266 19.2488L43.665 25.1623L48.6538 19.3075L48.6634 19.2964L48.6795 19.2784L48.7027 19.2494C48.9461 18.9562 49.1273 18.6165 49.2351 18.251C49.3429 17.8855 49.3752 17.5018 49.3299 17.1234C49.2847 16.7451 49.1628 16.3799 48.9718 16.0501C48.7808 15.7203 48.5247 15.4329 48.219 15.2054C47.9133 14.9778 47.5645 14.8149 47.1938 14.7266Z" fill="#8ABD24"/>
<defs>
<linearGradient id="paint0_linear_6181_36" x1="1.84949" y1="32.5" x2="63.1378" y2="32.5" gradientUnits="userSpaceOnUse">
<stop stop-color="#D9DADA"/>
<stop offset="0.08" stop-color="#ABACAC"/>
<stop offset="0.17" stop-color="white"/>
<stop offset="0.32" stop-color="#ABACAC"/>
<stop offset="0.47" stop-color="#ABACAC"/>
<stop offset="0.6" stop-color="white"/>
<stop offset="0.69" stop-color="#D9DADA"/>
<stop offset="0.86" stop-color="#ABACAC"/>
<stop offset="1" stop-color="#D9DADA"/>
</linearGradient>
</defs>
</svg>
