<svg width="65" height="65" viewBox="0 0 65 65" fill="none" xmlns="http://www.w3.org/2000/svg">
<path d="M32.5 62.5C49.0685 62.5 62.5 49.0685 62.5 32.5C62.5 15.9315 49.0685 2.5 32.5 2.5C15.9315 2.5 2.5 15.9315 2.5 32.5C2.5 49.0685 15.9315 62.5 32.5 62.5Z" fill="white"/>
<path fill-rule="evenodd" clip-rule="evenodd" d="M32.5 3C16.2076 3 3 16.2076 3 32.5C3 48.7924 16.2076 62 32.5 62C48.7924 62 62 48.7924 62 32.5C62 16.2076 48.7924 3 32.5 3ZM2 32.5C2 15.6553 15.6553 2 32.5 2C49.3447 2 63 15.6553 63 32.5C63 49.3447 49.3447 63 32.5 63C15.6553 63 2 49.3447 2 32.5Z" fill="url(#paint0_linear_6183_2902)"/>
<path fill-rule="evenodd" clip-rule="evenodd" d="M31.9992 14.6509C28.5678 14.6509 25.2134 15.6684 22.3603 17.5748C19.5072 19.4812 17.2834 22.1908 15.9703 25.3611C14.6571 28.5313 14.3135 32.0197 14.983 35.3852C15.6524 38.7507 17.3048 41.8421 19.7312 44.2685C22.1576 46.6948 25.249 48.3472 28.6145 49.0167C31.9799 49.6861 35.4684 49.3425 38.6386 48.0294C41.8088 46.7162 44.5184 44.4925 46.4248 41.6394C48.3312 38.7862 49.3488 35.4319 49.3488 32.0005C49.3488 31.6415 49.6398 31.3505 49.9988 31.3505C50.3577 31.3505 50.6488 31.6415 50.6488 32.0005C50.6488 35.689 49.555 39.2947 47.5057 42.3616C45.4565 45.4285 42.5438 47.8189 39.1361 49.2304C35.7283 50.642 31.9785 51.0113 28.3608 50.2917C24.7432 49.5721 21.4201 47.7959 18.8119 45.1877C16.2038 42.5795 14.4276 39.2565 13.708 35.6388C12.9884 32.0211 13.3577 28.2713 14.7692 24.8636C16.1808 21.4558 18.5711 18.5432 21.638 16.4939C24.7049 14.4447 28.3106 13.3509 31.9992 13.3509C32.3582 13.3509 32.6492 13.6419 32.6492 14.0009C32.6492 14.3599 32.3582 14.6509 31.9992 14.6509Z" fill="#0D316E"/>
<path fill-rule="evenodd" clip-rule="evenodd" d="M45.8404 13.4105C46.3897 13.3151 46.9528 13.3326 47.4952 13.4619C48.0376 13.5911 48.5479 13.8295 48.9952 14.1624C49.4425 14.4954 49.8173 14.9159 50.0968 15.3984C50.3762 15.8809 50.5545 16.4153 50.6207 16.9689C50.687 17.5225 50.6398 18.0839 50.482 18.6187C50.3248 19.1515 50.0612 19.6469 49.707 20.0749L49.6837 20.104C49.6765 20.1131 49.669 20.1219 49.6613 20.1306L49.6385 20.1561L44.1597 26.586C44.0362 26.7309 43.8553 26.8144 43.6649 26.8144C43.4745 26.8144 43.2937 26.7309 43.1702 26.586L37.6322 20.086L37.623 20.075C37.1326 19.4729 36.8231 18.7441 36.7305 17.9731C36.6378 17.2022 36.7658 16.4208 37.0996 15.7197C37.4334 15.0187 37.9592 14.4267 38.616 14.0125C39.2727 13.5985 40.0334 13.3792 40.8097 13.3802H40.8126C41.4814 13.3805 42.1402 13.5444 42.731 13.8576C43.0721 14.0383 43.3846 14.2657 43.6601 14.532C43.8551 14.3398 44.0693 14.1671 44.2998 14.0168C44.7668 13.7122 45.291 13.5059 45.8404 13.4105ZM47.1938 14.7264C46.8231 14.6381 46.4383 14.6262 46.0628 14.6914C45.6873 14.7566 45.3291 14.8976 45.0099 15.1057C44.6907 15.3139 44.4172 15.5849 44.2061 15.9022C44.0862 16.0824 43.8845 16.1911 43.668 16.1921C43.4515 16.1932 43.2487 16.0863 43.1271 15.9072C42.8707 15.5294 42.5256 15.2201 42.1222 15.0062C41.7188 14.7923 41.2692 14.6804 40.8126 14.6802H40.8093C40.2788 14.6795 39.7581 14.8293 39.3094 15.1122C38.8607 15.3951 38.5014 15.7996 38.2734 16.2785C38.0454 16.7575 37.9579 17.2914 38.0212 17.818C38.0842 18.3425 38.2941 18.8384 38.6266 19.2487L43.665 25.1622L48.6538 19.3074L48.6634 19.2963L48.6795 19.2783L48.7027 19.2493C48.9461 18.956 49.1273 18.6164 49.2351 18.2509C49.3429 17.8853 49.3752 17.5017 49.3299 17.1233C49.2847 16.7449 49.1628 16.3797 48.9718 16.05C48.7808 15.7202 48.5247 15.4328 48.219 15.2053C47.9133 14.9777 47.5645 14.8148 47.1938 14.7264Z" fill="#0D316E"/>
<defs>
<linearGradient id="paint0_linear_6183_2902" x1="1.84949" y1="32.5" x2="63.1378" y2="32.5" gradientUnits="userSpaceOnUse">
<stop stop-color="#D9DADA"/>
<stop offset="0.08" stop-color="#ABACAC"/>
<stop offset="0.17" stop-color="white"/>
<stop offset="0.32" stop-color="#ABACAC"/>
<stop offset="0.47" stop-color="#ABACAC"/>
<stop offset="0.6" stop-color="white"/>
<stop offset="0.69" stop-color="#D9DADA"/>
<stop offset="0.86" stop-color="#ABACAC"/>
<stop offset="1" stop-color="#D9DADA"/>
</linearGradient>
</defs>
</svg>
