<svg width="65" height="65" viewBox="0 0 65 65" fill="none" xmlns="http://www.w3.org/2000/svg">
<path d="M32.5 63C49.3447 63 63 49.3447 63 32.5C63 15.6553 49.3447 2 32.5 2C15.6553 2 2 15.6553 2 32.5C2 49.3447 15.6553 63 32.5 63Z" fill="white"/>
<path fill-rule="evenodd" clip-rule="evenodd" d="M32.5 2.5C15.9315 2.5 2.5 15.9315 2.5 32.5C2.5 49.0685 15.9315 62.5 32.5 62.5C49.0685 62.5 62.5 49.0685 62.5 32.5C62.5 15.9315 49.0685 2.5 32.5 2.5ZM1.5 32.5C1.5 15.3792 15.3792 1.5 32.5 1.5C49.6208 1.5 63.5 15.3792 63.5 32.5C63.5 49.6208 49.6208 63.5 32.5 63.5C15.3792 63.5 1.5 49.6208 1.5 32.5Z" fill="url(#paint0_linear_6183_2464)"/>
<mask id="mask0_6183_2464" style="mask-type:luminance" maskUnits="userSpaceOnUse" x="7" y="7" width="51" height="51">
<path d="M32.5002 57.038C46.2081 57.038 57.3206 46.052 57.3206 32.5C57.3206 18.948 46.2081 7.96191 32.5002 7.96191C18.7922 7.96191 7.67969 18.948 7.67969 32.5C7.67969 46.052 18.7922 57.038 32.5002 57.038Z" fill="white"/>
</mask>
<g mask="url(#mask0_6183_2464)">
<path d="M42.2427 33.6922L42.5565 33.4882L42.9174 33.5667C44.7687 33.9432 46.0396 34.759 46.6828 35.9985C47.7654 38.0852 46.5573 40.5327 46.5102 40.6425L46.3847 40.8151C42.6036 45.114 41.9447 54.2765 41.8976 58.1675C41.5367 58.2459 41.1916 58.3244 40.8307 58.3871C40.5954 58.4342 40.3443 58.4656 40.109 58.497C40.109 54.5589 40.7209 44.7217 44.9413 39.811C45.0982 39.4345 45.6944 37.9126 45.0825 36.7359C44.7217 36.0613 43.9999 35.5749 42.886 35.2925C41.1288 36.2809 33.0174 40.2346 22.9763 35.1042C22.3801 35.3082 21.0779 35.8573 20.6386 36.9399C20.2463 37.8969 20.5915 39.1364 21.6584 40.6268C21.7996 40.8465 25.0473 47.0751 24.8119 56.5044C24.2 56.2377 23.6195 55.9553 23.039 55.6415C23.039 47.3262 20.1836 41.5996 20.1836 41.5682C19.4462 40.5327 18.9912 39.56 18.8029 38.65C18.6303 37.8185 18.6931 37.0497 18.9912 36.328C19.9012 34.0687 22.7566 33.3784 22.8821 33.347L23.2116 33.2686L23.5097 33.4255C33.8176 38.8696 42.1643 33.7079 42.2427 33.6608V33.6922Z" fill="url(#paint1_linear_6183_2464)"/>
<path d="M20.6391 36.9555C21.0784 35.873 22.3806 35.3238 22.9768 35.1199C33.018 40.2346 41.1294 36.2966 42.8866 35.3081C43.9848 35.5906 44.7222 36.0769 45.0831 36.7516C45.6949 37.9283 45.0987 39.4501 44.9419 39.8267C44.7536 40.0463 44.5653 40.2817 44.3927 40.517C44.3927 40.4542 44.377 40.3758 44.3457 40.2817C44.1888 39.4972 43.8907 38.9481 43.5298 38.7912C43.2003 38.65 42.714 38.8382 42.3688 39.0265L42.259 39.0736C41.8197 39.2305 31.2451 42.7919 23.9653 38.3205C23.8084 38.2264 23.1024 37.9126 22.6474 38.1479C22.1767 38.3989 21.8629 39.5913 21.8158 40.8935C21.7374 40.768 21.6903 40.6739 21.6746 40.6582C20.6078 39.152 20.2626 37.9126 20.6548 36.9712L20.6391 36.9555Z" fill="#73AA76"/>
<path d="M26.3028 26.8047L26.397 26.8518C35.1673 31.7626 41.2077 26.287 41.4587 26.0517C41.4587 26.0517 43.1218 24.6867 43.2473 23.6983C43.8278 24.7651 44.4396 25.9575 44.4083 26.3968C44.2671 27.6049 43.9376 28.2952 43.2473 28.7816C42.3687 29.3935 35.5595 32.6255 32.3432 32.2332C28.5621 31.7939 22.7413 28.9228 22.5217 27.6833C22.2236 26.0046 22.2079 25.4712 23.667 23.3531C23.8082 23.1491 23.9337 22.9452 24.0592 22.7412L24.122 23.259C24.3417 25.9889 26.2401 26.7734 26.3185 26.7891L26.3028 26.8047Z" fill="#73AA76"/>
<path d="M44.2203 30.1778C45.6481 29.1737 45.9776 27.6518 46.1031 26.585C46.2129 25.5809 45.4912 24.2002 44.2831 22.0508C43.7811 21.1565 43.2476 20.2151 42.9495 19.4777C42.5416 18.505 42.4004 6.69094 42.4945 4.24341L40.7059 4.38461C40.6118 6.86352 40.8001 18.756 41.3806 20.121C41.7257 20.9368 42.2749 21.9252 42.8083 22.8666C43.4673 24.0433 44.4714 25.8319 44.4243 26.381C44.2831 27.5891 43.9536 28.2794 43.2633 28.7658C42.3847 29.3777 35.5755 32.6097 32.3592 32.2174C28.5781 31.7781 22.7574 28.907 22.5377 27.6675C22.2396 25.9888 22.2239 25.4553 23.6831 23.3373C25.3304 20.9054 26.3502 17.2655 26.413 16.0731C26.4287 15.6182 26.4914 6.67525 26.5542 5.73389C26.0835 5.89079 25.4873 6.12612 24.797 6.43991C24.7656 7.08317 24.7185 15.6495 24.7029 15.979C24.6558 16.8576 23.7458 20.1994 22.271 22.3645C20.9217 24.3257 20.5609 25.3141 20.6864 26.7889C20.7178 27.1498 20.7648 27.5263 20.8433 27.9499C21.3453 30.6328 28.6722 33.4726 32.1553 33.8805C35.9364 34.3198 43.2162 30.8525 44.236 30.1151L44.2203 30.1778Z" fill="url(#paint2_linear_6183_2464)"/>
</g>
<path d="M14.4097 32.1077C15.7961 32.1077 16.92 30.9838 16.92 29.5974C16.92 28.2111 15.7961 27.0872 14.4097 27.0872C13.0233 27.0872 11.8994 28.2111 11.8994 29.5974C11.8994 30.9838 13.0233 32.1077 14.4097 32.1077Z" fill="#007E32"/>
<path d="M49.6324 34.1004C51.0188 34.1004 52.1426 32.9765 52.1426 31.5901C52.1426 30.2037 51.0188 29.0798 49.6324 29.0798C48.246 29.0798 47.1221 30.2037 47.1221 31.5901C47.1221 32.9765 48.246 34.1004 49.6324 34.1004Z" fill="#007E32"/>
<path d="M16.4183 24.7339C17.2588 24.7339 17.9402 24.0526 17.9402 23.212C17.9402 22.3715 17.2588 21.6902 16.4183 21.6902C15.5778 21.6902 14.8965 22.3715 14.8965 23.212C14.8965 24.0526 15.5778 24.7339 16.4183 24.7339Z" fill="#8DB88B"/>
<path d="M15.3978 38.2735C16.2383 38.2735 16.9197 37.5921 16.9197 36.7516C16.9197 35.9111 16.2383 35.2297 15.3978 35.2297C14.5573 35.2297 13.876 35.9111 13.876 36.7516C13.876 37.5921 14.5573 38.2735 15.3978 38.2735Z" fill="#8DB88B"/>
<path d="M51.1537 39.7954C51.9942 39.7954 52.6756 39.1141 52.6756 38.2736C52.6756 37.4331 51.9942 36.7517 51.1537 36.7517C50.3132 36.7517 49.6318 37.4331 49.6318 38.2736C49.6318 39.1141 50.3132 39.7954 51.1537 39.7954Z" fill="#8DB88B"/>
<path d="M53.6644 27.7776C54.5049 27.7776 55.1863 27.0962 55.1863 26.2557C55.1863 25.4152 54.5049 24.7339 53.6644 24.7339C52.8239 24.7339 52.1426 25.4152 52.1426 26.2557C52.1426 27.0962 52.8239 27.7776 53.6644 27.7776Z" fill="#8DB88B"/>
<defs>
<linearGradient id="paint0_linear_6183_2464" x1="1.21554" y1="32.5" x2="63.7845" y2="32.5" gradientUnits="userSpaceOnUse">
<stop stop-color="#D9DADA"/>
<stop offset="0.08" stop-color="#ABACAC"/>
<stop offset="0.17" stop-color="white"/>
<stop offset="0.32" stop-color="#ABACAC"/>
<stop offset="0.47" stop-color="#ABACAC"/>
<stop offset="0.6" stop-color="white"/>
<stop offset="0.69" stop-color="#D9DADA"/>
<stop offset="0.86" stop-color="#ABACAC"/>
<stop offset="1" stop-color="#D9DADA"/>
</linearGradient>
<linearGradient id="paint1_linear_6183_2464" x1="14.5971" y1="7.81946" x2="43.4874" y2="61.9955" gradientUnits="userSpaceOnUse">
<stop stop-color="#ABACAC"/>
<stop offset="0.17" stop-color="#E6E6E6"/>
<stop offset="0.32" stop-color="#ABACAC"/>
<stop offset="0.47" stop-color="#ABACAC"/>
<stop offset="0.6" stop-color="#E6E6E6"/>
<stop offset="0.69" stop-color="#D9DADA"/>
<stop offset="0.78" stop-color="#D9DADA"/>
<stop offset="0.9" stop-color="#ABACAC"/>
<stop offset="1" stop-color="#666666"/>
</linearGradient>
<linearGradient id="paint2_linear_6183_2464" x1="26.2107" y1="2.63324" x2="52.2531" y2="67.6898" gradientUnits="userSpaceOnUse">
<stop stop-color="#ABACAC"/>
<stop offset="0.17" stop-color="#E6E6E6"/>
<stop offset="0.32" stop-color="#ABACAC"/>
<stop offset="0.47" stop-color="#ABACAC"/>
<stop offset="0.6" stop-color="#E6E6E6"/>
<stop offset="0.69" stop-color="#D9DADA"/>
<stop offset="0.78" stop-color="#D9DADA"/>
<stop offset="0.9" stop-color="#ABACAC"/>
<stop offset="1" stop-color="#666666"/>
</linearGradient>
</defs>
</svg>
