<svg width="65" height="65" viewBox="0 0 65 65" fill="none" xmlns="http://www.w3.org/2000/svg">
<path d="M32.5 63C49.3447 63 63 49.3447 63 32.5C63 15.6553 49.3447 2 32.5 2C15.6553 2 2 15.6553 2 32.5C2 49.3447 15.6553 63 32.5 63Z" fill="white"/>
<g style="mix-blend-mode:multiply">
<mask id="mask0_6183_2792" style="mask-type:luminance" maskUnits="userSpaceOnUse" x="2" y="2" width="61" height="61">
<path d="M32.5 63C49.3447 63 63 49.3447 63 32.5C63 15.6553 49.3447 2 32.5 2C15.6553 2 2 15.6553 2 32.5C2 49.3447 15.6553 63 32.5 63Z" fill="white"/>
</mask>
<g mask="url(#mask0_6183_2792)">
<path d="M44.7872 88.5565C45.781 88.5565 47.5622 88.4145 48.4012 87.4465C48.7755 87.0205 48.9175 86.4655 48.8272 85.8202C49.1628 85.4846 49.5629 85.3039 49.9243 85.149C50.3502 84.9683 50.7116 84.8005 50.8923 84.4133C51.073 84.0131 51.0214 83.4194 50.7116 82.503C50.7504 81.7156 50.3502 81.4575 50.0017 81.2252C49.692 81.0186 49.3822 80.8121 49.3822 80.2829C49.3822 80.2184 49.3306 80.1538 49.266 80.1409C49.2402 80.1409 49.2273 80.1409 49.2015 80.1409C48.9304 80.1409 48.6594 80.3346 48.5045 80.5023C48.3754 80.554 48.2592 80.5927 48.1302 80.5927C47.4977 80.5927 46.9427 79.8957 46.5426 79.302L46.6587 78.7986C47.459 75.3265 48.3625 71.3898 48.2463 67.9951C48.2463 67.9951 48.2463 67.9822 48.2463 67.9693C48.1947 67.7499 48.156 67.5434 48.1044 67.324C47.6913 65.4653 47.2783 63.5421 47.7042 61.5286C47.7042 61.5286 47.7042 61.5028 47.7042 61.4899C47.7042 61.3995 47.7042 61.2962 47.6913 61.2059V61.1672C47.601 59.5538 47.4719 58.0565 47.7688 55.8752C47.9366 54.6877 48.2076 53.7067 48.5948 52.9839C49.0337 52.145 49.6403 51.6028 50.376 51.3834C50.376 51.3834 50.389 51.3834 50.4019 51.3834C50.5955 51.2802 50.8149 51.0736 50.9827 50.8155C51.0601 50.6864 51.2537 50.3508 51.2021 50.1056C51.1763 49.9765 51.086 49.8991 50.9311 49.8733C50.9311 49.8733 50.9311 49.8733 50.9182 49.8733C50.9052 49.8733 50.8923 49.8733 50.8794 49.8733C50.7633 49.912 50.5438 49.9249 50.2082 49.9249C49.9888 49.9249 49.7565 49.9249 49.4983 49.912C49.2273 49.912 48.9433 49.8991 48.6723 49.8991C47.7042 49.8991 47.4719 50.0152 47.3557 50.1185C47.3428 50.1314 47.3299 50.1572 47.317 50.183C47.2008 50.5703 47.0589 50.7897 46.8911 51.0478C46.7749 51.2285 46.6458 51.4351 46.5038 51.719C46.5038 51.7448 46.4909 51.7706 46.4909 51.7965C46.6329 52.7903 46.4522 53.4873 45.9488 53.9262C45.9101 53.9649 45.8972 54.0165 45.9101 54.0681C46.2457 55.2556 45.9101 55.6299 45.5745 56.9207C45.3293 57.8629 45.084 58.831 45.097 59.7216C44.955 60.0055 44.8646 60.6122 44.7614 61.2059C44.6323 61.9932 44.4903 62.8709 44.258 62.8709C44.2063 62.8709 44.1547 62.8322 44.0902 62.7419C44.0644 62.7031 44.0256 62.6773 43.974 62.6773C43.9611 62.6773 43.9482 62.6773 43.9353 62.6773C43.8837 62.7031 43.8449 62.7548 43.8449 62.8193C43.8449 62.8838 43.8578 62.9484 43.8837 63.0258C43.9095 63.142 43.9353 63.2711 43.8837 63.3743V63.4001C43.8837 63.4001 43.8578 63.4905 43.8837 63.5292C43.9095 63.5679 43.8837 63.6454 43.8062 63.6583C43.277 63.7099 43.1867 63.2323 42.7349 63.2194C42.3348 63.2194 41.9217 63.1936 41.5216 62.9355C41.5087 62.9355 41.4829 62.9226 41.47 62.9097C41.2764 62.8838 41.0699 62.8709 40.8375 62.8709C40.7214 62.8709 40.6052 62.8709 40.5149 62.8709C40.4245 62.8709 40.3471 62.8709 40.2825 62.8709C40.0889 62.8709 39.8953 62.8709 39.8179 62.7548C39.7662 62.6902 39.7533 62.5741 39.792 62.4192C39.792 62.3934 39.792 62.3676 39.792 62.3417C39.2887 60.9736 39.5855 59.2311 39.8566 57.5402C39.9598 56.9078 40.0631 56.3011 40.1147 55.7332C40.1793 55.4363 40.2438 55.1265 40.2954 54.8297C40.7085 52.7516 40.9795 51.9384 42.7994 50.88H42.8253C43.0834 50.88 43.1092 50.6348 43.1221 50.3896C43.1221 50.325 43.1221 50.2734 43.135 50.2089C43.135 50.1701 43.135 50.1314 43.1092 50.1056C43.0834 50.0798 43.0447 50.054 43.0189 50.054C42.9931 50.054 42.9672 50.054 42.9414 50.054C42.8769 50.054 42.7994 50.054 42.7349 50.0669C42.6704 50.0669 42.5929 50.0798 42.5284 50.0798C42.451 50.0798 42.3735 50.0798 42.309 50.0411C41.9088 49.9378 41.4829 49.8862 41.1086 49.8862C40.5665 49.8862 39.8049 49.9894 39.3274 50.5186C38.9918 50.88 38.8498 51.3705 38.8885 51.9901C38.7853 52.4805 38.5917 52.829 38.411 53.1775C38.127 53.7067 37.985 53.0485 37.9721 54.0423V54.223C37.9721 54.223 37.9721 54.2489 37.9721 54.2618C37.985 54.3263 37.985 54.3779 37.9721 54.4166C37.9463 54.4425 37.9205 54.4683 37.8559 54.4683C37.8043 54.4683 37.7656 54.4941 37.7398 54.5457C37.714 54.5844 37.714 54.6361 37.7398 54.6748C37.9592 55.0362 37.985 55.2814 37.8301 55.4363C37.6881 55.5267 37.6236 55.6687 37.572 55.7848C37.5462 55.8494 37.5074 55.9268 37.4687 55.9526C37.43 55.9655 37.3913 56.0172 37.3913 56.0559C37.3913 56.1075 37.3913 56.1462 37.43 56.1849C37.4687 56.2237 37.4945 56.2624 37.4816 56.3915C37.43 56.4947 37.3784 56.5851 37.3396 56.6883C37.2751 56.8432 37.1977 56.9981 37.1073 57.1014C37.0815 57.1272 37.0686 57.1659 37.0686 57.2046C37.0686 57.2434 37.0944 57.2821 37.1202 57.3079L37.146 57.3337C37.1848 57.3982 37.1331 57.4886 37.0428 57.6435C37.0428 57.6435 37.0041 57.708 36.9912 57.7338C36.9912 57.7596 36.9782 57.7855 36.9782 57.8113C36.9912 58.2372 36.8363 58.5599 36.6943 58.8439C36.5394 59.1536 36.4103 59.4247 36.5652 59.7086C36.5523 59.8377 36.4749 59.9281 36.3458 59.9797C36.2942 59.9926 36.2554 60.0442 36.2554 60.0959V60.1604C36.2554 60.1604 36.2554 60.2378 36.2942 60.2637C36.2942 60.2637 36.32 60.2895 36.3329 60.2895C36.2296 60.4186 36.0876 60.5089 35.894 60.5993C35.8295 60.6251 35.8037 60.6896 35.8166 60.7541V60.8187C35.8166 60.8187 35.8811 60.8961 35.9198 60.9219V60.9478C35.894 60.9865 35.8811 61.0381 35.894 61.0768C35.9069 61.1155 35.9457 61.1543 35.9973 61.1672C36.2038 61.2188 36.32 61.2833 36.32 61.3608C36.32 61.4124 36.2554 61.4511 36.2167 61.464C36.178 61.477 36.1393 61.5157 36.1393 61.5673V61.6318C36.0876 61.7867 35.9328 61.8771 35.7262 61.8771C35.5843 61.8771 35.4552 61.8384 35.3777 61.7609C35.339 61.7351 35.3132 61.6964 35.2874 61.6318C35.2616 61.5931 35.2099 61.5673 35.1712 61.5673C35.1583 61.5673 35.1454 61.5673 35.1325 61.5673C35.068 61.5931 35.0292 61.6447 35.0421 61.7093C35.0421 61.7351 35.0421 61.7738 35.0421 61.7996C35.068 62.0836 35.1067 62.2643 35.623 62.5354C35.5972 62.5354 35.5714 62.5612 35.5326 62.5612C35.4681 62.587 35.4294 62.6386 35.4423 62.7031C35.4423 62.7677 35.4939 62.8193 35.5584 62.8322C35.6359 62.8322 35.8295 62.7419 35.8424 62.8709C35.8553 63 35.3003 63.3227 35.2099 63.3227C35.1712 63.3227 35.1454 63.2969 35.1067 63.2582C35.0421 63.1936 34.9776 63.1291 34.8098 63.1291C34.8098 63.1291 34.8098 63.0904 34.8098 63.0646C34.8098 63.0258 34.784 62.9871 34.7582 62.9613C34.7324 62.9484 34.7066 62.9355 34.6678 62.9355H34.642C34.5904 62.9355 34.5388 62.9742 34.4871 62.9871C34.4226 63.0129 34.3581 63.0387 34.3064 63.0387C34.2806 63.0387 34.2677 63.0387 34.2548 63.0129C34.229 62.9742 34.1903 62.9613 34.1386 62.9613C34.1257 62.9613 34.0999 62.9613 34.087 62.9613C34.087 62.9613 34.0612 62.9613 34.0483 62.9613C34.0354 62.9613 34.0096 62.9613 33.9967 62.9226C33.9708 62.8709 33.9321 62.8451 33.8805 62.8451C33.8289 62.8451 33.7772 62.8709 33.7643 62.9226C33.7385 62.9742 33.7643 63.0775 33.674 63.0904C33.5836 63.1033 33.6352 63.0258 33.6352 62.9871C33.6352 62.9484 33.5965 62.9097 33.5578 62.8968C33.532 62.8968 33.5191 62.8839 33.4933 62.8839C33.4804 62.8839 33.4545 62.8839 33.4416 62.8839C33.4416 62.8839 33.4158 62.8839 33.4029 62.8839C33.3771 62.8839 33.3513 62.8839 33.3255 62.8839C33.2997 62.8839 33.2868 62.8839 33.2609 62.8839C33.248 62.8839 33.2222 62.8839 33.2093 62.8839H33.119C33.0415 62.6128 32.8995 62.4708 32.7705 62.3546C32.6543 62.2514 32.5639 62.161 32.5123 62.0062C32.5123 61.9674 32.4736 61.9287 32.4349 61.9158C32.422 61.9158 32.3961 61.9158 32.3832 61.9158C32.3574 61.9158 32.3316 61.9158 32.3187 61.9287C32.3187 61.9287 32.3187 61.89 32.3058 61.8384C32.3058 61.8384 32.2671 61.7351 32.2154 61.7093H32.1767C32.1767 61.7093 32.1509 61.6835 32.1251 61.6835C32.1122 61.6835 32.0993 61.6835 32.0864 61.6835C32.0864 61.6835 32.0864 61.6835 32.0735 61.6835C32.0735 61.6835 32.0218 61.6835 31.996 61.5544C31.9831 61.5028 31.9315 61.464 31.8799 61.4511C31.8799 61.4511 31.8669 61.4511 31.854 61.4511C31.8282 61.4511 31.8024 61.4511 31.7766 61.477C31.7508 61.477 31.6992 61.4382 31.6346 61.3866C31.2861 61.0639 30.7311 60.6122 30.0857 60.0959C29.1564 59.3472 28.1109 58.4954 27.2461 57.6693C27.2461 57.6693 27.2203 57.6435 27.2074 57.6435C26.0199 57.153 25.0132 56.1204 24.5098 54.9071C24.0967 53.8874 24.0709 52.8161 24.4711 51.8868C24.5872 51.5512 25.0132 50.5961 25.452 50.4154C26.0328 50.1701 26.6266 49.9249 26.6782 49.2795C26.6782 49.2408 26.6782 49.2021 26.6395 49.1763C26.6137 49.1505 26.5749 49.1246 26.5491 49.1246C26.3555 49.1117 26.1619 49.0859 25.9554 49.073C25.5295 49.0343 25.0777 48.9827 24.6518 48.9827C24.1096 48.9827 23.7095 49.0601 23.4127 49.215C23.3868 49.2279 23.361 49.2537 23.3481 49.2795C22.7157 50.5445 22.5737 52.9323 22.4446 54.4812C22.3672 55.3331 22.3026 56.1333 22.1606 56.8819C22.1606 56.9207 22.1606 56.9594 22.1865 56.9981C22.535 57.4111 22.9738 57.7338 23.4385 58.0823C23.7612 58.3276 24.0967 58.5728 24.3936 58.8568C24.3162 59.1407 24.6776 59.3989 24.9615 59.6054C25.0003 59.6312 25.039 59.657 25.0648 59.6828L25.0003 59.799C25.0003 59.799 24.9744 59.8894 25.0003 59.9281C25.0777 60.083 25.1035 60.212 25.0648 60.354V60.4056C25.0648 60.4056 25.039 60.4444 25.0519 60.4702C25.0519 60.5218 25.0519 60.5605 25.039 60.5863C25.0132 60.6251 24.9486 60.638 24.9099 60.638C24.8841 60.638 24.8454 60.638 24.8066 60.638C24.8066 60.638 24.7937 60.638 24.7808 60.638C24.7292 60.638 24.6905 60.6638 24.6647 60.7025C24.6388 60.7541 24.6388 60.8058 24.6647 60.8574C24.8454 61.1285 24.8454 61.4899 24.6647 61.9545C23.9289 60.8832 22.9996 60.0571 22.0961 59.244C20.9474 58.2243 19.7728 57.1788 19.0113 55.6299C19.0113 55.6299 19.0113 55.6041 18.9854 55.6041C17.9012 54.3521 17.2559 52.4031 17.4495 50.9704C17.5915 50.8413 17.8496 50.7897 18.0948 50.7381C18.3788 50.6735 18.6757 50.609 18.766 50.4283C18.8176 50.325 18.8047 50.196 18.7144 50.0411C18.7789 49.8991 18.766 49.77 18.7144 49.6668C18.6111 49.5119 18.3014 49.3312 17.4107 49.3312C16.6621 49.3312 15.8361 49.4602 15.5908 49.5377C15.565 49.5377 15.5392 49.5635 15.5134 49.5893C15.0229 50.2734 15.281 51.0091 15.5263 51.719C15.6166 51.9901 15.7199 52.274 15.7715 52.5451C15.978 53.2937 16.1587 54.0552 16.3265 54.791C16.5201 55.6428 16.7267 56.5334 16.9719 57.3724C16.9719 57.4111 16.9977 57.437 17.0364 57.4499C17.927 57.9791 18.6628 58.9987 19.0242 59.7216C19.8502 61.7609 20.4827 63.4905 21.0119 65.1684C21.141 65.5686 21.1668 65.9945 21.1926 66.4076C21.2184 66.8077 21.2442 67.2336 21.3604 67.6337H21.3346C21.1797 67.4918 21.0635 67.3498 20.9732 67.2465C20.9086 67.1691 20.8441 67.0916 20.8054 67.0529C20.7796 67.0271 20.7537 67.0142 20.715 67.0142C20.5214 66.6657 20.3536 66.2785 20.1987 65.9042C19.876 65.1426 19.6566 64.6909 19.3598 64.6909C19.3339 64.6909 19.321 64.6909 19.2952 64.6909C19.321 64.6263 19.2952 64.5489 19.2307 64.5102C19.2307 64.5102 19.2049 64.5102 19.192 64.4973C19.0758 64.4456 19.0242 64.3811 18.9983 64.3037C18.9854 64.2391 18.9209 64.2004 18.8564 64.2004C18.8564 64.1875 18.8564 64.1617 18.8564 64.1488C18.8564 64.1359 18.8564 64.11 18.8564 64.0842C18.8693 64.0197 18.8306 63.9552 18.766 63.9293C18.7531 63.9293 18.7402 63.9293 18.7144 63.9293C18.6628 63.9293 18.624 63.9552 18.5982 64.0068C18.5982 64.0068 18.5337 64.123 18.4821 64.2133C18.4175 63.9164 18.353 63.7615 18.2626 63.6583C18.1594 63.5421 18.0303 63.5421 17.9141 63.5421C17.798 63.5421 17.656 63.5421 17.5011 63.4389C17.4753 63.426 17.4495 63.4131 17.4237 63.4131C17.4107 63.4131 17.3849 63.4131 17.372 63.4131C17.2817 63.4518 17.2042 63.5034 17.1268 63.555C17.0364 63.6067 16.959 63.6712 16.8945 63.6712C16.8686 63.6712 16.8299 63.6712 16.8041 63.6067C16.7783 63.5679 16.7525 63.5421 16.7138 63.5421C16.7138 63.5421 16.7008 63.5421 16.6879 63.5421C16.6621 63.5421 16.6234 63.5421 16.5976 63.5679C16.5976 63.5679 16.5847 63.5679 16.5718 63.5679C16.5718 63.5679 16.5589 63.5679 16.546 63.5679C16.5201 63.555 16.4943 63.5421 16.4685 63.5421H16.4427C16.404 63.5421 16.3782 63.5679 16.3523 63.6067C16.3394 63.6325 16.3265 63.6325 16.3136 63.6325C16.3007 63.6325 16.2878 63.6325 16.262 63.5808C16.2362 63.5421 16.1846 63.5163 16.1458 63.5163C16.1329 63.5163 16.12 63.5163 16.0942 63.5163C16.0297 63.5163 15.978 63.5808 15.978 63.6325C15.978 63.697 15.9522 63.7099 15.9522 63.7228C15.9522 63.7228 15.9522 63.7228 15.9393 63.7228C15.9264 63.7228 15.9006 63.697 15.8748 63.6454C15.849 63.5938 15.7973 63.5679 15.7457 63.5679C15.7328 63.5679 15.707 63.5679 15.6941 63.5679C15.6424 63.5679 15.6037 63.6067 15.5908 63.6454H15.565C15.565 63.6454 15.4876 63.5421 15.4359 63.5421C15.4359 63.5421 15.423 63.5421 15.4101 63.5421C15.3843 63.5421 15.3714 63.5421 15.3456 63.5421C15.3069 63.5421 15.2681 63.5421 15.2294 63.5292H15.2036C15.1778 63.5292 15.1391 63.5292 15.1132 63.555C15.0745 63.5808 15.0616 63.6196 15.0616 63.6583C15.0616 63.6712 15.0229 63.6712 15.01 63.6712C15.01 63.6712 14.9971 63.6712 14.9842 63.6712C14.9325 63.6712 14.8938 63.697 14.868 63.7357C14.8422 63.7745 14.8422 63.8132 14.8551 63.8519C14.8551 63.8519 14.8422 63.8519 14.8293 63.8519C14.7389 63.8519 14.6357 63.7874 14.5324 63.7228C14.4679 63.6712 14.3904 63.6325 14.313 63.5938C14.3001 63.5938 14.2743 63.5938 14.2614 63.5938C14.2097 63.5938 14.171 63.6196 14.1452 63.6712C14.1065 63.6712 14.0678 63.6841 14.0419 63.7099C14.0161 63.7357 14.0032 63.7745 14.0032 63.8261C14.0032 63.8261 14.0032 63.839 13.9774 63.8648C13.9387 63.8906 13.9129 63.9293 13.9129 63.981C13.9129 63.981 13.9129 64.0068 13.9129 64.0197H13.9C13.9 64.0197 13.8354 64.0584 13.7838 64.0584C13.7709 64.0584 13.7451 64.0584 13.7193 64.0584C13.7193 64.0584 13.7063 64.0584 13.6934 64.0584C13.6676 64.0584 13.6418 64.0584 13.616 64.0842L13.3191 64.0326C13.3191 64.0326 13.3191 64.0326 13.2933 64.0326C13.2933 64.0326 13.2675 64.0326 13.2546 64.0326C13.2288 64.0326 13.203 64.0326 13.1901 64.0455C13.1513 64.0584 13.1384 64.0971 13.1255 64.1359C13.1126 64.1875 12.9835 64.2649 12.635 64.2649C12.5963 64.2649 12.5705 64.2649 12.5318 64.2649C12.4931 64.2649 12.4414 64.2907 12.4156 64.3166C12.3898 64.3553 12.3769 64.4069 12.3898 64.4456C12.3898 64.4456 12.3769 64.4585 12.2995 64.4585C12.2478 64.4585 12.1704 64.4585 12.08 64.4327C12.08 64.4327 12.0671 64.4327 12.0542 64.4327C12.0155 64.4327 11.9768 64.4456 11.951 64.4844C11.9251 64.4973 11.9122 64.5231 11.8993 64.5618C11.8735 64.5876 11.7832 64.6005 11.7315 64.6134C11.7315 64.6134 11.7057 64.6134 11.6928 64.6134C11.6412 64.6263 11.5895 64.678 11.5895 64.7296V64.8329C11.4088 64.8458 11.254 64.8587 11.1378 64.8716H11.112C11.0474 64.8716 10.9958 64.9232 10.9829 64.9877C10.9829 65.0523 11.0087 65.1168 11.0603 65.1426C11.0991 65.1555 11.1378 65.1814 11.1636 65.1943V65.2201C11.0862 65.2201 11.0216 65.2201 10.9571 65.2201C10.4924 65.2201 10.2472 65.375 10.0665 65.4911C9.95032 65.5557 9.85997 65.6202 9.7438 65.6331C9.71799 65.6331 9.69217 65.6331 9.67926 65.6589C9.65345 65.6847 9.62763 65.7106 9.61473 65.7493C9.58891 65.8654 9.67926 66.0203 9.83415 66.2527C9.87287 66.3043 9.9245 66.3688 9.9245 66.3946C9.89869 66.4463 9.89869 66.5108 9.95032 66.5495C10.6473 67.2982 11.383 67.6596 12.2736 67.6596C12.7899 67.6596 13.3062 67.5434 13.8612 67.4272C14.4679 67.2982 15.0874 67.1691 15.7586 67.1691C17.1397 67.1691 18.3917 67.7499 19.7083 69.0148C21.3346 70.796 23.1803 72.3062 25.039 73.4033C27.2332 74.694 29.35 75.3523 31.3377 75.3523C31.6088 75.3523 31.8799 75.3523 32.1509 75.3136C32.7059 75.6234 33.3513 75.7266 33.9708 75.817C34.7324 75.9331 35.5197 76.0493 36.1005 76.5656C36.2812 77.2368 36.9137 77.5466 37.4171 77.7918C37.4945 78.1532 37.7914 78.3081 38.1141 78.4759C38.1657 78.5017 38.2303 78.5404 38.2948 78.5662C38.5529 78.9922 38.8111 79.3536 39.1596 79.5988C39.1209 79.8441 39.1596 80.1668 39.2112 80.4765C39.2757 80.9154 39.3403 81.3284 39.1725 81.5091C39.108 81.5866 39.0176 81.6124 38.9014 81.6124C38.8756 81.6124 38.8498 81.6124 38.8369 81.6124C38.8369 81.6124 38.8369 81.6124 38.824 81.6124C38.7853 81.6124 38.7465 81.6253 38.7207 81.6511C38.6949 81.6769 38.682 81.7285 38.682 81.7673C38.7465 82.077 38.54 82.2577 38.2303 82.5159C37.9721 82.7224 37.6882 82.9418 37.6365 83.329C37.6365 83.329 37.6365 83.342 37.6365 83.3549C37.6752 84.1293 38.3851 85.2393 38.8111 85.8331C39.4177 86.6979 40.1405 87.511 40.6181 87.8595C40.6697 87.8982 40.7343 87.9111 40.7988 87.9111C40.9279 87.9111 41.0699 87.8466 41.1989 87.795C41.3022 87.7563 41.4055 87.7046 41.4829 87.7046C41.5216 87.7046 41.5474 87.7046 41.5733 87.7304C41.5733 87.7304 41.612 87.7692 41.612 87.8595C41.612 87.9111 41.6507 87.9628 41.7023 87.9757C42.5413 88.2855 43.7933 88.4791 44.9679 88.4791L44.7872 88.5565Z" fill="url(#paint0_linear_6183_2792)"/>
<path d="M44.7869 10.9317C43.6252 10.9317 42.3732 11.1254 41.5213 11.4351C41.4697 11.448 41.431 11.4997 41.431 11.5513C41.431 11.6417 41.3922 11.6675 41.3922 11.6804C41.3664 11.7062 41.3406 11.7062 41.3019 11.7062C41.2244 11.7062 41.1341 11.6675 41.0179 11.6158C40.8888 11.5642 40.7469 11.4997 40.6178 11.4997C40.5403 11.4997 40.4887 11.5126 40.4371 11.5513C39.9595 11.8998 39.2367 12.7259 38.6301 13.5777C38.2041 14.1715 37.4942 15.2944 37.4555 16.056C37.4555 16.056 37.4555 16.0689 37.4555 16.0818C37.5071 16.469 37.804 16.6884 38.0492 16.8949C38.359 17.1402 38.5655 17.3338 38.501 17.6436C38.501 17.6823 38.501 17.7339 38.5397 17.7597C38.5655 17.7855 38.6042 17.7984 38.643 17.7984C38.643 17.7984 38.643 17.7984 38.6559 17.7984C38.6817 17.7984 38.7075 17.7984 38.7204 17.7984C38.8495 17.7984 38.9398 17.8372 38.9915 17.9017C39.1593 18.0953 39.0947 18.5083 39.0302 18.9343C38.9786 19.2441 38.9398 19.5667 38.9786 19.812C38.6301 20.0572 38.3848 20.4315 38.1138 20.8446C38.0492 20.8704 37.9976 20.9091 37.9331 20.9349C37.6233 21.0898 37.3264 21.2447 37.2361 21.619C36.7327 21.8643 36.1002 22.174 35.9195 22.8452C35.3387 23.3744 34.5513 23.4906 33.7898 23.5938C33.1574 23.6842 32.512 23.7745 31.9699 24.0972C31.6988 24.0714 31.4278 24.0585 31.1567 24.0585C29.169 24.0585 27.0522 24.7168 24.8579 26.0075C22.9864 27.1046 21.1406 28.6148 19.5272 30.396C18.2107 31.648 16.9458 32.2417 15.5776 32.2417C14.9064 32.2417 14.2869 32.1127 13.6802 31.9836C13.1252 31.8674 12.6089 31.7513 12.0926 31.7513C11.2149 31.7513 10.4663 32.0998 9.76929 32.8613C9.73057 32.9 9.71766 32.9645 9.74348 33.0162C9.74348 33.042 9.69185 33.1065 9.65312 33.1582C9.48533 33.3776 9.39498 33.5325 9.4337 33.6615C9.4337 33.7003 9.45951 33.7261 9.49824 33.7519C9.51114 33.7648 9.53696 33.7777 9.56277 33.7777C9.67894 33.7906 9.76929 33.8552 9.88546 33.9197C10.0791 34.0359 10.3114 34.1907 10.7761 34.1907C10.8406 34.1907 10.9051 34.1907 10.9826 34.1907V34.2166C10.9826 34.2166 10.918 34.2424 10.8793 34.2682C10.8277 34.294 10.789 34.3585 10.8019 34.4231C10.8019 34.4876 10.8664 34.5263 10.9309 34.5392H10.9568C11.0858 34.5392 11.2278 34.5651 11.3956 34.578V34.6812C11.3956 34.6812 11.4472 34.7845 11.5118 34.7974C11.5247 34.7974 11.5376 34.7974 11.5505 34.7974C11.5505 34.7974 11.6925 34.8361 11.7183 34.849C11.7183 34.8748 11.7441 34.9006 11.7699 34.9265C11.7957 34.9523 11.8345 34.9781 11.8732 34.9781C11.8732 34.9781 11.8861 34.9781 11.899 34.9781C12.0023 34.9652 12.0668 34.9523 12.1184 34.9523C12.183 34.9523 12.2088 34.9652 12.2088 34.9652C12.1959 35.0039 12.2088 35.0555 12.2346 35.0943C12.2604 35.133 12.2991 35.1459 12.3508 35.1459C12.3895 35.1459 12.4153 35.1459 12.454 35.1459C12.7896 35.1459 12.9187 35.2104 12.9445 35.275C12.9445 35.3137 12.9703 35.3395 13.009 35.3653C13.0348 35.3653 13.0607 35.3782 13.0736 35.3782C13.0736 35.3782 13.0994 35.3782 13.1123 35.3782C13.1123 35.3782 13.1252 35.3782 13.1381 35.3782L13.435 35.3266C13.435 35.3266 13.4866 35.3524 13.5124 35.3524C13.5124 35.3524 13.5253 35.3524 13.5382 35.3524C13.564 35.3524 13.577 35.3524 13.6028 35.3524C13.6544 35.3524 13.6931 35.3524 13.7189 35.3782H13.7318C13.7318 35.3782 13.7318 35.4169 13.7318 35.4298C13.7318 35.4686 13.7577 35.5202 13.7964 35.546C13.8222 35.5589 13.8222 35.5718 13.8222 35.5718C13.8222 35.5718 13.8222 35.6622 13.8609 35.688C13.8867 35.7138 13.9254 35.7267 13.9642 35.7267C13.99 35.7783 14.0416 35.8042 14.0803 35.8042C14.0932 35.8042 14.1191 35.8042 14.132 35.8042C14.2094 35.7654 14.2869 35.7267 14.3514 35.6751C14.4676 35.5976 14.5579 35.546 14.6483 35.546C14.6483 35.546 14.6612 35.546 14.6741 35.546C14.6741 35.5847 14.6741 35.6235 14.687 35.6622C14.7128 35.7009 14.7515 35.7267 14.8031 35.7267C14.8031 35.7267 14.8161 35.7267 14.829 35.7267C14.8548 35.7267 14.8806 35.7267 14.8806 35.7396C14.8806 35.7783 14.9064 35.8171 14.9322 35.8429C14.958 35.8558 14.9838 35.8687 15.0226 35.8687H15.0484C15.0871 35.8687 15.1258 35.8558 15.1645 35.8558C15.1904 35.8558 15.2033 35.8558 15.2291 35.8558C15.2291 35.8558 15.242 35.8558 15.2549 35.8558C15.3194 35.8558 15.3711 35.8171 15.384 35.7525H15.4098C15.4098 35.7525 15.4743 35.8171 15.513 35.83C15.526 35.83 15.5518 35.83 15.5647 35.83C15.6163 35.83 15.6679 35.8042 15.6937 35.7525C15.7196 35.7009 15.7454 35.6751 15.7583 35.6751H15.7712C15.7712 35.6751 15.7841 35.7009 15.797 35.7654C15.797 35.83 15.8486 35.8816 15.9132 35.8816C15.9261 35.8816 15.939 35.8816 15.9648 35.8816C16.0164 35.8816 16.0552 35.8558 16.081 35.8171C16.1068 35.7654 16.1326 35.7654 16.1326 35.7654C16.1326 35.7654 16.1455 35.7654 16.1713 35.7913C16.1971 35.8171 16.223 35.8429 16.2617 35.8558H16.2875C16.3133 35.8558 16.3391 35.8558 16.3649 35.83C16.3649 35.83 16.3649 35.83 16.3907 35.83C16.3907 35.83 16.4037 35.83 16.4166 35.83C16.4424 35.8558 16.4682 35.8558 16.5069 35.8558C16.5069 35.8558 16.5198 35.8558 16.5327 35.8558C16.5714 35.8558 16.6102 35.83 16.6231 35.7913C16.6618 35.7396 16.6876 35.7267 16.7134 35.7267C16.778 35.7267 16.8554 35.7783 16.9458 35.8429C17.0232 35.8945 17.1006 35.9461 17.191 35.9849C17.2039 35.9849 17.2168 35.9849 17.2426 35.9849C17.2684 35.9849 17.2943 35.9849 17.3201 35.959C17.475 35.8558 17.604 35.8558 17.7331 35.8558C17.8493 35.8558 17.9654 35.8558 18.0816 35.7396C18.172 35.6493 18.2365 35.4815 18.301 35.1846C18.3527 35.2879 18.3914 35.3395 18.4172 35.3911C18.4172 35.3911 18.4946 35.4686 18.5334 35.4686C18.5463 35.4686 18.5592 35.4686 18.585 35.4686C18.6495 35.4428 18.6882 35.3782 18.6753 35.3137C18.6753 35.2879 18.6753 35.275 18.6753 35.2491C18.6753 35.2362 18.6753 35.2104 18.6753 35.1975C18.7399 35.1975 18.7915 35.1588 18.8173 35.0943C18.8431 35.0039 18.8948 34.9523 19.0109 34.9007C19.0109 34.9007 19.0367 34.9006 19.0497 34.8877C19.1142 34.849 19.14 34.7716 19.1142 34.707C19.14 34.707 19.1658 34.707 19.1787 34.707C19.4885 34.707 19.7079 34.2424 20.0177 33.4938C20.1726 33.1194 20.3404 32.7322 20.534 32.3966C20.534 32.3966 20.5985 32.3708 20.6243 32.345C20.6631 32.3063 20.7276 32.2288 20.7921 32.1514C20.8825 32.0481 20.9987 31.9062 21.1535 31.7384H21.1794C21.0632 32.1514 21.0374 32.5773 21.0116 32.9775C20.9858 33.3905 20.9599 33.8293 20.8309 34.2166C20.2888 35.8945 19.6563 37.6241 18.8431 39.6635C18.4817 40.3863 17.746 41.4059 16.8554 41.9351C16.8296 41.948 16.8038 41.9868 16.7909 42.0126C16.5456 42.8516 16.3391 43.7422 16.1455 44.594C15.9777 45.3298 15.797 46.0913 15.5905 46.8399C15.5389 47.111 15.4356 47.3949 15.3453 47.666C15.1 48.3759 14.8419 49.1116 15.3323 49.7957C15.3453 49.8215 15.3711 49.8344 15.4098 49.8473C15.655 49.9248 16.4811 50.0538 17.2297 50.0538C18.1203 50.0538 18.4301 49.8731 18.5334 49.7183C18.5979 49.615 18.6108 49.4859 18.5334 49.3439C18.6108 49.1761 18.6237 49.0471 18.585 48.9567C18.4946 48.776 18.1978 48.7115 17.9138 48.6469C17.6686 48.5953 17.4233 48.5308 17.2684 48.4146C17.0748 46.9819 17.7202 45.02 18.8044 43.7809C18.8044 43.7809 18.8173 43.768 18.8302 43.7551C19.5918 42.2062 20.7663 41.1607 21.9151 40.141C22.8186 39.3408 23.7479 38.5018 24.4836 37.4305C24.6643 37.8951 24.6643 38.2566 24.4836 38.5276C24.4578 38.5792 24.4578 38.6309 24.4836 38.6825C24.5094 38.7212 24.5482 38.747 24.5998 38.747C24.5998 38.747 24.6127 38.747 24.6256 38.747C24.6643 38.747 24.6902 38.747 24.7289 38.747C24.7676 38.747 24.8321 38.747 24.8579 38.7987C24.8709 38.8245 24.8838 38.8632 24.8709 38.9148C24.8709 38.9406 24.8709 38.9536 24.8709 38.9794V39.031C24.9225 39.1601 24.8967 39.302 24.8192 39.4569C24.7934 39.4957 24.7934 39.5473 24.8192 39.586L24.8838 39.7022C24.8838 39.7022 24.8192 39.7538 24.7805 39.7796C24.4965 39.9861 24.1351 40.2443 24.2126 40.5282C23.9157 40.8122 23.5801 41.0574 23.2574 41.3027C22.7928 41.6512 22.3539 41.9739 22.0054 42.3869C21.9796 42.4127 21.9667 42.4643 21.9796 42.5031C22.1216 43.2517 22.199 44.0519 22.2636 44.9038C22.3926 46.4527 22.5346 48.0661 23.1671 49.331C23.18 49.3568 23.2058 49.3827 23.2316 49.3956C23.5285 49.5505 23.9286 49.6279 24.4707 49.6279C24.8967 49.6279 25.3484 49.5892 25.7744 49.5376C25.968 49.5117 26.1745 49.4988 26.3681 49.4859C26.4068 49.4859 26.4326 49.4601 26.4585 49.4343C26.4843 49.4085 26.4972 49.3698 26.4972 49.331C26.4455 48.6857 25.8518 48.4404 25.271 48.1952C24.8321 48.0145 24.4062 47.8338 24.29 47.4982C23.9028 46.5689 23.9157 45.4976 24.3287 44.4779C24.8321 43.2517 25.8389 42.232 27.0264 41.7415C27.0393 41.7415 27.0522 41.7286 27.0651 41.7157C27.917 40.9026 28.9754 40.0507 29.9047 39.2891C30.5501 38.7728 31.1051 38.3211 31.4536 37.9984C31.5181 37.9468 31.5698 37.9081 31.5956 37.9081C31.6214 37.921 31.6472 37.9339 31.673 37.9339C31.673 37.9339 31.6859 37.9339 31.6988 37.9339C31.7505 37.9339 31.8021 37.8822 31.815 37.8306C31.8537 37.7015 31.8924 37.7015 31.8924 37.7015C31.8924 37.7015 31.8924 37.7015 31.9053 37.7015C31.9183 37.7015 31.9312 37.7015 31.9441 37.7015C31.957 37.7015 31.9828 37.7015 31.9957 37.7015H32.0344C32.0344 37.7015 32.1248 37.6241 32.1248 37.5725C32.1248 37.5725 32.1248 37.495 32.1377 37.4821C32.1635 37.4821 32.1764 37.495 32.2022 37.495C32.2151 37.495 32.2409 37.495 32.2538 37.495C32.2926 37.4821 32.3184 37.4434 32.3313 37.4047C32.3829 37.2498 32.4733 37.1594 32.5894 37.0562C32.7185 36.94 32.8605 36.798 32.9379 36.527H33.0283C33.0283 36.527 33.067 36.527 33.0799 36.527C33.1057 36.527 33.1186 36.527 33.1444 36.527C33.1703 36.527 33.1961 36.527 33.2219 36.527C33.2348 36.527 33.2477 36.527 33.2606 36.527C33.2735 36.527 33.2993 36.527 33.3122 36.527C33.3381 36.527 33.351 36.527 33.3768 36.5141C33.4155 36.5012 33.4413 36.4624 33.4542 36.4237C33.4542 36.385 33.4026 36.3075 33.4929 36.3205C33.5833 36.3334 33.5575 36.4495 33.5833 36.4883C33.6091 36.527 33.6478 36.5657 33.6995 36.5657C33.7511 36.5657 33.8027 36.5399 33.8156 36.4883C33.8414 36.4495 33.8544 36.4495 33.8673 36.4495C33.8673 36.4495 33.8931 36.4495 33.906 36.4495C33.9189 36.4495 33.9447 36.4495 33.9576 36.4495C33.9963 36.4495 34.048 36.4237 34.0738 36.3979C34.0738 36.385 34.0996 36.3721 34.1254 36.3721C34.1641 36.3721 34.2287 36.3979 34.3061 36.4237C34.3577 36.4495 34.4094 36.4624 34.461 36.4753H34.4868C34.5126 36.4753 34.5513 36.4753 34.5772 36.4495C34.6159 36.4237 34.6288 36.385 34.6288 36.3463C34.6288 36.3334 34.6288 36.3075 34.6288 36.2817C34.7966 36.2817 34.8611 36.2301 34.9257 36.1527C34.9644 36.1139 34.9902 36.0881 35.0289 36.0881C35.1064 36.0881 35.6743 36.4108 35.6614 36.5399C35.6485 36.6689 35.4549 36.5657 35.3774 36.5786C35.3129 36.5786 35.2613 36.6431 35.2613 36.7077C35.2613 36.7722 35.3 36.8367 35.3516 36.8497C35.3774 36.8497 35.4032 36.8755 35.442 36.8755C34.9257 37.1465 34.8869 37.3143 34.8611 37.6112C34.8611 37.637 34.8611 37.6628 34.8611 37.7015C34.8611 37.7661 34.8869 37.8306 34.9515 37.8435C34.9644 37.8435 34.9773 37.8435 34.9902 37.8435C35.0418 37.8435 35.0805 37.8177 35.1064 37.779C35.1322 37.7274 35.1709 37.6886 35.1967 37.6499C35.2742 37.5854 35.4032 37.5337 35.5452 37.5337C35.7646 37.5337 35.9195 37.6241 35.9453 37.779V37.8435C35.9453 37.8435 35.997 37.921 36.0486 37.9468C36.1002 37.9726 36.1519 37.9984 36.1519 38.05C36.1519 38.1275 36.0357 38.192 35.8292 38.2436C35.7775 38.2436 35.7517 38.2824 35.7259 38.334C35.713 38.3727 35.7259 38.4243 35.7517 38.4631C35.7517 38.4631 35.7517 38.4631 35.7517 38.476C35.7517 38.476 35.6743 38.5405 35.6743 38.5792V38.6438C35.6485 38.7083 35.6743 38.7728 35.7388 38.7987C35.9324 38.8761 36.0744 38.9794 36.1777 39.0955C36.1777 39.0955 36.1519 39.1213 36.139 39.1213C36.1131 39.1472 36.1002 39.1859 36.1002 39.2246V39.2891C36.1002 39.2891 36.1389 39.3924 36.1906 39.4053C36.3197 39.4569 36.3971 39.5473 36.41 39.6764C36.2551 39.9603 36.3842 40.2314 36.5391 40.5411C36.6811 40.8251 36.8489 41.1607 36.823 41.5737C36.823 41.5995 36.823 41.6254 36.8359 41.6512C36.8489 41.677 36.8747 41.7028 36.8876 41.7415C36.9779 41.8964 37.0296 41.9868 36.9908 42.0513C36.9908 42.0513 36.9779 42.0771 36.965 42.0771C36.9392 42.1029 36.9134 42.1417 36.9134 42.1804C36.9134 42.2191 36.9134 42.2578 36.9521 42.2836C37.0554 42.3869 37.1199 42.5418 37.1844 42.6967C37.2232 42.7999 37.2748 42.8903 37.3264 42.9935C37.3393 43.1226 37.3135 43.1613 37.2748 43.2001C37.2361 43.2259 37.2232 43.2775 37.2361 43.3291C37.2361 43.3808 37.2748 43.4195 37.3135 43.4324C37.3522 43.4453 37.391 43.5356 37.4168 43.6002C37.4684 43.7163 37.5329 43.8583 37.6749 43.9487C37.8298 44.1036 37.804 44.3488 37.5846 44.7102C37.5588 44.7489 37.5588 44.8006 37.5846 44.8393C37.6104 44.878 37.6491 44.9038 37.7007 44.9167C37.7524 44.9167 37.7911 44.9425 37.8169 44.9684C37.8427 45.0071 37.8427 45.0458 37.8169 45.1232C37.8169 45.1232 37.8169 45.1491 37.8169 45.162V45.3427C37.8298 46.3365 38.1009 46.8399 38.3977 47.3691C38.5784 47.7047 38.772 48.0661 38.8753 48.5566C38.8366 49.1761 38.9786 49.6666 39.3141 50.028C39.7917 50.5443 40.5533 50.6605 41.0954 50.6605C41.4697 50.6605 41.8827 50.6089 42.2957 50.5056C42.3603 50.4798 42.4377 50.4669 42.5152 50.4669C42.5797 50.4669 42.6571 50.4669 42.7217 50.4798C42.7862 50.4798 42.8637 50.4927 42.9282 50.4927C42.954 50.4927 42.9798 50.4927 43.0056 50.4927C43.0444 50.4927 43.0831 50.4669 43.096 50.4411C43.1218 50.4152 43.1347 50.3765 43.1218 50.3378C43.1218 50.2862 43.1089 50.2216 43.1089 50.1571C43.0831 49.9119 43.0702 49.6666 42.812 49.6666H42.7862C40.9663 48.6082 40.5662 46.6463 40.1531 44.5553C40.0886 44.2585 40.037 43.9616 39.9724 43.6518C39.9208 43.071 39.8175 42.4772 39.7143 41.8448C39.4303 40.1539 39.1464 38.4114 39.6497 37.0433C39.6497 37.0175 39.6497 36.9916 39.6497 36.9658C39.611 36.8109 39.6239 36.7077 39.6756 36.6302C39.753 36.527 39.9466 36.5141 40.1402 36.5141C40.2177 36.5141 40.2951 36.5141 40.3726 36.5141C40.4758 36.5141 40.5791 36.5141 40.6952 36.5141C40.9276 36.5141 41.1341 36.5141 41.3277 36.4753C41.3535 36.4753 41.3664 36.4753 41.3793 36.4495C41.7794 36.1914 42.1925 36.1785 42.5926 36.1656C43.0315 36.1527 43.1218 35.6751 43.6639 35.7267C43.7285 35.7267 43.7543 35.8171 43.7414 35.8558C43.7155 35.8945 43.7155 35.9461 43.7414 35.9849V36.0107C43.793 36.1139 43.7672 36.243 43.7414 36.3592C43.7285 36.4366 43.7155 36.5012 43.7026 36.5657C43.7026 36.6302 43.7414 36.6819 43.793 36.7077C43.8059 36.7077 43.8188 36.7077 43.8317 36.7077C43.8704 36.7077 43.9221 36.6819 43.9479 36.6431C44.0124 36.5657 44.064 36.5141 44.1157 36.5141C44.348 36.5141 44.49 37.4047 44.6191 38.1791C44.7223 38.7728 44.8127 39.3795 44.9546 39.6635C44.9288 40.5541 45.187 41.5221 45.4322 42.4643C45.7678 43.7551 46.1034 45.0845 45.7678 46.272C45.7549 46.3236 45.7678 46.3753 45.8065 46.414C46.3099 46.8528 46.4906 47.5498 46.3486 48.5437C46.3486 48.5695 46.3486 48.5953 46.3615 48.6211C46.5035 48.918 46.6326 49.1116 46.7488 49.2923C46.9166 49.5505 47.0585 49.7699 47.1747 50.1571C47.1747 50.1829 47.2005 50.1958 47.2134 50.2216C47.3167 50.3249 47.5619 50.4411 48.53 50.4411C48.801 50.4411 49.085 50.4411 49.356 50.4282C49.6142 50.4282 49.8594 50.4152 50.0659 50.4152C50.4015 50.4152 50.6081 50.4282 50.7371 50.4669C50.75 50.4669 50.7629 50.4669 50.7759 50.4669C50.7759 50.4669 50.7758 50.4669 50.7888 50.4669C50.9436 50.454 51.034 50.3636 51.0598 50.2345C51.1114 49.9893 50.9178 49.6537 50.8404 49.5246C50.6726 49.2665 50.4532 49.0471 50.2596 48.9567C50.2596 48.9567 50.2467 48.9567 50.2337 48.9567C49.498 48.7373 48.8914 48.1952 48.4525 47.3562C48.0653 46.6205 47.7814 45.6525 47.6265 44.465C47.3296 42.2836 47.4587 39.8442 47.5361 38.2178V38.1791C47.5361 38.0758 47.5361 37.9855 47.549 37.8951C47.549 37.8951 47.549 37.8693 47.549 37.8564C47.1231 35.8429 47.549 33.9197 47.9491 32.061C48.0008 31.8545 48.0395 31.6351 48.0911 31.4157C48.0911 31.4157 48.0911 31.4028 48.0911 31.3899C48.2073 28.0081 47.3038 24.0714 46.5035 20.5864L46.3874 20.083C46.8004 19.4764 47.3425 18.7923 47.975 18.7923C48.104 18.7923 48.2331 18.8181 48.3493 18.8827C48.5171 19.0634 48.7881 19.2441 49.0463 19.2441C49.0721 19.2441 49.0979 19.2441 49.1108 19.2441C49.1753 19.2441 49.227 19.1795 49.227 19.1021C49.227 18.5729 49.5238 18.3664 49.8465 18.1599C50.195 17.9275 50.5822 17.6694 50.5564 16.882C50.8662 15.9656 50.9307 15.3719 50.7371 14.9717C50.5564 14.5845 50.195 14.4296 49.7691 14.236C49.4206 14.0811 49.0205 13.9004 48.672 13.5648C48.7623 12.9195 48.6203 12.3645 48.246 11.9385C47.407 10.9705 45.6129 10.8285 44.632 10.8285L44.7869 10.9317Z" fill="url(#paint1_linear_6183_2792)"/>
</g>
<path d="M10.455 34.1133H10.4163C10.4163 34.1133 10.4421 34.1133 10.455 34.1133ZM10.4679 33.8939C10.4679 33.8939 10.4679 33.8939 10.455 33.8939H10.4292C10.313 33.8939 10.2227 33.9972 10.2227 34.1133C10.2227 34.2295 10.313 34.3199 10.4292 34.3199C10.4292 34.3199 10.455 34.3199 10.4679 34.3199C10.5841 34.3199 10.6873 34.2295 10.6873 34.1133C10.6873 33.9972 10.597 33.9068 10.4808 33.9068L10.4679 33.8939Z" fill="white"/>
</g>
<path fill-rule="evenodd" clip-rule="evenodd" d="M32.4997 2.48501C15.9228 2.48501 2.48465 15.9232 2.48465 32.5C2.48465 49.0768 15.9228 62.515 32.4997 62.515C49.0765 62.515 62.5146 49.0768 62.5146 32.5C62.5146 15.9232 49.0765 2.48501 32.4997 2.48501ZM1.51465 32.5C1.51465 15.3875 15.3871 1.51501 32.4997 1.51501C49.6122 1.51501 63.4846 15.3875 63.4846 32.5C63.4846 49.6126 49.6122 63.485 32.4997 63.485C15.3871 63.485 1.51465 49.6126 1.51465 32.5Z" fill="url(#paint2_linear_6183_2792)"/>
<path d="M21.7866 38.5148C22.4578 36.4754 25.1296 35.3008 26.3558 34.2812C26.8592 33.8681 27.9176 32.913 27.7111 31.1189C27.4271 28.6794 27.3497 27.5048 29.5181 27.0273C29.5568 27.0273 29.4407 26.7949 29.1309 26.5497C28.7049 26.2012 28.5371 26.2786 28.5113 26.2915C26.7559 27.4016 24.6908 27.4145 23.2968 30.1637C23.2968 30.1637 23.2968 30.1766 23.2968 30.1895C23.2968 30.1895 23.2968 30.2025 23.2968 30.2154C23.0128 30.7962 22.7676 32.216 22.6514 32.913C22.3804 34.5909 21.9802 36.0237 20.5088 37.9468C20.5088 37.9598 20.5088 37.9856 20.5088 37.9985C20.5475 38.0759 20.6895 38.2566 20.9476 38.2824C21.0122 38.2824 21.2187 37.8694 21.4897 38.0243C21.5414 38.0501 21.3865 38.3083 21.4252 38.347C21.6446 38.5664 21.8253 38.5793 21.8382 38.5406L21.7866 38.5148Z" fill="#AE1022"/>
<path fill-rule="evenodd" clip-rule="evenodd" d="M28.9096 22.5248C28.9368 22.7663 28.7632 22.9842 28.5217 23.0114C25.4176 23.3619 23.3428 24.5726 22.0469 25.6833C21.3973 26.2401 20.9415 26.7736 20.6498 27.1645C20.504 27.3599 20.3995 27.5193 20.3325 27.6278C20.2991 27.6821 20.275 27.7235 20.2599 27.7503C20.2523 27.7637 20.247 27.7734 20.2439 27.7792L20.2409 27.7846L20.2408 27.7849L20.2407 27.785C20.1288 28.0005 19.8635 28.0846 19.6478 27.9729C19.4321 27.8611 19.3478 27.5956 19.4596 27.3798L19.8502 27.5822C19.4596 27.3798 19.4597 27.3796 19.4598 27.3794L19.4601 27.3788L19.4609 27.3774L19.463 27.3733L19.4698 27.3606C19.4754 27.3502 19.4833 27.3358 19.4936 27.3176C19.5141 27.2812 19.544 27.2299 19.5837 27.1656C19.6632 27.0369 19.7821 26.8559 19.9445 26.6383C20.2692 26.2031 20.7684 25.6201 21.4742 25.0152C22.8888 23.8027 25.125 22.5093 28.423 22.137C28.6644 22.1097 28.8823 22.2834 28.9096 22.5248Z" fill="#AE1022"/>
<defs>
<linearGradient id="paint0_linear_6183_2792" x1="30.331" y1="49.0472" x2="30.331" y2="63.5034" gradientUnits="userSpaceOnUse">
<stop stop-color="#CCCCCC"/>
<stop offset="0.58" stop-color="#F2F2F2"/>
</linearGradient>
<linearGradient id="paint1_linear_6183_2792" x1="15.2162" y1="49.615" x2="56.5971" y2="24.4457" gradientUnits="userSpaceOnUse">
<stop stop-color="#ABACAC"/>
<stop offset="0.17" stop-color="#E6E6E6"/>
<stop offset="0.32" stop-color="#ABACAC"/>
<stop offset="0.47" stop-color="#ABACAC"/>
<stop offset="0.6" stop-color="#E6E6E6"/>
<stop offset="0.69" stop-color="#D9DADA"/>
<stop offset="0.78" stop-color="#D9DADA"/>
<stop offset="0.9" stop-color="#ABACAC"/>
<stop offset="1" stop-color="#666666"/>
</linearGradient>
<linearGradient id="paint2_linear_6183_2792" x1="1.3801" y1="32.5" x2="63.6192" y2="32.5" gradientUnits="userSpaceOnUse">
<stop stop-color="#D9DADA"/>
<stop offset="0.08" stop-color="#ABACAC"/>
<stop offset="0.17" stop-color="white"/>
<stop offset="0.32" stop-color="#ABACAC"/>
<stop offset="0.47" stop-color="#ABACAC"/>
<stop offset="0.6" stop-color="white"/>
<stop offset="0.69" stop-color="#D9DADA"/>
<stop offset="0.86" stop-color="#ABACAC"/>
<stop offset="1" stop-color="#D9DADA"/>
</linearGradient>
</defs>
</svg>
