<svg width="65" height="65" viewBox="0 0 65 65" fill="none" xmlns="http://www.w3.org/2000/svg">
<path d="M32.4997 61.8329C49.0712 61.8329 62.5052 48.5496 62.5052 32.1637C62.5052 15.7778 49.0712 2.49448 32.4997 2.49448C15.9281 2.49448 2.49414 15.7778 2.49414 32.1637C2.49414 48.5496 15.9281 61.8329 32.4997 61.8329Z" fill="white"/>
<path fill-rule="evenodd" clip-rule="evenodd" d="M32.5 2.98897C16.1962 2.98897 2.98897 16.0562 2.98897 32.1637C2.98897 48.2712 16.1962 61.3385 32.5 61.3385C48.8038 61.3385 62.011 48.2712 62.011 32.1637C62.011 16.0562 48.8038 2.98897 32.5 2.98897ZM2 32.1637C2 15.4995 15.6606 2 32.5 2C49.3394 2 63 15.4995 63 32.1637C63 48.8279 49.3394 62.3274 32.5 62.3274C15.6606 62.3274 2 48.8279 2 32.1637Z" fill="url(#paint0_linear_6183_3100)"/>
<mask id="mask0_6183_3100" style="mask-type:luminance" maskUnits="userSpaceOnUse" x="8" y="8" width="49" height="49">
<path d="M32.5001 56.162C45.8553 56.162 56.6818 45.4586 56.6818 32.2554C56.6818 19.0522 45.8553 8.34882 32.5001 8.34882C19.1449 8.34882 8.31836 19.0522 8.31836 32.2554C8.31836 45.4586 19.1449 56.162 32.5001 56.162Z" fill="white"/>
</mask>
<g mask="url(#mask0_6183_3100)">
<path d="M49.0236 38.1556C48.3052 38.7365 47.7091 40.1122 47.6785 42.2216C47.5868 48.1218 44.8048 51.2553 42.2368 52.2489C41.549 52.5088 40.8458 52.6463 40.1427 52.6463C38.5377 52.6463 36.9786 51.9738 35.8016 50.6898C34.1355 48.8708 30.9102 43.2304 37.2079 30.0237C39.9899 24.1847 39.3326 20.5161 37.3913 20.1646C35.4501 19.813 33.4629 23.2828 33.2948 27.3793C32.6987 41.9465 27.4863 45.2328 25.2699 45.9818C23.0688 46.7155 20.7912 46.043 19.3085 44.2393C17.5048 42.0076 16.6947 37.7124 19.4767 32.0567C19.9047 31.1854 19.4002 29.5652 18.1315 29.29C18.0092 29.2595 12.4453 36.3519 6.37695 35.0527M24.4597 9.70925C26.4163 15.9305 22.5949 23.0841 21.6472 24.6279C21.5555 24.7808 21.6319 24.9795 21.8001 25.0559C28.9537 28.1283 20.1951 38.0792 23.1299 40.5555C25.117 42.2369 27.5321 35.0985 27.8531 27.1348C28.1436 20.0728 31.9955 16.2056 35.2208 15.0439C37.9874 14.0351 40.8611 14.6618 42.6954 16.6947C44.3768 18.5443 46.5321 23.0382 42.0993 32.3471C37.8346 41.3045 38.7059 45.8443 39.7759 47.006C40.0204 47.2811 40.158 47.2353 40.2803 47.1741C41.0293 46.8837 42.1757 45.3093 42.2368 42.1452C42.3285 36.7341 44.5755 34.3954 46.4404 33.3866C47.8772 32.607 49.5433 32.3624 51.3164 32.6528" stroke="url(#paint1_linear_6183_3100)" stroke-miterlimit="10"/>
</g>
<path d="M29.5653 37.9264C30.2491 37.9264 30.8034 37.372 30.8034 36.6882C30.8034 36.0044 30.2491 35.4501 29.5653 35.4501C28.8815 35.4501 28.3271 36.0044 28.3271 36.6882C28.3271 37.372 28.8815 37.9264 29.5653 37.9264Z" fill="#B28BBD"/>
<path d="M30.5897 29.8709C31.2735 29.8709 31.8278 29.3166 31.8278 28.6328C31.8278 27.949 31.2735 27.3946 30.5897 27.3946C29.9059 27.3946 29.3516 27.949 29.3516 28.6328C29.3516 29.3166 29.9059 29.8709 30.5897 29.8709Z" fill="#B28BBD"/>
<path d="M37.3915 18.5748C38.0753 18.5748 38.6296 18.0205 38.6296 17.3367C38.6296 16.6529 38.0753 16.0986 37.3915 16.0986C36.7077 16.0986 36.1533 16.6529 36.1533 17.3367C36.1533 18.0205 36.7077 18.5748 37.3915 18.5748Z" fill="#72207E"/>
<path d="M41.4579 27.3946C42.1417 27.3946 42.696 26.8403 42.696 26.1565C42.696 25.4727 42.1417 24.9183 41.4579 24.9183C40.7741 24.9183 40.2197 25.4727 40.2197 26.1565C40.2197 26.8403 40.7741 27.3946 41.4579 27.3946Z" fill="#B28BBD"/>
<path d="M44.8963 45.3551C45.5801 45.3551 46.1345 44.8008 46.1345 44.117C46.1345 43.4332 45.5801 42.8788 44.8963 42.8788C44.2125 42.8788 43.6582 43.4332 43.6582 44.117C43.6582 44.8008 44.2125 45.3551 44.8963 45.3551Z" fill="#B28BBD"/>
<path d="M38.3553 35.2972C39.0391 35.2972 39.5934 34.7429 39.5934 34.0591C39.5934 33.3753 39.0391 32.821 38.3553 32.821C37.6715 32.821 37.1172 33.3753 37.1172 34.0591C37.1172 34.7429 37.6715 35.2972 38.3553 35.2972Z" fill="#72207E"/>
<path d="M37.7284 49.9255C38.4122 49.9255 38.9665 49.3712 38.9665 48.6874C38.9665 48.0036 38.4122 47.4492 37.7284 47.4492C37.0446 47.4492 36.4902 48.0036 36.4902 48.6874C36.4902 49.3712 37.0446 49.9255 37.7284 49.9255Z" fill="#72207E"/>
<path d="M29.0761 34.5177C29.4898 34.5177 29.8251 34.1824 29.8251 33.7687C29.8251 33.355 29.4898 33.0197 29.0761 33.0197C28.6625 33.0197 28.3271 33.355 28.3271 33.7687C28.3271 34.1824 28.6625 34.5177 29.0761 34.5177Z" fill="#B28BBD"/>
<path d="M30.9414 24.1235C31.355 24.1235 31.6904 23.7881 31.6904 23.3745C31.6904 22.9608 31.355 22.6255 30.9414 22.6255C30.5277 22.6255 30.1924 22.9608 30.1924 23.3745C30.1924 23.7881 30.5277 24.1235 30.9414 24.1235Z" fill="#B28BBD"/>
<path d="M41.457 21.097C41.8707 21.097 42.206 20.7616 42.206 20.348C42.206 19.9343 41.8707 19.599 41.457 19.599C41.0433 19.599 40.708 19.9343 40.708 20.348C40.708 20.7616 41.0433 21.097 41.457 21.097Z" fill="#B28BBD"/>
<path d="M44.4238 41.9312C44.8374 41.9312 45.1728 41.5958 45.1728 41.1822C45.1728 40.7685 44.8374 40.4332 44.4238 40.4332C44.0101 40.4332 43.6748 40.7685 43.6748 41.1822C43.6748 41.5958 44.0101 41.9312 44.4238 41.9312Z" fill="#B28BBD"/>
<path d="M39.5927 30.7268C40.0064 30.7268 40.3417 30.3915 40.3417 29.9778C40.3417 29.5642 40.0064 29.2289 39.5927 29.2289C39.1791 29.2289 38.8438 29.5642 38.8438 29.9778C38.8438 30.3915 39.1791 30.7268 39.5927 30.7268Z" fill="#B28BBD"/>
<path d="M43.6591 48.1982C44.0728 48.1982 44.4081 47.8629 44.4081 47.4492C44.4081 47.0355 44.0728 46.7002 43.6591 46.7002C43.2455 46.7002 42.9102 47.0355 42.9102 47.4492C42.9102 47.8629 43.2455 48.1982 43.6591 48.1982Z" fill="#B28BBD"/>
<path d="M37.7275 38.4155C38.1412 38.4155 38.4765 38.0801 38.4765 37.6665C38.4765 37.2528 38.1412 36.9175 37.7275 36.9175C37.3139 36.9175 36.9785 37.2528 36.9785 37.6665C36.9785 38.0801 37.3139 38.4155 37.7275 38.4155Z" fill="#B28BBD"/>
<path d="M35.7412 41.6101C36.1548 41.6101 36.4902 41.2748 36.4902 40.8611C36.4902 40.4475 36.1548 40.1122 35.7412 40.1122C35.3275 40.1122 34.9922 40.4475 34.9922 40.8611C34.9922 41.2748 35.3275 41.6101 35.7412 41.6101Z" fill="#B28BBD"/>
<path d="M36.9023 44.866C37.316 44.866 37.6513 44.5306 37.6513 44.117C37.6513 43.7033 37.316 43.368 36.9023 43.368C36.4887 43.368 36.1533 43.7033 36.1533 44.117C36.1533 44.5306 36.4887 44.866 36.9023 44.866Z" fill="#B28BBD"/>
<path d="M41.7021 50.1854C42.1158 50.1854 42.4511 49.85 42.4511 49.4364C42.4511 49.0227 42.1158 48.6874 41.7021 48.6874C41.2885 48.6874 40.9531 49.0227 40.9531 49.4364C40.9531 49.85 41.2885 50.1854 41.7021 50.1854Z" fill="#B28BBD"/>
<path d="M26.1572 43.4903C26.5709 43.4903 26.9062 43.1549 26.9062 42.7413C26.9062 42.3276 26.5709 41.9923 26.1572 41.9923C25.7435 41.9923 25.4082 42.3276 25.4082 42.7413C25.4082 43.1549 25.7435 43.4903 26.1572 43.4903Z" fill="#B28BBD"/>
<path d="M33.2334 21.097C33.647 21.097 33.9824 20.7616 33.9824 20.348C33.9824 19.9343 33.647 19.599 33.2334 19.599C32.8197 19.599 32.4844 19.9343 32.4844 20.348C32.4844 20.7616 32.8197 21.097 33.2334 21.097Z" fill="#B28BBD"/>
<path d="M49.8487 10.6876L44.5752 14.2338L50.2767 17.0158L49.8487 10.6876Z" fill="#72207E"/>
<path fill-rule="evenodd" clip-rule="evenodd" d="M47.9375 12.623C47.9377 12.6232 47.9378 12.6235 47.5891 12.8467L47.9378 12.6235C48.0674 12.8259 48.0083 13.095 47.8059 13.2246C47.6038 13.354 47.335 13.2952 47.2053 13.0934C47.2053 13.0934 47.2053 13.0934 47.2053 13.0934C47.2052 13.0933 47.2051 13.0932 47.2051 13.0931C47.205 13.093 47.2049 13.0928 47.2048 13.0927L47.2046 13.0924L47.1993 13.0843C47.194 13.0764 47.1852 13.0635 47.1729 13.046C47.1484 13.011 47.1097 12.9576 47.0567 12.889C46.9505 12.7517 46.7867 12.5539 46.562 12.3203C46.1124 11.853 45.4205 11.2445 44.4598 10.6922C42.5472 9.59279 39.5385 8.69788 35.1896 9.63033C34.9546 9.68071 34.7232 9.53106 34.6728 9.29608C34.6225 9.06109 34.7721 8.82975 35.0071 8.77937C39.5696 7.80112 42.7975 8.73284 44.8935 9.9377C45.937 10.5376 46.6925 11.2007 47.1892 11.7169C47.4376 11.9751 47.6217 12.1969 47.7451 12.3565C47.8068 12.4363 47.8534 12.5006 47.8854 12.5462C47.9014 12.5689 47.9137 12.587 47.9224 12.6001L47.9328 12.6157L47.936 12.6206L47.9371 12.6223L47.9375 12.623Z" fill="#72207E"/>
<path d="M19.3398 54.3247L21.0564 48.206L25.4838 52.7496L19.3398 54.3247Z" fill="#72207E"/>
<path fill-rule="evenodd" clip-rule="evenodd" d="M20.5793 51.9032C20.5796 51.9033 20.5799 51.9034 20.6827 51.5023L20.5799 51.9034C20.8127 51.963 21.0498 51.8227 21.1095 51.5899C21.1691 51.3574 21.0292 51.1206 20.7969 51.0605C20.7968 51.0605 20.7968 51.0605 20.7968 51.0605C20.7967 51.0605 20.7966 51.0605 20.7965 51.0604C20.7963 51.0604 20.7962 51.0604 20.796 51.0603L20.7957 51.0602L20.7863 51.0577C20.7771 51.0551 20.7621 51.0508 20.7417 51.0446C20.7007 51.0323 20.6379 51.0123 20.5562 50.9834C20.3926 50.9256 20.1534 50.832 19.8612 50.6917C19.2765 50.411 18.482 49.9445 17.6567 49.205C16.0136 47.7328 14.2216 45.1557 13.7454 40.7335C13.7196 40.4946 13.5051 40.3217 13.2661 40.3474C13.0272 40.3732 12.8543 40.5877 12.8801 40.8267C13.3797 45.4661 15.2753 48.2398 17.0759 49.8532C17.9724 50.6564 18.8387 51.1662 19.4845 51.4763C19.8075 51.6313 20.0758 51.7367 20.266 51.8039C20.3612 51.8376 20.4368 51.8617 20.4901 51.8778C20.5167 51.8858 20.5378 51.8919 20.5529 51.8961L20.571 51.901L20.5766 51.9025L20.5786 51.903L20.5793 51.9032Z" fill="#72207E"/>
<defs>
<linearGradient id="paint0_linear_6183_3100" x1="1.73021" y1="32.1637" x2="63.2698" y2="32.1637" gradientUnits="userSpaceOnUse">
<stop stop-color="#D9DADA"/>
<stop offset="0.08" stop-color="#ABACAC"/>
<stop offset="0.17" stop-color="white"/>
<stop offset="0.32" stop-color="#ABACAC"/>
<stop offset="0.47" stop-color="#ABACAC"/>
<stop offset="0.6" stop-color="white"/>
<stop offset="0.69" stop-color="#D9DADA"/>
<stop offset="0.86" stop-color="#ABACAC"/>
<stop offset="1" stop-color="#D9DADA"/>
</linearGradient>
<linearGradient id="paint1_linear_6183_3100" x1="6.23938" y1="31.4453" x2="51.4387" y2="31.4453" gradientUnits="userSpaceOnUse">
<stop stop-color="#9E9E9E"/>
<stop offset="0.17" stop-color="#E6E6E6"/>
<stop offset="0.32" stop-color="#9E9E9E"/>
<stop offset="0.47" stop-color="#9E9E9E"/>
<stop offset="0.6" stop-color="#E6E6E6"/>
<stop offset="0.69" stop-color="#D9D9D9"/>
<stop offset="0.78" stop-color="#D9D9D9"/>
<stop offset="0.9" stop-color="#9E9E9E"/>
<stop offset="1" stop-color="#666666"/>
</linearGradient>
</defs>
</svg>
