<svg width="540" height="361" viewBox="0 0 540 361" fill="none" xmlns="http://www.w3.org/2000/svg">
<path d="M443 334.001V352.001C443.001 352.183 443.051 352.361 443.146 352.517C443.24 352.673 443.376 352.8 443.537 352.885C443.698 352.969 443.88 353.008 444.062 352.998C444.244 352.987 444.419 352.927 444.569 352.824L457.569 343.824C458.108 343.451 458.108 342.553 457.569 342.179L444.569 333.179C444.419 333.074 444.244 333.013 444.062 333.002C443.879 332.991 443.698 333.029 443.536 333.114C443.374 333.199 443.239 333.326 443.144 333.483C443.05 333.639 443 333.818 443 334.001Z" fill="#E2001A"/>
<path d="M82 342C82 340.343 83.3431 339 85 339H444V347H85C83.3432 347 82 345.657 82 344V342Z" fill="#E2001A"/>
<mask id="mask0_6213_6830" style="mask-type:luminance" maskUnits="userSpaceOnUse" x="111" y="142" width="100" height="89">
<path d="M211 142H111V230.722H211V142Z" fill="white"/>
</mask>
<g mask="url(#mask0_6213_6830)">
<path d="M167.711 200.549C167.711 200.549 169.014 201.014 172.63 201.354L173.638 194.694H166.765L167.711 200.549Z" fill="#575756"/>
</g>
<mask id="mask1_6213_6830" style="mask-type:luminance" maskUnits="userSpaceOnUse" x="111" y="142" width="100" height="89">
<path d="M211 142H111V230.722H211V142Z" fill="white"/>
</mask>
<g mask="url(#mask1_6213_6830)">
<path d="M132.723 199.015C132.723 199.015 134.88 198.256 138.511 198.582L139.178 194.198L142.56 191.209L139.193 190.357L137.068 191.147L132.661 191.906L132.723 199.015Z" fill="#575756"/>
</g>
<mask id="mask2_6213_6830" style="mask-type:luminance" maskUnits="userSpaceOnUse" x="111" y="142" width="100" height="89">
<path d="M211 142H111V230.722H211V142Z" fill="white"/>
</mask>
<g mask="url(#mask2_6213_6830)">
<path d="M176.926 211.376H170.984C170.798 211.376 170.627 211.283 170.534 211.128L168.812 208.34C168.393 207.674 167.881 206.466 167.586 205.614C167.586 205.614 167.586 205.614 167.57 205.614C167.4 205.722 167.167 205.738 166.981 205.614C166.795 205.505 166.701 205.289 166.732 205.087C166.826 204.468 167.074 202.748 167.012 202.16C166.748 199.759 166.67 197.312 166.779 194.849C166.795 194.555 167.027 194.338 167.322 194.338H167.338C167.632 194.353 167.865 194.601 167.85 194.895C167.756 197.296 167.834 199.697 168.082 202.036C168.144 202.594 168.005 203.74 167.912 204.499C167.943 204.499 167.958 204.514 167.989 204.514C168.253 204.607 168.455 204.824 168.563 205.118C168.827 205.924 169.339 207.132 169.727 207.751L171.294 210.292H176.197C175.887 209.502 175.173 208.278 173.839 208.278C173.575 208.278 173.342 208.092 173.311 207.829L172.147 200.27C172.132 200.084 171.915 196.677 173.125 193.982C173.249 193.718 173.559 193.594 173.839 193.718C174.102 193.842 174.227 194.152 174.102 194.431C173.001 196.878 173.203 200.131 173.203 200.162L174.304 207.256C176.756 207.597 177.423 210.601 177.454 210.741C177.485 210.896 177.454 211.066 177.345 211.19C177.237 211.298 177.082 211.376 176.926 211.376Z" fill="#575756"/>
</g>
<mask id="mask3_6213_6830" style="mask-type:luminance" maskUnits="userSpaceOnUse" x="111" y="142" width="100" height="89">
<path d="M211 142H111V230.722H211V142Z" fill="white"/>
</mask>
<g mask="url(#mask3_6213_6830)">
<path d="M187.664 153.973C187.431 153.973 187.214 153.865 187.074 153.679C186.826 153.354 186.888 152.889 187.214 152.641L187.834 152.177L190.301 145.067C190.503 144.68 190.906 144.06 191.574 144.06H191.589C191.775 144.06 192.241 144.138 192.536 144.726C192.598 144.835 192.613 144.959 192.613 145.098C192.613 145.222 192.536 148.289 195.422 149.776L196.151 150.055C196.539 150.209 196.725 150.628 196.585 151.015C196.43 151.402 196.011 151.588 195.623 151.449L194.816 151.139C192.52 149.962 191.651 148.057 191.325 146.693L189.169 152.905C189.122 153.044 189.029 153.168 188.92 153.261L188.129 153.865C187.989 153.927 187.819 153.973 187.664 153.973Z" fill="#575756"/>
</g>
<mask id="mask4_6213_6830" style="mask-type:luminance" maskUnits="userSpaceOnUse" x="111" y="142" width="100" height="89">
<path d="M211 142H111V230.722H211V142Z" fill="white"/>
</mask>
<g mask="url(#mask4_6213_6830)">
<path d="M142.543 211.376H136.601C136.399 211.376 136.197 211.252 136.12 211.066L134.429 207.426C134.367 207.473 134.273 207.55 134.211 207.612C134.072 207.767 133.855 207.829 133.653 207.767C133.451 207.705 133.296 207.535 133.28 207.318C133.28 207.318 132.986 204.871 132.831 203.74C132.567 203.817 132.287 203.864 132.039 203.709C131.915 203.631 131.791 203.461 131.76 203.322C131.682 202.95 131.76 202.64 131.869 202.237C132.07 201.478 132.443 200.069 132.132 196.413C132.101 196.119 132.334 195.856 132.629 195.84C132.955 195.809 133.187 196.042 133.203 196.336C133.513 200.177 133.11 201.695 132.908 202.516C132.893 202.563 132.893 202.594 132.877 202.625C133.11 202.578 133.358 202.563 133.56 202.702C133.684 202.779 133.808 202.981 133.839 203.136C133.917 203.6 134.134 205.304 134.258 206.342C134.367 206.311 134.475 206.296 134.599 206.311C134.894 206.342 135.158 206.497 135.329 206.776L136.973 210.292H141.83C141.519 209.502 140.806 208.278 139.471 208.278C139.208 208.278 138.975 208.092 138.944 207.829L137.765 200.27C137.749 200.162 137.392 197.575 138.308 195.19C138.82 193.842 139.968 192.526 141.69 191.271C141.923 191.101 142.264 191.147 142.435 191.395C142.606 191.627 142.559 191.968 142.326 192.138C140.775 193.269 139.751 194.431 139.316 195.577C138.494 197.699 138.835 200.084 138.835 200.1L139.937 207.225C142.388 207.566 143.055 210.571 143.087 210.71C143.118 210.865 143.087 211.035 142.978 211.159C142.869 211.299 142.714 211.376 142.543 211.376Z" fill="#575756"/>
</g>
<mask id="mask5_6213_6830" style="mask-type:luminance" maskUnits="userSpaceOnUse" x="111" y="142" width="100" height="89">
<path d="M211 142H111V230.722H211V142Z" fill="white"/>
</mask>
<g mask="url(#mask5_6213_6830)">
<path d="M174.895 169.447C169.93 168.564 168.27 168.765 168.27 168.765L168.658 170.035C164.561 168.936 160.372 168.75 160.372 168.75L160.744 169.881C160.744 169.881 152.024 168.146 152.009 168.13L152.847 169.354C148.844 168.084 148.13 168.254 144.111 168.037L144.825 168.982C144.422 169.044 142.622 169.416 142.203 169.524C141.675 169.648 141.132 169.819 140.574 170.004C139.488 170.392 138.138 171.12 137.579 171.182C137.579 171.182 130.83 163.189 140.294 153.23C140.294 153.23 138.448 152.223 136.819 153.756C135.252 155.228 134.507 157.489 134.057 157.876C133.607 158.279 132.986 156.188 132.986 156.188C132.986 156.188 131.326 157.923 131.512 161.749C131.559 162.787 130.395 159.735 130.209 161.005C129.868 163.298 130.861 165.28 131.078 166.008C131.683 168.006 130.085 166.163 129.852 167.062C129.588 168.084 132.599 170.206 133.25 172.436C133.312 172.653 132.769 173.009 132.211 173.366C131.652 173.722 130.38 174.853 130.069 175.162C126.92 178.431 127.401 185.261 127.401 185.261L126.222 189.49C125.57 192.154 124.173 194.617 124.173 194.617H125.632C125.415 195.066 123.367 198.969 122.808 200.565C122.73 200.766 122.917 200.952 123.118 200.905C123.382 200.843 123.879 201.014 123.879 201.014C123.879 201.014 124.08 201.293 124.096 201.556C124.189 203.569 124.406 203.585 124.592 204.654C124.779 205.661 123.584 206.698 124.127 207.581L126.159 210.849H132.102C132.102 210.849 131.435 207.767 129.014 207.767L129.03 201.37C129.03 200.224 129.511 199.14 130.349 198.381C130.938 197.854 131.699 197.172 132.645 196.383C133.002 196.088 133.374 195.778 133.778 195.453C134.988 194.493 136.121 192.743 137.083 191.457C137.796 190.497 139.084 190.156 140.186 190.652C143.863 192.309 145.089 193.006 147.277 193.563L146.703 192.185C146.718 192.185 150.535 194.214 152.692 194.834V193.734C152.692 193.734 155.764 195.856 156.99 196.166L156.85 194.989C156.865 194.989 160.651 196.801 162.249 197.002L162.125 195.686C162.125 195.686 165.616 197.777 168.13 197.436V196.491L172.568 197.203L173.328 197.312C173.328 197.312 175.81 197.389 175.826 198.489C175.826 198.752 175.872 199.93 175.035 201.835C174.771 202.423 175.888 201.726 176.012 202.268C176.276 203.492 175.95 205.722 175.95 205.722L176.912 204.948L179.441 210.865H185.384C185.384 210.865 184.716 207.783 182.296 207.783L181.675 202.903C181.505 201.509 181.582 200.1 181.924 198.737L182.094 198.055C182.436 198.102 183.149 199.496 183.336 198.752C183.801 196.956 185.57 192.836 185.57 192.836L186.47 193.796C187.261 192.108 187.928 187.135 187.928 187.135L188.564 187.585C188.859 187.786 189.263 187.554 189.216 187.197C188.906 184.75 188.192 178.136 188.859 175.565C189.713 172.297 192.226 169.85 192.226 169.834C196.803 171.228 200.729 168.161 201.908 167.093C202.141 166.891 202.374 166.69 202.606 166.504C204.748 164.831 205.57 161.454 205.585 159.968C205.585 159.611 205.306 159.317 204.949 159.317L199.782 158.481C199.782 158.481 200.279 156.08 199.426 153.741C199.084 152.812 198.417 152.037 197.564 151.541C196.943 151.185 196.105 150.767 195.097 150.426C194.492 150.225 193.824 150.054 193.111 149.946C192.909 149.915 192.707 149.869 192.521 149.791L191.714 149.481C188.347 147.762 188.502 144.293 188.502 144.293C188.161 143.595 187.633 144.556 187.633 144.556L185.089 151.882L183.646 153.23C181.924 154.577 180.17 157.21 180.17 157.21L181.66 157.381L176.757 163.902L178.402 163.685C177.579 165.172 174.895 169.447 174.895 169.447Z" fill="white"/>
</g>
<mask id="mask6_6213_6830" style="mask-type:luminance" maskUnits="userSpaceOnUse" x="111" y="142" width="100" height="89">
<path d="M211 142H111V230.722H211V142Z" fill="white"/>
</mask>
<g mask="url(#mask6_6213_6830)">
<path d="M132.118 211.392H125.88L123.692 207.86C123.242 207.148 123.568 206.404 123.817 205.816C123.987 205.428 124.142 205.057 124.08 204.762C124.018 204.452 123.956 204.22 123.91 204.019C123.77 203.508 123.646 203.027 123.584 201.587C123.584 201.556 123.568 201.525 123.553 201.479C123.429 201.448 123.32 201.432 123.274 201.448C122.994 201.51 122.684 201.417 122.498 201.2C122.312 200.983 122.249 200.673 122.343 200.41C122.777 199.155 124.096 196.538 124.794 195.174H123.289L123.739 194.369C123.755 194.338 125.104 191.937 125.725 189.382L126.889 185.23C126.842 184.348 126.609 178.028 129.713 174.806C130.054 174.45 131.357 173.319 131.947 172.932C132.164 172.793 132.521 172.56 132.707 172.405C132.366 171.445 131.528 170.469 130.783 169.602C129.883 168.549 129.17 167.728 129.371 166.953C129.449 166.628 129.635 166.473 129.79 166.396C130.085 166.241 130.395 166.287 130.659 166.365C130.644 166.318 130.628 166.256 130.613 166.194C130.582 166.07 130.519 165.931 130.457 165.745C130.101 164.785 129.418 162.988 129.728 160.943C129.806 160.401 130.085 160.231 130.302 160.184C130.597 160.123 130.83 160.246 131.031 160.463C131.233 157.365 132.583 155.909 132.645 155.832L133.281 155.166L133.545 156.049C133.669 156.452 133.824 156.87 133.964 157.149C134.042 156.994 134.135 156.823 134.228 156.653C134.693 155.755 135.407 154.392 136.493 153.385C138.107 151.867 139.907 152.471 140.465 152.719H141.598L140.744 153.617C132.599 162.198 136.819 169.153 137.858 170.593C138.169 170.485 138.603 170.299 138.991 170.129C139.472 169.912 139.984 169.695 140.45 169.524C141.024 169.323 141.582 169.168 142.125 169.029C142.389 168.967 143.242 168.781 143.925 168.642L143.041 167.464L144.189 167.526C144.794 167.557 145.337 167.588 145.818 167.604C148.083 167.697 149.232 167.743 151.606 168.425L150.876 167.356L152.18 167.635C152.304 167.666 157.796 168.75 160 169.199L159.798 168.58L160.108 168.347C160.481 168.068 164.779 168.58 167.928 169.308L167.633 168.332L168.27 168.254C168.332 168.239 169.992 168.068 174.693 168.874C175.19 168.068 176.571 165.853 177.44 164.382L175.593 164.614L180.698 157.83L179.27 157.675L179.751 156.947C179.829 156.839 181.567 154.221 183.351 152.843L184.67 151.619L187.292 144.06H187.385C187.602 143.781 187.913 143.487 188.27 143.549C188.456 143.549 188.797 143.627 189.03 144.091L189.092 144.215V144.355C189.092 144.478 189.014 147.499 192.009 149.032L192.769 149.311C192.909 149.373 193.064 149.404 193.25 149.435C193.933 149.543 194.631 149.714 195.329 149.946C196.214 150.24 197.067 150.628 197.905 151.092C198.883 151.65 199.627 152.533 200 153.571C200.651 155.352 200.558 157.164 200.465 158.047L205.104 158.806C205.368 158.837 205.632 158.93 205.865 159.162C206.082 159.395 206.206 159.689 206.206 160.014C206.191 161.486 205.384 165.126 203.025 166.969C202.793 167.155 202.575 167.34 202.358 167.526C201.225 168.549 197.222 171.724 192.49 170.469C191.869 171.151 190.132 173.195 189.48 175.72C188.828 178.245 189.604 185.107 189.852 187.151C189.899 187.523 189.728 187.895 189.402 188.08C189.108 188.266 188.735 188.266 188.44 188.096C188.208 189.614 187.665 192.727 187.059 194.044L186.718 194.772L185.834 193.827C185.306 195.097 184.282 197.637 183.956 198.907C183.848 199.341 183.568 199.465 183.413 199.511C183.056 199.604 182.762 199.372 182.498 199.093C182.218 200.332 182.156 201.587 182.312 202.842L182.886 207.287C184.794 207.581 185.756 209.548 186.02 210.757L186.175 211.407H179.208L176.819 205.816L175.329 207.024L175.531 205.661C175.531 205.645 175.81 203.771 175.64 202.609C175.609 202.609 175.578 202.609 175.562 202.625C175.314 202.656 174.926 202.702 174.693 202.392C174.585 202.253 174.492 202.005 174.662 201.649C175.174 200.503 175.422 199.465 175.422 198.567C175.422 198.195 174.336 197.901 173.452 197.885L172.645 197.777L168.813 197.157V197.947L168.347 198.009C166.454 198.272 164.142 197.296 162.886 196.677L162.979 197.653L162.327 197.575C161.132 197.436 158.914 196.507 157.641 195.918L157.75 196.925L156.99 196.739C156.09 196.522 154.429 195.5 153.359 194.787V195.593L152.676 195.407C151.295 195.02 149.232 194.044 147.897 193.393L148.316 194.415L147.277 194.152C145.539 193.718 144.391 193.176 142.296 192.216C141.675 191.922 140.946 191.596 140.108 191.209C139.255 190.822 138.231 191.085 137.657 191.844C137.471 192.092 137.284 192.355 137.083 192.634C136.245 193.796 135.298 195.113 134.274 195.933C133.871 196.259 133.499 196.553 133.142 196.863C132.211 197.637 131.45 198.303 130.876 198.845C130.147 199.511 129.728 200.456 129.728 201.448L129.713 207.349C132.087 207.736 132.769 210.679 132.8 210.819L132.94 211.469H132.118V211.392ZM126.47 210.307H131.373C131.063 209.517 130.364 208.294 129.014 208.294H128.471L128.487 201.37C128.487 200.085 129.03 198.845 129.976 197.978C130.566 197.436 131.342 196.754 132.288 195.964C132.645 195.67 133.033 195.36 133.436 195.035C134.352 194.307 135.252 193.052 136.059 191.937C136.26 191.658 136.462 191.38 136.648 191.132C137.517 189.97 139.084 189.552 140.403 190.156C141.256 190.543 141.986 190.868 142.606 191.163C144.22 191.906 145.229 192.371 146.346 192.727L145.647 191.054L146.935 191.705C147.308 191.891 150.132 193.378 152.149 194.09V192.789L152.955 193.269C153.855 193.889 155.329 194.834 156.338 195.329L156.198 194.121L157.052 194.477C158.246 195.051 160.31 195.949 161.629 196.305L161.474 194.663L162.374 195.205C162.405 195.221 165.275 196.925 167.525 196.925C167.54 196.925 167.556 196.925 167.571 196.925V195.856L173.374 196.77C173.824 196.785 176.322 196.925 176.338 198.474C176.353 199.419 176.136 200.425 175.717 201.51C176.043 201.525 176.4 201.664 176.509 202.145C176.664 202.811 176.648 203.724 176.586 204.483L177.098 204.065L179.767 210.323H184.623C184.313 209.533 183.599 208.309 182.265 208.309H181.8L181.117 202.95C180.931 201.494 181.024 200.023 181.381 198.582L181.66 197.436L182.141 197.498C182.451 197.544 182.684 197.792 182.948 198.086C183.568 196.119 184.98 192.758 185.058 192.603L185.384 191.844L186.253 192.774C186.873 190.76 187.385 187.089 187.385 187.043L187.509 186.16L188.642 186.965C188.301 184.146 187.665 177.966 188.332 175.41C189.076 172.529 191.016 170.299 191.683 169.602V169.091L192.381 169.308C196.71 170.64 200.496 167.635 201.551 166.69C201.784 166.473 202.032 166.272 202.281 166.07C204.313 164.475 205.042 161.207 205.058 159.952H205.011L204.856 159.828L199.239 158.914V158.465C199.27 158.264 199.689 156.033 198.914 153.911C198.619 153.121 198.045 152.44 197.284 152.006C196.524 151.573 195.717 151.216 194.91 150.937C194.274 150.721 193.638 150.566 193.002 150.473C192.738 150.426 192.505 150.364 192.304 150.287L191.497 149.977C188.828 148.614 188.161 146.322 187.99 145.098L185.43 152.27L183.987 153.617C182.87 154.484 181.737 155.909 181.101 156.777L182.622 156.947L177.905 163.205L179.332 163.019L178.836 163.933C178.045 165.42 175.454 169.54 175.345 169.71L175.159 170.02L174.802 169.958C171.668 169.401 169.868 169.292 168.983 169.277L169.449 170.795L168.502 170.547C165.539 169.741 162.498 169.431 161.117 169.339L161.536 170.593L160.636 170.407C156.524 169.586 154.352 169.153 153.188 168.92L154.166 170.345L152.676 169.865C149.356 168.812 148.363 168.765 145.71 168.657C145.554 168.657 145.384 168.642 145.213 168.642L145.772 169.385L144.903 169.524C144.515 169.586 142.715 169.958 142.327 170.051C141.815 170.175 141.287 170.33 140.76 170.516C140.31 170.671 139.829 170.887 139.379 171.089C138.557 171.445 138.045 171.677 137.657 171.708L137.362 171.739L137.176 171.523C136.896 171.182 130.55 163.313 139.348 153.478C138.774 153.369 137.967 153.416 137.191 154.144C136.245 155.042 135.609 156.25 135.143 157.133C134.848 157.706 134.647 158.078 134.414 158.279C134.228 158.45 133.98 158.496 133.747 158.434C133.436 158.341 133.126 157.985 132.847 157.381C132.428 158.202 131.947 159.627 132.04 161.718C132.056 162.229 131.823 162.415 131.621 162.477C131.202 162.601 130.938 162.276 130.675 161.857C130.644 163.313 131.109 164.552 131.404 165.327C131.481 165.528 131.544 165.699 131.59 165.838C131.761 166.396 131.869 166.953 131.512 167.294C131.171 167.619 130.737 167.48 130.442 167.387C130.442 167.387 130.442 167.387 130.426 167.387C130.613 167.759 131.156 168.409 131.559 168.874C132.428 169.881 133.39 171.027 133.762 172.266C133.933 172.855 133.312 173.273 132.505 173.799C131.993 174.125 130.768 175.209 130.457 175.534C127.509 178.586 127.928 185.168 127.928 185.23V185.323L126.734 189.645C126.299 191.442 125.539 193.13 125.058 194.09H126.485L125.849 195.36C125.322 196.383 124.018 198.954 123.444 200.363C123.692 200.394 123.925 200.456 124.034 200.503L124.204 200.565L124.313 200.704C124.36 200.766 124.608 201.138 124.623 201.541C124.685 202.857 124.794 203.26 124.918 203.74C124.98 203.972 125.042 204.22 125.12 204.576C125.229 205.18 124.996 205.754 124.779 206.249C124.561 206.76 124.437 207.086 124.577 207.318L126.47 210.307Z" fill="#575756"/>
</g>
<mask id="mask7_6213_6830" style="mask-type:luminance" maskUnits="userSpaceOnUse" x="111" y="142" width="100" height="89">
<path d="M211 142H111V230.722H211V142Z" fill="white"/>
</mask>
<g mask="url(#mask7_6213_6830)">
<path d="M173.266 185.865C172.428 185.865 171.606 185.695 170.814 185.354C170.504 185.215 170.364 184.858 170.488 184.549C170.628 184.239 170.985 184.084 171.295 184.223C172.676 184.827 174.181 184.765 175.64 184.068C177.89 182.984 179.705 180.583 180.496 177.609C182.498 170.159 185.896 165.342 190.597 163.297C196.819 160.602 202.963 163.793 203.227 163.933C203.522 164.087 203.646 164.459 203.475 164.769C203.32 165.063 202.948 165.187 202.637 165.017C202.575 164.986 196.741 161.95 191.063 164.428C186.734 166.318 183.568 170.856 181.675 177.919C180.791 181.218 178.727 183.929 176.167 185.153C175.221 185.633 174.243 185.865 173.266 185.865Z" fill="#FBE4E7"/>
</g>
<mask id="mask8_6213_6830" style="mask-type:luminance" maskUnits="userSpaceOnUse" x="111" y="142" width="100" height="89">
<path d="M211 142H111V230.722H211V142Z" fill="white"/>
</mask>
<g mask="url(#mask8_6213_6830)">
<path d="M164.607 180.521C164.607 180.521 168.377 177.547 171.434 180.661C174.491 183.774 172.489 188.855 165.212 189.087C157.935 189.319 158.432 186.314 161.147 184.301C163.847 182.287 164.607 180.521 164.607 180.521Z" fill="#FBE4E7"/>
</g>
<mask id="mask9_6213_6830" style="mask-type:luminance" maskUnits="userSpaceOnUse" x="111" y="142" width="100" height="89">
<path d="M211 142H111V230.722H211V142Z" fill="white"/>
</mask>
<g mask="url(#mask9_6213_6830)">
<path d="M157.486 189.939C155.5 189.768 153.265 185.943 154.274 182.643C155.81 177.671 166.764 173.908 168.161 177.563C169.231 180.367 164.499 181.172 162.606 183.945C160.744 186.733 160.201 190.171 157.486 189.939Z" fill="#F7C8CD"/>
</g>
<mask id="mask10_6213_6830" style="mask-type:luminance" maskUnits="userSpaceOnUse" x="111" y="142" width="100" height="89">
<path d="M211 142H111V230.722H211V142Z" fill="white"/>
</mask>
<g mask="url(#mask10_6213_6830)">
<path d="M155.545 183.867C155.592 184.936 154.878 186.082 153.761 186.221C153.202 186.33 152.489 186.252 152.132 185.726C151.511 184.858 152.008 183.604 151.728 182.736C151.635 182.721 151.372 182.752 151.325 182.86C151.294 182.938 151.263 183.093 151.263 183.278C151.278 184.177 151.682 184.951 151.449 185.958C151.278 186.624 150.472 186.965 149.804 186.763C148.408 186.113 149.417 183.944 149.013 182.876C148.951 182.798 148.982 182.814 148.905 182.798C148.796 182.798 148.734 182.814 148.703 182.86C148.33 183.573 148.703 184.874 148.548 185.726C148.486 186.825 147.399 187.368 146.438 186.717C145.274 185.695 146.453 183.96 146.22 182.767C146.174 182.659 146.174 182.659 146.096 182.612C146.05 182.597 146.05 182.597 146.065 182.597C146.081 182.597 146.081 182.581 146.05 182.612C145.491 183.619 145.786 185.029 144.995 185.974C144.234 186.717 143.055 185.865 143.148 184.951C143.179 183.774 143.784 182.891 143.97 181.807C144.002 181.621 143.986 181.482 143.955 181.466C143.086 181.234 143.117 183.325 142.388 183.805C142.078 184.084 141.534 184.022 141.255 183.79C140.495 183.247 140.541 182.241 140.728 181.497C140.976 180.552 141.659 179.669 142.636 179.329C144.529 178.694 146.034 180.057 147.818 180.289C148.998 180.506 150.301 180.568 151.496 180.444C151.93 180.382 152.38 180.32 152.628 180.072C152.628 180.057 152.613 180.088 152.613 180.088C152.613 180.119 152.566 180.01 152.566 180.01C152.473 179.855 152.411 179.902 152.225 179.902C151.247 180.01 150.27 179.995 149.168 179.933C147.834 179.855 146.422 179.515 145.181 179.019C144.855 178.91 144.389 178.74 144.064 178.663C139.316 177.454 134.63 179.948 129.96 180.661C129.603 180.692 129.277 180.754 128.905 180.63C127.896 180.196 128.501 178.678 129.541 179.081C129.417 179.034 129.448 179.05 129.417 179.034H129.386C134.413 178.399 139.269 175.549 144.498 176.912C146.112 177.346 147.617 178.059 149.292 178.136C150.673 178.322 152.458 177.826 153.435 179.174C153.73 179.654 153.839 180.351 153.42 180.785C152.923 181.28 152.147 181.342 151.573 181.404C150.239 181.497 148.936 181.466 147.601 181.203C146.05 181.048 144.436 179.731 142.915 180.212C141.969 180.506 141.317 181.776 141.566 182.736C141.628 182.922 141.721 183.015 141.829 183.046L141.783 183.062C142.248 182.38 142.186 181.513 142.9 180.831C143.412 180.351 144.389 180.366 144.762 181.017C145.165 182.039 144.545 182.922 144.296 183.852C144.172 184.316 143.939 184.858 144.126 185.23C144.141 185.277 144.312 185.323 144.296 185.323C144.389 185.199 144.498 184.905 144.545 184.672C144.684 184.068 144.762 183.402 144.932 182.767C145.041 182.38 145.274 181.822 145.801 181.683C146.391 181.544 146.95 181.977 147.089 182.488C147.244 183.093 147.12 183.542 147.058 183.975C147.012 184.533 146.422 186.097 147.291 186.051C147.415 186.051 147.431 186.035 147.462 185.989C147.803 185.215 147.431 183.944 147.617 183.031C147.679 182.148 148.641 181.513 149.479 182.055C150.099 182.504 150.022 183.433 150.006 183.96C150.022 184.595 149.804 185.385 150.084 185.896C150.735 185.989 150.549 185.261 150.472 184.657C150.239 183.526 149.975 181.776 151.697 181.822C152.923 181.915 152.69 183.464 152.675 184.239C152.659 185.013 152.737 185.493 153.528 185.323C154.242 185.23 154.552 184.533 154.537 183.882C154.614 183.247 155.53 183.247 155.545 183.867Z" fill="#F7C8CD"/>
</g>
<mask id="mask11_6213_6830" style="mask-type:luminance" maskUnits="userSpaceOnUse" x="111" y="142" width="100" height="89">
<path d="M211 142H111V230.722H211V142Z" fill="white"/>
</mask>
<g mask="url(#mask11_6213_6830)">
<path d="M152.194 179.948C152.598 179.871 152.706 180.134 152.349 180.274C151.946 180.444 152.846 180.707 152.846 180.707C152.846 180.707 153.172 180.01 153.141 179.979C153.11 179.949 152.443 179.422 152.443 179.422L152.194 179.948Z" fill="#F7C8CD"/>
</g>
<mask id="mask12_6213_6830" style="mask-type:luminance" maskUnits="userSpaceOnUse" x="111" y="142" width="100" height="89">
<path d="M211 142H111V230.722H211V142Z" fill="white"/>
</mask>
<g mask="url(#mask12_6213_6830)">
<path d="M203.707 159.813C203.707 159.813 203.413 161.145 204.111 161.393C204.809 161.64 205.305 160.943 205.305 160.943L205.352 159.906L203.707 159.813Z" fill="#575756"/>
</g>
<mask id="mask13_6213_6830" style="mask-type:luminance" maskUnits="userSpaceOnUse" x="111" y="142" width="100" height="89">
<path d="M211 142H111V230.722H211V142Z" fill="white"/>
</mask>
<g mask="url(#mask13_6213_6830)">
<path d="M204.406 161.687C204.281 161.687 204.157 161.671 204.018 161.625C203.133 161.315 203.459 159.828 203.475 159.766L203.521 159.565L205.6 159.689L205.538 161.036L205.492 161.098C205.461 161.114 205.042 161.687 204.406 161.687ZM203.909 160.06C203.862 160.432 203.862 161.036 204.188 161.16C204.607 161.315 204.949 160.99 205.057 160.85L205.088 160.122L203.909 160.06Z" fill="#575756"/>
</g>
<path d="M52.4608 338.184C52.4608 338.184 52.4608 338.29 52.4608 338.396C52.2488 339.456 52.1429 340.41 50.977 340.834C49.917 341.258 49.0691 340.834 48.2212 340.092C47.4793 339.35 46.8433 338.608 46.4194 337.654C46.2074 337.124 45.9954 337.124 45.6774 337.442C44.1935 338.714 42.8157 339.986 41.3318 341.258C41.0138 341.47 41.2258 341.576 41.3318 341.682C41.7558 342.318 42.1797 343.06 42.8157 343.696C45.1475 346.24 47.7972 347.618 51.1889 347.194C53.3088 346.982 55.2166 346.24 56.8064 344.65C59.3502 342.106 60.0922 338.926 59.3502 335.323C58.8203 332.249 57.1244 329.705 55.2166 327.373C53.6267 325.359 51.9309 323.558 50.447 321.438C49.5991 320.166 48.8571 318.788 48.9631 317.092C49.0691 316.244 49.1751 315.396 50.023 314.972C50.977 314.548 52.0369 314.654 52.7788 315.396C53.4147 316.032 53.9447 316.774 54.3687 317.516C54.4747 317.728 54.5806 317.834 54.7926 317.622C56.1705 316.35 57.5484 315.184 58.9263 313.912C59.0323 313.806 59.1382 313.7 59.0323 313.488C58.2903 312.111 57.3364 310.945 56.0645 309.991C53.7327 308.295 51.1889 308.083 48.4332 308.719C46.5253 309.143 44.8295 310.203 43.6636 311.899C41.5438 314.972 41.4378 318.364 42.7097 321.862C43.7696 324.724 45.5714 327.055 47.3733 329.387C48.7512 331.083 50.235 332.673 51.2949 334.581C52.0369 335.747 52.4608 336.806 52.4608 338.184ZM29.6728 335.005C29.7788 335.429 29.8848 335.959 29.9908 336.382C31.2627 339.774 32.5346 343.166 33.8065 346.558C33.9124 346.876 34.0184 346.982 34.3364 346.982C36.4562 346.982 38.47 346.982 40.5899 346.982C41.1198 346.982 41.0138 346.77 40.9078 346.452C40.5899 345.604 40.1659 344.756 39.8479 344.014C37.7281 338.714 35.5023 333.415 33.3825 328.009C33.0645 327.267 33.0645 326.737 33.3825 325.995C33.9124 324.935 34.2304 323.876 34.6544 322.816C35.8203 319.954 36.8802 317.198 38.0461 314.336C38.682 312.641 39.424 310.945 40.1659 309.143C37.8341 309.143 35.6083 309.143 33.3825 309.143C33.0645 309.143 33.0645 309.355 32.9585 309.567C32.2166 311.581 31.4747 313.594 30.8387 315.608C30.4147 316.774 29.9908 317.94 29.5668 319.212C28.7189 315.926 27.447 312.853 26.3871 309.673C26.2811 309.249 26.0691 309.143 25.6452 309.143C24.1613 309.143 22.7834 309.143 21.2995 309.143C20.5576 309.143 19.8157 309.143 19.0737 309.143C19.4977 310.097 19.8157 310.945 20.1336 311.899C21.9355 316.456 23.8433 321.014 25.6452 325.571C25.9631 326.313 26.3871 326.843 25.8571 327.797C25.3272 328.645 25.0092 329.599 24.5853 330.553C22.7834 335.111 20.9816 339.562 19.1797 344.12C18.8618 345.074 18.3318 345.922 18.1198 346.876C20.3456 346.876 22.4654 346.876 24.5853 346.876C25.0092 346.876 25.2212 346.664 25.3272 346.346C26.2811 343.908 27.129 341.47 28.0829 339.032C28.6129 337.654 29.1429 336.276 29.6728 335.005ZM16.106 325.995C16.106 316.244 16.106 306.599 16.106 296.848C16.106 296.212 16.212 296 16.9539 296C30.5207 296 44.1935 296 57.7604 296C59.9862 296 62 298.226 62 300.452C62 318.788 62 337.124 62 355.461C62 357.369 60.1982 359.488 58.2903 359.806C57.3364 359.912 56.3825 359.912 55.4286 359.912C43.9816 359.912 32.5346 359.912 21.0876 359.912C18.6498 359.912 16.6359 358.429 16.106 355.885C16 355.567 16 355.355 16 355.037C16.106 345.392 16.106 335.747 16.106 325.995Z" fill="#80C241"/>
<path d="M505.579 328.264C505.579 334.333 505.579 340.403 505.579 346.472C505.579 347.005 505.685 347.111 506.218 347.111C510.903 347.111 515.694 347.111 520.38 347.111C520.806 347.111 520.912 347.005 520.912 346.472C520.912 344.769 520.912 343.171 520.912 341.468C520.912 340.935 520.806 340.829 520.273 340.829C517.931 340.829 515.588 340.829 513.245 340.829C512.5 340.829 512.394 340.722 512.394 339.87C512.394 329.861 512.394 319.852 512.394 309.843C512.394 309.204 512.287 309.097 511.648 309.097C509.838 309.097 508.028 309.097 506.218 309.097C505.579 309.097 505.472 309.31 505.472 309.843C505.579 316.125 505.579 322.194 505.579 328.264ZM482.366 309.31C482.579 309.843 482.685 310.269 482.898 310.694C484.921 315.699 486.944 320.81 488.968 325.815C489.394 326.773 489.394 327.519 488.968 328.583C488.009 330.713 487.157 332.949 486.306 335.185C485.028 338.273 483.856 341.255 482.579 344.343C482.153 345.301 481.833 346.259 481.407 347.218C483.644 347.218 485.773 347.218 487.903 347.218C488.329 347.218 488.435 347.005 488.648 346.685C489.713 343.704 490.884 340.722 492.056 337.847C492.375 336.995 492.588 336.144 493.014 335.185C493.227 335.824 493.333 336.25 493.546 336.782C494.824 340.083 495.995 343.491 497.273 346.792C497.38 347.111 497.593 347.324 497.912 347.218C499.935 347.218 501.958 347.218 503.981 347.218C504.088 347.218 504.301 347.324 504.407 347.111C503.662 345.301 502.917 343.491 502.278 341.681C500.468 337.208 498.657 332.736 496.741 328.264C496.421 327.519 496.421 326.986 496.741 326.241C497.273 325.282 497.593 324.111 498.019 323.046C499.19 320.171 500.255 317.403 501.426 314.528C502.065 312.824 502.81 311.12 503.449 309.31C501.106 309.31 498.87 309.31 496.634 309.31C496.315 309.31 496.315 309.523 496.208 309.736C495.569 311.653 494.824 313.569 494.185 315.486C493.759 316.764 493.227 318.042 492.907 319.532C492.801 319 492.694 318.681 492.588 318.255C491.843 315.593 490.778 313.037 489.926 310.481C489.606 309.31 489.5 309.417 488.329 309.417C487.903 309.417 487.37 309.417 486.944 309.417C485.454 309.31 483.963 309.31 482.366 309.31ZM478 326.347C478 316.551 478 306.755 478 296.852C478 296.106 478.213 296 478.852 296C492.269 296 505.685 296 519.102 296C521.977 296 524 298.236 524 301.111C524 319.213 524 337.421 524 355.523C524 358.079 521.87 360.315 519.528 360.315C507.176 360.315 494.824 360.315 482.472 360.315C480.13 360.315 478.106 357.972 478.106 355.63C478 345.94 478 336.144 478 326.347Z" fill="#702789"/>
<mask id="mask14_6213_6830" style="mask-type:luminance" maskUnits="userSpaceOnUse" x="270" y="4" width="216" height="209">
<path d="M486 4H270V212.602H486V4Z" fill="white"/>
</mask>
<g mask="url(#mask14_6213_6830)">
<path d="M309.922 90.7167C309.922 90.7167 296.027 84.0931 293.75 114.273C291.474 144.454 276.927 152.172 276.927 152.172C276.927 152.172 293.542 151.382 299.9 117.738" fill="white"/>
</g>
<mask id="mask15_6213_6830" style="mask-type:luminance" maskUnits="userSpaceOnUse" x="270" y="4" width="216" height="209">
<path d="M486 4H270V212.602H486V4Z" fill="white"/>
</mask>
<g mask="url(#mask15_6213_6830)">
<path d="M276.927 152.546C276.76 152.546 276.621 152.435 276.566 152.283C276.524 152.117 276.593 151.937 276.746 151.853C276.885 151.77 291.141 143.844 293.375 114.246C294.319 101.678 297.359 93.8206 302.412 90.9107C306.326 88.6381 309.921 90.3148 310.074 90.3841C310.254 90.4673 310.338 90.689 310.254 90.8691C310.171 91.0492 309.949 91.1324 309.769 91.0492C309.741 91.0354 306.354 89.4834 302.773 91.5481C299.469 93.4742 295.277 98.9754 294.125 114.301C292.307 138.495 282.479 148.445 278.634 151.438C283.006 150.121 294.527 144.191 299.538 117.668C299.58 117.474 299.774 117.336 299.969 117.377C300.163 117.419 300.302 117.613 300.26 117.807C293.931 151.355 277.634 152.519 276.927 152.546Z" fill="#575756"/>
</g>
<mask id="mask16_6213_6830" style="mask-type:luminance" maskUnits="userSpaceOnUse" x="270" y="4" width="216" height="209">
<path d="M486 4H270V212.602H486V4Z" fill="white"/>
</mask>
<g mask="url(#mask16_6213_6830)">
<path d="M455.559 212.2H443.288C443.163 212.2 443.052 212.145 442.969 212.048C442.761 211.771 437.777 205.078 436.75 197.914C436.348 195.142 435.57 193.091 434.738 190.916C433.46 187.549 432.128 184.071 432.128 177.599C432.128 177.378 432.308 177.198 432.53 177.198C432.753 177.198 432.933 177.378 432.933 177.599C432.933 183.918 434.238 187.327 435.487 190.639C436.334 192.856 437.125 194.948 437.541 197.803C438.458 204.177 442.733 210.357 443.482 211.424H455.17C455.101 207.267 448.674 205.064 448.605 205.05C448.535 205.022 448.48 204.981 448.424 204.925C443.233 198.745 442.858 182.893 443.954 155.803C444.968 130.86 448.882 113.095 448.924 112.929C448.965 112.721 449.174 112.583 449.396 112.624C449.604 112.666 449.743 112.888 449.701 113.095C449.659 113.276 445.759 130.971 444.746 155.83C443.677 181.964 444.038 198.316 448.965 204.329C449.923 204.662 456.281 207.101 455.947 211.84C455.934 212.048 455.767 212.2 455.559 212.2Z" fill="#575756"/>
</g>
<mask id="mask17_6213_6830" style="mask-type:luminance" maskUnits="userSpaceOnUse" x="270" y="4" width="216" height="209">
<path d="M486 4H270V212.602H486V4Z" fill="white"/>
</mask>
<g mask="url(#mask17_6213_6830)">
<path d="M304.106 212.2H290.295C290.101 212.2 289.934 212.048 289.906 211.854L288.546 201.807C288.546 201.766 288.546 201.738 288.546 201.697C288.574 201.503 291.155 182.338 291.336 173.096C291.336 172.874 291.558 172.708 291.738 172.708C291.961 172.708 292.127 172.888 292.127 173.11C291.947 182.158 289.49 200.616 289.337 201.738L290.642 211.383H303.662C302.954 206.089 297.666 205.715 297.43 205.701C297.221 205.687 297.069 205.521 297.055 205.327C296.763 198.953 297.305 177.267 316.099 165.655C331.299 156.274 335.935 144.454 339.655 134.962C342.848 126.828 345.596 119.802 353.98 117.322C354.188 117.252 354.411 117.377 354.466 117.585C354.522 117.793 354.411 118.015 354.202 118.07C346.193 120.44 343.625 126.966 340.391 135.239C336.629 144.842 331.937 156.8 316.516 166.32C298.387 177.502 297.582 198.288 297.832 204.939C299.206 205.133 304.037 206.214 304.495 211.729C304.509 211.84 304.467 211.951 304.398 212.034C304.315 212.159 304.217 212.2 304.106 212.2Z" fill="#575756"/>
</g>
<mask id="mask18_6213_6830" style="mask-type:luminance" maskUnits="userSpaceOnUse" x="270" y="4" width="216" height="209">
<path d="M486 4H270V212.602H486V4Z" fill="white"/>
</mask>
<g mask="url(#mask18_6213_6830)">
<path d="M273.595 179.387C274.122 174.26 276.371 169.479 279.98 165.807C286.268 159.391 295.804 148.07 298.58 136.07C302.842 117.682 289.891 86.8782 339.834 77.8574C389.792 68.8365 386.21 83.4694 418.261 60.1621C428.144 53.0119 420.996 46.2081 432.406 24.2449C433.142 22.8315 433.905 21.5567 434.682 20.4065C437.986 16.4296 441.873 12.5497 447.286 11.1778C455.073 9.75056 462.208 14.4203 464.693 15.7922C466.997 17.0532 467.302 22.7206 467.302 22.7206L483.904 28.1664C483.904 28.1664 485.181 54.2867 464.124 47.2335L455.087 44.2543C455.087 44.2543 453.38 67.8249 454.24 81.959C455.087 96.0931 452.533 111.751 443.969 121.105C443.969 121.105 434.46 131.664 433.447 156.842C432.42 182.034 430.712 198.371 436.001 204.676C436.001 204.676 443.163 207.059 442.816 211.826H430.546C430.546 211.826 425.424 205.022 424.41 197.872C423.383 190.722 421.343 193.784 421.343 183.239C421.343 172.694 421.343 141.364 417.595 132.855C417.595 132.855 390.319 133.202 368.665 123.488C347.011 113.788 343.43 114.121 332.172 127.742C320.915 141.364 316.487 157.355 300.121 166.722C283.756 176.089 278.814 193.951 279.314 205.355C279.314 205.355 285.449 205.701 285.963 211.826H272.151L270.791 201.78C270.791 201.766 272.609 188.893 273.595 179.387Z" fill="white"/>
</g>
<mask id="mask19_6213_6830" style="mask-type:luminance" maskUnits="userSpaceOnUse" x="270" y="4" width="216" height="209">
<path d="M486 4H270V212.602H486V4Z" fill="white"/>
</mask>
<g mask="url(#mask19_6213_6830)">
<path d="M442.831 212.2H430.56C430.436 212.2 430.324 212.145 430.241 212.048C430.033 211.771 425.05 205.078 424.023 197.914C423.62 195.059 423.051 193.882 422.51 192.759C421.704 191.11 420.955 189.558 420.955 183.226C420.955 172.985 420.955 142.015 417.332 133.244C414.445 133.244 388.848 132.966 368.499 123.849C346.942 114.19 343.569 114.578 332.478 127.992C328.661 132.606 325.593 137.553 322.637 142.348C316.751 151.853 311.185 160.847 300.316 167.068C285.422 175.59 279.245 192.191 279.703 205.009C281.077 205.203 285.908 206.283 286.366 211.799C286.38 211.909 286.338 212.02 286.269 212.103C286.2 212.186 286.088 212.228 285.977 212.228H272.166C271.972 212.228 271.805 212.076 271.777 211.882L270.417 201.835C270.417 201.794 270.417 201.766 270.417 201.725C270.431 201.6 272.249 188.754 273.221 179.359C273.748 174.177 276.067 169.258 279.717 165.544C285.422 159.724 295.403 148.154 298.22 136.001C299.136 132.066 299.248 127.535 299.372 122.74C299.803 105.751 300.344 84.6058 339.794 77.4833C359.06 74.0052 370.484 74.0468 378.84 74.0606C392.305 74.1022 398.454 74.1161 418.068 59.8434C423.009 56.2684 423.564 52.8873 424.481 47.2614C425.341 42.0096 426.507 34.804 432.101 24.0649C432.823 22.693 433.586 21.3905 434.378 20.2126C434.392 20.1849 434.405 20.1711 434.419 20.1433C437.598 16.3188 441.596 12.2033 447.231 10.7899C454.491 9.45966 461.015 13.201 464.152 15.0024C464.444 15.1687 464.707 15.3211 464.929 15.4458C467.123 16.6514 467.636 21.238 467.733 22.4159L484.071 27.7785C484.224 27.8339 484.335 27.9725 484.349 28.1388C484.377 28.6792 484.904 41.289 477.908 46.5824C474.466 49.1875 469.802 49.52 464.055 47.5939L455.504 44.781C455.268 48.2868 453.922 69.1276 454.685 81.9175C455.699 98.6705 451.909 113.04 444.302 121.354C444.205 121.451 434.877 132.121 433.878 156.842C433.725 160.472 433.573 163.909 433.42 167.165C432.518 186.316 431.921 198.995 436.279 204.316C437.237 204.648 443.595 207.087 443.261 211.826C443.206 212.048 443.039 212.2 442.831 212.2ZM430.755 211.411H442.442C442.373 207.253 435.946 205.05 435.877 205.036C435.807 205.009 435.752 204.967 435.696 204.912C431.074 199.397 431.671 186.565 432.587 167.124C432.74 163.867 432.906 160.431 433.045 156.8C434.058 131.761 443.581 120.911 443.678 120.814C451.146 112.666 454.852 98.4904 453.853 81.9591C453.006 67.9636 454.685 44.4484 454.699 44.199C454.713 44.0743 454.769 43.9634 454.88 43.8941C454.977 43.8248 455.116 43.811 455.227 43.8526L464.263 46.8318C469.76 48.6748 474.174 48.3699 477.394 45.9449C483.516 41.3167 483.571 30.3005 483.53 28.4298L467.192 23.0672C467.039 23.0117 466.928 22.8732 466.914 22.7069C466.831 21.1965 466.234 17.0671 464.499 16.111C464.277 15.9863 464.013 15.8338 463.708 15.6676C460.654 13.9216 454.297 10.2772 447.356 11.5521C441.984 12.91 438.098 16.887 435.002 20.6145C434.225 21.7646 433.462 23.0533 432.754 24.4113C427.229 35.0395 426.063 42.162 425.216 47.3722C424.3 52.9843 423.689 56.6979 418.484 60.467C398.662 74.8921 392.444 74.8782 378.799 74.8228C370.484 74.7951 359.088 74.7673 339.891 78.2316C301.066 85.2432 300.566 105.156 300.122 122.726C299.997 127.562 299.886 132.121 298.956 136.14C296.097 148.486 286.005 160.181 280.245 166.057C276.719 169.66 274.484 174.399 273.97 179.401C273.027 188.491 271.305 200.824 271.18 201.738L272.485 211.383H285.505C284.798 206.089 279.509 205.715 279.273 205.701C279.065 205.688 278.912 205.521 278.898 205.327C278.315 192.233 284.575 175.092 299.9 166.334C310.602 160.209 316.113 151.313 321.943 141.89C324.913 137.082 327.995 132.107 331.84 127.451C343.153 113.761 346.956 113.303 368.791 123.086C390.112 132.634 417.29 132.412 417.554 132.412C417.707 132.412 417.859 132.509 417.915 132.648C421.704 141.239 421.704 172.805 421.704 183.184C421.704 189.336 422.385 190.75 423.176 192.371C423.717 193.494 424.342 194.782 424.772 197.761C425.716 204.163 429.991 210.357 430.755 211.411Z" fill="#575756"/>
</g>
<mask id="mask20_6213_6830" style="mask-type:luminance" maskUnits="userSpaceOnUse" x="270" y="4" width="216" height="209">
<path d="M486 4H270V212.602H486V4Z" fill="white"/>
</mask>
<g mask="url(#mask20_6213_6830)">
<path d="M430.575 99.5851C429.214 99.5851 427.646 99.308 425.855 98.5874C425.036 98.2548 424.634 97.3264 424.967 96.495C425.3 95.6775 426.244 95.2756 427.063 95.6082C429.922 96.7444 432.185 96.6336 434.017 95.2479C438.584 91.7698 439.611 81.2385 438.653 72.9382C436.002 50.2545 437.682 37.3675 443.914 32.379C450.008 27.5014 459.086 30.6608 468.705 34.0003C472.648 35.3721 476.715 36.7855 480.698 37.7001C481.559 37.8941 482.1 38.7532 481.906 39.6262C481.712 40.4992 480.837 41.0258 479.977 40.8318C475.826 39.8756 471.662 38.4345 467.637 37.035C458.878 33.9864 450.619 31.118 445.913 34.8871C440.694 39.0581 439.361 51.3907 441.832 72.5641C442.859 81.3494 441.929 93.2386 435.96 97.7976C434.753 98.726 432.976 99.5851 430.575 99.5851Z" fill="#FBE4E7"/>
</g>
<mask id="mask21_6213_6830" style="mask-type:luminance" maskUnits="userSpaceOnUse" x="270" y="4" width="216" height="209">
<path d="M486 4H270V212.602H486V4Z" fill="white"/>
</mask>
<g mask="url(#mask21_6213_6830)">
<path d="M407.477 90.1347C407.477 90.1347 418.623 80.8506 428.09 89.9961C437.557 99.1278 431.935 114.634 410.003 115.95C388.072 117.267 389.307 108.163 397.344 101.858C405.367 95.5389 407.477 90.1347 407.477 90.1347Z" fill="#FBE4E7"/>
</g>
<mask id="mask22_6213_6830" style="mask-type:luminance" maskUnits="userSpaceOnUse" x="270" y="4" width="216" height="209">
<path d="M486 4H270V212.602H486V4Z" fill="white"/>
</mask>
<g mask="url(#mask22_6213_6830)">
<path d="M397.496 124.749C391.166 125.955 380.894 115.922 381.228 104.823C381.713 88.0423 412.529 66.8689 420.066 77.0399C425.841 84.8275 411.766 91.4234 408.323 101.691C404.867 111.945 406.158 123.1 397.496 124.749Z" fill="#F7C8CD"/>
</g>
<mask id="mask23_6213_6830" style="mask-type:luminance" maskUnits="userSpaceOnUse" x="270" y="4" width="216" height="209">
<path d="M486 4H270V212.602H486V4Z" fill="white"/>
</mask>
<g mask="url(#mask23_6213_6830)">
<path d="M385.031 102.135C385.142 104.393 384.157 106.846 382.047 107.899C380.52 108.578 379.132 108.869 377.452 108.218C375.176 107.151 375.245 104.241 375.273 102.176C375.259 101.248 375.37 100.222 375.009 99.4464C374.982 99.4325 375.051 99.4464 374.968 99.4325C374.926 99.4187 374.871 99.4187 374.787 99.4325C374.44 99.4741 374.093 99.5018 373.941 99.8205C373.635 100.541 373.913 101.788 374.066 102.675C374.357 104.518 375.245 106.998 374.052 108.883C373.385 109.895 372.122 110.282 371.012 110.227C369.707 110.241 368.652 109.035 368.444 107.858C367.972 105.627 368.416 103.465 368.249 101.331C368.18 100.694 368.138 100.112 367.819 99.7928C367.722 99.7097 367.278 99.7512 367.195 99.8205C367.111 99.8482 367.07 99.8898 367 99.9868C366.598 100.652 366.667 101.927 366.695 102.814C366.75 104.684 367.153 106.652 366.625 108.62C366.112 110.643 363.946 111.308 362.114 110.573C360.379 109.964 359.893 107.844 360.06 106.306C360.157 104.532 360.684 102.592 360.74 100.957C360.726 100.306 360.74 99.8482 360.393 99.5711C360.323 99.5157 360.143 99.4741 360.129 99.4741C360.115 99.488 360.212 99.4325 360.157 99.4741C359.796 99.9175 359.657 100.652 359.505 101.317C359.144 103.063 359.06 105.003 358.463 106.804C358.158 107.65 357.797 108.453 356.839 108.952C355.299 109.645 353.55 108.675 352.994 107.234C352.578 106.125 352.745 104.906 352.953 103.867C353.397 101.594 354.549 99.3494 354.688 97.1184C354.688 96.9244 354.646 96.772 354.618 96.7166C354.591 96.675 354.632 96.7027 354.577 96.675C353.341 96.2593 352.856 97.8805 352.509 98.8782C352.286 99.5572 351.898 100.929 351.592 101.566C350.94 103.202 349.358 103.978 347.775 103.049C346.262 102.19 345.804 100.306 345.86 98.7397C345.971 95.899 347.428 93.1415 349.941 91.6865C352.411 90.2454 355.479 90.5364 357.992 91.4925C359.074 91.9221 360.212 92.3101 361.337 92.6288C364.71 93.6126 368.236 93.8898 371.747 93.7373C373.413 93.6542 375.148 93.5295 376.633 92.8782C376.828 92.7812 377.008 92.6703 377.105 92.5733C377.203 92.4763 377.203 92.4209 377.161 92.4625C377.133 92.4763 377.133 92.5318 377.105 92.5318C376.981 92.2823 376.856 91.9636 376.55 92.0191C375.509 92.1022 374.302 92.3378 373.149 92.3378C369.374 92.5318 365.446 92.4348 361.712 91.5064C359.338 90.9659 357.089 89.9544 354.743 89.3447C352.564 88.7765 350.371 88.4024 348.233 88.4578C343.93 88.4717 340.127 90.4394 337.753 94.0422C337.462 94.444 337.129 95.0399 336.879 95.4556C335.879 97.1738 334.699 98.7812 333.297 100.222C327.565 106.306 318.736 107.4 310.963 105.405C308.423 104.781 305.98 103.936 303.634 102.772C301.094 101.345 303.023 97.5757 305.688 98.8921C311.546 101.677 318.75 103.188 324.927 100.735C328.425 99.3494 331.229 96.5364 333.075 93.2801C334.713 90.3008 337.004 87.6403 340.099 85.9636C346.179 82.6241 353.411 83.6633 359.602 85.8666C362.794 87.0029 366.084 87.5849 369.499 87.668C372.094 87.8204 374.69 87.2384 377.244 88.4163C378.854 89.0675 380.034 90.8135 380.02 92.5456C380.02 93.959 378.799 94.9706 377.661 95.3586C374.537 96.3701 371.234 96.2593 368.111 96.2039C365.626 96.1346 363.086 95.6912 360.684 95.0122C358.477 94.4856 356.298 93.183 354.022 93.1553C352.994 93.1415 352.009 93.3493 351.162 93.8343C349.08 95.026 347.845 97.8944 348.469 100.222C348.608 100.735 348.941 101.012 349.191 101.054C349.177 101.054 349.122 101.068 349.094 101.081C349.08 101.095 349.08 101.095 349.122 101.054C349.191 100.984 349.302 100.804 349.385 100.597C349.968 99.2385 350.246 97.5896 351.009 96.2593C351.828 94.6242 353.841 93.6958 355.604 94.5133C359.518 96.5919 354.438 103.229 355.243 106.375C355.326 106.624 355.521 106.721 355.743 106.791C355.868 106.818 355.84 106.791 355.812 106.818C355.951 106.707 356.118 106.333 356.215 106.07C356.728 104.407 356.812 102.689 357.173 100.887C357.409 99.8344 357.631 98.6565 358.533 97.7697C359.338 96.9383 360.768 96.9798 361.656 97.5757C364.432 99.4602 362.475 103.881 362.447 106.472C362.433 107.234 362.364 108.107 363.016 108.412C363.322 108.509 363.946 108.634 364.182 108.37C364.502 107.885 364.516 107.22 364.529 106.527C364.529 104.795 364.21 102.855 364.349 100.998C364.391 99.9175 364.932 98.227 366.209 97.7143C367.597 97.0491 369.471 97.5757 370.082 99.003C371.123 101.483 370.345 104.158 370.609 106.61C370.679 107.192 370.748 107.691 370.998 107.885C371.248 107.941 371.678 107.858 371.858 107.761C372.261 107.539 372.233 107.192 372.261 106.527C372.206 104.075 370.762 101.456 371.747 98.8505C372.33 97.4926 373.954 96.8967 375.329 97.0907C379.993 97.8944 375.537 106.888 379.604 106.153C381.686 106.001 382.658 104.185 382.575 102.315C382.519 100.652 384.906 100.513 385.031 102.135Z" fill="#F7C8CD"/>
</g>
<mask id="mask24_6213_6830" style="mask-type:luminance" maskUnits="userSpaceOnUse" x="270" y="4" width="216" height="209">
<path d="M486 4H270V212.602H486V4Z" fill="white"/>
</mask>
<g mask="url(#mask24_6213_6830)">
<path d="M376.174 92.033C377.048 91.8944 377.34 92.5318 376.507 92.9198C375.466 93.4048 377.812 94.0561 377.812 94.0561C377.812 94.0561 378.631 92.2131 378.534 92.1438C378.436 92.0745 376.674 90.7166 376.674 90.7166L376.174 92.033Z" fill="#F7C8CD"/>
</g>
<mask id="mask25_6213_6830" style="mask-type:luminance" maskUnits="userSpaceOnUse" x="270" y="4" width="216" height="209">
<path d="M486 4H270V212.602H486V4Z" fill="white"/>
</mask>
<g mask="url(#mask25_6213_6830)">
<path d="M442.83 212.173H430.559C430.448 212.173 430.337 212.117 430.268 212.02C430.212 211.951 425.09 205.05 424.063 197.886C423.646 195.018 423.091 193.854 422.536 192.717C421.745 191.068 420.981 189.516 420.981 183.198C420.981 172.944 420.981 141.946 417.358 133.188C414.554 133.188 388.903 132.925 368.525 123.793C346.941 114.121 343.582 114.509 332.477 127.95C328.66 132.564 325.592 137.511 322.635 142.306C316.75 151.812 311.198 160.805 300.315 167.013C285.393 175.549 279.216 192.177 279.688 204.995C281.021 205.175 285.893 206.242 286.351 211.771C286.365 211.868 286.323 211.979 286.254 212.048C286.184 212.117 286.087 212.173 285.976 212.173H272.165C271.984 212.173 271.818 212.034 271.804 211.854L270.443 201.808C270.443 201.78 270.443 201.738 270.443 201.711C270.457 201.586 272.276 188.74 273.247 179.345C273.789 174.163 276.093 169.258 279.73 165.544C285.435 159.724 295.415 148.154 298.233 135.987C299.149 132.038 299.26 127.521 299.385 122.726C299.815 105.751 300.357 84.6195 339.792 77.4971C359.059 74.019 370.497 74.0467 378.839 74.0744C392.29 74.1021 398.453 74.1298 418.08 59.8572C423.036 56.2682 423.591 52.8872 424.507 47.2612C425.368 42.0095 426.534 34.8039 432.128 24.0648C432.849 22.6929 433.613 21.3904 434.404 20.2125C434.432 20.1571 434.473 20.1155 434.529 20.0878C434.682 19.9908 434.876 20.0047 435.001 20.1294C435.126 20.2541 435.14 20.4481 435.043 20.5867C434.265 21.7507 433.502 23.0255 432.794 24.3973C427.255 35.0256 426.103 42.1619 425.243 47.3721C424.327 52.9842 423.73 56.684 418.524 60.453C398.716 74.8642 392.484 74.8365 378.853 74.8088C370.524 74.7811 359.142 74.7534 339.945 78.2176C301.092 85.2292 300.593 105.155 300.148 122.74C300.023 127.576 299.912 132.135 298.982 136.153C296.123 148.486 286.032 160.181 280.285 166.057C276.745 169.659 274.524 174.412 273.997 179.429C273.053 188.533 271.332 200.879 271.207 201.78L272.525 211.452H285.601C284.907 206.089 279.577 205.729 279.341 205.715C279.147 205.701 279.008 205.549 278.994 205.369C278.411 192.274 284.671 175.147 299.982 166.389C310.684 160.264 316.195 151.354 322.039 141.932C325.009 137.123 328.091 132.163 331.936 127.493C343.248 113.802 347.038 113.359 368.859 123.142C390.18 132.703 417.358 132.467 417.636 132.467C417.789 132.467 417.914 132.551 417.969 132.689C421.745 141.267 421.745 172.847 421.745 183.225C421.745 189.378 422.425 190.791 423.216 192.426C423.757 193.549 424.382 194.838 424.798 197.803C425.715 204.205 430.018 210.413 430.753 211.438H442.483C442.441 207.239 435.973 205.022 435.903 205.008C435.834 204.981 435.778 204.953 435.737 204.898C431.114 199.396 431.725 186.565 432.627 167.151C432.78 163.895 432.947 160.445 433.085 156.828C434.099 131.788 443.607 120.952 443.704 120.855C451.172 112.694 454.878 98.5319 453.879 81.9728C453.032 67.9773 454.712 44.4622 454.726 44.2266C454.74 44.1157 454.795 44.0049 454.892 43.9494C454.989 43.8802 455.1 43.8802 455.211 43.9079L464.248 46.8871C469.745 48.7301 474.173 48.4252 477.393 45.9864C483.556 41.3443 483.584 30.2449 483.542 28.4435L467.191 23.0809C467.052 23.0393 466.941 22.9008 466.941 22.7484C466.858 21.2379 466.261 17.0809 464.512 16.1247C464.29 16 464.026 15.8476 463.734 15.6813C460.681 13.9215 454.309 10.2771 447.355 11.552C447.147 11.5797 446.966 11.455 446.925 11.261C446.883 11.067 447.022 10.873 447.216 10.8314C454.434 9.51498 460.958 13.2564 464.095 15.0439C464.387 15.2102 464.65 15.3626 464.873 15.4735C467.066 16.679 467.565 21.2934 467.663 22.4435L484.028 27.8061C484.167 27.8477 484.278 27.9863 484.278 28.1387C484.306 28.6653 484.833 41.2751 477.851 46.5684C474.409 49.1596 469.759 49.5061 464.026 47.58L455.447 44.7531C455.211 48.1619 453.851 69.0859 454.628 81.9313C455.642 98.6843 451.852 113.054 444.259 121.354C444.162 121.451 434.834 132.121 433.821 156.87C433.668 160.5 433.516 163.937 433.363 167.207C432.461 186.357 431.864 199.05 436.236 204.371C437.166 204.704 443.552 207.129 443.205 211.868C443.177 212.034 443.01 212.173 442.83 212.173Z" fill="#575756"/>
</g>
<mask id="mask26_6213_6830" style="mask-type:luminance" maskUnits="userSpaceOnUse" x="270" y="4" width="216" height="209">
<path d="M486 4H270V212.602H486V4Z" fill="white"/>
</mask>
<g mask="url(#mask26_6213_6830)">
<path d="M454.504 10.6513C450.923 9.94458 441.095 9.19631 434.183 19.6999C433.613 20.559 433.558 21.6675 434.03 22.5821C435.307 25.0348 438.347 29.9124 443.441 32.7392C446.065 34.1942 447.8 35.5383 448.966 36.6469C450.201 37.8247 452.255 37.2843 452.769 35.663C453.824 32.3097 454.921 27.238 454.324 21.8754C453.796 17.1225 454.698 13.8107 455.337 12.1755C455.601 11.4966 455.198 10.776 454.504 10.6513Z" fill="white"/>
</g>
<mask id="mask27_6213_6830" style="mask-type:luminance" maskUnits="userSpaceOnUse" x="270" y="4" width="216" height="209">
<path d="M486 4H270V212.602H486V4Z" fill="white"/>
</mask>
<g mask="url(#mask27_6213_6830)">
<path d="M450.534 37.6583C449.854 37.6583 449.188 37.3951 448.688 36.9101C447.328 35.6075 445.496 34.305 443.247 33.0578C438.125 30.2172 435.057 25.3673 433.683 22.7344C433.142 21.6952 433.211 20.4342 433.849 19.4642C440.832 8.8498 450.673 9.47336 454.588 10.2494C455.032 10.3325 455.42 10.6096 455.629 11.0115C455.851 11.3995 455.878 11.8706 455.712 12.3002C455.115 13.8383 454.199 17.1085 454.726 21.806C455.337 27.2518 454.199 32.4066 453.158 35.7599C452.88 36.6606 452.158 37.3396 451.228 37.5752C450.992 37.6306 450.77 37.6583 450.534 37.6583ZM450.673 10.6789C446.12 10.6789 439.541 12.2586 434.502 19.9215C434.016 20.6698 433.961 21.612 434.377 22.4019C435.71 24.9515 438.68 29.649 443.622 32.3927C445.926 33.6676 447.814 35.0117 449.229 36.3558C449.701 36.8131 450.368 36.9794 451.02 36.8131C451.673 36.6468 452.186 36.1618 452.38 35.5244C453.408 32.2403 454.518 27.2102 453.921 21.903C453.38 17.0254 454.338 13.6166 454.962 12.023C455.046 11.8152 455.032 11.5935 454.921 11.4133C454.81 11.2193 454.629 11.0946 454.421 11.0531C453.491 10.8452 452.2 10.6789 450.673 10.6789Z" fill="#575756"/>
</g>
<mask id="mask28_6213_6830" style="mask-type:luminance" maskUnits="userSpaceOnUse" x="270" y="4" width="216" height="209">
<path d="M486 4H270V212.602H486V4Z" fill="white"/>
</mask>
<g mask="url(#mask28_6213_6830)">
<path d="M480.253 26.947C480.253 26.947 474.59 30.439 483.751 32.4621L483.918 28.1526L480.253 26.947Z" fill="#575756"/>
</g>
<mask id="mask29_6213_6830" style="mask-type:luminance" maskUnits="userSpaceOnUse" x="270" y="4" width="216" height="209">
<path d="M486 4H270V212.602H486V4Z" fill="white"/>
</mask>
<g mask="url(#mask29_6213_6830)">
<path d="M483.751 32.864C483.724 32.864 483.696 32.864 483.668 32.8502C480.198 32.0881 478.393 31.0349 478.157 29.6215C477.88 27.9725 479.962 26.67 480.045 26.6146C480.142 26.5591 480.267 26.5314 480.378 26.573L484.029 27.7785C484.195 27.834 484.307 27.9864 484.307 28.1665L484.14 32.476C484.14 32.5869 484.084 32.6978 483.987 32.767C483.932 32.8363 483.835 32.864 483.751 32.864ZM480.323 27.3906C479.781 27.7647 478.796 28.6515 478.949 29.4968C479.046 30.0649 479.754 31.1042 483.377 31.9772L483.515 28.4437L480.323 27.3906Z" fill="#575756"/>
</g>
<mask id="mask30_6213_6830" style="mask-type:luminance" maskUnits="userSpaceOnUse" x="270" y="4" width="216" height="209">
<path d="M486 4H270V212.602H486V4Z" fill="white"/>
</mask>
<g mask="url(#mask30_6213_6830)">
<path d="M446.246 130.389C446.246 130.389 443.303 137.498 436.224 136.929C436.224 136.929 442.387 120.343 448.591 115.396L446.246 130.389Z" fill="#575756"/>
</g>
<mask id="mask31_6213_6830" style="mask-type:luminance" maskUnits="userSpaceOnUse" x="270" y="4" width="216" height="209">
<path d="M486 4H270V212.602H486V4Z" fill="white"/>
</mask>
<g mask="url(#mask31_6213_6830)">
<path d="M338.654 138.384C338.654 138.384 334.893 130.403 326.259 135.765C326.259 135.765 338.099 114.218 350.439 117.156C350.439 117.156 355.353 117.447 353.937 117.932C352.535 118.403 343.776 119.913 338.654 138.384Z" fill="#575756"/>
</g>
<path d="M160.711 248.424V245.512C160.711 244.296 160.178 243.688 159.111 243.688C158.023 243.688 157.479 244.296 157.479 245.512V248.424C157.479 249.64 158.023 250.248 159.111 250.248C160.178 250.248 160.711 249.64 160.711 248.424ZM163.719 248.552C163.719 249.939 163.282 251.016 162.407 251.784C161.533 252.552 160.434 252.936 159.111 252.936C157.789 252.936 156.679 252.552 155.783 251.784C154.887 251.016 154.439 249.939 154.439 248.552V245.384C154.439 243.997 154.887 242.92 155.783 242.152C156.679 241.384 157.789 241 159.111 241C160.434 241 161.533 241.384 162.407 242.152C163.282 242.92 163.719 243.997 163.719 245.384V248.552ZM175.239 259.688V256.744C175.239 255.528 174.695 254.92 173.607 254.92C172.519 254.92 171.975 255.528 171.975 256.744V259.688C171.975 260.883 172.519 261.48 173.607 261.48C174.695 261.48 175.239 260.883 175.239 259.688ZM178.247 259.784C178.247 261.171 177.799 262.248 176.903 263.016C176.029 263.784 174.93 264.168 173.607 264.168C172.285 264.168 171.175 263.784 170.279 263.016C169.405 262.248 168.967 261.171 168.967 259.784V256.616C168.967 255.229 169.405 254.152 170.279 253.384C171.175 252.616 172.285 252.232 173.607 252.232C174.93 252.232 176.029 252.616 176.903 253.384C177.799 254.152 178.247 255.229 178.247 256.616V259.784ZM173.383 241.192L162.599 263.976H159.335L170.119 241.192H173.383Z" fill="#E2001A"/>
<path d="M151.496 244.936L144.104 263.976H139.592L146.984 244.936H140.968V248.52H137V241.192H151.496V244.936Z" fill="#E2001A"/>
<path d="M201.413 309.311H199.321V314.953H197.944V309.311H195.771V308.109H201.413V309.311Z" fill="#666666"/>
<path d="M191.16 314.953H189.77V308.109H191.16V314.953ZM195.628 314.953H193.941L191.173 311.389L193.779 308.109H195.425L192.699 311.322L195.628 314.953Z" fill="#666666"/>
<path d="M187.618 314.953H186.268V314.332C186.016 314.584 185.751 314.764 185.472 314.872C185.202 314.98 184.86 315.034 184.446 315.034C183.636 315.034 183.024 314.827 182.61 314.413C182.25 314.035 182.07 313.544 182.07 312.941C182.07 312.348 182.273 311.871 182.678 311.511C183.092 311.151 183.681 310.971 184.446 310.971H186.241V310.485C186.241 310.044 186.124 309.72 185.89 309.513C185.656 309.306 185.274 309.202 184.743 309.202C184.383 309.202 184.091 309.256 183.866 309.364C183.65 309.463 183.443 309.634 183.245 309.877L182.354 309.027C182.669 308.658 183.006 308.402 183.366 308.258C183.735 308.105 184.212 308.028 184.797 308.028C186.678 308.028 187.618 308.811 187.618 310.377V314.953ZM186.241 312.483V311.929H184.662C183.825 311.929 183.407 312.258 183.407 312.914C183.407 313.562 183.839 313.886 184.702 313.886C185.251 313.886 185.665 313.756 185.944 313.495C186.142 313.306 186.241 312.968 186.241 312.483Z" fill="#666666"/>
<path d="M180.725 311.524C180.725 312.937 180.468 313.904 179.955 314.426C179.551 314.831 178.997 315.034 178.295 315.034C177.53 315.034 176.932 314.773 176.5 314.251V317.72H175.123V308.109H176.473V308.838C176.923 308.298 177.526 308.028 178.282 308.028C178.993 308.028 179.551 308.231 179.955 308.636C180.468 309.157 180.725 310.12 180.725 311.524ZM179.294 312.402C179.33 312.159 179.348 311.866 179.348 311.524C179.348 311.182 179.33 310.89 179.294 310.647C179.267 310.404 179.204 310.17 179.105 309.945C179.015 309.72 178.871 309.549 178.673 309.432C178.475 309.315 178.228 309.256 177.931 309.256C177.625 309.256 177.373 309.315 177.175 309.432C176.977 309.549 176.828 309.72 176.729 309.945C176.639 310.17 176.576 310.404 176.54 310.647C176.513 310.89 176.5 311.182 176.5 311.524C176.5 311.866 176.513 312.159 176.54 312.402C176.576 312.645 176.639 312.883 176.729 313.117C176.828 313.342 176.977 313.513 177.175 313.63C177.382 313.747 177.634 313.805 177.931 313.805C178.228 313.805 178.475 313.747 178.673 313.63C178.871 313.513 179.015 313.342 179.105 313.117C179.204 312.883 179.267 312.645 179.294 312.402Z" fill="#666666"/>
<path d="M173.876 309.311H171.783V314.953H170.407V309.311H168.233V308.109H173.876V309.311Z" fill="#666666"/>
<path d="M162.993 305.329C162.966 305.959 162.759 306.422 162.372 306.719C161.994 307.007 161.508 307.151 160.915 307.151C160.321 307.151 159.835 307.007 159.457 306.719C159.079 306.422 158.872 305.959 158.836 305.329H159.929C159.983 305.941 160.312 306.247 160.915 306.247C161.517 306.247 161.846 305.941 161.9 305.329H162.993ZM163.749 314.953H162.372V310.242L159.443 314.953H158.066V308.109H159.443V312.753L162.372 308.109H163.749V314.953Z" fill="#666666"/>
<path d="M155.878 314.953H154.501V310.242L151.572 314.953H150.195V308.109H151.572V312.753L154.501 308.109H155.878V314.953Z" fill="#666666"/>
<path d="M148.005 314.953H146.628V312.037H143.901V314.953H142.524V308.109H143.901V310.836H146.628V308.109H148.005V314.953Z" fill="#666666"/>
<path d="M140.621 313.023C140.621 313.617 140.437 314.089 140.068 314.44C139.699 314.782 139.195 314.953 138.556 314.953H135.168V308.109H138.448C139.078 308.109 139.577 308.276 139.946 308.609C140.324 308.942 140.513 309.387 140.513 309.945C140.513 310.629 140.194 311.12 139.555 311.416C140.266 311.74 140.621 312.276 140.621 313.023ZM139.163 310.04C139.163 309.77 139.074 309.563 138.894 309.419C138.723 309.266 138.475 309.189 138.151 309.189H136.531V310.917H138.151C138.826 310.917 139.163 310.625 139.163 310.04ZM139.271 312.928C139.271 312.631 139.177 312.402 138.988 312.24C138.808 312.069 138.556 311.983 138.232 311.983H136.531V313.873H138.232C138.556 313.873 138.808 313.788 138.988 313.617C139.177 313.446 139.271 313.216 139.271 312.928Z" fill="#666666"/>
<path d="M133.045 314.953H131.695V314.332C131.443 314.584 131.178 314.764 130.899 314.872C130.629 314.98 130.287 315.034 129.873 315.034C129.063 315.034 128.451 314.827 128.037 314.413C127.677 314.035 127.497 313.544 127.497 312.941C127.497 312.348 127.7 311.871 128.104 311.511C128.518 311.151 129.108 310.971 129.873 310.971H131.668V310.485C131.668 310.044 131.551 309.72 131.317 309.513C131.083 309.306 130.701 309.202 130.17 309.202C129.81 309.202 129.517 309.256 129.292 309.364C129.076 309.463 128.869 309.634 128.671 309.877L127.781 309.027C128.095 308.658 128.433 308.402 128.793 308.258C129.162 308.105 129.639 308.028 130.224 308.028C132.105 308.028 133.045 308.811 133.045 310.377V314.953ZM131.668 312.483V311.929H130.089C129.252 311.929 128.833 312.258 128.833 312.914C128.833 313.562 129.265 313.886 130.129 313.886C130.678 313.886 131.092 313.756 131.371 313.495C131.569 313.306 131.668 312.968 131.668 312.483Z" fill="#666666"/>
<path d="M126.152 311.524C126.152 312.937 125.895 313.904 125.382 314.426C124.977 314.831 124.424 315.034 123.722 315.034C122.957 315.034 122.359 314.773 121.927 314.251V317.72H120.55V308.109H121.9V308.838C122.35 308.298 122.953 308.028 123.708 308.028C124.419 308.028 124.977 308.231 125.382 308.636C125.895 309.157 126.152 310.12 126.152 311.524ZM124.721 312.402C124.757 312.159 124.775 311.866 124.775 311.524C124.775 311.182 124.757 310.89 124.721 310.647C124.694 310.404 124.631 310.17 124.532 309.945C124.442 309.72 124.298 309.549 124.1 309.432C123.902 309.315 123.654 309.256 123.357 309.256C123.052 309.256 122.8 309.315 122.602 309.432C122.404 309.549 122.255 309.72 122.156 309.945C122.066 310.17 122.003 310.404 121.967 310.647C121.94 310.89 121.927 311.182 121.927 311.524C121.927 311.866 121.94 312.159 121.967 312.402C122.003 312.645 122.066 312.883 122.156 313.117C122.255 313.342 122.404 313.513 122.602 313.63C122.809 313.747 123.061 313.805 123.357 313.805C123.654 313.805 123.902 313.747 124.1 313.63C124.298 313.513 124.442 313.342 124.532 313.117C124.631 312.883 124.694 312.645 124.721 312.402Z" fill="#666666"/>
<path d="M119.302 309.311H117.21V314.953H115.833V309.311H113.66V308.109H119.302V309.311Z" fill="#666666"/>
<path d="M221.356 293.828C221.005 294.179 220.663 294.426 220.33 294.57C219.997 294.714 219.592 294.786 219.115 294.786C218.143 294.786 217.387 294.48 216.847 293.868C216.316 293.247 216.051 292.374 216.051 291.25C216.051 290.161 216.321 289.31 216.861 288.698C217.401 288.086 218.152 287.781 219.115 287.781C219.592 287.781 219.992 287.857 220.316 288.01C220.64 288.154 220.987 288.401 221.356 288.752L220.438 289.643C220.204 289.409 219.988 289.243 219.79 289.144C219.601 289.036 219.371 288.982 219.101 288.982C218.597 288.982 218.206 289.139 217.927 289.454C217.648 289.76 217.486 290.183 217.441 290.723H219.884V291.695H217.428C217.464 292.271 217.617 292.73 217.887 293.072C218.166 293.414 218.57 293.585 219.101 293.585C219.38 293.585 219.614 293.535 219.803 293.436C219.992 293.328 220.204 293.157 220.438 292.923L221.356 293.828Z" fill="#666666"/>
<path d="M214.279 294.705H212.929V294.084C212.677 294.336 212.412 294.516 212.133 294.624C211.863 294.732 211.521 294.786 211.107 294.786C210.297 294.786 209.685 294.579 209.271 294.165C208.911 293.787 208.731 293.297 208.731 292.694C208.731 292.1 208.934 291.623 209.339 291.263C209.753 290.903 210.342 290.723 211.107 290.723H212.902V290.237C212.902 289.796 212.785 289.472 212.551 289.265C212.318 289.058 211.935 288.955 211.404 288.955C211.044 288.955 210.752 289.009 210.527 289.117C210.311 289.216 210.104 289.387 209.906 289.63L209.015 288.779C209.33 288.41 209.667 288.154 210.027 288.01C210.396 287.857 210.873 287.781 211.458 287.781C213.339 287.781 214.279 288.563 214.279 290.129V294.705ZM212.902 292.235V291.682H211.323C210.486 291.682 210.068 292.01 210.068 292.667C210.068 293.315 210.5 293.639 211.364 293.639C211.913 293.639 212.327 293.508 212.605 293.247C212.803 293.058 212.902 292.721 212.902 292.235Z" fill="#666666"/>
<path d="M203.503 289.063V290.156C203.503 291.461 203.287 292.577 202.855 293.504H205.433V289.063H203.503ZM202.193 287.862H206.81V293.504H207.755V296.46H206.432V294.705H201.991V296.46H200.682V293.504H201.411C201.672 292.991 201.865 292.456 201.991 291.898C202.126 291.331 202.193 290.566 202.193 289.603V287.862Z" fill="#666666"/>
<path d="M199.449 294.705H198.099V294.084C197.847 294.336 197.582 294.516 197.303 294.624C197.033 294.732 196.691 294.786 196.277 294.786C195.467 294.786 194.855 294.579 194.441 294.165C194.081 293.787 193.901 293.297 193.901 292.694C193.901 292.1 194.104 291.623 194.509 291.263C194.923 290.903 195.512 290.723 196.277 290.723H198.072V290.237C198.072 289.796 197.955 289.472 197.721 289.265C197.487 289.058 197.105 288.955 196.574 288.955C196.214 288.955 195.922 289.009 195.697 289.117C195.481 289.216 195.274 289.387 195.076 289.63L194.185 288.779C194.5 288.41 194.837 288.154 195.197 288.01C195.566 287.857 196.043 287.781 196.628 287.781C198.509 287.781 199.449 288.563 199.449 290.129V294.705ZM198.072 292.235V291.682H196.493C195.656 291.682 195.238 292.01 195.238 292.667C195.238 293.315 195.67 293.639 196.534 293.639C197.082 293.639 197.496 293.508 197.775 293.247C197.973 293.058 198.072 292.721 198.072 292.235Z" fill="#666666"/>
<path d="M192.218 294.705H190.841V289.063H188.857V291.047C188.857 291.758 188.808 292.357 188.709 292.842C188.61 293.328 188.461 293.706 188.263 293.976C188.065 294.237 187.836 294.426 187.575 294.543C187.323 294.651 187.021 294.705 186.67 294.705H186.022V293.49H186.238C186.382 293.49 186.504 293.481 186.603 293.463C186.702 293.436 186.814 293.373 186.94 293.274C187.075 293.166 187.179 293.022 187.251 292.842C187.332 292.654 187.399 292.379 187.453 292.019C187.507 291.65 187.534 291.214 187.534 290.71V287.862H192.218V294.705Z" fill="#666666"/>
<path d="M181.359 294.705H179.969V287.862H181.359V294.705ZM185.827 294.705H184.14L181.373 291.142L183.978 287.862H185.625L182.898 291.074L185.827 294.705Z" fill="#666666"/>
<path d="M178.344 293.814C177.732 294.462 176.981 294.786 176.09 294.786C175.685 294.786 175.307 294.723 174.956 294.597C174.605 294.462 174.281 294.264 173.984 294.003C173.696 293.733 173.467 293.369 173.296 292.91C173.125 292.442 173.039 291.898 173.039 291.277C173.039 290.656 173.125 290.116 173.296 289.657C173.467 289.189 173.696 288.824 173.984 288.563C174.281 288.293 174.605 288.095 174.956 287.969C175.307 287.844 175.685 287.781 176.09 287.781C176.99 287.781 177.741 288.1 178.344 288.739L177.399 289.657C177.183 289.423 176.976 289.256 176.778 289.157C176.589 289.058 176.36 289.009 176.09 289.009C175.55 289.009 175.127 289.211 174.821 289.616C174.551 289.958 174.416 290.512 174.416 291.277C174.416 292.051 174.551 292.608 174.821 292.95C175.127 293.355 175.55 293.558 176.09 293.558C176.36 293.558 176.589 293.508 176.778 293.409C176.976 293.31 177.183 293.144 177.399 292.91L178.344 293.814Z" fill="#666666"/>
<path d="M168.024 294.705H166.675V294.084C166.423 294.336 166.157 294.516 165.878 294.624C165.608 294.732 165.266 294.786 164.852 294.786C164.042 294.786 163.43 294.579 163.016 294.165C162.657 293.787 162.477 293.297 162.477 292.694C162.477 292.1 162.679 291.623 163.084 291.263C163.498 290.903 164.087 290.723 164.852 290.723H166.648V290.237C166.648 289.796 166.531 289.472 166.297 289.265C166.063 289.058 165.68 288.955 165.149 288.955C164.789 288.955 164.497 289.009 164.272 289.117C164.056 289.216 163.849 289.387 163.651 289.63L162.76 288.779C163.075 288.41 163.412 288.154 163.772 288.01C164.141 287.857 164.618 287.781 165.203 287.781C167.084 287.781 168.024 288.563 168.024 290.129V294.705ZM166.648 292.235V291.682H165.068C164.231 291.682 163.813 292.01 163.813 292.667C163.813 293.315 164.245 293.639 165.109 293.639C165.658 293.639 166.072 293.508 166.351 293.247C166.549 293.058 166.648 292.721 166.648 292.235Z" fill="#666666"/>
<path d="M160.792 294.705H159.416V289.063H157.431V291.047C157.431 291.758 157.382 292.357 157.283 292.842C157.184 293.328 157.035 293.706 156.837 293.976C156.639 294.237 156.41 294.426 156.149 294.543C155.897 294.651 155.596 294.705 155.245 294.705H154.597V293.49H154.813C154.957 293.49 155.078 293.481 155.177 293.463C155.276 293.436 155.389 293.373 155.515 293.274C155.65 293.166 155.753 293.022 155.825 292.842C155.906 292.654 155.974 292.379 156.028 292.019C156.082 291.65 156.108 291.214 156.108 290.71V287.862H160.792V294.705Z" fill="#666666"/>
<path d="M153.306 294.705H151.929V287.862H153.306V294.705ZM153.346 286.512H151.889V285.054H153.346V286.512Z" fill="#666666"/>
<path d="M150.681 289.063H148.589V294.705H147.212V289.063H145.039V287.862H150.681V289.063Z" fill="#666666"/>
<path d="M140.555 294.705H139.178V289.994L136.249 294.705H134.872V287.862H136.249V292.505L139.178 287.862H140.555V294.705Z" fill="#666666"/>
<path d="M133.275 293.814C132.663 294.462 131.911 294.786 131.02 294.786C130.615 294.786 130.237 294.723 129.886 294.597C129.536 294.462 129.212 294.264 128.915 294.003C128.627 293.733 128.397 293.369 128.226 292.91C128.055 292.442 127.97 291.898 127.97 291.277C127.97 290.656 128.055 290.116 128.226 289.657C128.397 289.189 128.627 288.824 128.915 288.563C129.212 288.293 129.536 288.095 129.886 287.969C130.237 287.844 130.615 287.781 131.02 287.781C131.92 287.781 132.672 288.1 133.275 288.739L132.33 289.657C132.114 289.423 131.907 289.256 131.709 289.157C131.52 289.058 131.29 289.009 131.02 289.009C130.48 289.009 130.057 289.211 129.752 289.616C129.482 289.958 129.347 290.512 129.347 291.277C129.347 292.051 129.482 292.608 129.752 292.95C130.057 293.355 130.48 293.558 131.02 293.558C131.29 293.558 131.52 293.508 131.709 293.409C131.907 293.31 132.114 293.144 132.33 292.91L133.275 293.814Z" fill="#666666"/>
<path d="M126.196 294.705H124.846V294.084C124.594 294.336 124.329 294.516 124.05 294.624C123.78 294.732 123.438 294.786 123.024 294.786C122.214 294.786 121.602 294.579 121.188 294.165C120.828 293.787 120.648 293.297 120.648 292.694C120.648 292.1 120.851 291.623 121.256 291.263C121.67 290.903 122.259 290.723 123.024 290.723H124.819V290.237C124.819 289.796 124.702 289.472 124.468 289.265C124.235 289.058 123.852 288.955 123.321 288.955C122.961 288.955 122.669 289.009 122.444 289.117C122.228 289.216 122.021 289.387 121.823 289.63L120.932 288.779C121.247 288.41 121.584 288.154 121.944 288.01C122.313 287.857 122.79 287.781 123.375 287.781C125.256 287.781 126.196 288.563 126.196 290.129V294.705ZM124.819 292.235V291.682H123.24C122.403 291.682 121.985 292.01 121.985 292.667C121.985 293.315 122.417 293.639 123.281 293.639C123.83 293.639 124.244 293.508 124.522 293.247C124.72 293.058 124.819 292.721 124.819 292.235Z" fill="#666666"/>
<path d="M118.962 294.705H117.586V290.318L116.006 293.45H115.142L113.536 290.318V294.705H112.159V287.862H113.523L115.574 291.938L117.613 287.862H118.962V294.705Z" fill="#666666"/>
<path d="M103.8 292.951C103.8 293.517 103.62 293.967 103.26 294.3C102.9 294.633 102.45 294.8 101.91 294.8C101.37 294.8 100.92 294.633 100.56 294.3C100.2 293.967 100.02 293.517 100.02 292.951V291.587C100.02 291.02 100.2 290.57 100.56 290.237C100.92 289.904 101.37 289.738 101.91 289.738C102.45 289.738 102.9 289.904 103.26 290.237C103.62 290.57 103.8 291.02 103.8 291.587V292.951ZM97.7795 288.213C97.7795 288.78 97.5996 289.229 97.2396 289.562C96.8797 289.886 96.4297 290.048 95.8898 290.048C95.3498 290.048 94.8999 289.886 94.5399 289.562C94.18 289.229 94 288.78 94 288.213V286.849C94 286.282 94.18 285.832 94.5399 285.499C94.8999 285.166 95.3498 285 95.8898 285C96.4297 285 96.8797 285.166 97.2396 285.499C97.5996 285.832 97.7795 286.282 97.7795 286.849V288.213ZM101.708 285.094L97.1856 294.705H96.0788L100.614 285.094H101.708ZM102.76 292.91V291.628C102.76 290.98 102.477 290.656 101.91 290.656C101.343 290.656 101.06 290.98 101.06 291.628V292.91C101.06 293.558 101.343 293.882 101.91 293.882C102.477 293.882 102.76 293.558 102.76 292.91ZM96.7402 288.172V286.89C96.7402 286.242 96.4567 285.918 95.8898 285.918C95.3228 285.918 95.0394 286.242 95.0394 286.89V288.172C95.0394 288.811 95.3228 289.131 95.8898 289.131C96.4567 289.131 96.7402 288.811 96.7402 288.172Z" fill="#666666"/>
<path d="M398.736 248.424V245.512C398.736 244.296 398.203 243.688 397.136 243.688C396.048 243.688 395.504 244.296 395.504 245.512V248.424C395.504 249.64 396.048 250.248 397.136 250.248C398.203 250.248 398.736 249.64 398.736 248.424ZM401.744 248.552C401.744 249.939 401.307 251.016 400.432 251.784C399.557 252.552 398.459 252.936 397.136 252.936C395.813 252.936 394.704 252.552 393.808 251.784C392.912 251.016 392.464 249.939 392.464 248.552V245.384C392.464 243.997 392.912 242.92 393.808 242.152C394.704 241.384 395.813 241 397.136 241C398.459 241 399.557 241.384 400.432 242.152C401.307 242.92 401.744 243.997 401.744 245.384V248.552ZM413.264 259.688V256.744C413.264 255.528 412.72 254.92 411.632 254.92C410.544 254.92 410 255.528 410 256.744V259.688C410 260.883 410.544 261.48 411.632 261.48C412.72 261.48 413.264 260.883 413.264 259.688ZM416.272 259.784C416.272 261.171 415.824 262.248 414.928 263.016C414.053 263.784 412.955 264.168 411.632 264.168C410.309 264.168 409.2 263.784 408.304 263.016C407.429 262.248 406.992 261.171 406.992 259.784V256.616C406.992 255.229 407.429 254.152 408.304 253.384C409.2 252.616 410.309 252.232 411.632 252.232C412.955 252.232 414.053 252.616 414.928 253.384C415.824 254.152 416.272 255.229 416.272 256.616V259.784ZM411.408 241.192L400.624 263.976H397.36L408.144 241.192H411.408Z" fill="#E2001A"/>
<path d="M389.52 244.936L382.128 263.976H377.616L385.008 244.936H378.992V248.52H375.024V241.192H389.52V244.936Z" fill="#E2001A"/>
<path d="M371.239 265.736L366.663 269.256V259.432H371.239V265.736Z" fill="#E2001A"/>
<path d="M362.856 263.976H349V260.232L357.512 250.344C358.301 249.405 358.696 248.488 358.696 247.592C358.696 246.739 358.451 246.056 357.96 245.544C357.491 245.011 356.819 244.744 355.944 244.744C355.155 244.744 354.493 244.979 353.96 245.448C353.427 245.896 353.16 246.632 353.16 247.656H349C349 245.629 349.651 244.019 350.952 242.824C352.275 241.608 353.939 241 355.944 241C357.992 241 359.656 241.597 360.936 242.792C362.216 243.987 362.856 245.597 362.856 247.624C362.856 248.648 362.675 249.512 362.312 250.216C361.949 250.92 361.32 251.795 360.424 252.84L354.056 260.232H362.856V263.976Z" fill="#E2001A"/>
<path d="M426.413 309.567H424.321V315.209H422.944V309.567H420.771V308.365H426.413V309.567Z" fill="#666666"/>
<path d="M416.16 315.209H414.77V308.365H416.16V315.209ZM420.628 315.209H418.941L416.173 311.646L418.779 308.365H420.425L417.699 311.578L420.628 315.209Z" fill="#666666"/>
<path d="M412.618 315.209H411.268V314.588C411.016 314.84 410.751 315.02 410.472 315.128C410.202 315.236 409.86 315.29 409.446 315.29C408.636 315.29 408.024 315.083 407.61 314.669C407.25 314.291 407.07 313.801 407.07 313.198C407.07 312.604 407.273 312.127 407.678 311.767C408.092 311.407 408.681 311.227 409.446 311.227H411.241V310.741C411.241 310.3 411.124 309.976 410.89 309.769C410.656 309.562 410.274 309.459 409.743 309.459C409.383 309.459 409.091 309.513 408.866 309.621C408.65 309.72 408.443 309.89 408.245 310.133L407.354 309.283C407.669 308.914 408.006 308.658 408.366 308.514C408.735 308.361 409.212 308.284 409.797 308.284C411.678 308.284 412.618 309.067 412.618 310.633V315.209ZM411.241 312.739V312.185H409.662C408.825 312.185 408.407 312.514 408.407 313.171C408.407 313.819 408.839 314.142 409.702 314.142C410.251 314.142 410.665 314.012 410.944 313.751C411.142 313.562 411.241 313.225 411.241 312.739Z" fill="#666666"/>
<path d="M405.725 311.78C405.725 313.193 405.468 314.16 404.955 314.682C404.551 315.087 403.997 315.29 403.295 315.29C402.53 315.29 401.932 315.029 401.5 314.507V317.976H400.123V308.365H401.473V309.094C401.923 308.554 402.526 308.284 403.282 308.284C403.993 308.284 404.551 308.487 404.955 308.892C405.468 309.414 405.725 310.376 405.725 311.78ZM404.294 312.658C404.33 312.415 404.348 312.122 404.348 311.78C404.348 311.438 404.33 311.146 404.294 310.903C404.267 310.66 404.204 310.426 404.105 310.201C404.015 309.976 403.871 309.805 403.673 309.688C403.475 309.571 403.228 309.513 402.931 309.513C402.625 309.513 402.373 309.571 402.175 309.688C401.977 309.805 401.828 309.976 401.729 310.201C401.639 310.426 401.576 310.66 401.54 310.903C401.513 311.146 401.5 311.438 401.5 311.78C401.5 312.122 401.513 312.415 401.54 312.658C401.576 312.901 401.639 313.139 401.729 313.373C401.828 313.598 401.977 313.769 402.175 313.886C402.382 314.003 402.634 314.061 402.931 314.061C403.228 314.061 403.475 314.003 403.673 313.886C403.871 313.769 404.015 313.598 404.105 313.373C404.204 313.139 404.267 312.901 404.294 312.658Z" fill="#666666"/>
<path d="M398.876 309.567H396.783V315.209H395.407V309.567H393.233V308.365H398.876V309.567Z" fill="#666666"/>
<path d="M387.993 305.585C387.966 306.215 387.759 306.678 387.372 306.975C386.994 307.263 386.508 307.407 385.915 307.407C385.321 307.407 384.835 307.263 384.457 306.975C384.079 306.678 383.872 306.215 383.836 305.585H384.929C384.983 306.197 385.312 306.503 385.915 306.503C386.517 306.503 386.846 306.197 386.9 305.585H387.993ZM388.749 315.209H387.372V310.498L384.443 315.209H383.066V308.365H384.443V313.009L387.372 308.365H388.749V315.209Z" fill="#666666"/>
<path d="M380.878 315.209H379.501V310.498L376.572 315.209H375.195V308.365H376.572V313.009L379.501 308.365H380.878V315.209Z" fill="#666666"/>
<path d="M373.005 315.209H371.628V312.294H368.901V315.209H367.524V308.365H368.901V311.092H371.628V308.365H373.005V315.209Z" fill="#666666"/>
<path d="M365.621 313.279C365.621 313.873 365.437 314.345 365.068 314.696C364.699 315.038 364.195 315.209 363.556 315.209H360.168V308.365H363.448C364.078 308.365 364.577 308.532 364.946 308.865C365.324 309.198 365.513 309.643 365.513 310.201C365.513 310.885 365.194 311.376 364.555 311.673C365.266 311.997 365.621 312.532 365.621 313.279ZM364.163 310.296C364.163 310.026 364.074 309.819 363.894 309.675C363.723 309.522 363.475 309.445 363.151 309.445H361.531V311.173H363.151C363.826 311.173 364.163 310.881 364.163 310.296ZM364.271 313.184C364.271 312.887 364.177 312.658 363.988 312.496C363.808 312.325 363.556 312.24 363.232 312.24H361.531V314.129H363.232C363.556 314.129 363.808 314.044 363.988 313.873C364.177 313.702 364.271 313.472 364.271 313.184Z" fill="#666666"/>
<path d="M358.045 315.209H356.695V314.588C356.443 314.84 356.178 315.02 355.899 315.128C355.629 315.236 355.287 315.29 354.873 315.29C354.063 315.29 353.451 315.083 353.037 314.669C352.677 314.291 352.497 313.801 352.497 313.198C352.497 312.604 352.7 312.127 353.104 311.767C353.518 311.407 354.108 311.227 354.873 311.227H356.668V310.741C356.668 310.3 356.551 309.976 356.317 309.769C356.083 309.562 355.701 309.459 355.17 309.459C354.81 309.459 354.517 309.513 354.292 309.621C354.076 309.72 353.869 309.89 353.671 310.133L352.781 309.283C353.095 308.914 353.433 308.658 353.793 308.514C354.162 308.361 354.639 308.284 355.224 308.284C357.105 308.284 358.045 309.067 358.045 310.633V315.209ZM356.668 312.739V312.185H355.089C354.252 312.185 353.833 312.514 353.833 313.171C353.833 313.819 354.265 314.142 355.129 314.142C355.678 314.142 356.092 314.012 356.371 313.751C356.569 313.562 356.668 313.225 356.668 312.739Z" fill="#666666"/>
<path d="M351.152 311.78C351.152 313.193 350.895 314.16 350.382 314.682C349.977 315.087 349.424 315.29 348.722 315.29C347.957 315.29 347.359 315.029 346.927 314.507V317.976H345.55V308.365H346.9V309.094C347.35 308.554 347.953 308.284 348.708 308.284C349.419 308.284 349.977 308.487 350.382 308.892C350.895 309.414 351.152 310.376 351.152 311.78ZM349.721 312.658C349.757 312.415 349.775 312.122 349.775 311.78C349.775 311.438 349.757 311.146 349.721 310.903C349.694 310.66 349.631 310.426 349.532 310.201C349.442 309.976 349.298 309.805 349.1 309.688C348.902 309.571 348.654 309.513 348.357 309.513C348.052 309.513 347.8 309.571 347.602 309.688C347.404 309.805 347.255 309.976 347.156 310.201C347.066 310.426 347.003 310.66 346.967 310.903C346.94 311.146 346.927 311.438 346.927 311.78C346.927 312.122 346.94 312.415 346.967 312.658C347.003 312.901 347.066 313.139 347.156 313.373C347.255 313.598 347.404 313.769 347.602 313.886C347.809 314.003 348.061 314.061 348.357 314.061C348.654 314.061 348.902 314.003 349.1 313.886C349.298 313.769 349.442 313.598 349.532 313.373C349.631 313.139 349.694 312.901 349.721 312.658Z" fill="#666666"/>
<path d="M344.302 309.567H342.21V315.209H340.833V309.567H338.66V308.365H344.302V309.567Z" fill="#666666"/>
<path d="M446.356 294.084C446.005 294.435 445.663 294.682 445.33 294.826C444.997 294.97 444.592 295.042 444.115 295.042C443.143 295.042 442.387 294.736 441.847 294.124C441.316 293.503 441.051 292.631 441.051 291.506C441.051 290.417 441.321 289.566 441.861 288.955C442.401 288.343 443.152 288.037 444.115 288.037C444.592 288.037 444.992 288.113 445.316 288.266C445.64 288.41 445.987 288.658 446.356 289.009L445.438 289.899C445.204 289.665 444.988 289.499 444.79 289.4C444.601 289.292 444.371 289.238 444.101 289.238C443.597 289.238 443.206 289.395 442.927 289.71C442.648 290.016 442.486 290.439 442.441 290.979H444.884V291.951H442.428C442.464 292.527 442.617 292.986 442.887 293.328C443.166 293.67 443.57 293.841 444.101 293.841C444.38 293.841 444.614 293.791 444.803 293.692C444.992 293.584 445.204 293.413 445.438 293.18L446.356 294.084Z" fill="#666666"/>
<path d="M439.279 294.961H437.929V294.34C437.677 294.592 437.412 294.772 437.133 294.88C436.863 294.988 436.521 295.042 436.107 295.042C435.297 295.042 434.685 294.835 434.271 294.421C433.911 294.043 433.731 293.553 433.731 292.95C433.731 292.356 433.934 291.879 434.339 291.519C434.753 291.159 435.342 290.979 436.107 290.979H437.902V290.493C437.902 290.052 437.785 289.728 437.551 289.521C437.318 289.314 436.935 289.211 436.404 289.211C436.044 289.211 435.752 289.265 435.527 289.373C435.311 289.472 435.104 289.643 434.906 289.886L434.015 289.036C434.33 288.667 434.667 288.41 435.027 288.266C435.396 288.113 435.873 288.037 436.458 288.037C438.339 288.037 439.279 288.82 439.279 290.385V294.961ZM437.902 292.491V291.938H436.323C435.486 291.938 435.068 292.266 435.068 292.923C435.068 293.571 435.5 293.895 436.364 293.895C436.913 293.895 437.327 293.764 437.605 293.503C437.803 293.314 437.902 292.977 437.902 292.491Z" fill="#666666"/>
<path d="M428.503 289.319V290.412C428.503 291.717 428.287 292.833 427.855 293.76H430.433V289.319H428.503ZM427.193 288.118H431.81V293.76H432.755V296.716H431.432V294.961H426.991V296.716H425.682V293.76H426.411C426.672 293.247 426.865 292.712 426.991 292.154C427.126 291.587 427.193 290.822 427.193 289.859V288.118Z" fill="#666666"/>
<path d="M424.449 294.961H423.099V294.34C422.847 294.592 422.582 294.772 422.303 294.88C422.033 294.988 421.691 295.042 421.277 295.042C420.467 295.042 419.855 294.835 419.441 294.421C419.081 294.043 418.901 293.553 418.901 292.95C418.901 292.356 419.104 291.879 419.509 291.519C419.923 291.159 420.512 290.979 421.277 290.979H423.072V290.493C423.072 290.052 422.955 289.728 422.721 289.521C422.487 289.314 422.105 289.211 421.574 289.211C421.214 289.211 420.922 289.265 420.697 289.373C420.481 289.472 420.274 289.643 420.076 289.886L419.185 289.036C419.5 288.667 419.837 288.41 420.197 288.266C420.566 288.113 421.043 288.037 421.628 288.037C423.509 288.037 424.449 288.82 424.449 290.385V294.961ZM423.072 292.491V291.938H421.493C420.656 291.938 420.238 292.266 420.238 292.923C420.238 293.571 420.67 293.895 421.534 293.895C422.082 293.895 422.496 293.764 422.775 293.503C422.973 293.314 423.072 292.977 423.072 292.491Z" fill="#666666"/>
<path d="M417.218 294.961H415.841V289.319H413.857V291.303C413.857 292.014 413.808 292.613 413.709 293.099C413.61 293.585 413.461 293.962 413.263 294.232C413.065 294.493 412.836 294.682 412.575 294.799C412.323 294.907 412.021 294.961 411.67 294.961H411.022V293.747H411.238C411.382 293.747 411.504 293.738 411.603 293.72C411.702 293.693 411.814 293.63 411.94 293.531C412.075 293.423 412.179 293.279 412.251 293.099C412.332 292.91 412.399 292.635 412.453 292.275C412.507 291.906 412.534 291.47 412.534 290.966V288.118H417.218V294.961Z" fill="#666666"/>
<path d="M406.359 294.961H404.969V288.118H406.359V294.961ZM410.827 294.961H409.14L406.373 291.398L408.978 288.118H410.625L407.898 291.33L410.827 294.961Z" fill="#666666"/>
<path d="M403.344 294.07C402.732 294.718 401.981 295.042 401.09 295.042C400.685 295.042 400.307 294.979 399.956 294.853C399.605 294.718 399.281 294.52 398.984 294.259C398.696 293.989 398.467 293.625 398.296 293.166C398.125 292.698 398.039 292.154 398.039 291.533C398.039 290.912 398.125 290.372 398.296 289.913C398.467 289.445 398.696 289.08 398.984 288.82C399.281 288.55 399.605 288.352 399.956 288.226C400.307 288.1 400.685 288.037 401.09 288.037C401.99 288.037 402.741 288.356 403.344 288.995L402.399 289.913C402.183 289.679 401.976 289.512 401.778 289.413C401.589 289.314 401.36 289.265 401.09 289.265C400.55 289.265 400.127 289.467 399.821 289.872C399.551 290.214 399.416 290.768 399.416 291.533C399.416 292.307 399.551 292.865 399.821 293.207C400.127 293.611 400.55 293.814 401.09 293.814C401.36 293.814 401.589 293.764 401.778 293.665C401.976 293.566 402.183 293.4 402.399 293.166L403.344 294.07Z" fill="#666666"/>
<path d="M393.024 294.961H391.675V294.34C391.423 294.592 391.157 294.772 390.878 294.88C390.608 294.988 390.266 295.042 389.852 295.042C389.042 295.042 388.43 294.835 388.016 294.421C387.657 294.043 387.477 293.553 387.477 292.95C387.477 292.356 387.679 291.879 388.084 291.519C388.498 291.159 389.087 290.979 389.852 290.979H391.648V290.493C391.648 290.052 391.531 289.728 391.297 289.521C391.063 289.314 390.68 289.211 390.149 289.211C389.789 289.211 389.497 289.265 389.272 289.373C389.056 289.472 388.849 289.643 388.651 289.886L387.76 289.036C388.075 288.667 388.412 288.41 388.772 288.266C389.141 288.113 389.618 288.037 390.203 288.037C392.084 288.037 393.024 288.82 393.024 290.385V294.961ZM391.648 292.491V291.938H390.068C389.231 291.938 388.813 292.266 388.813 292.923C388.813 293.571 389.245 293.895 390.109 293.895C390.658 293.895 391.072 293.764 391.351 293.503C391.549 293.314 391.648 292.977 391.648 292.491Z" fill="#666666"/>
<path d="M385.792 294.961H384.416V289.319H382.431V291.303C382.431 292.014 382.382 292.613 382.283 293.099C382.184 293.585 382.035 293.962 381.837 294.232C381.639 294.493 381.41 294.682 381.149 294.799C380.897 294.907 380.596 294.961 380.245 294.961H379.597V293.747H379.813C379.957 293.747 380.078 293.738 380.177 293.72C380.276 293.693 380.389 293.63 380.515 293.531C380.65 293.423 380.753 293.279 380.825 293.099C380.906 292.91 380.974 292.635 381.028 292.275C381.082 291.906 381.108 291.47 381.108 290.966V288.118H385.792V294.961Z" fill="#666666"/>
<path d="M378.306 294.961H376.929V288.118H378.306V294.961ZM378.346 286.768H376.889V285.31H378.346V286.768Z" fill="#666666"/>
<path d="M375.681 289.319H373.589V294.961H372.212V289.319H370.039V288.118H375.681V289.319Z" fill="#666666"/>
<path d="M365.555 294.961H364.178V290.25L361.249 294.961H359.872V288.118H361.249V292.761L364.178 288.118H365.555V294.961Z" fill="#666666"/>
<path d="M358.275 294.07C357.663 294.718 356.911 295.042 356.02 295.042C355.615 295.042 355.237 294.979 354.886 294.853C354.536 294.718 354.212 294.52 353.915 294.259C353.627 293.989 353.397 293.625 353.226 293.166C353.055 292.698 352.97 292.154 352.97 291.533C352.97 290.912 353.055 290.372 353.226 289.913C353.397 289.445 353.627 289.08 353.915 288.82C354.212 288.55 354.536 288.352 354.886 288.226C355.237 288.1 355.615 288.037 356.02 288.037C356.92 288.037 357.672 288.356 358.275 288.995L357.33 289.913C357.114 289.679 356.907 289.512 356.709 289.413C356.52 289.314 356.29 289.265 356.02 289.265C355.48 289.265 355.057 289.467 354.752 289.872C354.482 290.214 354.347 290.768 354.347 291.533C354.347 292.307 354.482 292.865 354.752 293.207C355.057 293.611 355.48 293.814 356.02 293.814C356.29 293.814 356.52 293.764 356.709 293.665C356.907 293.566 357.114 293.4 357.33 293.166L358.275 294.07Z" fill="#666666"/>
<path d="M351.196 294.961H349.846V294.34C349.594 294.592 349.329 294.772 349.05 294.88C348.78 294.988 348.438 295.042 348.024 295.042C347.214 295.042 346.602 294.835 346.188 294.421C345.828 294.043 345.648 293.553 345.648 292.95C345.648 292.356 345.851 291.879 346.256 291.519C346.67 291.159 347.259 290.979 348.024 290.979H349.819V290.493C349.819 290.052 349.702 289.728 349.468 289.521C349.235 289.314 348.852 289.211 348.321 289.211C347.961 289.211 347.669 289.265 347.444 289.373C347.228 289.472 347.021 289.643 346.823 289.886L345.932 289.036C346.247 288.667 346.584 288.41 346.944 288.266C347.313 288.113 347.79 288.037 348.375 288.037C350.256 288.037 351.196 288.82 351.196 290.385V294.961ZM349.819 292.491V291.938H348.24C347.403 291.938 346.985 292.266 346.985 292.923C346.985 293.571 347.417 293.895 348.281 293.895C348.83 293.895 349.244 293.764 349.522 293.503C349.72 293.314 349.819 292.977 349.819 292.491Z" fill="#666666"/>
<path d="M343.962 294.961H342.586V290.574L341.006 293.706H340.142L338.536 290.574V294.961H337.159V288.118H338.523L340.574 292.194L342.613 288.118H343.962V294.961Z" fill="#666666"/>
<path d="M328.8 293.207C328.8 293.774 328.62 294.224 328.26 294.556C327.9 294.889 327.45 295.056 326.91 295.056C326.37 295.056 325.92 294.889 325.56 294.556C325.2 294.224 325.02 293.774 325.02 293.207V291.843C325.02 291.276 325.2 290.826 325.56 290.493C325.92 290.161 326.37 289.994 326.91 289.994C327.45 289.994 327.9 290.161 328.26 290.493C328.62 290.826 328.8 291.276 328.8 291.843V293.207ZM322.78 288.469C322.78 289.036 322.6 289.486 322.24 289.819C321.88 290.143 321.43 290.305 320.89 290.305C320.35 290.305 319.9 290.143 319.54 289.819C319.18 289.486 319 289.036 319 288.469V287.105C319 286.538 319.18 286.089 319.54 285.756C319.9 285.423 320.35 285.256 320.89 285.256C321.43 285.256 321.88 285.423 322.24 285.756C322.6 286.089 322.78 286.538 322.78 287.105V288.469ZM326.708 285.351L322.186 294.961H321.079L325.614 285.351H326.708ZM327.76 293.166V291.884C327.76 291.236 327.477 290.912 326.91 290.912C326.343 290.912 326.06 291.236 326.06 291.884V293.166C326.06 293.814 326.343 294.138 326.91 294.138C327.477 294.138 327.76 293.814 327.76 293.166ZM321.74 288.428V287.146C321.74 286.498 321.457 286.174 320.89 286.174C320.323 286.174 320.039 286.498 320.039 287.146V288.428C320.039 289.067 320.323 289.387 320.89 289.387C321.457 289.387 321.74 289.067 321.74 288.428Z" fill="#666666"/>
</svg>
