<svg width="41" height="56" viewBox="0 0 41 56" fill="none" xmlns="http://www.w3.org/2000/svg">
<path d="M0 0H37.7801C39.158 0 40.2758 1.1178 40.2758 2.49567V53.5043C40.2758 54.8822 39.158 56 37.7801 56H2.49567C1.1178 56 0 54.8822 0 53.5043V0Z" fill="#0D316E"/>
<path d="M3.34023 49.4007V50.1134H4.22547V50.666H3.34023V51.8388H2.68506V48.848H4.28799V49.4007H3.34023Z" fill="white"/>
<path d="M6.30333 51.8388L5.4706 50.4234V51.8388H4.81543V48.848H5.88822C6.51589 48.848 6.91599 49.2256 6.91599 49.7408C6.91599 50.1884 6.64092 50.4835 6.24831 50.591L7.04353 51.8413H6.30083L6.30333 51.8388ZM5.88822 49.4007H5.4706V50.1234H5.88822C6.11828 50.1234 6.26082 49.9758 6.26082 49.7408C6.26082 49.5332 6.09827 49.4007 5.88822 49.4007Z" fill="white"/>
<path d="M8.76155 51.8862C7.8338 51.8862 7.22363 51.1811 7.22363 50.3283C7.22363 49.4756 7.8413 48.7954 8.76905 48.7954C9.6968 48.7954 10.307 49.4406 10.307 50.3283C10.307 51.2161 9.68929 51.8862 8.76155 51.8862ZM8.76905 49.3706C8.25641 49.3706 7.89881 49.8307 7.89881 50.3283C7.89881 50.8785 8.29142 51.3111 8.75904 51.3111C9.30169 51.3111 9.62928 50.831 9.62928 50.3283C9.62928 49.8257 9.28919 49.3706 8.76905 49.3706Z" fill="white"/>
<path d="M13.108 51.8388V50.1134C13.108 50.0133 13.1155 49.9208 13.1205 49.9083C13.1155 49.9208 13.093 49.9783 13.068 50.0233L12.4003 51.2487H12.1503L11.4701 50.0233C11.4451 49.9833 11.4201 49.9258 11.4176 49.9083C11.4176 49.9208 11.4301 50.0133 11.4301 50.1134V51.8388H10.7749V48.848H11.4176L12.2253 50.3059C12.2553 50.3609 12.2803 50.4309 12.2828 50.4409C12.2828 50.4334 12.3078 50.3584 12.3353 50.3059L13.098 48.848H13.7657V51.8388H13.1105H13.108Z" fill="white"/>
<path d="M16.8837 50.3833L16.191 51.2836H17.1412V51.8362H15.0757L16.3335 50.1333C16.4561 49.9707 16.5086 49.8632 16.5086 49.6581C16.5086 49.4756 16.386 49.3256 16.1885 49.3256C15.9759 49.3256 15.7709 49.4081 15.7709 49.7432V49.8082H15.1557V49.7432C15.1557 49.098 15.6558 48.7904 16.1885 48.7904C16.7211 48.7904 17.1637 49.0805 17.1637 49.6556C17.1637 49.9607 17.0412 50.1658 16.8812 50.3783L16.8837 50.3833Z" fill="white"/>
<path d="M18.4943 51.8863C17.8291 51.8863 17.374 51.4262 17.374 50.8285C17.374 49.9483 18.0417 49.1731 18.5919 48.7305L18.9845 49.1906C18.6944 49.4082 18.3368 49.7683 18.2343 50.0233C18.4143 49.8833 18.5443 49.8608 18.7644 49.8608C19.2795 49.8608 19.6746 50.3009 19.6746 50.831C19.6746 51.4487 19.187 51.8888 18.4943 51.8888V51.8863ZM18.5218 50.3609C18.2318 50.3609 18.0292 50.566 18.0292 50.841C18.0292 51.1411 18.2218 51.3512 18.5218 51.3512C18.8219 51.3512 19.017 51.1386 19.017 50.841C19.017 50.561 18.7994 50.3609 18.5218 50.3609Z" fill="white"/>
<path d="M22.0525 49.4007V51.8388H21.3973V49.4007H20.8047V48.848H22.6327V49.4007H22.055H22.0525Z" fill="white"/>
<path d="M24.2908 51.8862C23.3631 51.8862 22.7529 51.1811 22.7529 50.3283C22.7529 49.4756 23.3706 48.7954 24.2983 48.7954C25.2261 48.7954 25.8363 49.4406 25.8363 50.3283C25.8363 51.2161 25.2186 51.8862 24.2908 51.8862ZM24.2983 49.3706C23.7857 49.3706 23.4281 49.8307 23.4281 50.3283C23.4281 50.8785 23.8207 51.3111 24.2883 51.3111C24.831 51.3111 25.1586 50.831 25.1586 50.3283C25.1586 49.8257 24.8185 49.3706 24.2983 49.3706Z" fill="white"/>
<path d="M28.8471 51.1086V51.8388H28.1919V51.1086H26.9741V50.7235L28.322 48.8455H28.8471V50.6159H29.1922V51.1061H28.8471V51.1086ZM28.1919 49.7282L27.5593 50.6184H28.1919V49.7282Z" fill="white"/>
<path d="M31.2651 51.1086V51.8388H30.6099V51.1086H29.3921V50.7235L30.74 48.8455H31.2651V50.6159H31.6102V51.1061H31.2651V51.1086ZM30.6099 49.7282L29.9772 50.6184H30.6099V49.7282Z" fill="white"/>
<path d="M34.671 51.8388L33.7983 50.6135L33.6308 50.7985V51.8388H32.9756V48.848H33.6308V49.9333L34.5985 48.848H35.4087L34.2459 50.1234L35.4688 51.8413H34.6735L34.671 51.8388Z" fill="white"/>
<path d="M36.9494 51.8862C36.0592 51.8862 35.4165 51.2511 35.4165 50.3283C35.4165 49.4056 36.1042 48.7954 36.9369 48.7954C37.4646 48.7954 37.8296 49.0005 38.0922 49.283L37.6871 49.6806C37.5021 49.4781 37.2395 49.3706 36.9369 49.3706C36.4368 49.3706 36.0642 49.8132 36.0642 50.3283C36.0642 50.8435 36.4368 51.3111 36.9494 51.3111C37.3095 51.3111 37.5721 51.1686 37.6871 50.881H36.9244V50.3283H38.4123C38.4123 51.3161 37.7646 51.8862 36.9494 51.8862Z" fill="white"/>
<path d="M13.7635 8.05964C13.0708 8.05964 12.5631 7.82708 12.083 7.48949L12.6532 6.78931C12.9482 7.00186 13.3734 7.18191 13.786 7.18191C14.2861 7.18191 14.4236 7.02436 14.4236 6.75179C14.4236 6.29417 13.5109 6.13913 13.0933 5.92657C12.5931 5.67651 12.1955 5.38893 12.1955 4.66374C12.1955 3.72599 13.0933 3.34338 13.9785 3.34338C14.4511 3.34338 15.0213 3.46341 15.4264 3.73598L14.9338 4.48119C14.7137 4.33115 14.3436 4.21862 13.981 4.21862C13.4734 4.21862 13.2958 4.48119 13.2958 4.66374C13.2958 5.07635 13.9335 5.20138 14.5162 5.43144C15.0038 5.62399 15.5239 5.93658 15.5239 6.68678C15.5239 7.55201 14.8512 8.05714 13.7685 8.05714L13.7635 8.05964Z" fill="white"/>
<path d="M16.9995 7.98218V3.41846H18.0973V7.98218H16.9995Z" fill="white"/>
<path d="M21.1106 7.13946H23.3612V7.98468H19.4102L21.7133 4.26368H19.6552V3.41846H23.4137L21.1081 7.13946H21.1106Z" fill="white"/>
<path d="M24.8541 7.98218V3.41846H27.7673V4.26368H25.9494V5.33397H27.6373V6.1792H25.9494V7.14195H27.8699V7.98718H24.8516L24.8541 7.98218Z" fill="white"/>
<path d="M11.4116 45.0766V12.0828H18.6436V38.975H30.3942V45.0766H11.4116Z" fill="white"/>
</svg>
