<svg width="32" height="46" viewBox="0 0 32 46" fill="none" xmlns="http://www.w3.org/2000/svg">
<path fill-rule="evenodd" clip-rule="evenodd" d="M0.195848 9.30342C0.195848 9.30342 0.373835 9.10833 0.783018 9.06457C1.2968 8.71593 2.32438 8.38565 2.83816 8.03701C3.35195 7.87186 3.35194 7.68838 3.51708 7.52324C3.68223 7.3581 3.68223 6.8443 3.68223 6.66081C3.68223 6.47731 4.19602 6.14704 4.19602 6.14704C4.19602 6.14704 4.70979 5.46809 5.05843 5.11945C5.40707 4.77082 5.40708 4.44054 5.40708 4.44054C5.05844 3.57812 5.05843 2.56891 5.05843 2.56891C4.89329 2.22027 5.05843 1.02756 5.05843 1.02756C5.05843 1.02756 5.05844 0.862411 5.22358 0.862411C5.38873 0.862411 6.086 1.88997 6.76493 2.73404C7.44386 3.59646 7.62734 3.41298 7.62734 3.41298C7.79249 3.06434 7.62734 1.02756 7.62734 0.678918C7.62734 0.33028 7.7925 0 8.14113 0C8.30628 0 8.65491 0.678922 8.82005 1.02756C8.9852 1.3762 9.49897 2.05512 9.68246 2.40376C9.86596 2.7524 10.1963 3.26618 10.5449 3.43132C10.8935 3.77996 11.0587 3.94511 11.0587 3.94511L10.8935 4.11024C10.8935 4.11024 10.8935 4.11024 11.0587 4.11024C11.2238 4.27538 11.4073 4.45888 11.4073 4.45888L11.0587 4.62403C11.4073 4.62403 11.4073 4.78918 11.4073 4.78918H11.2422C11.4073 4.95432 11.5908 4.95433 11.5908 4.95433L11.4257 5.11945C11.5908 5.11945 11.7743 5.11945 11.7743 5.11945C11.7743 5.2846 11.4257 5.2846 11.4257 5.2846L11.7743 5.44975C11.6091 5.44975 11.4257 5.44975 11.4257 5.44975L11.5908 5.6149H11.4257L11.5908 5.78005C11.5908 5.78005 11.756 6.12868 12.2697 6.45897C12.7835 6.80761 13.1322 7.32138 13.1322 7.32138C13.6459 7.83516 13.8111 8.18381 13.6459 8.00032C13.4808 7.83518 13.4808 8.00032 13.4808 8.00032L13.6459 8.34896C13.6459 8.34896 14.3249 9.02788 14.5084 9.37652C14.6735 9.72516 14.5083 10.2389 15.1873 10.9179C15.8662 11.7803 15.8662 12.1106 15.8662 12.1106C15.8662 12.1106 16.2149 13.4868 16.2149 14.496C16.2149 14.496 16.2149 14.496 16.2149 14.6611C16.2149 14.6611 16.2148 14.8263 16.38 15.0098C16.38 15.0098 17.2424 18.0925 17.2424 18.7714C17.2424 19.2852 18.6186 20.8265 19.6278 22.1844C19.9765 22.6981 20.4903 23.5606 21.004 24.9184C21.004 24.9184 21.1692 25.4322 21.1692 25.5974C21.8481 27.3039 22.5454 28.3314 22.7105 29.0103C23.0592 29.6893 23.3894 31.7444 24.417 32.9371C24.9308 33.4509 25.2794 34.6436 25.4446 35.6712C25.6097 36.5336 25.7932 37.2125 25.7932 37.8914C25.7932 39.2676 26.6556 40.4603 26.9859 41.1393C27.1511 41.653 27.1511 41.8182 27.1511 42.0017C26.9859 42.1668 26.8024 42.1668 26.8024 42.1668C26.4538 42.1668 26.4538 42.332 26.4538 42.332C26.4538 42.332 27.4814 42.4971 27.9951 42.332C28.8576 42.332 30.7292 42.6806 31.5916 43.1944C32.2705 43.543 32.1054 43.7082 31.0778 44.0568C30.7292 44.222 30.0503 44.222 29.5365 44.5706C28.8576 44.9192 26.4538 44.7357 24.3987 44.7357C23.3711 44.7357 21.1508 43.7082 20.637 43.3595C20.1233 43.0109 20.637 42.332 20.637 42.332C20.2884 42.332 19.7746 42.332 18.5819 42.6806C18.4168 42.6806 18.0681 42.6806 17.7195 42.8458C17.5544 43.0109 17.2057 43.0109 17.0406 43.0109C16.6919 43.0109 16.6919 43.0109 16.5268 43.0109C16.3616 43.0109 16.1781 43.0109 16.013 43.0109C15.6644 42.8457 15.4992 42.6623 15.4992 42.6623H15.3341C15.3341 42.4971 15.3341 42.1485 15.3341 42.1485C15.4992 41.9833 14.9854 42.1485 14.3065 42.3136C14.1414 42.3136 13.9579 42.4788 13.6276 42.4788C13.6276 42.4788 13.4625 42.4788 13.279 42.6439C13.1138 42.6439 12.9303 42.6439 12.7652 42.6439C12.6 42.6439 12.4165 42.6439 12.4165 42.6439C12.4165 42.6439 12.4165 42.8091 12.2514 43.3228C12.2514 43.6715 12.2514 43.6715 12.2514 43.8366C12.2514 44.0018 12.2514 44.3504 11.9028 44.699C11.7376 44.8642 11.7376 45.0477 11.5541 45.0477C11.2055 45.2128 11.0403 45.2128 10.8752 45.2128C10.71 45.2128 10.71 45.2128 10.5266 45.2128C10.3614 45.2128 10.1779 45.378 9.66412 45.378C9.49897 45.378 9.31549 45.378 9.15035 45.378C8.98521 45.378 8.63655 45.378 8.47141 45.378C8.30627 45.378 8.30626 45.378 8.30626 45.2128C8.30626 45.0477 8.14112 44.8642 8.30626 44.699C8.6549 44.0201 8.47142 43.3228 9.16869 43.1577C9.33384 43.1577 9.68247 42.9925 9.84761 42.6439C10.1962 42.1301 10.5266 41.4512 10.5266 41.1026C10.5266 40.9374 10.6917 40.5888 10.6917 40.2401C10.8568 39.7264 10.6917 39.5612 10.6917 39.2126C10.6917 38.8639 10.6917 38.8639 10.8568 38.6988C10.8568 38.5336 11.022 38.5337 11.022 38.5337C11.022 38.5337 11.1871 37.5061 10.8568 36.4785C10.5082 35.2858 10.8568 35.6161 10.3431 34.6069C10.1779 34.2583 9.99442 33.928 9.99442 33.928C9.99442 33.928 9.48063 34.7904 9.48063 35.6345C9.48063 36.3134 9.132 37.0107 8.96686 37.6896C8.96686 38.2034 8.80171 38.7171 8.80171 38.8823V39.0474C8.80171 39.0474 9.15035 39.3961 8.96686 39.7264C8.80171 40.075 8.45306 39.8915 8.45306 40.075C8.28792 40.4236 8.28792 40.4236 8.10442 40.7539C8.10442 40.9191 8.10442 41.2677 8.10442 41.4329C7.93928 41.7815 7.75578 41.9466 7.75578 42.1118C7.59064 42.4604 7.59065 42.4604 7.59065 42.7907C7.42551 43.3045 7.242 43.4696 6.91171 43.4696C6.91171 43.4696 6.74658 43.6348 6.39795 43.6348C5.88416 43.7999 5.53551 43.6348 5.37036 43.6348C4.85658 43.6348 4.50794 43.7999 4.17765 43.6348C3.82902 43.6348 3.82903 43.4696 3.66389 43.2861H3.49874V43.121C3.49874 43.121 3.33359 43.121 3.49874 42.9559C3.66388 42.6072 3.66389 42.6072 3.84738 42.2769C4.01252 41.9283 4.36115 41.7631 4.5263 41.598C4.87494 41.4329 5.38872 41.2494 5.71901 40.9191C5.88415 40.7539 6.58144 39.0475 6.58144 38.5337C6.74658 37.8547 6.74656 37.5061 6.74656 37.1575C6.74656 36.9923 6.74656 36.4785 6.74656 35.7813C6.74656 35.4326 6.91171 34.9188 6.91171 34.4051C6.91171 33.0289 6.91171 31.5058 6.91171 30.9921C6.91171 30.6434 6.91171 29.6159 6.74656 28.6066C6.39793 27.4139 5.88415 26.2212 5.37036 25.7075C4.50794 24.845 4.34282 22.4596 5.02174 21.0834C5.53553 19.5421 5.88415 18.3494 5.53551 16.9732C5.53551 16.9732 5.53551 15.2667 5.70066 14.4043C5.8658 14.0556 5.86581 13.3767 5.86581 13.0281C6.03095 12.6794 5.70066 12.1656 5.70066 12.1656C5.70066 12.1656 5.18689 11.817 4.83825 12.1656C4.48961 12.3308 3.81069 12.3308 3.46205 12.5143C3.2969 12.5143 2.43447 12.3491 2.43447 12.3491C2.43447 12.3491 1.57205 12.184 1.57205 11.4867C1.7372 11.1381 1.9207 10.9729 2.08584 10.9729C1.40691 11.1381 0.709635 10.6243 0.544491 10.4591C0.379347 10.294 0.195848 10.1105 0.195848 10.1105C-0.2444 9.72656 0.195848 9.30342 0.195848 9.30342Z" fill="white"/>
</svg>
