<svg width="41" height="56" viewBox="0 0 41 56" fill="none" xmlns="http://www.w3.org/2000/svg">
<path d="M0 0H37.7801C39.158 0 40.2758 1.1178 40.2758 2.49567V53.5043C40.2758 54.8822 39.158 56 37.7801 56H2.49567C1.1178 56 0 54.8822 0 53.5043V0Z" fill="#AE1022"/>
<path d="M4.01162 49.3832V50.0959H4.89686V50.6486H4.01162V51.8189H3.35645V48.8306H4.95687V49.3832H4.01162Z" fill="white"/>
<path d="M6.97514 51.8189L6.14492 50.406V51.8189H5.48975V48.8306H6.56253C7.1877 48.8306 7.59031 49.2082 7.59031 49.7233C7.59031 50.1684 7.31523 50.4635 6.92263 50.571L7.71784 51.8189H6.97764H6.97514ZM6.56003 49.3832H6.14242V50.1034H6.56003C6.79009 50.1034 6.93263 49.9559 6.93263 49.7233C6.93263 49.5158 6.77009 49.3832 6.56003 49.3832Z" fill="white"/>
<path d="M9.43336 51.8664C8.50811 51.8664 7.89795 51.1612 7.89795 50.311C7.89795 49.4608 8.51562 48.7806 9.44086 48.7806C10.3661 48.7806 10.9763 49.4233 10.9763 50.311C10.9763 51.1987 10.3586 51.8664 9.43336 51.8664ZM9.44086 49.3532C8.92823 49.3532 8.57313 49.8109 8.57313 50.311C8.57313 50.8586 8.96573 51.2938 9.43336 51.2938C9.9735 51.2938 10.3011 50.8136 10.3011 50.311C10.3011 49.8084 9.961 49.3532 9.44086 49.3532Z" fill="white"/>
<path d="M13.777 51.8189V50.0959C13.777 49.9984 13.7845 49.9034 13.7895 49.8909C13.7845 49.9034 13.762 49.9609 13.737 50.0059L13.0693 51.2312H12.8192L12.139 50.0059C12.114 49.9659 12.089 49.9084 12.0865 49.8909C12.0865 49.9034 12.099 49.9984 12.099 50.0959V51.8189H11.4438V48.8306H12.0865L12.8917 50.2885C12.9192 50.341 12.9443 50.411 12.9493 50.4235C12.9493 50.416 12.9743 50.341 13.0018 50.2885L13.762 48.8306H14.4296V51.8189H13.7745H13.777Z" fill="white"/>
<path d="M16.36 51.8189V49.6908C16.2174 49.8333 15.9924 49.8959 15.7373 49.9159V49.4332C16.0799 49.3882 16.335 49.2732 16.535 48.8306H17.0126V51.8189H16.3575H16.36Z" fill="white"/>
<path d="M17.9952 51.8189V49.6908C17.8527 49.8333 17.6276 49.8959 17.3726 49.9159V49.4332C17.7177 49.3882 17.9702 49.2732 18.1703 48.8306H18.6479V51.8189H17.9927H17.9952Z" fill="white"/>
<path d="M21.2386 49.3832V51.8189H20.5834V49.3832H19.9907V48.8306H21.8162V49.3832H21.2386Z" fill="white"/>
<path d="M23.4768 51.8664C22.5516 51.8664 21.9414 51.1612 21.9414 50.311C21.9414 49.4608 22.5591 48.7806 23.4843 48.7806C24.4096 48.7806 25.0197 49.4233 25.0197 50.311C25.0197 51.1987 24.4021 51.8664 23.4768 51.8664ZM23.4843 49.3532C22.9717 49.3532 22.6166 49.8109 22.6166 50.311C22.6166 50.8586 23.0092 51.2938 23.4768 51.2938C24.017 51.2938 24.3445 50.8136 24.3445 50.311C24.3445 49.8084 24.0045 49.3532 23.4843 49.3532Z" fill="white"/>
<path d="M28.0008 50.366L27.3081 51.2662H28.2584V51.8189H26.1953L27.4506 50.1209C27.5732 49.9584 27.6257 49.8509 27.6257 49.6458C27.6257 49.4658 27.5032 49.3132 27.3056 49.3132C27.0931 49.3132 26.888 49.3958 26.888 49.7308V49.7959H26.2728V49.7308C26.2728 49.0882 26.773 48.7806 27.3056 48.7806C27.8383 48.7806 28.2809 49.0707 28.2809 49.6433C28.2809 49.9509 28.1583 50.156 27.9983 50.3635L28.0008 50.366Z" fill="white"/>
<path d="M29.5535 51.8664C29.1659 51.8664 28.8083 51.6988 28.5957 51.5013L28.9483 51.0587C29.1208 51.2012 29.3359 51.2912 29.5535 51.2912C29.8235 51.2912 30.0611 51.0662 30.0611 50.7636C30.0611 50.4285 29.8185 50.261 29.5935 50.261C29.4184 50.261 29.2134 50.3685 29.0783 50.571L28.6982 50.4285L28.8608 48.8281H30.5012V49.3607H29.3559L29.2984 49.8884C29.4659 49.7583 29.6085 49.7283 29.831 49.7283C30.3462 49.7283 30.7163 50.1259 30.7163 50.7636C30.7163 51.4013 30.1886 51.8639 29.5535 51.8639V51.8664Z" fill="white"/>
<path d="M33.8498 51.8189L32.977 50.596L32.8095 50.7811V51.8214H32.1543V48.8331H32.8095V49.9184L33.7747 48.8331H34.5849L33.4221 50.1059L34.6425 51.8214H33.8473L33.8498 51.8189Z" fill="white"/>
<path d="M36.1276 51.8664C35.2398 51.8664 34.5972 51.2312 34.5972 50.311C34.5972 49.3908 35.2849 48.7806 36.1151 48.7806C36.6427 48.7806 37.0078 48.9856 37.2704 49.2682L36.8653 49.6658C36.6802 49.4658 36.4202 49.3557 36.1151 49.3557C35.6149 49.3557 35.2423 49.7984 35.2423 50.3135C35.2423 50.8286 35.6149 51.2963 36.1276 51.2963C36.4877 51.2963 36.7502 51.1537 36.8653 50.8661H36.1051V50.3135H37.5905C37.5905 51.2988 36.9428 51.8689 36.1301 51.8689L36.1276 51.8664Z" fill="white"/>
<path d="M13.766 8.05469C13.0733 8.05469 12.5631 7.82463 12.083 7.48704L12.6532 6.78685C12.9482 6.99941 13.3734 7.17945 13.786 7.17945C14.2886 7.17945 14.4236 7.02442 14.4236 6.74935C14.4236 6.29422 13.5109 6.13668 13.0908 5.92662C12.5881 5.67656 12.1905 5.38898 12.1905 4.66628C12.1905 3.73103 13.0908 3.34843 13.976 3.34843C14.4511 3.34843 15.0213 3.46596 15.4264 3.74103L14.9313 4.48373C14.7112 4.33369 14.3411 4.22117 13.976 4.22117C13.4684 4.22117 13.2883 4.48373 13.2883 4.66378C13.2883 5.07639 13.926 5.20143 14.5112 5.43149C14.9988 5.62404 15.5214 5.93663 15.5214 6.68683C15.5214 7.54706 14.8487 8.05469 13.7635 8.05469H13.766Z" fill="white"/>
<path d="M17.002 7.97973V3.42351H18.1022V7.97973H17.002Z" fill="white"/>
<path d="M21.1156 7.137H23.3687V7.97973H19.4126L21.7207 4.26623H19.6602V3.42351H23.4237L21.1156 7.137Z" fill="white"/>
<path d="M24.8565 7.97973V3.42351H27.7748V4.26623H25.9543V5.33402H27.6447V6.17675H25.9543V7.137H27.8773V7.97973H24.854H24.8565Z" fill="white"/>
<path d="M26.0925 45.0815V27.7219C26.0925 27.0442 26.1825 25.6888 26.1825 25.5513L25.4148 27.6769L21.7989 37.0794H18.4079L14.882 27.5868C14.6569 27.0442 14.2493 25.7789 14.1593 25.5538C14.1593 25.6888 14.2493 26.9092 14.2493 27.6343V45.084H8.05518V12.0827H13.9317L19.6283 25.7363C19.8083 26.279 20.2159 27.5893 20.306 27.7694C20.306 27.6794 20.7586 26.369 21.0286 25.6888L26.6351 12.0827H32.2867V45.084H26.0925V45.0815Z" fill="white"/>
</svg>
