<svg width="40" height="43" viewBox="0 0 40 43" fill="none" xmlns="http://www.w3.org/2000/svg">
<path d="M0.397564 4.04951C1.21284 3.63086 3.68071 3.23424 4.49599 3.23424C5.11296 3.23424 5.31126 3.23424 5.5316 2.81558C5.72991 2.39693 5.53162 0.964663 7.77914 0.56804C10.0267 0.149384 12.7149 -0.467584 14.5437 0.56804C15.359 0.986697 16.3946 1.38332 17.6286 3.8512C18.2456 5.28344 20.0965 6.51738 20.7134 8.78694L21.5287 10.2192C21.5287 10.2192 22.1457 10.8362 22.961 11.4531C23.5779 12.0701 24.6136 12.8854 24.6136 12.8854C24.6136 12.8854 25.8475 14.3176 26.8611 15.1329C27.8747 15.9482 28.5137 16.9838 28.9103 17.1821C29.329 17.3804 34.463 22.5145 36.2919 26.018C37.9445 29.1028 38.5394 32.5843 38.5394 33.6199C38.5394 34.6555 38.5394 34.6555 38.5394 34.6555C38.5394 34.6555 39.9716 36.0878 39.9716 36.7047C40.17 38.3573 39.3547 39.5692 36.6885 40.6049C35.8732 41.0235 33.207 41.2218 31.9731 41.2218C29.9239 41.2218 27.0373 42.0371 25.8034 42.4558C24.5695 42.8744 23.5559 42.8744 22.7186 42.4558C21.6829 41.8388 26.0017 40.6049 26.0017 40.6049C26.0017 40.6049 26.6187 39.9879 23.1372 40.6049C23.1372 40.6049 22.7186 40.6049 21.4846 40.8032C21.2863 41.0015 21.066 41.2218 20.2507 41.2218C19.4354 41.2218 19.0168 41.0235 19.0168 41.0235C18.3998 40.8252 18.3998 40.6049 19.0168 39.5913C19.2151 38.9743 20.2507 38.776 20.8677 38.5556C20.6694 38.5556 20.6694 38.5556 20.449 38.5556C20.0304 38.5556 19.2151 38.3573 19.2151 38.3573C18.7964 38.159 18.3998 37.9387 18.7964 37.1234C18.7964 36.7047 19.6117 36.0878 20.2287 36.0878L23.3135 35.2725C23.3135 35.2725 21.2643 33.6199 21.8813 31.1741C21.8813 31.1741 21.066 29.7418 20.0304 29.5215C18.5981 29.1028 18.3778 28.7062 18.3778 28.7062C18.3778 28.7062 17.9591 31.1741 17.7608 31.9894C17.5625 33.025 17.9591 36.0878 17.3422 36.7047C16.7252 37.1234 16.3065 37.9387 16.1082 38.754C15.9099 39.3709 16.1082 41.2218 15.0726 41.4201C14.037 41.6184 11.1725 41.2218 11.1725 41.2218C11.1725 41.2218 10.5555 39.9879 11.7894 39.3709C12.6047 38.9523 13.442 38.754 13.442 38.754C13.442 38.754 11.1945 39.1726 11.1945 38.137C10.9962 36.2861 12.8471 37.1014 13.442 35.4708C13.6403 34.8538 14.676 31.5707 14.4777 29.9181C14.059 28.2655 13.8607 26.2163 12.8251 24.784C11.7894 23.5501 10.3572 21.9195 9.96057 19.033C9.76226 17.9974 9.76226 15.9482 9.96057 14.9346L10.3792 13.899C9.14527 14.0973 7.51471 13.7007 7.29436 12.0481C7.29436 11.6294 7.29437 11.0124 7.49268 10.1972C7.07403 10.1972 6.45706 10.1972 5.84009 10.1972C5.84009 10.1972 4.60615 10.6158 3.98918 10.1972C3.37222 9.77851 2.55693 9.38187 2.55693 9.38187C2.55693 9.38187 1.12471 9.18357 0.706055 7.13435C0.617916 6.93604 -0.616028 4.46817 0.397564 4.04951Z" fill="white"/>
</svg>
