<svg width="41" height="56" viewBox="0 0 41 56" fill="none" xmlns="http://www.w3.org/2000/svg">
<path d="M0 0H37.7801C39.158 0 40.2758 1.1178 40.2758 2.49567V53.5043C40.2758 54.8822 39.158 56 37.7801 56H2.49567C1.1178 56 0 54.8822 0 53.5043V0Z" fill="#007E32"/>
<path d="M19.5602 44.9698C15.0937 44.9698 11.8233 43.3554 8.72656 41.0001L12.3957 36.1158C14.2963 37.5999 17.0383 38.8645 19.6923 38.8645C22.9212 38.8645 23.8042 37.7737 23.8042 35.8552C23.8042 32.6722 17.9238 31.5814 15.2258 30.0973C11.997 28.3526 9.43348 26.3448 9.43348 21.2867C9.43348 14.7421 15.2258 12.0828 20.93 12.0828C23.9803 12.0828 27.6519 12.9105 30.2594 14.8314L27.077 20.0222C25.6632 18.9749 23.2734 18.1906 20.93 18.1906C17.6572 18.1906 16.5075 20.0222 16.5075 21.2867C16.5075 24.1657 20.6194 25.0392 24.379 26.6537C27.5173 28.005 30.8782 30.1866 30.8782 35.4208C30.8782 41.4417 26.5462 44.9747 19.5578 44.9747L19.5602 44.9698Z" fill="white"/>
<path d="M5.58075 51.9514C4.74552 51.9514 4.02783 51.4638 4.02783 50.5586V48.598H4.83055V50.5586C4.83055 51.0062 5.14313 51.3262 5.58325 51.3262C6.02337 51.3262 6.38596 51.0062 6.38596 50.5586V48.598H7.17868V50.5586C7.17868 51.4613 6.43098 51.9514 5.58575 51.9514H5.58075Z" fill="white"/>
<path d="M9.53198 50.5861H9.12437V51.8964H8.32666V48.598H9.53198C10.3447 48.598 10.8623 48.9506 10.8623 49.5708C10.8623 50.191 10.3547 50.5886 9.53198 50.5886V50.5861ZM9.53198 49.2082H9.12437V49.9759H9.53198C9.88958 49.9759 10.0646 49.8484 10.0646 49.5833C10.0646 49.3182 9.88458 49.2082 9.53198 49.2082Z" fill="white"/>
<path d="M14.6659 49.2082V51.8964H13.8682V49.2082H13.1455V48.598H15.3661V49.2082H14.6634H14.6659Z" fill="white"/>
<path d="M17.8216 51.9514C16.6963 51.9514 15.9536 51.1737 15.9536 50.2334C15.9536 49.2932 16.7063 48.543 17.8316 48.543C18.9569 48.543 19.6996 49.2531 19.6996 50.2334C19.6996 51.2137 18.9469 51.9514 17.8216 51.9514ZM17.8316 49.1781C17.209 49.1781 16.7763 49.6833 16.7763 50.2359C16.7763 50.8411 17.254 51.3212 17.8216 51.3212C18.4793 51.3212 18.8769 50.7911 18.8769 50.2359C18.8769 49.6808 18.4643 49.1781 17.8316 49.1781Z" fill="white"/>
<path d="M22.7377 51.8963V49.5457C22.5626 49.7033 22.2901 49.7708 21.98 49.7933V49.2606C22.3976 49.2106 22.7077 49.0831 22.9502 48.5955H23.5329V51.8938H22.7352L22.7377 51.8963Z" fill="white"/>
<path d="M25.8889 51.9514C24.9737 51.9514 24.436 51.2337 24.436 50.2334C24.436 49.2331 24.9737 48.543 25.8889 48.543C26.8042 48.543 27.3493 49.2656 27.3493 50.2334C27.3493 51.2012 26.8067 51.9514 25.8889 51.9514ZM25.8889 49.1531C25.3613 49.1531 25.2613 49.7533 25.2613 50.2334C25.2613 50.7135 25.3813 51.3412 25.8889 51.3412C26.4216 51.3412 26.5216 50.716 26.5216 50.2334C26.5216 49.7508 26.3966 49.1531 25.8889 49.1531Z" fill="white"/>
<path d="M31.9278 51.8964L30.8675 50.546L30.6625 50.7486V51.8964H29.8647V48.598H30.6625V49.7958L31.8378 48.598H32.823L31.4102 50.0034L32.8931 51.8964H31.9278Z" fill="white"/>
<path d="M35.1335 51.9514C34.0532 51.9514 33.2705 51.2512 33.2705 50.2334C33.2705 49.2156 34.1082 48.543 35.1185 48.543C35.7612 48.543 36.2038 48.768 36.5239 49.0806L36.0312 49.5182C35.8062 49.2982 35.4886 49.1756 35.121 49.1756C34.5133 49.1756 34.0607 49.6633 34.0607 50.2334C34.0607 50.8036 34.5133 51.3187 35.136 51.3187C35.5736 51.3187 35.8937 51.1612 36.0312 50.8436H35.106V50.2334H36.914C36.914 51.3237 36.1263 51.9514 35.136 51.9514H35.1335Z" fill="white"/>
<path d="M13.7655 8.05966C13.0728 8.05966 12.5651 7.82959 12.0825 7.492L12.6527 6.79182C12.9478 7.00437 13.3729 7.18442 13.7855 7.18442C14.2856 7.18442 14.4231 7.02938 14.4231 6.75431C14.4231 6.29918 13.5104 6.14164 13.0903 5.93158C12.5902 5.68152 12.19 5.39394 12.19 4.67124C12.19 3.73599 13.0903 3.35339 13.9755 3.35339C14.4482 3.35339 15.0183 3.47093 15.4234 3.746L14.9283 4.4887C14.7082 4.33866 14.3381 4.22613 13.973 4.22613C13.4654 4.22613 13.2878 4.4887 13.2878 4.66875C13.2878 5.08136 13.9255 5.20639 14.5107 5.43645C14.9983 5.629 15.5209 5.94159 15.5209 6.69179C15.5209 7.55202 14.8483 8.05966 13.763 8.05966H13.7655Z" fill="white"/>
<path d="M17.0015 7.98713V3.43091H18.0993V7.98713H17.0015Z" fill="white"/>
<path d="M21.1126 7.1444H23.3657V7.98713H19.4121L21.7177 4.27363H19.6572V3.43091H23.4182L21.1126 7.1444Z" fill="white"/>
<path d="M24.856 7.98713V3.43091H27.7742V4.27363H25.9538V5.34142H27.6417V6.18415H25.9538V7.1444H27.8768V7.98713H24.856Z" fill="white"/>
</svg>
