<svg width="51" height="39" viewBox="0 0 51 39" fill="none" xmlns="http://www.w3.org/2000/svg">
<path fill-rule="evenodd" clip-rule="evenodd" d="M0.000259399 9.9185C0.000259399 9.71422 0.000259399 9.48727 0.204533 9.283C0.408802 9.283 0.40881 9.07873 0.635777 8.85176C0.862747 8.62479 1.067 8.21623 1.27127 8.01196C1.47554 7.80769 1.9068 7.37646 2.11107 7.17219C2.31534 6.96792 2.54232 6.53667 2.54232 6.53667V5.90117C2.54232 5.90117 2.54232 5.90117 2.54232 5.69689C2.54232 5.49262 2.54232 5.26565 2.54232 5.26565L2.33804 4.8344C2.33804 4.63013 2.54232 4.63016 2.54232 4.63016V4.42588H2.33804L2.76928 4.2216C2.76928 4.2216 3.20051 3.5861 3.60905 3.15486C4.04029 2.72362 4.0403 2.51934 4.0403 2.51934V2.31506C4.0403 2.31506 4.04031 1.88384 4.24458 1.67957C4.44885 1.4753 4.44883 1.04404 4.6758 0.839771C4.6758 0.6355 4.88007 0.408526 4.88007 0.408526L5.08435 0.204277C5.08435 0.204277 5.28863 0 5.71987 0C6.15111 0 6.1511 0.204277 6.55964 0.204277C6.76391 0.204277 7.19514 0.408526 7.39941 0.635494C7.60368 0.862462 7.83066 0.839771 7.83066 0.839771H8.2619H8.69315C8.69315 0.839771 9.12437 1.04405 9.32864 1.04405C9.53291 1.04405 9.53292 1.24832 9.53292 1.24832L9.73719 1.04405C9.73719 1.04405 9.94147 1.04404 10.1684 0.839771C10.3727 0.839771 10.8039 0.839771 11.0082 0.839771C11.2125 0.839771 11.4395 1.04405 11.6437 1.04405C11.848 1.04405 12.4835 1.24832 12.7105 1.24832C12.9147 1.24832 13.1417 1.4526 13.346 1.4526C13.5503 1.4526 13.7772 1.65685 13.9815 1.88382C14.1858 2.11079 14.617 2.31506 14.8213 2.31506C15.0256 2.31506 15.2525 2.51934 15.2525 2.74631C15.2525 2.97328 15.0483 3.17754 14.8213 4.01732C14.5943 4.85711 14.1858 5.08409 14.1858 5.08409C14.1858 5.08409 14.8213 5.92387 15.2525 6.55938C15.6838 7.1949 16.0923 8.26163 16.3193 8.67017C16.5235 9.10141 17.159 9.94119 17.5903 10.3724C18.0215 10.8037 18.6571 10.8037 18.6571 10.8037C18.6571 10.8037 19.9281 11.4392 20.5636 11.4392C21.1991 11.4392 23.1056 12.5059 23.7411 12.5059C24.3766 12.5059 25.8519 12.7102 26.0562 12.5059C26.4874 12.5059 27.7585 12.5059 28.8025 12.5059C29.6423 12.5059 30.5048 12.5059 31.3446 12.3017C32.1843 12.3017 33.6596 11.6662 34.9307 11.6662C36.2017 11.6662 38.1082 11.6662 39.1523 11.6662C40.1963 11.6662 40.4233 11.8704 40.4233 11.8704C40.4233 11.8704 40.8545 11.8704 41.2631 11.6662C41.6716 11.4619 42.1028 11.2349 42.1028 11.0306C42.1028 10.8264 43.3739 10.1909 43.5781 9.75963C43.7824 9.32839 44.6449 8.69288 44.8492 8.48861C45.0534 8.28434 45.689 7.42184 45.9159 7.21757C46.1429 7.0133 47.3912 5.7423 47.8224 5.31106C48.0267 4.87982 48.8892 3.83576 49.0935 3.20025C49.2977 2.76901 49.9333 2.56475 50.3645 2.36047C50.5688 2.1562 50.7957 1.92923 50.7957 1.92923C50.7957 1.92923 50.7957 2.13351 50.7957 2.36047C50.7957 2.56475 50.7957 3.20026 51 3.83577C51 4.47128 50.7957 4.47126 50.5688 5.74228C50.3645 7.0133 49.9332 7.44454 49.9332 7.44454C49.9332 7.44454 49.729 8.28432 49.2977 8.91983C48.8665 9.35107 48.458 9.9866 48.458 9.9866L48.2537 10.1909L48.0494 10.3951C48.0494 10.3951 47.8452 10.5994 47.6182 10.8264C47.4139 11.2576 47.4139 11.0306 47.4139 11.0306C47.4139 11.2349 47.2096 11.2349 47.2096 11.2349C47.2096 11.2349 47.0054 11.2349 47.0054 11.4392L46.8011 11.6434L46.5968 11.8477L46.3925 12.052V12.2563L46.1883 12.4606H45.984V12.6648V12.8691L45.7797 13.0734C45.7797 13.0734 45.7797 13.0734 45.5755 13.0734H45.3712L45.1669 13.2776L44.9627 13.4819L44.7584 13.6862L44.5541 13.8904V14.0947H44.3498V14.299H44.1456V14.5033L43.9413 14.7075C43.9413 14.7075 44.5768 15.9786 45.008 16.8183C45.4393 17.8851 45.4393 18.5206 45.4393 19.7689C45.4393 21.0399 44.8038 22.311 44.5995 22.9465C44.3952 23.3777 44.1683 24.4218 44.1683 24.4218C44.1683 24.4218 43.737 24.853 44.1683 26.124C44.3725 27.3951 44.1683 27.5993 44.5995 28.2348C45.0307 28.8704 45.8705 29.3016 45.8705 29.9371C45.8705 30.5726 45.8705 32.0479 45.6662 32.8877C45.462 33.7275 44.8265 36.2695 44.8265 36.905C44.8265 37.1093 44.8265 37.9718 44.3952 37.9718C44.191 37.9718 42.9199 37.9718 42.693 37.9718C42.466 37.9718 41.8532 37.9718 41.4219 37.9718C40.9907 37.9718 40.7864 37.9718 40.5822 37.9718C40.3779 37.9718 40.3779 37.7675 40.3779 37.5405C40.3779 37.3136 40.3779 37.1093 40.5822 36.905C40.5822 36.7007 41.0134 36.0652 42.0575 35.8383C42.2617 35.8383 42.693 35.2027 42.8972 34.5672C43.1015 33.9317 42.693 32.2522 42.2617 31.6166C42.0575 31.8209 42.2617 31.6167 42.0575 31.8209C41.422 32.6607 41.422 36.0425 40.3552 36.2695C39.924 36.4738 38.4487 36.4738 37.6089 36.4738C37.1777 36.4738 37.4046 35.8383 37.6089 35.407C37.8132 34.7715 37.8132 34.7715 39.0842 34.3403C39.2885 33.909 39.5154 33.0693 39.7197 32.4338C40.1509 30.7315 37.6089 26.3056 36.5421 26.0786C36.5421 26.0786 36.1109 25.4431 35.9066 25.2388C35.7024 25.0346 33.5915 23.9678 33.3646 23.9678C33.1376 23.9678 32.9333 24.1721 32.9333 24.1721L24.4674 24.8076C23.4007 24.8076 22.3566 24.8076 22.3566 24.8076L21.7211 25.2388L21.5168 25.8744V26.3056C21.5168 26.3056 21.3126 27.7809 21.3126 28.2121C21.3126 28.6434 21.1083 30.1187 20.8813 30.5272C20.8813 30.7315 20.8813 31.594 20.8813 31.594V31.7982C20.8813 32.0025 20.8813 32.865 20.8813 33.2735C20.8813 33.7048 20.677 33.7048 20.4501 34.1133C20.2231 34.5218 20.2458 34.3176 20.2458 34.3176L20.0416 34.5219L19.8373 34.9531C19.8373 34.9531 19.406 35.7929 19.406 36.0198C19.406 36.2468 18.5663 36.8596 18.5663 37.0866C18.5663 37.3136 18.362 37.5178 18.135 37.7221C17.7038 37.9264 17.0683 38.1533 16.864 38.1533C16.4328 38.1533 15.7973 38.1533 15.593 38.1533C15.1617 38.1533 14.7532 38.1533 14.5262 38.1533C14.3219 38.1533 13.8907 37.7221 13.8907 37.7221C13.8907 37.7221 13.6864 37.5178 13.6864 37.2909L13.8907 37.0866C13.8907 37.0866 13.8907 36.6554 14.095 36.6554C14.095 36.4511 14.5262 36.2241 14.5262 36.2241C14.7305 36.0198 15.1617 35.7929 15.366 35.7929C15.5703 35.7929 16.0015 35.5886 16.2058 35.3616C16.4101 35.1347 16.4101 33.6594 16.2058 33.2508C16.0015 32.8196 16.0015 31.9798 15.7745 31.3443C15.5703 30.5045 14.9348 29.2335 14.7078 28.8023C14.5035 28.598 13.868 26.6914 13.641 26.0559C13.4368 25.2161 12.8013 23.3096 12.37 22.8784C12.1657 22.4471 11.5302 22.0386 11.3033 21.8116C11.099 21.6074 10.6678 21.1761 10.6678 21.1761C10.6678 21.1761 10.4635 20.7449 10.2365 20.5406C9.39673 20.7449 9.39674 20.3363 9.39674 20.1094C9.39674 19.6781 9.60102 19.0426 9.60102 18.6341C9.60102 17.9986 9.60101 17.1588 9.39674 16.092C9.39674 15.0253 9.19246 14.6167 8.76122 13.9812C8.32998 13.3457 8.12572 13.3457 7.69448 13.1415C7.49021 12.9372 7.05898 12.7102 6.85471 12.7102C6.42347 12.7102 5.78794 12.7102 5.58367 12.7102C5.37939 12.7102 5.15245 12.7102 4.94817 12.9145C4.51693 13.1188 4.51694 13.1187 3.67716 13.1187C3.04165 13.1187 2.6104 13.1188 2.20186 12.9145C1.77063 12.7102 1.13509 12.279 0.930824 12.0747C0.726551 11.8704 0.29533 11.008 0.29533 11.008C0.29533 11.008 0.295319 11.0079 0.0910492 10.8037C-0.113224 10.5994 0.0910492 10.1682 0.0910492 10.1682C0.0910492 10.1682 0.000259399 10.1228 0.000259399 9.9185Z" fill="white"/>
</svg>
