<svg width="41" height="56" viewBox="0 0 41 56" fill="none" xmlns="http://www.w3.org/2000/svg">
<path d="M0 0H38.1006C39.4154 0 40.4819 1.11779 40.4819 2.49566V53.5043C40.4819 54.8822 39.4154 56 38.1006 56H2.38129C1.06657 56 0 54.8822 0 53.5043V0Z" fill="#72207E"/>
<path d="M9.07912 49.8694C9.12146 50.0775 9.14263 50.3933 9.14263 50.8167C9.14263 51.2401 9.12146 51.5558 9.07912 51.764C9.03678 51.9722 8.92917 52.1627 8.75629 52.3356C8.49168 52.6002 8.1565 52.7325 7.75076 52.7325C7.34149 52.7325 7.00455 52.6002 6.73993 52.3356C6.56705 52.1627 6.45944 51.9739 6.4171 51.7693C6.37829 51.5611 6.35889 51.2436 6.35889 50.8167C6.35889 50.3898 6.37829 50.074 6.4171 49.8694C6.45944 49.6612 6.56705 49.4707 6.73993 49.2978C7.00455 49.0332 7.34149 48.9009 7.75076 48.9009C8.1565 48.9009 8.49168 49.0332 8.75629 49.2978C8.92917 49.4707 9.03678 49.6612 9.07912 49.8694ZM8.407 50.8167C8.407 50.4674 8.39289 50.224 8.36466 50.0864C8.33997 49.9488 8.29234 49.8394 8.22177 49.7582C8.10534 49.6242 7.94834 49.5571 7.75076 49.5571C7.55671 49.5571 7.39794 49.6242 7.27445 49.7582C7.20389 49.8394 7.15626 49.9488 7.13156 50.0864C7.10686 50.224 7.09451 50.4674 7.09451 50.8167C7.09451 51.166 7.10686 51.4094 7.13156 51.547C7.15626 51.6811 7.20389 51.7887 7.27445 51.8699C7.40147 52.0075 7.56024 52.0763 7.75076 52.0763C7.94481 52.0763 8.10181 52.0075 8.22177 51.8699C8.29234 51.7852 8.33997 51.6758 8.36466 51.5417C8.39289 51.4041 8.407 51.1624 8.407 50.8167Z" fill="white"/>
<path d="M12.4598 48.9326L11.2108 52.7007H10.6604L9.41671 48.9326H10.1788L10.9356 51.3883L11.6924 48.9326H12.4598Z" fill="white"/>
<path d="M15.3973 52.7007H12.9152V48.9326H15.3973V49.5889H13.6508V50.4727H15.138V51.1289H13.6508V52.0445H15.3973V52.7007Z" fill="white"/>
<path d="M18.9721 52.7007H18.12L17.3844 51.1977H16.8551V52.7007H16.1195V48.9326H17.5961C17.9701 48.9326 18.2664 49.0438 18.4852 49.266C18.7074 49.4883 18.8186 49.7618 18.8186 50.0864C18.8186 50.3369 18.7533 50.5468 18.6228 50.7161C18.4922 50.8855 18.3282 51.0054 18.1306 51.076L18.9721 52.7007ZM17.9348 50.4462C18.0336 50.3545 18.083 50.2345 18.083 50.0864C18.083 49.9382 18.0336 49.8182 17.9348 49.7265C17.836 49.6347 17.7072 49.5889 17.5484 49.5889H16.8551V50.5838H17.5484C17.7072 50.5838 17.836 50.538 17.9348 50.4462Z" fill="white"/>
<path d="M23.0827 52.1662H22.7387V52.7007H22.0771V52.1662H20.5371V51.5153L21.8284 48.9326H22.5799L21.2886 51.5153H22.0771V50.8114H22.7387V51.5153H23.0827V52.1662Z" fill="white"/>
<path d="M25.861 51.4306C25.861 51.6599 25.838 51.8504 25.7922 52.0022C25.7463 52.1539 25.6581 52.295 25.5275 52.4255C25.3229 52.6302 25.0459 52.7325 24.6967 52.7325C24.3368 52.7325 24.0563 52.6319 23.8552 52.4308C23.6752 52.2509 23.5729 51.9898 23.5482 51.6476H24.2362C24.275 51.9581 24.4285 52.1133 24.6967 52.1133C24.8343 52.1133 24.9436 52.0727 25.0248 51.9916C25.1236 51.8928 25.173 51.7058 25.173 51.4306C25.173 50.979 25.0195 50.7532 24.7125 50.7532C24.4761 50.7532 24.3244 50.8555 24.2574 51.0601H23.6276V48.9326H25.7763V49.5518H24.2521V50.3616C24.3862 50.2345 24.5749 50.171 24.8184 50.171C25.1183 50.171 25.3529 50.2557 25.5223 50.4251C25.7481 50.6509 25.861 50.986 25.861 51.4306Z" fill="white"/>
<path d="M30.8378 52.7007H29.9804L29.0119 50.986L28.525 51.5682V52.7007H27.7894V48.9326H28.525V50.5732L29.8534 48.9326H30.7478L29.4988 50.4303L30.8378 52.7007Z" fill="white"/>
<path d="M33.8888 51.1554C33.8888 51.4341 33.8624 51.6599 33.8094 51.8328C33.7565 52.0057 33.663 52.1627 33.5289 52.3038C33.2573 52.5896 32.9027 52.7325 32.4652 52.7325C32.0665 52.7325 31.7313 52.6002 31.4597 52.3356C31.2868 52.1627 31.1792 51.9739 31.1368 51.7693C31.098 51.5611 31.0786 51.2436 31.0786 50.8167C31.0786 50.3898 31.098 50.074 31.1368 49.8694C31.1792 49.6612 31.2868 49.4707 31.4597 49.2978C31.7313 49.0332 32.0665 48.9009 32.4652 48.9009C32.878 48.9009 33.2026 49.0155 33.439 49.2449C33.6789 49.4742 33.8271 49.7618 33.8835 50.1075H33.1426C33.0579 49.7406 32.8321 49.5571 32.4652 49.5571C32.2747 49.5571 32.1177 49.6242 31.9942 49.7582C31.9236 49.8394 31.876 49.9488 31.8513 50.0864C31.8266 50.224 31.8142 50.4674 31.8142 50.8167C31.8142 51.1695 31.8266 51.4147 31.8513 51.5523C31.876 51.6899 31.9236 51.7993 31.9942 51.8804C32.1141 52.011 32.2711 52.0763 32.4652 52.0763C32.691 52.0763 32.8656 52.0057 32.9891 51.8646C33.102 51.7375 33.1585 51.57 33.1585 51.3618V51.2242H32.4652V50.605H33.8888V51.1554Z" fill="white"/>
<path d="M14.4222 7.87197C13.7615 7.87197 13.2773 7.65015 12.8193 7.32815L13.3632 6.6603C13.6446 6.86304 14.0501 7.03477 14.4436 7.03477C14.9207 7.03477 15.0519 6.8845 15.0519 6.62452C15.0519 6.18803 14.1813 6.04016 13.7829 5.83742C13.3059 5.5989 12.9267 5.32461 12.9267 4.63291C12.9267 3.73847 13.7829 3.37354 14.6273 3.37354C15.0781 3.37354 15.6219 3.48802 16.0083 3.748L15.5384 4.45879C15.3285 4.31568 14.9755 4.20835 14.6297 4.20835C14.1455 4.20835 13.9761 4.45879 13.9761 4.63291C13.9761 5.02646 14.5844 5.14571 15.1401 5.36515C15.6052 5.54881 16.1013 5.84696 16.1013 6.56251C16.1013 7.38778 15.4597 7.86958 14.4269 7.86958L14.4222 7.87197Z" fill="white"/>
<path d="M17.5088 7.79801V3.44507H18.5559V7.79801H17.5088Z" fill="white"/>
<path d="M21.4295 6.99421H23.5762V7.8004H19.8076L22.0044 4.25126H20.0414V3.44507H23.6263L21.4272 6.99421H21.4295Z" fill="white"/>
<path d="M25.0004 7.79801V3.44507H27.7792V4.25126H26.0451V5.27211H27.6551V6.0783H26.0451V6.99659H27.877V7.80278H24.998L25.0004 7.79801Z" fill="white"/>
<path d="M3.52661 12.1446C4.83911 12.1446 6.11122 12.1446 7.36313 12.1446C7.76698 12.1446 8.17082 12.1446 8.57467 12.1446C9.56409 12.1446 9.60447 12.1239 9.90735 13.095C10.6141 15.3678 11.5025 17.5786 12.1285 19.8926C12.2093 20.2232 12.3102 20.5332 12.4516 20.9877C12.7948 19.748 13.1785 18.6116 13.5621 17.4959C14.1477 15.8223 14.7131 14.1487 15.2987 12.4752C15.3593 12.3099 15.4198 12.1446 15.6823 12.1446C17.6006 12.1652 19.4987 12.1652 21.4775 12.1652C20.8717 13.7355 20.3063 15.2025 19.7208 16.6901C18.7515 19.1488 17.8025 21.6282 16.8333 24.0869C16.4698 25.0167 16.1669 25.9465 15.7227 26.8349C15.3996 27.4754 15.4602 27.992 15.7227 28.6118C17.2977 32.5169 18.8525 36.4219 20.4073 40.3476C21.0333 41.9179 21.639 43.5088 22.265 45.0997C22.164 45.265 22.0025 45.1824 21.8813 45.1824C20.1448 45.1824 18.4083 45.1824 16.6717 45.203C16.3689 45.203 16.2275 45.0997 16.1064 44.7898C15.0564 41.8765 13.9862 38.9633 12.9362 36.0706C12.7746 35.6367 12.6737 35.1822 12.5323 34.6863C12.2698 35.4921 12.0275 36.2566 11.7448 37.0004C10.7958 39.5831 9.82658 42.1658 8.85736 44.7485C8.73621 45.0584 8.61505 45.2237 8.27178 45.203C6.43429 45.1824 4.5968 45.1824 2.69873 45.1824C3.02181 44.2939 3.34488 43.4675 3.66796 42.641C4.71795 39.9757 5.76795 37.331 6.81794 34.6657C7.56506 32.7441 8.29198 30.8019 9.11986 28.9424C9.50351 28.0953 9.50351 27.4135 9.16024 26.5663C7.40352 22.1448 5.68718 17.7232 3.95065 13.3223C3.8295 12.971 3.68815 12.5785 3.52661 12.1446Z" fill="white"/>
<path d="M22.9628 28.6963C22.9628 23.4276 22.9857 18.1176 22.9399 12.8489C22.9399 12.3324 23.0316 12.1464 23.627 12.1464C25.3676 12.1877 27.1082 12.1877 28.8488 12.1464C29.4214 12.1258 29.5588 12.2704 29.5588 12.8282C29.5359 21.568 29.5588 30.2872 29.5359 39.027C29.5359 39.6882 29.7191 39.8328 30.3833 39.8328C32.6507 39.7915 34.8952 39.8328 37.1625 39.8121C37.6206 39.8121 37.8038 39.8948 37.7809 40.37C37.7351 41.8163 37.758 43.2419 37.7809 44.6882C37.8038 45.1015 37.6664 45.2048 37.2541 45.2048C32.6965 45.1841 28.116 45.1841 23.5583 45.2048C23.0545 45.2048 22.9628 45.0395 22.9628 44.6056C22.9628 39.2956 22.9628 34.0063 22.9628 28.6963Z" fill="white"/>
</svg>
