<svg width="36" height="45" viewBox="0 0 36 45" fill="none" xmlns="http://www.w3.org/2000/svg">
<path fill-rule="evenodd" clip-rule="evenodd" d="M18.2436 40.1882C18.3959 39.8113 17.8666 39.2179 17.4977 38.7688L17.1208 38.3197C16.8241 37.7984 16.5193 37.2771 16.2226 36.7478C15.9259 36.4511 15.6212 36.1464 15.3244 35.8497C15.2523 37.4215 15.0277 39.5146 14.8753 40.8539C15.3244 40.7015 15.7735 40.7015 16.2226 40.7015C17.7945 40.7095 18.1714 40.4128 18.2436 40.1882ZM0.680664 12.9136C0.977386 12.7613 1.35432 12.6891 1.65104 12.5367C1.87559 12.4646 2.02796 12.3122 2.17231 12.0876C2.17231 11.8631 2.1723 11.7107 2.01993 11.5664C1.49866 10.8927 1.34629 9.99452 1.72321 9.2487C1.87558 8.95198 1.94775 8.57506 2.10013 8.20615C2.2525 7.75706 2.39685 7.30796 2.6214 6.85886C2.84595 6.33759 3.0705 5.81632 3.36723 5.28702C3.36723 4.61338 3.21484 4.01993 2.91812 3.41846L1.57084 0.507356L1.4845 0L2.01993 0.20261C2.1723 0.274787 2.39685 0.354984 2.5412 0.42716L3.66394 1.1008C4.40977 1.5499 5.15559 1.999 5.90943 2.44809C6.28635 2.67264 6.58307 2.96937 6.95197 3.19392C7.17652 3.41846 7.47325 3.57084 7.6978 3.79538C7.92235 3.94776 8.1469 4.09211 8.44363 4.1723C8.82055 4.24448 9.18945 4.32468 9.56637 4.32468C10.24 4.39685 10.8335 4.47705 11.4349 4.7016C12.3331 5.07852 13.1511 5.59979 13.8969 6.27344L14.4984 6.72253C15.9179 7.84527 17.3373 9.11237 18.6846 10.3875C19.5828 11.2055 20.481 12.0315 21.3712 12.8495L21.8203 13.2264C22.943 14.1246 23.9856 15.1672 24.8838 16.2899C25.9263 17.7815 26.3754 19.5779 26.8245 21.3743C26.9769 22.048 27.1212 22.5692 27.2736 23.1707C27.3458 23.4674 27.426 23.7722 27.4981 24.0689C27.7227 25.1114 28.0996 26.0096 28.6209 26.9078C29.07 27.5093 29.5913 28.1027 30.1125 28.7042C30.7862 29.3779 31.3796 30.1237 31.9811 30.9497C32.8793 32.4413 33.5529 34.0853 33.9218 35.8817C34.3709 37.6781 34.3709 39.6189 33.9218 41.4152L33.7695 41.7922C33.994 41.72 34.2907 41.72 34.5153 41.7922C35.1167 41.9445 35.7824 42.538 35.4857 43.7329C35.3333 44.4065 34.812 44.9278 34.1384 45C34.0662 45 33.7614 45 33.2402 45C32.1174 45 30.2489 44.8476 29.2063 44.182C28.685 44.7033 28.0114 44.9278 27.3378 45H16.3509C15.974 45 15.6773 44.8476 15.4527 44.5509C15.3806 44.4787 15.3806 44.3985 15.3004 44.3264H14.4824C14.4102 44.5509 14.1856 44.7755 13.9611 45H13.8889H10.224L10.1518 44.9278C9.85508 44.7033 9.70269 44.4065 9.77487 44.0296C9.84704 43.4282 10.224 42.9871 10.8174 42.7625C10.9698 42.6904 11.1141 42.6904 11.2665 42.6102C11.4189 42.6102 11.5632 42.538 11.7156 42.4578C11.7878 42.2332 11.7878 42.0087 11.7878 41.7841C11.7878 41.712 11.7878 41.6318 11.7878 41.5596C12.0845 38.7207 12.1647 35.8096 11.9402 32.9626C11.868 32.4413 11.868 31.9201 11.7878 31.3908C11.4911 28.7042 11.3387 25.9375 11.3387 23.2429C11.3387 22.7938 11.4109 22.2725 11.4911 21.671C11.7156 19.5057 12.0123 16.5144 10.2961 15.6964C9.84704 15.4719 9.32577 15.4719 8.87668 15.6964C8.49976 15.921 8.20303 16.3701 8.27521 16.8914C8.27521 17.1881 8.27521 17.4126 8.12284 17.7094C8.05066 17.7815 7.82612 18.2306 7.52137 18.383C6.62318 18.6076 5.72499 18.7599 4.75461 18.9043L4.4579 18.9765C4.23335 18.9765 4.0088 18.9765 3.85643 18.9043C2.43696 18.6076 1.3142 17.557 0.792931 16.2177C0.640556 15.8408 0.568386 15.4719 0.416012 15.1752C0.263641 14.7983 0.191467 14.5737 0.119293 14.3572C-0.137333 13.5873 0.00701904 13.058 0.680664 12.9136Z" fill="white"/>
</svg>
