<svg width="40" height="34" viewBox="0 0 40 34" fill="none" xmlns="http://www.w3.org/2000/svg">
<path d="M0.0556564 2.93732C0.0556564 2.63887 0.197029 2.35613 0.354107 2.05769C0.354107 2.05769 0.793919 1.0367 1.3751 1.0367C1.51646 1.0367 1.67354 1.0367 1.81491 1.17807C1.95628 1.17807 2.25472 1.31943 2.39609 1.47651C2.53746 1.61787 2.69453 1.61788 2.69453 1.77495L2.8359 1.91632C2.97727 2.05769 3.13435 2.05769 3.13435 1.91632C4.73652 -0.125659 7.67383 -0.565476 9.71581 1.0367C10.297 0.738252 10.8939 0.455514 11.4751 0.298438C11.9149 0.15707 12.3547 0.157076 12.6531 0C12.9516 0 12.9516 0.141366 12.7945 0.43981C12.6531 1.02099 12.496 1.31944 12.3547 1.75925C12.6531 1.75925 13.2343 1.61788 13.5327 1.61788C13.8312 1.61788 13.8312 1.75924 13.6741 2.05769C13.3757 2.79594 13.0929 3.51849 12.6531 4.09967C12.2133 4.97929 11.9149 5.41911 11.4751 6.00029C11.4751 6.4401 11.3337 7.02128 11.3337 7.60246C11.1923 8.34071 11.3337 9.20463 11.6321 9.94289C11.7735 10.3827 12.5118 10.9639 14.271 11.7021C14.8522 11.8435 15.4491 12.0006 15.8732 12.0006C17.1926 12.1419 18.6534 12.1419 19.9728 12.1419C21.575 12.0006 21.7321 11.8435 23.9312 11.5608C28.1722 10.9796 30.9524 10.6811 33.2929 12.1419C33.2929 12.0006 33.2929 11.8435 33.4342 11.5608C33.5756 10.9796 33.5756 10.5398 33.4342 9.95859C33.4342 9.51878 33.2929 9.22034 33.1358 8.9376C32.1148 7.33543 29.7744 6.89562 26.8371 8.19935C27.2769 7.31973 28.0151 6.73854 28.879 6.29873C30.7797 5.56047 32.8373 6.00029 34.2982 7.17836C35.3191 8.19935 35.9003 9.51878 35.9003 10.9796C36.0417 12.1577 35.9003 13.32 35.759 14.4981C35.9003 14.7965 36.1988 15.2363 36.3401 15.5191C37.0784 17.4197 36.78 19.3203 36.6386 21.0796C36.6386 21.5194 36.4972 21.8178 36.4972 22.2576C36.3558 22.8388 36.6386 23.4357 37.0784 23.8598L37.958 24.598C38.2565 24.8965 38.3978 25.1792 38.5392 25.4777L39.4188 29.1375C39.8586 29.5773 40 30.3156 40 31.0381C39.8586 31.7764 38.979 33.2372 38.2408 32.2162C37.9423 31.478 37.8009 30.8968 37.6596 30.1742L37.0784 27.6924C36.937 27.2526 36.6386 26.8128 36.1988 26.8128L34.4395 26.373C33.2615 26.0746 32.0991 25.352 31.0781 24.6138C31.0781 24.7551 31.0781 24.7551 31.0781 24.9122V25.6505C31.3765 26.2316 31.6593 26.6714 32.0991 27.1113C32.3975 27.5511 32.6803 27.9909 32.5389 28.5721L32.2405 32.3733C32.2405 32.6717 31.942 32.9545 31.6593 32.9545H29.0204C28.879 32.9545 28.722 32.8131 28.722 32.656V32.5147C28.8633 32.2162 29.1618 32.0748 29.4602 31.9335L30.0414 31.7921C30.4812 31.6507 30.6226 31.3523 30.6226 30.9125C30.7639 30.4727 30.6226 30.0329 30.4812 29.5931C30.1828 28.8548 29.6016 28.2736 29.1618 27.6924L26.68 24.9122L25.5019 23.31L25.0621 22.7289L24.7637 22.4304L24.4652 22.5718C22.4232 23.31 20.3655 23.8912 18.1665 24.331C16.9884 24.6295 15.9674 24.7708 14.8051 24.7708C14.8051 24.9122 14.8051 24.9122 14.8051 25.0693C14.8051 26.2473 14.8051 27.4097 14.8051 28.5878C14.8051 28.8862 14.6637 29.1689 14.5066 29.4674L12.4646 32.8288C12.3233 32.9702 12.1662 33.1273 11.8835 33.1273H9.54303C8.66341 33.1273 8.80478 32.9859 8.80478 32.8288C8.80478 32.5304 9.10322 31.9492 10.8468 31.6507C11.1452 31.6507 11.2866 31.5094 11.4279 31.2109C11.7264 30.6298 12.1662 29.8915 12.4489 29.0119C12.5903 28.7134 12.5903 28.4307 12.5903 27.9909L12.1505 25.352C12.1505 25.0536 12.0091 24.7708 12.0091 24.4724H11.8678C11.4279 25.2106 11.1295 25.7918 10.8468 26.373C9.82577 28.2736 8.80478 29.5931 8.36497 30.3313C7.78378 31.0696 7.34398 31.9335 6.90416 32.3733C6.76279 32.6717 6.46435 32.6717 6.1659 32.8131H3.96685C3.82548 32.8131 3.82547 32.6717 3.82547 32.6717C3.82547 32.6717 3.82547 32.6717 3.82547 32.5304C3.96684 32.2319 4.12392 31.9492 4.40666 31.7921C4.54802 31.7921 4.7051 31.4937 5.72609 31.2109C6.1659 31.0696 6.46435 30.7711 6.60571 30.4727L8.94615 25.0536C9.08751 24.7551 9.24459 24.3153 9.24459 23.8755C9.24459 23.7341 9.24459 23.5771 9.24459 23.5771V23.4357C8.80477 23.2943 8.36497 22.9959 7.92516 22.6974C6.32298 21.6764 5.00354 20.0586 4.26529 18.2993C3.24429 15.8175 2.80448 13.1787 2.80448 10.3984C2.80448 10.257 2.80448 10.1 2.80448 9.95859C2.80448 9.37741 2.50604 8.78053 2.2233 8.35643C1.78349 7.77525 1.34368 7.61817 0.762501 6.75425C0.0556602 5.13637 -0.101418 3.95831 0.0556564 2.93732Z" fill="white"/>
</svg>
