<svg width="41" height="56" viewBox="0 0 41 56" fill="none" xmlns="http://www.w3.org/2000/svg">
<path d="M0 0H38.3316C39.6542 0 40.7273 1.1178 40.7273 2.49567V53.5043C40.7273 54.8822 39.6542 56 38.3316 56H2.39572C1.07303 56 0 54.8822 0 53.5043V0Z" fill="#8ABD24"/>
<path d="M6.60652 52.6265C5.60647 52.6265 4.75146 52.046 4.75146 50.9723V48.6428H5.70953V50.9723C5.70953 51.5035 6.0836 51.8867 6.60652 51.8867C7.12945 51.8867 7.56459 51.5073 7.56459 50.9723V48.6428H8.51121V50.9723C8.51121 52.046 7.61803 52.6265 6.61034 52.6265H6.60652Z" fill="white"/>
<path d="M10.8125 51.0065H10.324V52.562H9.37354V48.6428H10.8125C11.7821 48.6428 12.4004 49.0602 12.4004 49.7962C12.4004 50.5322 11.7935 51.0027 10.8125 51.0027V51.0065ZM10.8125 49.3675H10.324V50.2818H10.8125C11.24 50.2818 11.45 50.1301 11.45 49.8152C11.45 49.5003 11.2362 49.3713 10.8125 49.3713V49.3675Z" fill="white"/>
<path d="M15.9088 49.3675V52.562H14.9583V49.3675H14.0957V48.6428H16.7447V49.3675H15.905H15.9088Z" fill="white"/>
<path d="M19.1569 52.6266C17.8133 52.6266 16.9277 51.7046 16.9277 50.5854C16.9277 49.4662 17.8247 48.5784 19.1683 48.5784C20.5119 48.5784 21.3974 49.4206 21.3974 50.5854C21.3974 51.7501 20.5004 52.6266 19.1569 52.6266ZM19.1721 49.3296C18.4278 49.3296 17.9125 49.929 17.9125 50.5854C17.9125 51.3062 18.4813 51.8754 19.1607 51.8754C19.947 51.8754 20.4203 51.2455 20.4203 50.5854C20.4203 49.9252 19.9279 49.3296 19.1721 49.3296Z" fill="white"/>
<path d="M25.7793 51.6059V52.562H24.8289V51.6059H23.0654V51.1014L25.0197 48.6428H25.7793V50.961H26.2793V51.6059H25.7793ZM24.8289 49.7962L23.9128 50.961H24.8289V49.7962Z" fill="white"/>
<path d="M30.7339 52.562L29.4667 50.9572L29.2224 51.2V52.562H28.272V48.6428H29.2224V50.0656L30.6232 48.6428H31.7989L30.1118 50.3122L31.8829 52.562H30.7301H30.7339Z" fill="white"/>
<path d="M34.0467 52.6266C32.7565 52.6266 31.8252 51.7957 31.8252 50.5854C31.8252 49.3751 32.8214 48.5784 34.0276 48.5784C34.7948 48.5784 35.3216 48.8477 35.7033 49.2158L35.1154 49.7355C34.8483 49.4737 34.4666 49.3258 34.0276 49.3258C33.3024 49.3258 32.7604 49.9063 32.7604 50.5816C32.7604 51.2569 33.3024 51.8716 34.0429 51.8716C34.5658 51.8716 34.9475 51.6857 35.1116 51.3063H34.0047V50.5816H36.1613C36.1613 51.8754 35.2223 52.6228 34.0391 52.6228L34.0467 52.6266Z" fill="white"/>
<path d="M14.5101 7.85933C13.8452 7.85933 13.3579 7.63981 12.897 7.3177L13.4443 6.65198C13.7276 6.8548 14.1356 7.0266 14.5317 7.0266C15.0118 7.0266 15.1439 6.87866 15.1439 6.61619C15.1439 6.18193 14.2677 6.03399 13.8668 5.83118C13.3867 5.59257 13.005 5.31817 13.005 4.6286C13.005 3.73621 13.8668 3.37354 14.7166 3.37354C15.1703 3.37354 15.7176 3.48567 16.1065 3.74814L15.6312 4.4568C15.4199 4.31364 15.0646 4.20627 14.7166 4.20627C14.2293 4.20627 14.0588 4.4568 14.0588 4.6286C14.0588 5.0223 14.671 5.1416 15.2303 5.36112C15.6984 5.54485 16.1977 5.84311 16.1977 6.55654C16.1977 7.37735 15.552 7.85933 14.5125 7.85933H14.5101Z" fill="white"/>
<path d="M17.6138 7.78765V3.44263H18.6676V7.78765H17.6138Z" fill="white"/>
<path d="M21.5606 6.98354H23.7211V7.78765H19.9282L22.1415 4.24673H20.1659V3.44263H23.7763L21.563 6.98354H21.5606Z" fill="white"/>
<path d="M25.1519 7.78765V3.44263H27.9509V4.24673H26.2057V5.26558H27.826V6.06968H26.2057V6.98593H28.0493V7.79003H25.1519V7.78765Z" fill="white"/>
<path d="M15.9012 44.1488L12.6028 35.8668C12.3436 35.2631 12.0387 34.2276 11.9955 34.0128L11.4314 35.8239L8.04665 44.1488H1.75488L8.95885 27.4989L2.62387 12.6624H8.91564L11.4314 19.434L11.9523 21.2021C11.9523 21.0732 12.214 20.0806 12.43 19.4769L15.0346 12.6624H21.3263L14.9914 27.4989L22.1953 44.1488H15.9036H15.9012Z" fill="white"/>
<path d="M30.1341 44.6666C26.7061 44.6666 23.8423 42.5525 22.2363 39.7059L26.7493 36.0839C27.7047 38.2409 29.1354 39.3623 30.2205 39.3623C31.5648 39.3623 32.3473 38.4556 32.3473 36.6446C32.3473 34.2729 29.5267 31.684 26.9678 28.6227C24.8841 26.0791 22.9757 23.2302 22.9757 19.8658C22.9757 15.8119 25.7531 12.1445 31.1783 12.1445C34.6926 12.1445 36.9059 14.1274 38.3822 16.6303L34.2173 20.0806C33.3484 18.5702 32.4818 17.4487 31.1807 17.4487C29.6611 17.4487 29.1402 18.3555 29.1402 19.6487C29.1402 21.8057 31.1375 23.9197 33.2619 26.2915C35.8233 29.1381 38.6415 32.3306 38.6415 36.4275C38.6415 41.3452 34.9975 44.6666 30.1364 44.6666H30.1341Z" fill="white"/>
</svg>
