<svg width="81" height="259" viewBox="0 0 81 259" fill="none" xmlns="http://www.w3.org/2000/svg">
<path d="M0 0H81V211C81 237.51 59.5097 259 33 259H0V0Z" fill="#72207E"/>
<path fill-rule="evenodd" clip-rule="evenodd" d="M39.7698 230.297C39.5222 229.685 40.3822 228.72 40.9816 227.991L41.594 227.261C42.0761 226.414 42.5713 225.567 43.0534 224.707C43.5355 224.225 44.0306 223.73 44.5127 223.248C44.63 225.802 44.9948 229.202 45.2424 231.378C44.5127 231.131 43.783 231.131 43.0534 231.131C40.4995 231.144 39.8871 230.662 39.7698 230.297ZM68.3056 185.982C67.8235 185.734 67.211 185.617 66.7289 185.369C66.3641 185.252 66.1165 185.005 65.882 184.64C65.882 184.275 65.882 184.027 66.1296 183.793C66.9765 182.698 67.2241 181.239 66.6117 180.027C66.3641 179.545 66.2468 178.933 65.9993 178.333C65.7517 177.603 65.5172 176.874 65.1523 176.144C64.7875 175.297 64.4226 174.45 63.9405 173.59C63.9405 172.496 64.1881 171.531 64.6702 170.554L66.8592 165.824L66.9995 165L66.1296 165.329C65.882 165.446 65.5172 165.577 65.2826 165.694L63.4584 166.789C62.2466 167.518 61.0348 168.248 59.81 168.978C59.1976 169.342 58.7155 169.825 58.1161 170.189C57.7513 170.554 57.2691 170.802 56.9043 171.167C56.5395 171.414 56.1746 171.649 55.6925 171.779C55.0801 171.896 54.4807 172.027 53.8683 172.027C52.7738 172.144 51.8095 172.274 50.8323 172.639C49.3729 173.251 48.0439 174.098 46.8321 175.193L45.8548 175.923C43.5485 177.747 41.2422 179.806 39.0531 181.877C37.5938 183.206 36.1344 184.548 34.6881 185.878L33.9584 186.49C32.1342 187.949 30.4403 189.643 28.9809 191.467C27.287 193.891 26.5573 196.81 25.8277 199.728C25.5801 200.823 25.3455 201.67 25.098 202.647C24.9807 203.129 24.8504 203.624 24.7332 204.107C24.3683 205.8 23.7559 207.26 22.9089 208.719C22.1793 209.696 21.3323 210.661 20.4853 211.638C19.3908 212.732 18.4266 213.944 17.4493 215.286C15.99 217.71 14.8955 220.381 14.2961 223.3C13.5664 226.219 13.5664 229.372 14.2961 232.291L14.5436 232.903C14.1788 232.786 13.6967 232.786 13.3319 232.903C12.3546 233.151 11.2731 234.115 11.7552 236.056C12.0028 237.151 12.8498 237.998 13.9443 238.115C14.0615 238.115 14.5567 238.115 15.4036 238.115C17.2278 238.115 20.2638 237.867 21.9577 236.786C22.8047 237.633 23.8992 237.998 24.9938 238.115H42.8449C43.4573 238.115 43.9394 237.867 44.3043 237.385C44.4215 237.268 44.4215 237.138 44.5518 237.02H45.8809C45.9981 237.385 46.363 237.75 46.7278 238.115H46.8451H52.7998L52.9171 237.998C53.3992 237.633 53.6468 237.151 53.5295 236.538C53.4123 235.561 52.7998 234.844 51.8356 234.48C51.5881 234.362 51.3535 234.362 51.1059 234.232C50.8584 234.232 50.6238 234.115 50.3762 233.984C50.259 233.62 50.259 233.255 50.259 232.89C50.259 232.773 50.259 232.642 50.259 232.525C49.7769 227.912 49.6466 223.183 50.0114 218.557C50.1287 217.71 50.1287 216.863 50.259 216.003C50.7411 211.638 50.9887 207.143 50.9887 202.764C50.9887 202.035 50.8714 201.188 50.7411 200.211C50.3762 196.692 49.8941 191.832 52.6826 190.503C53.4123 190.138 54.2592 190.138 54.9889 190.503C55.6013 190.868 56.0834 191.598 55.9661 192.445C55.9661 192.927 55.9661 193.292 56.2137 193.774C56.331 193.891 56.6958 194.621 57.1909 194.868C58.6503 195.233 60.1097 195.481 61.6863 195.715L62.1684 195.833C62.5333 195.833 62.8981 195.833 63.1457 195.715C65.452 195.233 67.2762 193.526 68.1232 191.35C68.3707 190.738 68.488 190.138 68.7356 189.656C68.9831 189.044 69.1004 188.679 69.2177 188.327C69.6346 187.076 69.4001 186.216 68.3056 185.982Z" fill="white"/>
<path d="M31.912 141.74C32.6493 141.74 33.2467 141.81 33.704 141.95C34.1613 142.09 34.5767 142.337 34.95 142.692C35.706 143.411 36.084 144.349 36.084 145.506C36.084 146.561 35.734 147.447 35.034 148.166C34.5767 148.623 34.0773 148.908 33.536 149.02C32.9853 149.123 32.1453 149.174 31.016 149.174C29.8867 149.174 29.0513 149.123 28.51 149.02C27.9593 148.908 27.4553 148.623 26.998 148.166C26.298 147.447 25.948 146.561 25.948 145.506C25.948 144.414 26.2513 143.555 26.858 142.93C27.4647 142.295 28.2253 141.903 29.14 141.754V143.714C28.1693 143.938 27.684 144.535 27.684 145.506C27.684 146.01 27.8613 146.425 28.216 146.752C28.4307 146.939 28.72 147.065 29.084 147.13C29.448 147.195 30.092 147.228 31.016 147.228C31.9493 147.228 32.598 147.195 32.962 147.13C33.326 147.065 33.6153 146.939 33.83 146.752C34.1753 146.435 34.348 146.019 34.348 145.506C34.348 144.909 34.1613 144.447 33.788 144.12C33.452 143.821 33.0087 143.672 32.458 143.672H32.094V145.506H30.456V141.74H31.912ZM36 137.8V139.746H26.032V137.8H36ZM36 127.781V129.811L34.236 130.399V133.941L36 134.543V136.573L26.032 132.947V131.421L36 127.781ZM32.598 130.917L28.972 132.135L32.598 133.395V130.917ZM36 118.923V120.659L29.882 124.607H36V126.553H26.032V124.817L32.136 120.869H26.032V118.923H36ZM27.768 110.188V112.792H36V114.738H27.768V117.342H26.032L26.032 110.188H27.768ZM36 97.6478V99.6778L34.236 100.266V103.808L36 104.41V106.44L26.032 102.814V101.288L36 97.6478ZM32.598 100.784L28.972 102.002L32.598 103.262V100.784ZM28.818 89.294C29.3033 89.2194 30.036 89.182 31.016 89.182C31.996 89.182 32.7333 89.2194 33.228 89.294C33.7133 89.3594 34.152 89.532 34.544 89.812C35.5147 90.512 36 91.5154 36 92.822V96.42H26.032V92.822C26.032 91.5154 26.5173 90.512 27.488 89.812C27.88 89.532 28.3233 89.3594 28.818 89.294ZM32.808 91.198C32.4533 91.1514 31.856 91.128 31.016 91.128C30.176 91.128 29.5787 91.1514 29.224 91.198C28.8693 91.2447 28.5893 91.3567 28.384 91.534C27.9733 91.8607 27.768 92.346 27.768 92.99V94.474H34.264V92.99C34.264 92.346 34.0587 91.8607 33.648 91.534C33.4427 91.3567 33.1627 91.2447 32.808 91.198ZM32.584 80.0095C33.62 80.0095 34.4647 80.3595 35.118 81.0595C35.762 81.7595 36.084 82.6322 36.084 83.6775C36.084 84.7228 35.762 85.5955 35.118 86.2955C34.4647 86.9955 33.62 87.3455 32.584 87.3455H26.032V85.3995H32.514C33.0833 85.3995 33.5313 85.2455 33.858 84.9375C34.1847 84.6295 34.348 84.2095 34.348 83.6775C34.348 83.1455 34.1847 82.7255 33.858 82.4175C33.5313 82.1002 33.0833 81.9415 32.514 81.9415H26.032V80.0095H32.584ZM36 71.372L36 77.84H26.032V75.894H34.264V71.372H36ZM27.768 64.4963V67.1003H36V69.0463H27.768L27.768 71.6503H26.032L26.032 64.4963H27.768Z" fill="white"/>
<path d="M56.184 148.688V147.932C55.056 147.212 53.44 146.852 51.336 146.852H48.456V142.184H56.184V141.164H59.064V142.064H57V147.788H59.064V148.688H56.184ZM56.184 146.912V143.096H49.272V145.988H51.9C53.676 145.988 55.104 146.296 56.184 146.912ZM57 132.136V133.228L53.94 135.928L51.096 133.42V132.376L53.88 134.908L57 132.136ZM57 135.94V136.792H51.096V135.94H57ZM57 139.504V140.596L53.88 137.824L51.096 140.356V139.3L53.94 136.804L57 139.504ZM57 126.892V127.756H56.436C56.668 127.988 56.832 128.232 56.928 128.488C57.024 128.744 57.072 129.068 57.072 129.46C57.072 130.204 56.892 130.76 56.532 131.128C56.244 131.424 55.844 131.572 55.332 131.572C54.804 131.572 54.388 131.396 54.084 131.044C53.78 130.684 53.628 130.176 53.628 129.52V127.756H53.064C52.624 127.756 52.3 127.876 52.092 128.116C51.876 128.348 51.768 128.732 51.768 129.268C51.768 129.636 51.82 129.932 51.924 130.156C52.028 130.372 52.204 130.572 52.452 130.756L51.912 131.344C51.576 131.096 51.344 130.812 51.216 130.492C51.088 130.172 51.024 129.76 51.024 129.256C51.024 127.68 51.68 126.892 52.992 126.892H57ZM54.912 127.756H54.276V129.4C54.276 130.288 54.624 130.732 55.32 130.732C55.992 130.732 56.328 130.276 56.328 129.364C56.328 128.78 56.196 128.344 55.932 128.056C55.74 127.856 55.4 127.756 54.912 127.756ZM57 123.923V124.787H51.096V123.923H57ZM49.416 123.863V124.835H48.444V123.863H49.416ZM57 117.18V118.044H54.324V120.9H57V121.752H51.096V120.9H53.58V118.044H51.096V117.18H57ZM51.84 111.208V113.14H57V114.004H51.84V116.032H51.096V111.208H51.84ZM57 101.562V106.866H48.456V101.562H49.272V105.954H52.284V102.21H53.1V105.954H56.184V101.562H57ZM58.764 94.6302V95.4702H57V99.8622H58.764V100.69H56.256V99.9942C55.664 99.7302 55.088 99.5342 54.528 99.4062C53.968 99.2782 53.2 99.2142 52.224 99.2142H51.096V95.5062H56.256V94.6302H58.764ZM56.256 96.3702H51.84V98.3862H52.956C54.156 98.3942 55.256 98.6182 56.256 99.0582V96.3702ZM57 88.9463V89.8103H56.436C56.668 90.0423 56.832 90.2863 56.928 90.5423C57.024 90.7983 57.072 91.1223 57.072 91.5143C57.072 92.2583 56.892 92.8143 56.532 93.1823C56.244 93.4783 55.844 93.6263 55.332 93.6263C54.804 93.6263 54.388 93.4503 54.084 93.0983C53.78 92.7383 53.628 92.2303 53.628 91.5743V89.8103H53.064C52.624 89.8103 52.3 89.9303 52.092 90.1703C51.876 90.4023 51.768 90.7863 51.768 91.3223C51.768 91.6903 51.82 91.9863 51.924 92.2103C52.028 92.4263 52.204 92.6263 52.452 92.8103L51.912 93.3983C51.576 93.1503 51.344 92.8663 51.216 92.5463C51.088 92.2263 51.024 91.8143 51.024 91.3103C51.024 89.7343 51.68 88.9463 52.992 88.9463H57ZM54.912 89.8103H54.276V91.4543C54.276 92.3423 54.624 92.7863 55.32 92.7863C55.992 92.7863 56.328 92.3303 56.328 91.4183C56.328 90.8343 56.196 90.3983 55.932 90.1103C55.74 89.9103 55.4 89.8103 54.912 89.8103ZM57 82.4499V83.3139H51.84L51.84 85.4019H53.88C55.04 85.4019 55.852 85.5659 56.316 85.8939C56.772 86.2219 57 86.6819 57 87.2739V87.6699H56.256V87.4779C56.256 87.3499 56.244 87.2379 56.22 87.1419C56.196 87.0459 56.136 86.9379 56.04 86.8179C55.936 86.6899 55.796 86.5899 55.62 86.5179C55.444 86.4379 55.188 86.3699 54.852 86.3139C54.508 86.2579 54.1 86.2299 53.628 86.2299H51.096L51.096 82.4499H57ZM51.84 76.4737V78.4057H57V79.2697H51.84V81.2977H51.096V76.4737H51.84Z" fill="white"/>
</svg>
