<svg width="81" height="259" viewBox="0 0 81 259" fill="none" xmlns="http://www.w3.org/2000/svg">
<path d="M0 0H81V211C81 237.51 59.5097 259 33 259H0V0Z" fill="#0D316E"/>
<path fill-rule="evenodd" clip-rule="evenodd" d="M61.2874 179.316C61.2874 179.316 60.9995 179 60.3377 178.929C59.5066 178.365 57.8445 177.831 57.0134 177.267C56.1824 177 56.1824 176.703 55.9153 176.436C55.6481 176.169 55.6481 175.338 55.6481 175.041C55.6481 174.744 54.8171 174.21 54.8171 174.21C54.8171 174.21 53.986 173.112 53.4221 172.548C52.8582 171.984 52.8582 171.45 52.8582 171.45C53.4221 170.055 53.4221 168.422 53.4221 168.422C53.6892 167.858 53.4221 165.929 53.4221 165.929C53.4221 165.929 53.4221 165.662 53.155 165.662C52.8879 165.662 51.76 167.324 50.6618 168.689C49.5637 170.084 49.2669 169.788 49.2669 169.788C48.9997 169.224 49.2669 165.929 49.2669 165.365C49.2669 164.801 48.9997 164.267 48.4358 164.267C48.1687 164.267 47.6048 165.365 47.3376 165.929C47.0705 166.493 46.2395 167.591 45.9427 168.155C45.6459 168.719 45.1116 169.55 44.5477 169.817C43.9837 170.381 43.7166 170.648 43.7166 170.648L43.9837 170.916C43.9837 170.916 43.9838 170.916 43.7166 170.916C43.4495 171.183 43.1527 171.479 43.1527 171.479L43.7166 171.747C43.1527 171.747 43.1527 172.014 43.1527 172.014H43.4198C43.1527 172.281 42.8559 172.281 42.8559 172.281L43.123 172.548C42.8559 172.548 42.5591 172.548 42.5591 172.548C42.5591 172.815 43.123 172.815 43.123 172.815L42.5591 173.082C42.8262 173.082 43.123 173.082 43.123 173.082L42.8559 173.349H43.123L42.8559 173.616C42.8559 173.616 42.5888 174.18 41.7577 174.715C40.9267 175.279 40.3628 176.11 40.3628 176.11C39.5317 176.941 39.2646 177.505 39.5317 177.208C39.7988 176.941 39.7988 177.208 39.7988 177.208L39.5317 177.772C39.5317 177.772 38.4335 178.87 38.1367 179.434C37.8696 179.998 38.1367 180.829 37.0386 181.927C35.9404 183.322 35.9404 183.856 35.9404 183.856C35.9404 183.856 35.3764 186.082 35.3764 187.715C35.3764 187.715 35.3764 187.715 35.3764 187.982C35.3764 187.982 35.3765 188.249 35.1093 188.546C35.1093 188.546 33.7143 193.532 33.7143 194.63C33.7143 195.461 31.4883 197.954 29.8559 200.151C29.292 200.982 28.4609 202.377 27.6299 204.573C27.6299 204.573 27.3627 205.404 27.3627 205.671C26.2646 208.432 25.1367 210.094 24.8696 211.192C24.3057 212.29 23.7714 215.614 22.1093 217.543C21.2783 218.374 20.7144 220.304 20.4472 221.966C20.1801 223.361 19.8833 224.459 19.8833 225.557C19.8833 227.783 18.4883 229.712 17.9541 230.81C17.687 231.642 17.687 231.909 17.687 232.205C17.9541 232.473 18.2509 232.473 18.2509 232.473C18.8148 232.473 18.8148 232.74 18.8148 232.74C18.8148 232.74 17.1527 233.007 16.3217 232.74C14.9267 232.74 11.8993 233.304 10.5043 234.135C9.40615 234.699 9.67325 234.966 11.3354 235.53C11.8993 235.797 12.9975 235.797 13.8285 236.361C14.9267 236.925 18.8148 236.628 22.139 236.628C23.8011 236.628 27.3924 234.966 28.2235 234.402C29.0545 233.838 28.2235 232.74 28.2235 232.74C28.7874 232.74 29.6185 232.74 31.5477 233.304C31.8148 233.304 32.3787 233.304 32.9427 233.571C33.2098 233.838 33.7737 233.838 34.0408 233.838C34.6048 233.838 34.6048 233.838 34.8719 233.838C35.139 233.838 35.4358 233.838 35.703 233.838C36.2669 233.571 36.534 233.274 36.534 233.274H36.8011C36.8011 233.007 36.8011 232.443 36.8011 232.443C36.534 232.176 37.365 232.443 38.4632 232.71C38.7303 232.71 39.0272 232.977 39.5614 232.977C39.5614 232.977 39.8285 232.977 40.1253 233.244C40.3924 233.244 40.6892 233.244 40.9564 233.244C41.2235 233.244 41.5203 233.244 41.5203 233.244C41.5203 233.244 41.5203 233.511 41.7874 234.342C41.7874 234.906 41.7874 234.906 41.7874 235.173C41.7874 235.441 41.7874 236.005 42.3513 236.568C42.6184 236.836 42.6185 237.132 42.9153 237.132C43.4792 237.4 43.7463 237.4 44.0135 237.4C44.2806 237.4 44.2805 237.4 44.5774 237.4C44.8445 237.4 45.1413 237.667 45.9723 237.667C46.2395 237.667 46.5363 237.667 46.8034 237.667C47.0705 237.667 47.6344 237.667 47.9016 237.667C48.1687 237.667 48.1687 237.667 48.1687 237.4C48.1687 237.132 48.4358 236.836 48.1687 236.568C47.6048 235.47 47.9016 234.342 46.7737 234.075C46.5066 234.075 45.9427 233.808 45.6755 233.244C45.1116 232.413 44.5774 231.315 44.5774 230.751C44.5774 230.484 44.3103 229.92 44.3103 229.356C44.0431 228.525 44.3103 228.258 44.3103 227.694C44.3103 227.13 44.3102 227.13 44.0431 226.863C44.0431 226.596 43.776 226.596 43.776 226.596C43.776 226.596 43.5089 224.934 44.0431 223.272C44.6071 221.342 44.0431 221.877 44.8742 220.244C45.1413 219.68 45.4381 219.146 45.4381 219.146C45.4381 219.146 46.2691 220.541 46.2691 221.906C46.2691 223.005 46.8331 224.132 47.1002 225.231C47.1002 226.062 47.3673 226.893 47.3673 227.16V227.427C47.3673 227.427 46.8034 227.991 47.1002 228.525C47.3673 229.089 47.9312 228.792 47.9312 229.089C48.1984 229.653 48.1984 229.653 48.4952 230.187C48.4952 230.454 48.4952 231.018 48.4952 231.285C48.7623 231.849 49.0591 232.116 49.0591 232.384C49.3262 232.947 49.3262 232.947 49.3262 233.482C49.5933 234.313 49.8902 234.58 50.4244 234.58C50.4244 234.58 50.6915 234.847 51.2554 234.847C52.0865 235.114 52.6504 234.847 52.9176 234.847C53.7486 234.847 54.3125 235.114 54.8468 234.847C55.4107 234.847 55.4107 234.58 55.6778 234.283H55.9449V234.016C55.9449 234.016 56.2121 234.016 55.9449 233.749C55.6778 233.185 55.6778 233.185 55.381 232.651C55.1139 232.087 54.55 231.82 54.2828 231.552C53.7189 231.285 52.8879 230.989 52.3536 230.454C52.0865 230.187 50.9586 227.427 50.9586 226.596C50.6915 225.498 50.6915 224.934 50.6915 224.37C50.6915 224.103 50.6915 223.272 50.6915 222.144C50.6915 221.58 50.4244 220.749 50.4244 219.918C50.4244 217.692 50.4244 215.228 50.4244 214.397C50.4244 213.833 50.4244 212.171 50.6915 210.539C51.2555 208.61 52.0865 206.68 52.9176 205.849C54.3125 204.454 54.5796 200.596 53.4815 198.37C52.6504 195.877 52.0865 193.948 52.6504 191.721C52.6504 191.721 52.6504 188.961 52.3833 187.566C52.1162 187.002 52.1162 185.904 52.1162 185.34C51.849 184.776 52.3833 183.945 52.3833 183.945C52.3833 183.945 53.2143 183.381 53.7783 183.945C54.3422 184.212 55.4404 184.212 56.0043 184.509C56.2714 184.509 57.6664 184.242 57.6664 184.242C57.6664 184.242 59.0614 183.975 59.0614 182.847C58.7943 182.283 58.4974 182.016 58.2303 182.016C59.3285 182.283 60.4563 181.452 60.7235 181.185C60.9906 180.918 61.2874 180.621 61.2874 180.621C61.9995 180 61.2874 179.316 61.2874 179.316Z" fill="white"/>
<path d="M36 139.808V141.754H30.19L33.97 143.658V144.974L30.19 146.892H36V148.838H26.032V146.92L31.422 144.316L26.032 141.726V139.808H36ZM36 129.79V131.82L34.236 132.408V135.95L36 136.552V138.582L26.032 134.956V133.43L36 129.79ZM32.598 132.926L28.972 134.144L32.598 135.404V132.926ZM36 121.353V123.579L32.528 125.511L36 127.429V129.655L30.89 126.561L26.032 129.459V127.247L29.252 125.511L26.032 123.761V121.563L30.89 124.461L36 121.353ZM36 118.181V120.127H26.032V118.181H36ZM36 104.908V106.938L34.236 107.526V111.068L36 111.67V113.7L26.032 110.074V108.548L36 104.908ZM32.598 108.044L28.972 109.262L32.598 110.522V108.044ZM28.818 96.5538C29.3033 96.4791 30.036 96.4418 31.016 96.4418C31.996 96.4418 32.7333 96.4791 33.228 96.5538C33.7133 96.6191 34.152 96.7918 34.544 97.0718C35.5147 97.7718 36 98.7751 36 100.082V103.68H26.032V100.082C26.032 98.7751 26.5173 97.7718 27.488 97.0718C27.88 96.7918 28.3233 96.6191 28.818 96.5538ZM32.808 98.4578C32.4533 98.4111 31.856 98.3878 31.016 98.3878C30.176 98.3878 29.5787 98.4111 29.224 98.4578C28.8693 98.5045 28.5893 98.6165 28.384 98.7938C27.9733 99.1205 27.768 99.6058 27.768 100.25V101.734H34.264V100.25C34.264 99.6058 34.0587 99.1205 33.648 98.7938C33.4427 98.6165 33.1627 98.5045 32.808 98.4578ZM32.584 87.2693C33.62 87.2693 34.4647 87.6193 35.118 88.3193C35.762 89.0193 36.084 89.8919 36.084 90.9373C36.084 91.9826 35.762 92.8553 35.118 93.5553C34.4647 94.2553 33.62 94.6053 32.584 94.6053H26.032V92.6593H32.514C33.0833 92.6593 33.5313 92.5053 33.858 92.1973C34.1847 91.8893 34.348 91.4693 34.348 90.9373C34.348 90.4053 34.1847 89.9853 33.858 89.6773C33.5313 89.3599 33.0833 89.2013 32.514 89.2013H26.032V87.2693H32.584ZM36 78.6317V85.0997H26.032V83.1537H34.264V78.6317H36ZM27.768 71.7561V74.3601H36V76.3061H27.768V78.9101H26.032V71.7561H27.768Z" fill="white"/>
<path d="M57 140.444V141.356H50.508L55.656 143.696V144.476L50.508 146.852H57V147.764H48.456V146.852L54.516 144.068L48.456 141.356V140.444H57ZM57 133.911V134.775H56.436C56.668 135.007 56.832 135.251 56.928 135.507C57.024 135.763 57.072 136.087 57.072 136.479C57.072 137.223 56.892 137.779 56.532 138.147C56.244 138.443 55.844 138.591 55.332 138.591C54.804 138.591 54.388 138.415 54.084 138.063C53.78 137.703 53.628 137.195 53.628 136.539V134.775H53.064C52.624 134.775 52.3 134.895 52.092 135.135C51.876 135.367 51.768 135.751 51.768 136.287C51.768 136.655 51.82 136.951 51.924 137.175C52.028 137.391 52.204 137.591 52.452 137.775L51.912 138.363C51.576 138.115 51.344 137.831 51.216 137.511C51.088 137.191 51.024 136.779 51.024 136.275C51.024 134.699 51.68 133.911 52.992 133.911H57ZM54.912 134.775H54.276V136.419C54.276 137.307 54.624 137.751 55.32 137.751C55.992 137.751 56.328 137.295 56.328 136.383C56.328 135.799 56.196 135.363 55.932 135.075C55.74 134.875 55.4 134.775 54.912 134.775ZM57 130.895V131.759H51.096V130.895H57ZM57 126.971V128.087L53.94 130.883L51.096 128.279V127.211L53.88 129.863L57 126.971ZM56.196 121.817C56.54 122.145 56.772 122.449 56.892 122.729C57.012 123.017 57.072 123.349 57.072 123.725C57.072 124.549 56.804 125.197 56.268 125.669C55.732 126.141 54.992 126.377 54.048 126.377C53.104 126.377 52.364 126.141 51.828 125.669C51.292 125.197 51.024 124.549 51.024 123.725C51.024 123.349 51.084 123.017 51.204 122.729C51.324 122.449 51.556 122.145 51.9 121.817L52.452 122.405C52.18 122.669 52.004 122.893 51.924 123.077C51.836 123.277 51.792 123.497 51.792 123.737C51.792 124.921 52.544 125.513 54.048 125.513C55.552 125.513 56.304 124.925 56.304 123.749C56.304 123.501 56.264 123.285 56.184 123.101C56.096 122.909 55.912 122.677 55.632 122.405L56.196 121.817ZM57 119.306V120.17H51.096V119.306H57ZM49.416 119.246V120.218H48.444V119.246H49.416ZM57 108.687V113.991H48.456V108.687H49.272V113.079H52.284V109.335H53.1V113.079H56.184V108.687H57ZM58.764 101.755V102.595H57V106.987H58.764V107.815H56.256V107.119C55.664 106.855 55.088 106.659 54.528 106.531C53.968 106.403 53.2 106.339 52.224 106.339H51.096V102.631H56.256V101.755H58.764ZM56.256 103.495H51.84V105.511H52.956C54.156 105.519 55.256 105.743 56.256 106.183V103.495ZM57 96.0713V96.9353H56.436C56.668 97.1673 56.832 97.4113 56.928 97.6673C57.024 97.9233 57.072 98.2473 57.072 98.6393C57.072 99.3833 56.892 99.9393 56.532 100.307C56.244 100.603 55.844 100.751 55.332 100.751C54.804 100.751 54.388 100.575 54.084 100.223C53.78 99.8633 53.628 99.3553 53.628 98.6993V96.9353H53.064C52.624 96.9353 52.3 97.0553 52.092 97.2953C51.876 97.5273 51.768 97.9113 51.768 98.4473C51.768 98.8153 51.82 99.1113 51.924 99.3353C52.028 99.5513 52.204 99.7513 52.452 99.9353L51.912 100.523C51.576 100.275 51.344 99.9913 51.216 99.6713C51.088 99.3513 51.024 98.9393 51.024 98.4353C51.024 96.8593 51.68 96.0713 52.992 96.0713H57ZM54.912 96.9353H54.276V98.5793C54.276 99.4673 54.624 99.9113 55.32 99.9113C55.992 99.9113 56.328 99.4553 56.328 98.5433C56.328 97.9593 56.196 97.5233 55.932 97.2353C55.74 97.0353 55.4 96.9353 54.912 96.9353ZM57 89.5749V90.4389H51.84V92.5269H53.88C55.04 92.5269 55.852 92.6909 56.316 93.0189C56.772 93.3469 57 93.8069 57 94.3989V94.7949H56.256V94.6029C56.256 94.4749 56.244 94.3629 56.22 94.2669C56.196 94.1709 56.136 94.0629 56.04 93.9429C55.936 93.8149 55.796 93.7149 55.62 93.6429C55.444 93.5629 55.188 93.4949 54.852 93.4389C54.508 93.3829 54.1 93.3549 53.628 93.3549H51.096V89.5749H57ZM51.84 83.5987L51.84 85.5307H57V86.3947H51.84V88.4227H51.096L51.096 83.5987H51.84Z" fill="white"/>
</svg>
