<svg width="81" height="259" viewBox="0 0 81 259" fill="none" xmlns="http://www.w3.org/2000/svg">
<path d="M0 0H81V211C81 237.51 59.5097 259 33 259H0V0Z" fill="#AE1022"/>
<path d="M36 139.808V141.754H30.19L33.97 143.658V144.974L30.19 146.892H36V148.838H26.032V146.92L31.422 144.316L26.032 141.726V139.808H36ZM36 130.924V137.49H26.032V130.924H27.768V135.544H30.106V131.61H31.842V135.544H34.264V130.924H36ZM28.818 121.888C29.3033 121.813 30.036 121.776 31.016 121.776C31.996 121.776 32.7333 121.813 33.228 121.888C33.7133 121.953 34.152 122.126 34.544 122.406C35.5147 123.106 36 124.109 36 125.416V129.014H26.032V125.416C26.032 124.109 26.5173 123.106 27.488 122.406C27.88 122.126 28.3233 121.953 28.818 121.888ZM32.808 123.792C32.4533 123.745 31.856 123.722 31.016 123.722C30.176 123.722 29.5787 123.745 29.224 123.792C28.8693 123.838 28.5893 123.95 28.384 124.128C27.9733 124.454 27.768 124.94 27.768 125.584V127.068H34.264V125.584C34.264 124.94 34.0587 124.454 33.648 124.128C33.4427 123.95 33.1627 123.838 32.808 123.792ZM36 117.839V119.785H26.032V117.839H36ZM32.584 108.338C33.62 108.338 34.4647 108.688 35.118 109.388C35.762 110.088 36.084 110.96 36.084 112.006C36.084 113.051 35.762 113.924 35.118 114.624C34.4647 115.324 33.62 115.674 32.584 115.674H26.032L26.032 113.728H32.514C33.0833 113.728 33.5313 113.574 33.858 113.266C34.1847 112.958 34.348 112.538 34.348 112.006C34.348 111.474 34.1847 111.054 33.858 110.746C33.5313 110.428 33.0833 110.27 32.514 110.27H26.032V108.338H32.584ZM36 97.1381V99.0841H30.19L33.97 100.988V102.304L30.19 104.222H36V106.168H26.032V104.25L31.422 101.646L26.032 99.0561V97.1381H36ZM36 83.8665V85.8965L34.236 86.4845V90.0265L36 90.6285V92.6585L26.032 89.0325V87.5065L36 83.8665ZM32.598 87.0025L28.972 88.2205L32.598 89.4805V87.0025ZM28.818 75.5128C29.3033 75.4381 30.036 75.4008 31.016 75.4008C31.996 75.4008 32.7333 75.4381 33.228 75.5128C33.7133 75.5781 34.152 75.7508 34.544 76.0308C35.5147 76.7308 36 77.7341 36 79.0408V82.6388H26.032V79.0408C26.032 77.7341 26.5173 76.7308 27.488 76.0308C27.88 75.7508 28.3233 75.5781 28.818 75.5128ZM32.808 77.4168C32.4533 77.3701 31.856 77.3468 31.016 77.3468C30.176 77.3468 29.5787 77.3701 29.224 77.4168C28.8693 77.4634 28.5893 77.5754 28.384 77.7528C27.9733 78.0794 27.768 78.5648 27.768 79.2088V80.6928H34.264V79.2088C34.264 78.5648 34.0587 78.0794 33.648 77.7528C33.4427 77.5754 33.1627 77.4634 32.808 77.4168ZM32.584 66.2283C33.62 66.2283 34.4647 66.5783 35.118 67.2783C35.762 67.9783 36.084 68.8509 36.084 69.8963C36.084 70.9416 35.762 71.8143 35.118 72.5143C34.4647 73.2143 33.62 73.5643 32.584 73.5643H26.032V71.6183H32.514C33.0833 71.6183 33.5313 71.4643 33.858 71.1563C34.1847 70.8483 34.348 70.4283 34.348 69.8963C34.348 69.3643 34.1847 68.9443 33.858 68.6363C33.5313 68.3189 33.0833 68.1603 32.514 68.1603H26.032V66.2283H32.584ZM36 57.5907V64.0587H26.032V62.1127H34.264V57.5907H36ZM27.768 50.7151V53.3191H36V55.2651H27.768V57.8691H26.032V50.7151H27.768Z" fill="white"/>
<path d="M57 140.444V141.356H50.508L55.656 143.696V144.476L50.508 146.852H57V147.764H48.456V146.852L54.516 144.068L48.456 141.356V140.444H57ZM54.276 133.599V137.583C54.932 137.583 55.436 137.435 55.788 137.139C56.14 136.843 56.316 136.411 56.316 135.843C56.316 135.507 56.264 135.227 56.16 135.003C56.056 134.771 55.884 134.535 55.644 134.295L56.16 133.707C56.48 134.027 56.712 134.347 56.856 134.667C57 134.987 57.072 135.387 57.072 135.867C57.072 136.683 56.824 137.319 56.328 137.775C55.824 138.223 55.064 138.447 54.048 138.447C53.096 138.447 52.356 138.231 51.828 137.799C51.292 137.367 51.024 136.775 51.024 136.023C51.024 135.263 51.28 134.671 51.792 134.247C52.296 133.815 52.996 133.599 53.892 133.599H54.276ZM53.628 134.451C53.172 134.483 52.844 134.547 52.644 134.643C52.052 134.923 51.756 135.383 51.756 136.023C51.756 136.663 52.052 137.123 52.644 137.403C52.852 137.499 53.18 137.559 53.628 137.583V134.451ZM58.764 126.798V127.638H57V132.03H58.764V132.858H56.256V132.162C55.664 131.898 55.088 131.702 54.528 131.574C53.968 131.446 53.2 131.382 52.224 131.382H51.096V127.674H56.256V126.798H58.764ZM56.256 128.538H51.84V130.554H52.956C54.156 130.562 55.256 130.786 56.256 131.226V128.538ZM57 124.462V125.326H51.096V124.462H57ZM49.416 124.402V125.374H48.444V124.402H49.416ZM51.096 118.139L58.428 120.827C59.164 121.099 59.532 121.623 59.532 122.399V122.771H58.764V122.507C58.764 122.227 58.716 122.023 58.62 121.895C58.524 121.759 58.328 121.639 58.032 121.535L56.88 121.115L51.096 123.239V122.303L55.836 120.683L51.096 119.075V118.139ZM57 111.224V112.088H52.8L56.064 113.732V114.392L52.8 116.06H57V116.912H51.096V116.06L55.068 114.056L51.096 112.076V111.224H57ZM57 100.601V105.905H48.456V100.601H49.272V104.993H52.284V101.249H53.1V104.993H56.184V100.601H57ZM58.764 93.6693V94.5093H57V98.9013H58.764V99.7293H56.256V99.0333C55.664 98.7693 55.088 98.5733 54.528 98.4453C53.968 98.3173 53.2 98.2533 52.224 98.2533H51.096V94.5453H56.256V93.6693H58.764ZM56.256 95.4093H51.84V97.4253H52.956C54.156 97.4333 55.256 97.6573 56.256 98.0973V95.4093ZM57 87.9853V88.8493H56.436C56.668 89.0813 56.832 89.3253 56.928 89.5813C57.024 89.8373 57.072 90.1613 57.072 90.5533C57.072 91.2973 56.892 91.8533 56.532 92.2213C56.244 92.5173 55.844 92.6653 55.332 92.6653C54.804 92.6653 54.388 92.4893 54.084 92.1373C53.78 91.7773 53.628 91.2693 53.628 90.6133V88.8493H53.064C52.624 88.8493 52.3 88.9693 52.092 89.2093C51.876 89.4413 51.768 89.8253 51.768 90.3613C51.768 90.7293 51.82 91.0253 51.924 91.2493C52.028 91.4653 52.204 91.6653 52.452 91.8493L51.912 92.4373C51.576 92.1893 51.344 91.9053 51.216 91.5853C51.088 91.2653 51.024 90.8533 51.024 90.3493C51.024 88.7733 51.68 87.9853 52.992 87.9853H57ZM54.912 88.8493H54.276V90.4933C54.276 91.3813 54.624 91.8253 55.32 91.8253C55.992 91.8253 56.328 91.3693 56.328 90.4573C56.328 89.8733 56.196 89.4373 55.932 89.1493C55.74 88.9493 55.4 88.8493 54.912 88.8493ZM57 81.4889V82.3529H51.84L51.84 84.4409H53.88C55.04 84.4409 55.852 84.6049 56.316 84.9329C56.772 85.2609 57 85.7209 57 86.3129V86.7089H56.256V86.5169C56.256 86.3889 56.244 86.2769 56.22 86.1809C56.196 86.0849 56.136 85.9769 56.04 85.8569C55.936 85.7289 55.796 85.6289 55.62 85.5569C55.444 85.4769 55.188 85.4089 54.852 85.3529C54.508 85.2969 54.1 85.2689 53.628 85.2689H51.096L51.096 81.4889H57ZM51.84 75.5127V77.4447H57V78.3087H51.84V80.3367H51.096V75.5127H51.84Z" fill="white"/>
<path d="M70.6297 173.372C69.3622 172.721 65.5253 172.105 64.2578 172.105C63.2986 172.105 62.9902 172.105 62.6477 171.454C62.3394 170.803 62.6476 168.576 59.1534 167.959C55.6591 167.308 51.4796 166.349 48.6362 167.959C47.3687 168.61 45.7586 169.227 43.8401 173.064C42.8809 175.291 40.0032 177.209 39.044 180.738L37.7765 182.964C37.7765 182.964 36.8172 183.923 35.5497 184.883C34.5905 185.842 32.9804 187.109 32.9804 187.109C32.9804 187.109 31.0619 189.336 29.4861 190.604C27.9102 191.871 26.9167 193.481 26.3001 193.79C25.6492 194.098 17.6671 202.08 14.8237 207.527C12.2544 212.323 11.3294 217.736 11.3294 219.346C11.3294 220.956 11.3294 220.956 11.3294 220.956C11.3294 220.956 9.10269 223.183 9.10269 224.142C8.79437 226.711 10.0619 228.596 14.2071 230.206C15.4746 230.857 19.6199 231.165 21.5383 231.165C24.7243 231.165 29.212 232.433 31.1305 233.083C33.0489 233.734 34.6248 233.734 35.9266 233.083C37.5367 232.124 30.8222 230.206 30.8222 230.206C30.8222 230.206 29.8629 229.247 35.2757 230.206C35.2757 230.206 35.9266 230.206 37.845 230.514C38.1533 230.822 38.4959 231.165 39.7634 231.165C41.031 231.165 41.6819 230.857 41.6819 230.857C42.6411 230.548 42.6411 230.206 41.6819 228.63C41.3735 227.671 39.7634 227.362 38.8042 227.02C39.1125 227.02 39.1125 227.02 39.4551 227.02C40.106 227.02 41.3735 226.711 41.3735 226.711C42.0244 226.403 42.6411 226.061 42.0244 224.793C42.0244 224.142 40.7569 223.183 39.7977 223.183L35.0016 221.915C35.0016 221.915 38.1876 219.346 37.2283 215.543C37.2283 215.543 38.4959 213.317 40.106 212.974C42.3328 212.323 42.6753 211.707 42.6753 211.707C42.6753 211.707 43.3263 215.543 43.6346 216.811C43.9429 218.421 43.3262 223.183 44.2854 224.142C45.2447 224.793 45.8956 226.061 46.2039 227.328C46.5122 228.287 46.2039 231.165 47.814 231.473C49.4241 231.782 53.8776 231.165 53.8776 231.165C53.8776 231.165 54.8369 229.247 52.9184 228.287C51.6509 227.636 50.3491 227.328 50.3491 227.328C50.3491 227.328 53.8434 227.979 53.8434 226.369C54.1517 223.491 51.2741 224.759 50.3491 222.224C50.0408 221.264 48.4306 216.16 48.739 213.591C49.3899 211.021 49.6982 207.835 51.3083 205.609C52.9184 203.69 55.1452 201.155 55.7618 196.667C56.0701 195.057 56.0701 191.871 55.7618 190.295L55.111 188.685C57.0294 188.994 59.5645 188.377 59.907 185.808C59.907 185.157 59.907 184.198 59.5987 182.93C60.2496 182.93 61.2088 182.93 62.1681 182.93C62.1681 182.93 64.0865 183.581 65.0457 182.93C66.0049 182.279 67.2725 181.662 67.2725 181.662C67.2725 181.662 69.4992 181.354 70.1501 178.168C70.2871 177.86 72.2056 174.023 70.6297 173.372Z" fill="white"/>
</svg>
