<svg width="81" height="259" viewBox="0 0 81 259" fill="none" xmlns="http://www.w3.org/2000/svg">
<path d="M0 0H81V211C81 237.51 59.5097 259 33 259H0V0Z" fill="#007E32"/>
<path d="M36 139.808V141.754H30.19L33.97 143.658V144.974L30.19 146.892H36V148.838H26.032V146.92L31.422 144.316L26.032 141.726V139.808H36ZM36 135.544V137.49H26.032V135.544H36ZM36 125.595V127.331L29.882 131.279H36V133.225H26.032V131.489L32.136 127.541H26.032V125.595H36ZM36 121.326V123.272H26.032V121.326H36ZM36 108.052V110.082L34.236 110.67V114.212L36 114.814V116.844L26.032 113.218V111.692L36 108.052ZM32.598 111.188L28.972 112.406L32.598 113.666V111.188ZM28.818 99.6983C29.3033 99.6237 30.036 99.5863 31.016 99.5863C31.996 99.5863 32.7333 99.6237 33.228 99.6983C33.7133 99.7637 34.152 99.9363 34.544 100.216C35.5147 100.916 36 101.92 36 103.226V106.824H26.032V103.226C26.032 101.92 26.5173 100.916 27.488 100.216C27.88 99.9363 28.3233 99.7637 28.818 99.6983ZM32.808 101.602C32.4533 101.556 31.856 101.532 31.016 101.532C30.176 101.532 29.5787 101.556 29.224 101.602C28.8693 101.649 28.5893 101.761 28.384 101.938C27.9733 102.265 27.768 102.75 27.768 103.394V104.878H34.264V103.394C34.264 102.75 34.0587 102.265 33.648 101.938C33.4427 101.761 33.1627 101.649 32.808 101.602ZM32.584 90.4138C33.62 90.4138 34.4647 90.7638 35.118 91.4638C35.762 92.1638 36.084 93.0365 36.084 94.0818C36.084 95.1271 35.762 95.9998 35.118 96.6998C34.4647 97.3998 33.62 97.7498 32.584 97.7498H26.032V95.8038H32.514C33.0833 95.8038 33.5313 95.6498 33.858 95.3418C34.1847 95.0338 34.348 94.6138 34.348 94.0818C34.348 93.5498 34.1847 93.1298 33.858 92.8218C33.5313 92.5045 33.0833 92.3458 32.514 92.3458H26.032V90.4138H32.584ZM36 81.7762V88.2442H26.032V86.2982H34.264V81.7762H36ZM27.768 74.9006V77.5046H36V79.4506H27.768V82.0546H26.032V74.9006H27.768Z" fill="white"/>
<path d="M57 140.444V141.356H50.508L55.656 143.696V144.476L50.508 146.852H57V147.764H48.456V146.852L54.516 144.068L48.456 141.356V140.444H57ZM57 137.259V138.123H51.096V137.259H57ZM49.416 137.199V138.171H48.444V137.199H49.416ZM57 130.516V131.38H54.324V134.236H57V135.088H51.096V134.236H53.58V131.38H51.096V130.516H57ZM57 127.497V128.361H51.096V127.497H57ZM49.416 127.437V128.409H48.444V127.437H49.416ZM57 116.878V122.182H48.456V116.878H49.272V121.27H52.284V117.526H53.1V121.27H56.184V116.878H57ZM58.764 109.947V110.787H57V115.179H58.764V116.007H56.256V115.311C55.664 115.047 55.088 114.851 54.528 114.723C53.968 114.595 53.2 114.531 52.224 114.531H51.096V110.823H56.256V109.947H58.764ZM56.256 111.687H51.84V113.703H52.956C54.156 113.711 55.256 113.935 56.256 114.375V111.687ZM57 104.263V105.127H56.436C56.668 105.359 56.832 105.603 56.928 105.859C57.024 106.115 57.072 106.439 57.072 106.831C57.072 107.575 56.892 108.131 56.532 108.499C56.244 108.795 55.844 108.943 55.332 108.943C54.804 108.943 54.388 108.767 54.084 108.415C53.78 108.055 53.628 107.547 53.628 106.891V105.127H53.064C52.624 105.127 52.3 105.247 52.092 105.487C51.876 105.719 51.768 106.103 51.768 106.639C51.768 107.007 51.82 107.303 51.924 107.527C52.028 107.743 52.204 107.943 52.452 108.127L51.912 108.715C51.576 108.467 51.344 108.183 51.216 107.863C51.088 107.543 51.024 107.131 51.024 106.627C51.024 105.051 51.68 104.263 52.992 104.263H57ZM54.912 105.127H54.276V106.771C54.276 107.659 54.624 108.103 55.32 108.103C55.992 108.103 56.328 107.647 56.328 106.735C56.328 106.151 56.196 105.715 55.932 105.427C55.74 105.227 55.4 105.127 54.912 105.127ZM57 97.7663V98.6303H51.84V100.718H53.88C55.04 100.718 55.852 100.882 56.316 101.21C56.772 101.538 57 101.998 57 102.59V102.986H56.256V102.794C56.256 102.666 56.244 102.554 56.22 102.458C56.196 102.362 56.136 102.254 56.04 102.134C55.936 102.006 55.796 101.906 55.62 101.834C55.444 101.754 55.188 101.686 54.852 101.63C54.508 101.574 54.1 101.546 53.628 101.546H51.096V97.7663H57ZM51.84 91.7901V93.7221H57V94.5861H51.84V96.6141H51.096V91.7901H51.84Z" fill="white"/>
<path fill-rule="evenodd" clip-rule="evenodd" d="M72.738 192.784C72.738 192.521 72.738 192.23 72.4753 191.967C72.2126 191.967 72.2126 191.704 71.9208 191.412C71.6289 191.12 71.3662 190.595 71.1035 190.332C70.8409 190.07 70.2863 189.515 70.0236 189.252C69.7609 188.99 69.469 188.435 69.469 188.435V187.618C69.469 187.618 69.469 187.618 69.469 187.355C69.469 187.093 69.469 186.801 69.469 186.801L69.7317 186.246C69.7317 185.983 69.469 185.984 69.469 185.984V185.721H69.7317L69.1772 185.458C69.1772 185.458 68.6226 184.641 68.0972 184.086C67.5427 183.532 67.5427 183.269 67.5427 183.269V183.006C67.5427 183.006 67.5427 182.452 67.28 182.189C67.0173 181.926 67.0173 181.372 66.7255 181.109C66.7255 180.847 66.4628 180.555 66.4628 180.555L66.2001 180.292C66.2001 180.292 65.9374 180.029 65.3828 180.029C64.8283 180.029 64.8283 180.292 64.3029 180.292C64.0402 180.292 63.4857 180.555 63.223 180.847C62.9603 181.138 62.6684 181.109 62.6684 181.109H62.1139H61.5593C61.5593 181.109 61.0048 181.372 60.7421 181.372C60.4794 181.372 60.4794 181.635 60.4794 181.635L60.2167 181.372C60.2167 181.372 59.954 181.372 59.6621 181.109C59.3994 181.109 58.8449 181.109 58.5822 181.109C58.3195 181.109 58.0276 181.372 57.765 181.372C57.5023 181.372 56.685 181.635 56.3932 181.635C56.1305 181.635 55.8386 181.897 55.5759 181.897C55.3132 181.897 55.0214 182.16 54.7587 182.452C54.496 182.744 53.9414 183.006 53.6787 183.006C53.4161 183.006 53.1242 183.269 53.1242 183.561C53.1242 183.853 53.3869 184.115 53.6787 185.195C53.9706 186.275 54.496 186.567 54.496 186.567C54.496 186.567 53.6787 187.647 53.1242 188.464C52.5696 189.282 52.0443 190.653 51.7524 191.179C51.4897 191.733 50.6725 192.813 50.1179 193.368C49.5634 193.922 48.7461 193.922 48.7461 193.922C48.7461 193.922 47.1116 194.74 46.2944 194.74C45.4772 194.74 43.0254 196.111 42.2082 196.111C41.3909 196.111 39.4937 196.374 39.2311 196.111C38.6765 196.111 37.042 196.111 35.6994 196.111C34.6195 196.111 33.5104 196.111 32.4305 195.849C31.3505 195.849 29.4533 195.032 27.8189 195.032C26.1844 195.032 23.7327 195.032 22.39 195.032C21.0474 195.032 20.7555 195.294 20.7555 195.294C20.7555 195.294 20.201 195.294 19.6756 195.032C19.1502 194.769 18.5957 194.477 18.5957 194.214C18.5957 193.952 16.9612 193.134 16.6985 192.58C16.4358 192.025 15.3267 191.208 15.064 190.945C14.8013 190.683 13.9841 189.574 13.6922 189.311C13.4004 189.048 11.7951 187.414 11.2405 186.859C10.9778 186.305 9.8687 184.962 9.60601 184.145C9.34333 183.59 8.52609 183.327 7.97154 183.065C7.70885 182.802 7.41697 182.51 7.41697 182.51C7.41697 182.51 7.41697 182.773 7.41697 183.065C7.41697 183.327 7.41698 184.145 7.1543 184.962C7.1543 185.779 7.41697 185.779 7.70884 187.414C7.97153 189.048 8.5261 189.603 8.5261 189.603C8.5261 189.603 8.78878 190.683 9.34334 191.5C9.8979 192.054 10.4233 192.872 10.4233 192.872L10.6859 193.134L10.9486 193.397C10.9486 193.397 11.2113 193.66 11.5032 193.952C11.7659 194.506 11.7659 194.214 11.7659 194.214C11.7659 194.477 12.0286 194.477 12.0286 194.477C12.0286 194.477 12.2912 194.477 12.2912 194.74L12.5539 195.002L12.8166 195.265L13.0793 195.528V195.79L13.342 196.053H13.6047V196.316V196.578L13.8674 196.841C13.8674 196.841 13.8674 196.841 14.13 196.841H14.3927L14.6554 197.104L14.9181 197.367L15.1808 197.629L15.4435 197.892V198.155H15.7062V198.417H15.9688V198.68L16.2315 198.943C16.2315 198.943 15.4143 200.577 14.8597 201.657C14.3052 203.029 14.3052 203.846 14.3052 205.451C14.3052 207.086 15.1224 208.72 15.3851 209.538C15.6478 210.092 15.9396 211.435 15.9396 211.435C15.9396 211.435 16.4942 211.989 15.9396 213.624C15.677 215.258 15.9397 215.521 15.3851 216.338C14.8305 217.155 13.7506 217.71 13.7506 218.527C13.7506 219.345 13.7506 221.242 14.0133 222.322C14.276 223.402 15.0932 226.67 15.0932 227.488C15.0932 227.75 15.0932 228.86 15.6478 228.86C15.9105 228.86 17.5449 228.86 17.8368 228.86C18.1287 228.86 18.9168 228.86 19.4713 228.86C20.0259 228.86 20.2885 228.86 20.5512 228.86C20.8139 228.86 20.8139 228.597 20.8139 228.305C20.8139 228.013 20.8139 227.75 20.5512 227.488C20.5512 227.225 19.9967 226.408 18.6541 226.116C18.3914 226.116 17.8368 225.299 17.5741 224.481C17.3115 223.664 17.8368 221.504 18.3914 220.687C18.6541 220.95 18.3914 220.687 18.6541 220.95C19.4713 222.03 19.4713 226.379 20.8431 226.67C21.3977 226.933 23.2948 226.933 24.3748 226.933C24.9293 226.933 24.6374 226.116 24.3748 225.561C24.1121 224.744 24.1121 224.744 22.4776 224.19C22.2149 223.635 21.923 222.555 21.6604 221.738C21.1058 219.549 24.3748 213.857 25.7466 213.565C25.7466 213.565 26.3011 212.748 26.5638 212.485C26.8265 212.223 29.5409 210.851 29.8328 210.851C30.1247 210.851 30.3874 211.114 30.3874 211.114L41.2742 211.931C42.646 211.931 43.9886 211.931 43.9886 211.931L44.8058 212.485L45.0685 213.303V213.857C45.0685 213.857 45.3312 215.754 45.3312 216.309C45.3312 216.864 45.5939 218.761 45.8858 219.286C45.8858 219.549 45.8858 220.658 45.8858 220.658V220.921C45.8858 221.183 45.8858 222.292 45.8858 222.818C45.8858 223.372 46.1485 223.372 46.4403 223.898C46.7322 224.423 46.703 224.16 46.703 224.16L46.9657 224.423L47.2284 224.978C47.2284 224.978 47.7829 226.058 47.7829 226.349C47.7829 226.641 48.8629 227.429 48.8629 227.721C48.8629 228.013 49.1255 228.276 49.4174 228.538C49.972 228.801 50.7892 229.093 51.0519 229.093C51.6064 229.093 52.4237 229.093 52.6864 229.093C53.2409 229.093 53.7663 229.093 54.0582 229.093C54.3209 229.093 54.8754 228.538 54.8754 228.538C54.8754 228.538 55.1381 228.276 55.1381 227.984L54.8754 227.721C54.8754 227.721 54.8754 227.167 54.6128 227.167C54.6128 226.904 54.0582 226.612 54.0582 226.612C53.7955 226.349 53.2409 226.058 52.9782 226.058C52.7156 226.058 52.161 225.795 51.8983 225.503C51.6356 225.211 51.6356 223.314 51.8983 222.789C52.161 222.234 52.161 221.154 52.4529 220.337C52.7156 219.257 53.5328 217.622 53.8247 217.068C54.0874 216.805 54.9046 214.353 55.1965 213.536C55.4592 212.456 56.2764 210.005 56.831 209.45C57.0937 208.895 57.9109 208.37 58.2028 208.078C58.4655 207.816 59.02 207.261 59.02 207.261C59.02 207.261 59.2827 206.706 59.5746 206.444C60.6545 206.706 60.6545 206.181 60.6545 205.889C60.6545 205.335 60.3918 204.517 60.3918 203.992C60.3918 203.175 60.3918 202.095 60.6545 200.723C60.6545 199.351 60.9172 198.826 61.4718 198.009C62.0263 197.191 62.289 197.191 62.8435 196.929C63.1062 196.666 63.6608 196.374 63.9235 196.374C64.478 196.374 65.2953 196.374 65.558 196.374C65.8207 196.374 66.1125 196.374 66.3752 196.637C66.9297 196.9 66.9297 196.899 68.0097 196.899C68.8269 196.899 69.3815 196.9 69.9068 196.637C70.4614 196.374 71.2787 195.82 71.5414 195.557C71.804 195.294 72.3586 194.185 72.3586 194.185C72.3586 194.185 72.3586 194.185 72.6213 193.922C72.884 193.66 72.6213 193.105 72.6213 193.105C72.6213 193.105 72.738 193.047 72.738 192.784Z" fill="white"/>
</svg>
