<svg width="81" height="259" viewBox="0 0 81 259" fill="none" xmlns="http://www.w3.org/2000/svg">
<path d="M0 0H81V211C81 237.51 59.5097 259 33 259H0V0Z" fill="#8ABD24"/>
<path d="M36 141.628V143.854L32.528 145.786L36 147.704V149.93L30.89 146.836L26.032 149.734V147.522L29.252 145.786L26.032 144.036V141.838L30.89 144.736L36 141.628ZM32.85 136.495V140.807H31.156V136.495H32.85ZM33.06 128.07C34.0027 128.07 34.7447 128.415 35.286 129.106C35.818 129.797 36.084 130.683 36.084 131.766C36.084 132.559 35.986 133.245 35.79 133.824C35.5847 134.403 35.244 134.93 34.768 135.406L33.508 134.146C34.068 133.586 34.348 132.788 34.348 131.752C34.348 131.173 34.2407 130.735 34.026 130.436C33.8113 130.128 33.5033 129.974 33.102 129.974C32.7567 129.974 32.4813 130.077 32.276 130.282C32.108 130.459 31.996 130.758 31.94 131.178L31.758 132.368C31.6367 133.208 31.3613 133.852 30.932 134.3C30.4653 134.776 29.812 135.014 28.972 135.014C28.0667 135.014 27.3387 134.701 26.788 134.076C26.228 133.451 25.948 132.606 25.948 131.542C25.948 130.198 26.3353 129.125 27.11 128.322L28.328 129.554C27.8707 130.021 27.642 130.702 27.642 131.598C27.642 132.093 27.7633 132.471 28.006 132.732C28.2393 132.993 28.538 133.124 28.902 133.124C29.2007 133.124 29.4387 133.031 29.616 132.844C29.812 132.629 29.938 132.326 29.994 131.934L30.176 130.744C30.2973 129.895 30.5587 129.26 30.96 128.84C31.436 128.327 32.136 128.07 33.06 128.07ZM36 117.208V119.154H30.19L33.97 121.058V122.374L30.19 124.292H36V126.238H26.032V124.32L31.422 121.716L26.032 119.126V117.208H36ZM36 107.191V109.221L34.236 109.809V113.351L36 113.953V115.983L26.032 112.357V110.831L36 107.191ZM32.598 110.327L28.972 111.545L32.598 112.805V110.327ZM36 99.495V105.963H26.032V104.017H34.264V99.495H36ZM36 91.4423V97.9103H26.032V95.9643H34.264V91.4423H36ZM36 78.9036V80.9336L34.236 81.5216V85.0636L36 85.6656V87.6956L26.032 84.0696V82.5436L36 78.9036ZM32.598 82.0396L28.972 83.2576L32.598 84.5176V82.0396ZM28.818 70.5499C29.3033 70.4752 30.036 70.4379 31.016 70.4379C31.996 70.4379 32.7333 70.4752 33.228 70.5499C33.7133 70.6152 34.152 70.7879 34.544 71.0679C35.5147 71.7679 36 72.7712 36 74.0779L36 77.6759H26.032V74.0779C26.032 72.7712 26.5173 71.7679 27.488 71.0679C27.88 70.7879 28.3233 70.6152 28.818 70.5499ZM32.808 72.4539C32.4533 72.4072 31.856 72.3839 31.016 72.3839C30.176 72.3839 29.5787 72.4072 29.224 72.4539C28.8693 72.5006 28.5893 72.6126 28.384 72.7899C27.9733 73.1166 27.768 73.6019 27.768 74.2459V75.7299H34.264V74.2459C34.264 73.6019 34.0587 73.1166 33.648 72.7899C33.4427 72.6126 33.1627 72.5006 32.808 72.4539ZM32.584 61.2654C33.62 61.2654 34.4647 61.6154 35.118 62.3154C35.762 63.0154 36.084 63.888 36.084 64.9334C36.084 65.9787 35.762 66.8514 35.118 67.5514C34.4647 68.2514 33.62 68.6014 32.584 68.6014H26.032V66.6554H32.514C33.0833 66.6554 33.5313 66.5014 33.858 66.1934C34.1847 65.8854 34.348 65.4654 34.348 64.9334C34.348 64.4014 34.1847 63.9814 33.858 63.6734C33.5313 63.356 33.0833 63.1974 32.514 63.1974H26.032V61.2654H32.584ZM36 52.6278V59.0958H26.032V57.1498H34.264V52.6278H36ZM27.768 45.7522V48.3562H36V50.3022H27.768V52.9062H26.032V45.7522H27.768Z" fill="white"/>
<path d="M57 146.852V147.764H48.456V146.852H57ZM57 143.621V144.485H51.096V143.621H57ZM57 139.697V140.813L53.94 143.609L51.096 141.005V139.937L53.88 142.589L57 139.697ZM56.196 134.543C56.54 134.871 56.772 135.175 56.892 135.455C57.012 135.743 57.072 136.075 57.072 136.451C57.072 137.275 56.804 137.923 56.268 138.395C55.732 138.867 54.992 139.103 54.048 139.103C53.104 139.103 52.364 138.867 51.828 138.395C51.292 137.923 51.024 137.275 51.024 136.451C51.024 136.075 51.084 135.743 51.204 135.455C51.324 135.175 51.556 134.871 51.9 134.543L52.452 135.131C52.18 135.395 52.004 135.619 51.924 135.803C51.836 136.003 51.792 136.223 51.792 136.463C51.792 137.647 52.544 138.239 54.048 138.239C55.552 138.239 56.304 137.651 56.304 136.475C56.304 136.227 56.264 136.011 56.184 135.827C56.096 135.635 55.912 135.403 55.632 135.131L56.196 134.543ZM54.168 129.777V133.065H53.364V129.777H54.168ZM54.528 122.003C55.32 122.155 55.944 122.495 56.4 123.023C56.848 123.551 57.072 124.199 57.072 124.967C57.072 125.831 56.792 126.543 56.232 127.103C55.856 127.479 55.444 127.715 54.996 127.811C54.548 127.907 53.792 127.955 52.728 127.955C51.664 127.955 50.908 127.907 50.46 127.811C50.012 127.715 49.6 127.479 49.224 127.103C48.664 126.543 48.384 125.831 48.384 124.967C48.384 124.191 48.608 123.543 49.056 123.023C49.504 122.495 50.128 122.155 50.928 122.003V122.939C50.392 123.051 49.972 123.287 49.668 123.647C49.356 123.999 49.2 124.439 49.2 124.967C49.2 125.551 49.4 126.043 49.8 126.443C50.064 126.699 50.388 126.863 50.772 126.935C51.148 127.007 51.8 127.043 52.728 127.043C53.656 127.043 54.312 127.007 54.696 126.935C55.072 126.863 55.392 126.699 55.656 126.443C56.056 126.043 56.256 125.551 56.256 124.967C56.256 124.439 56.104 123.995 55.8 123.635C55.488 123.267 55.064 123.027 54.528 122.915V122.003ZM57 114.447V115.311H52.8L56.064 116.955V117.615L52.8 119.283H57V120.135H51.096V119.283L55.068 117.279L51.096 115.299V114.447H57ZM54.048 107.76C55.128 107.76 55.912 108 56.4 108.48C56.848 108.912 57.072 109.476 57.072 110.172C57.072 110.868 56.848 111.432 56.4 111.864C55.912 112.344 55.128 112.584 54.048 112.584C52.96 112.584 52.176 112.344 51.696 111.864C51.248 111.432 51.024 110.868 51.024 110.172C51.024 109.476 51.248 108.912 51.696 108.48C52.176 108 52.96 107.76 54.048 107.76ZM54.048 108.624C53.144 108.624 52.536 108.78 52.224 109.092C51.936 109.38 51.792 109.74 51.792 110.172C51.792 110.596 51.936 110.952 52.224 111.24C52.544 111.56 53.152 111.72 54.048 111.72C54.944 111.72 55.552 111.56 55.872 111.24C56.16 110.952 56.304 110.596 56.304 110.172C56.304 109.74 56.16 109.38 55.872 109.092C55.552 108.78 54.944 108.624 54.048 108.624ZM57 101.751V102.615H51.84V104.703H53.88C55.04 104.703 55.852 104.867 56.316 105.195C56.772 105.523 57 105.983 57 106.575V106.971H56.256V106.779C56.256 106.651 56.244 106.539 56.22 106.443C56.196 106.347 56.136 106.239 56.04 106.119C55.936 105.991 55.796 105.891 55.62 105.819C55.444 105.739 55.188 105.671 54.852 105.615C54.508 105.559 54.1 105.531 53.628 105.531H51.096V101.751H57ZM57 91.1436V96.4476H48.456V91.1436H49.272V95.5356H52.284V91.7916H53.1V95.5356H56.184V91.1436H57ZM58.764 84.2123V85.0523H57V89.4443H58.764V90.2723H56.256V89.5763C55.664 89.3123 55.088 89.1163 54.528 88.9883C53.968 88.8603 53.2 88.7963 52.224 88.7963H51.096V85.0883H56.256V84.2123H58.764ZM56.256 85.9523H51.84V87.9683H52.956C54.156 87.9763 55.256 88.2003 56.256 88.6403V85.9523ZM57 78.5283V79.3923H56.436C56.668 79.6243 56.832 79.8683 56.928 80.1243C57.024 80.3803 57.072 80.7043 57.072 81.0963C57.072 81.8403 56.892 82.3963 56.532 82.7643C56.244 83.0603 55.844 83.2083 55.332 83.2083C54.804 83.2083 54.388 83.0323 54.084 82.6803C53.78 82.3203 53.628 81.8123 53.628 81.1563V79.3923H53.064C52.624 79.3923 52.3 79.5123 52.092 79.7523C51.876 79.9843 51.768 80.3683 51.768 80.9043C51.768 81.2723 51.82 81.5683 51.924 81.7923C52.028 82.0083 52.204 82.2083 52.452 82.3923L51.912 82.9803C51.576 82.7323 51.344 82.4483 51.216 82.1283C51.088 81.8083 51.024 81.3963 51.024 80.8923C51.024 79.3163 51.68 78.5283 52.992 78.5283H57ZM54.912 79.3923H54.276V81.0363C54.276 81.9243 54.624 82.3683 55.32 82.3683C55.992 82.3683 56.328 81.9123 56.328 81.0003C56.328 80.4163 56.196 79.9803 55.932 79.6923C55.74 79.4923 55.4 79.3923 54.912 79.3923ZM57 72.0319V72.8959H51.84V74.9839H53.88C55.04 74.9839 55.852 75.1479 56.316 75.4759C56.772 75.8039 57 76.2639 57 76.8559V77.2519H56.256V77.0599C56.256 76.9319 56.244 76.8199 56.22 76.7239C56.196 76.6279 56.136 76.5199 56.04 76.3999C55.936 76.2719 55.796 76.1719 55.62 76.0999C55.444 76.0199 55.188 75.9519 54.852 75.8959C54.508 75.8399 54.1 75.8119 53.628 75.8119H51.096V72.0319H57ZM51.84 66.0557V67.9877H57V68.8517H51.84V70.8797H51.096V66.0557H51.84Z" fill="white"/>
<path d="M73.2607 180.94C73.2607 180.456 73.0312 179.997 72.7763 179.512C72.7763 179.512 72.0624 177.855 71.1191 177.855C70.8897 177.855 70.6347 177.855 70.4053 178.085C70.1758 178.085 69.6914 178.314 69.462 178.569C69.2325 178.799 68.9776 178.799 68.9776 179.054L68.7481 179.283C68.5187 179.512 68.2637 179.512 68.2637 179.283C65.6633 175.969 60.8958 175.255 57.5815 177.855C56.6382 177.371 55.6694 176.912 54.7261 176.657C54.0122 176.428 53.2984 176.428 52.814 176.173C52.3296 176.173 52.3296 176.402 52.5845 176.886C52.814 177.83 53.0689 178.314 53.2984 179.028C52.814 179.028 51.8707 178.799 51.3863 178.799C50.9019 178.799 50.9019 179.028 51.1568 179.512C51.6412 180.711 52.1001 181.883 52.814 182.827C53.5278 184.254 54.0122 184.968 54.7261 185.912C54.7261 186.625 54.9555 187.569 54.9555 188.512C55.185 189.71 54.9555 191.112 54.4711 192.311C54.2417 193.025 53.0434 193.968 50.188 195.166C49.2447 195.396 48.2759 195.651 47.5876 195.651C45.446 195.88 43.075 195.88 40.9335 195.88C38.333 195.651 38.078 195.396 34.5088 194.937C27.6252 193.993 23.1127 193.509 19.314 195.88C19.314 195.651 19.314 195.396 19.0845 194.937C18.8551 193.993 18.8551 193.28 19.0845 192.336C19.0845 191.622 19.314 191.138 19.5689 190.679C21.2261 188.079 25.0248 187.365 29.7923 189.481C29.0784 188.053 27.8802 187.11 26.478 186.396C23.3931 185.198 20.0533 185.912 17.6823 187.824C16.0252 189.481 15.0818 191.622 15.0818 193.993C14.8524 195.905 15.0818 197.792 15.3113 199.704C15.0818 200.189 14.5975 200.902 14.368 201.361C13.1697 204.446 13.6541 207.531 13.8836 210.386C13.8836 211.1 14.1131 211.585 14.1131 212.299C14.3425 213.242 13.8836 214.211 13.1697 214.899L11.742 216.097C11.2576 216.582 11.0282 217.041 10.7987 217.525L9.37104 223.465C8.65719 224.179 8.42773 225.377 8.42773 226.55C8.65719 227.748 10.0849 230.119 11.2831 228.462C11.7675 227.264 11.997 226.321 12.2264 225.148L13.1697 221.12C13.3992 220.406 13.8836 219.692 14.5974 219.692L17.4528 218.978C19.3649 218.494 21.2516 217.321 22.9087 216.123C22.9087 216.352 22.9087 216.352 22.9087 216.607V217.805C22.4243 218.749 21.9654 219.463 21.2516 220.176C20.7672 220.89 20.3083 221.604 20.5377 222.547L21.0221 228.717C21.0221 229.202 21.5065 229.66 21.9654 229.66H26.2485C26.478 229.66 26.7329 229.431 26.7329 229.176V228.947C26.5035 228.462 26.0191 228.233 25.5347 228.003L24.5914 227.774C23.8775 227.544 23.6481 227.06 23.6481 226.346C23.4186 225.632 23.6481 224.918 23.8775 224.205C24.3619 223.006 25.3052 222.063 26.0191 221.12L30.0472 216.607L31.9593 214.007L32.6732 213.063L33.1576 212.579L33.642 212.808C36.9563 214.007 40.2961 214.95 43.8653 215.664C45.7774 216.148 47.4346 216.378 49.3212 216.378C49.3212 216.607 49.3212 216.607 49.3212 216.862C49.3212 218.774 49.3212 220.661 49.3212 222.573C49.3212 223.057 49.5506 223.516 49.8056 224.001L53.1199 229.456C53.3494 229.686 53.6043 229.941 54.0632 229.941H57.8619C59.2896 229.941 59.0602 229.711 59.0602 229.456C59.0602 228.972 58.5758 228.029 55.7458 227.544C55.2615 227.544 55.032 227.315 54.8025 226.831C54.3181 225.887 53.6043 224.689 53.1454 223.261C52.9159 222.777 52.9159 222.318 52.9159 221.604L53.6298 217.321C53.6298 216.837 53.8592 216.378 53.8592 215.893H54.0887C54.8025 217.092 55.2869 218.035 55.7458 218.978C57.403 222.063 59.0602 224.205 59.774 225.403C60.7173 226.601 61.4312 228.003 62.145 228.717C62.3745 229.202 62.8589 229.202 63.3433 229.431H66.9125C67.142 229.431 67.142 229.202 67.142 229.202C67.142 229.202 67.142 229.202 67.142 228.972C66.9125 228.488 66.6576 228.029 66.1987 227.774C65.9692 227.774 65.7143 227.289 64.0571 226.831C63.3433 226.601 62.8589 226.117 62.6294 225.632L58.8307 216.837C58.6012 216.352 58.3463 215.638 58.3463 214.925C58.3463 214.695 58.3463 214.44 58.3463 214.44V214.211C59.0602 213.981 59.774 213.497 60.4879 213.012C63.0883 211.355 65.2299 208.729 66.4281 205.874C68.0853 201.846 68.7991 197.563 68.7991 193.05C68.7991 192.821 68.7991 192.566 68.7991 192.336C68.7991 191.393 69.2835 190.424 69.7424 189.736C70.4563 188.792 71.1701 188.538 72.1134 187.135C73.2607 184.509 73.5156 182.597 73.2607 180.94Z" fill="white"/>
</svg>
