<svg width="40" height="40" viewBox="0 0 40 40" fill="none" xmlns="http://www.w3.org/2000/svg">
<circle cx="20" cy="20" r="19" stroke="white" stroke-width="2"/>
<path d="M20.3602 12.072C20.129 11.982 19.8724 11.982 19.6412 12.072C19.6017 12.0908 19.5633 12.1118 19.5262 12.135C19.4738 12.1581 19.4236 12.1859 19.3762 12.218L14.3762 16.218C14.1689 16.3838 14.036 16.6251 14.0066 16.8888C13.9773 17.1526 14.0539 17.4172 14.2197 17.6245C14.3854 17.8318 14.6267 17.9647 14.8905 17.994C15.1543 18.0234 15.4189 17.9468 15.6262 17.781L19.0002 15.08V27C19.0002 27.2652 19.1055 27.5196 19.2931 27.7071C19.4806 27.8946 19.735 28 20.0002 28C20.2654 28 20.5197 27.8946 20.7073 27.7071C20.8948 27.5196 21.0002 27.2652 21.0002 27V15.08L24.3752 17.78C24.5824 17.9458 24.8471 18.0224 25.1108 17.993C25.3746 17.9637 25.6159 17.8308 25.7817 17.6235C25.9474 17.4162 26.0241 17.1516 25.9947 16.8878C25.9654 16.6241 25.8324 16.3828 25.6252 16.217L20.6252 12.217C20.5773 12.1851 20.5268 12.1573 20.4742 12.134C20.4371 12.1108 20.3987 12.0898 20.3592 12.071" fill="white"/>
</svg>
