<svg width="24" height="13" viewBox="0 0 24 13" fill="none" xmlns="http://www.w3.org/2000/svg">
<path d="M4.75309 11.2644C4.35806 11.2644 4.03949 10.9719 4.03949 10.5939C4.03949 10.3745 4.14143 10.1673 4.33257 10.0453C6.20577 8.70434 9.07291 7.89974 12.0038 7.89974C14.9219 7.89974 17.789 8.70434 19.6622 10.0453C19.9681 10.2648 20.0318 10.6915 19.8024 10.9962C19.573 11.2888 19.127 11.3498 18.8085 11.1303C17.5469 10.2282 15.0875 9.25293 11.991 9.25293C8.88177 9.25293 6.4224 10.216 5.16086 11.1303C5.05891 11.2157 4.906 11.2644 4.75309 11.2644ZM5.40297 12.4104C5.51766 12.4104 5.6196 12.3738 5.7088 12.3007C7.136 11.1791 9.55714 10.472 12.0038 10.472C14.4759 10.472 16.8333 11.1547 18.286 12.3007C18.4899 12.4592 18.7957 12.4348 18.9614 12.2397C19.127 12.0447 19.1015 11.7521 18.8977 11.5936C17.2793 10.3135 14.6925 9.55771 12.0038 9.55771C9.31503 9.55771 6.71549 10.3257 5.09714 11.5936C4.89326 11.7521 4.85503 12.0447 5.03343 12.2397C5.12263 12.3494 5.2628 12.4104 5.40297 12.4104ZM1.61834 2.68201C0.726343 2.68201 0 3.37689 0 4.23026C0 5.08363 0.726343 5.77851 1.61834 5.77851H1.63109C2.52309 5.77851 3.24943 5.07144 3.23669 4.21807C3.23669 3.94987 3.16023 3.68167 3.02006 3.45004C2.72697 2.97459 2.19177 2.68201 1.61834 2.68201ZM12.0038 3.87672C11.1118 3.87672 10.3854 4.57161 10.3854 5.42497C10.3854 6.27834 11.1118 6.97322 12.0038 6.97322C12.8958 6.97322 13.6221 6.27834 13.6221 5.42497C13.6221 4.57161 12.8958 3.87672 12.0038 3.87672ZM12.0038 0C11.1118 0 10.3854 0.694884 10.3854 1.54825C10.3854 2.40162 11.1118 3.0965 12.0038 3.0965C12.8958 3.0965 13.6221 2.40162 13.6221 1.54825C13.6221 0.694884 12.8958 0 12.0038 0ZM7.69669 4.42532C7.55651 4.42532 7.4036 4.43751 7.26343 4.47408C6.39691 4.69352 5.8872 5.53469 6.11657 6.36368C6.30771 7.04637 6.9576 7.52182 7.69669 7.52182H7.73491C7.87509 7.52182 8.00251 7.49744 8.12994 7.46086C8.99646 7.24143 9.50617 6.40025 9.28954 5.57126C9.08566 4.88857 8.43577 4.41312 7.69669 4.42532ZM3.68269 6.02233C2.79069 6.02233 2.06434 6.71721 2.06434 7.57058C2.06434 7.85097 2.1408 8.11917 2.29371 8.36299C2.5868 8.82625 3.10926 9.11883 3.68269 9.11883H3.69543C3.98851 9.11883 4.26886 9.04569 4.52371 8.89939C5.28829 8.46052 5.54314 7.50963 5.09714 6.77817C4.77857 6.31491 4.25611 6.03452 3.68269 6.02233ZM16.7314 4.47408C15.8649 4.24245 14.9729 4.73009 14.7435 5.55907C14.5141 6.38806 15.0111 7.24143 15.8776 7.46086C16.7441 7.69249 17.6361 7.20485 17.8655 6.37587C18.1076 5.55907 17.5979 4.70571 16.7441 4.47408C16.7441 4.47408 16.7441 4.47408 16.7314 4.47408ZM17.8018 0.731457C16.9353 0.51202 16.0433 0.987467 15.8139 1.81645C15.5845 2.64544 16.0815 3.4988 16.948 3.71824C17.8145 3.93768 18.7065 3.46223 18.9359 2.63325C19.178 1.81645 18.6683 0.963085 17.8018 0.731457ZM21.1404 6.24177C20.3758 5.80289 19.3819 6.04671 18.9231 6.77817C18.4644 7.50963 18.7193 8.46052 19.4838 8.89939C20.2484 9.33827 21.2423 9.09445 21.7011 8.36299C21.9177 8.00945 21.9814 7.58277 21.8795 7.19266C21.7775 6.79036 21.5099 6.44901 21.1404 6.24177ZM23.9438 3.85234C23.7654 3.16965 23.1155 2.68201 22.3765 2.68201C21.803 2.68201 21.2678 2.97459 20.9875 3.43785C20.5287 4.1815 20.7836 5.1202 21.5609 5.55907C21.803 5.69317 22.0961 5.77851 22.3765 5.77851C22.9499 5.77851 23.4851 5.48593 23.7782 5.02267C23.9948 4.66913 24.0585 4.24245 23.9438 3.85234ZM6.62629 3.77919C7.51829 3.77919 8.24463 3.08431 8.24463 2.23094C8.24463 1.37758 7.51829 0.682693 6.62629 0.682693C6.48611 0.682693 6.3332 0.694884 6.19303 0.731457C5.32651 0.950894 4.8168 1.79207 5.03343 2.62105C5.22457 3.30375 5.87446 3.77919 6.62629 3.77919Z" fill="#E2001A"/>
</svg>
