<svg width="116" height="40" viewBox="0 0 116 40" fill="none" xmlns="http://www.w3.org/2000/svg">
<g clip-path="url(#clip0_36_53)">
<path d="M43.0576 20.5662C42.8653 20.5705 42.6751 20.5245 42.5055 20.4327C42.3359 20.3408 42.1925 20.2063 42.0892 20.042C41.9001 19.7793 41.8183 19.4529 41.8607 19.1307C41.9031 18.8085 42.0666 18.5153 42.3171 18.3119C45.5587 15.8899 50.5142 14.3958 55.5785 14.3958C60.6428 14.3958 65.5363 15.8375 68.783 18.3119C68.9133 18.4079 69.0231 18.5297 69.1055 18.6699C69.188 18.8101 69.2415 18.9658 69.2628 19.1276C69.2841 19.2893 69.2728 19.4537 69.2295 19.6109C69.1862 19.7681 69.1118 19.9147 69.0109 20.042C68.8108 20.2967 68.521 20.463 68.2024 20.506C67.8838 20.549 67.561 20.4654 67.302 20.2726C65.1375 18.6003 60.8707 16.8755 55.5216 16.8755C50.1725 16.8755 45.9056 18.6632 43.7411 20.2726C43.5569 20.4526 43.3134 20.5572 43.0576 20.5662ZM44.1398 22.6632C44.3272 22.6694 44.5107 22.6081 44.6576 22.4902C47.107 20.3932 51.3169 19.1507 55.5319 19.1507C59.747 19.1507 63.8171 20.4194 66.3441 22.4902C66.5178 22.6355 66.7414 22.705 66.9658 22.6833C67.1901 22.6617 67.3967 22.5507 67.5402 22.3748C67.6838 22.199 67.7524 21.9726 67.731 21.7455C67.7097 21.5183 67.6001 21.3091 67.4263 21.1638C64.6353 18.8572 60.1768 17.4207 55.5164 17.4207C50.856 17.4207 46.4131 18.7838 43.5702 21.1429C43.4029 21.2926 43.2985 21.5014 43.2782 21.7265C43.258 21.9516 43.3236 22.1761 43.4615 22.3539C43.5481 22.4475 43.6534 22.5216 43.7703 22.5713C43.8872 22.621 44.0131 22.6452 44.1398 22.6422V22.6632ZM37.6515 4.89647C37.1482 4.88801 36.6533 5.02829 36.2275 5.30014C35.5982 5.69473 35.1325 6.30788 34.9174 7.02491C34.7497 7.74738 34.8511 8.50711 35.2022 9.15859C35.4486 9.57912 35.7986 9.92772 36.2179 10.1703C36.6372 10.4129 37.1116 10.5412 37.5945 10.5426C38.0979 10.5511 38.5927 10.4108 39.0186 10.1389C39.6488 9.74306 40.1147 9.12789 40.3286 8.40892C40.4964 7.68645 40.395 6.92672 40.0438 6.27524C39.7968 5.85568 39.4465 5.50813 39.0273 5.26648C38.608 5.02483 38.134 4.89735 37.6515 4.89647ZM55.5216 7.08782C54.9696 7.08782 54.4299 7.25354 53.9709 7.56403C53.512 7.87452 53.1542 8.31583 52.943 8.83216C52.7317 9.34849 52.6764 9.91664 52.7841 10.4648C52.8918 11.0129 53.1577 11.5164 53.548 11.9116C53.9383 12.3068 54.4357 12.5759 54.9771 12.6849C55.5185 12.7939 56.0797 12.738 56.5897 12.5241C57.0997 12.3102 57.5356 11.9481 57.8423 11.4834C58.1489 11.0187 58.3126 10.4724 58.3126 9.91351C58.3126 9.16409 58.0186 8.44536 57.4952 7.91544C56.9717 7.38552 56.2618 7.08782 55.5216 7.08782ZM55.5216 4.85632e-06C54.9696 -0.00103104 54.4296 0.16368 53.9701 0.473308C53.5105 0.782936 53.152 1.22358 52.9398 1.73951C52.7276 2.25543 52.6713 2.82348 52.778 3.37181C52.8847 3.92014 53.1496 4.42413 53.5392 4.82004C53.9288 5.21595 54.4256 5.48601 54.9668 5.59605C55.508 5.7061 56.0693 5.6512 56.5797 5.43829C57.0901 5.22538 57.5267 4.86402 57.8342 4.39992C58.1417 3.93581 58.3064 3.3898 58.3075 2.83094C58.3081 2.45986 58.2366 2.09228 58.097 1.74919C57.9574 1.4061 57.7523 1.09421 57.4936 0.831336C57.2349 0.568459 56.9276 0.359743 56.5893 0.217103C56.2509 0.0744627 55.8881 0.000692668 55.5216 4.85632e-06ZM48.1219 8.0734C47.8716 8.08352 47.6232 8.12221 47.3814 8.18874C47.0273 8.28193 46.6952 8.44614 46.4049 8.67164C46.1146 8.89713 45.872 9.17932 45.6914 9.50149C45.5108 9.82365 45.3959 10.1792 45.3536 10.5472C45.3112 10.9151 45.3422 11.2879 45.4447 11.6435C45.604 12.2408 45.9518 12.769 46.4351 13.1476C46.9185 13.5262 47.5108 13.7344 48.1219 13.7405H48.1788C48.4105 13.7303 48.64 13.6915 48.8624 13.6252C49.2218 13.5246 49.5579 13.3528 49.8513 13.1197C50.1446 12.8867 50.3893 12.5969 50.5712 12.2674C50.9186 11.6147 51.0198 10.8563 50.856 10.1337C50.6707 9.54372 50.3071 9.02752 49.8166 8.65788C49.3261 8.28824 48.7333 8.0838 48.1219 8.0734ZM41.1779 11.0039C40.6745 10.9955 40.1797 11.1358 39.7539 11.4076C39.1236 11.8035 38.6578 12.4187 38.4438 13.1376C38.276 13.8601 38.3774 14.6198 38.7286 15.2713C38.975 15.6918 39.325 16.0404 39.7443 16.283C40.1636 16.5256 40.638 16.6539 41.1209 16.6553C41.6243 16.6638 42.1191 16.5235 42.5449 16.2516C43.1752 15.8558 43.641 15.2406 43.855 14.5216C44.0228 13.7992 43.9214 13.0394 43.5702 12.3879C43.3341 11.9582 42.9864 11.6021 42.5647 11.3581C42.143 11.1142 41.6634 10.9917 41.1779 11.0039ZM63.7135 8.17825C63.4718 8.11172 63.2234 8.07303 62.973 8.06292C62.299 8.0611 61.6472 8.30723 61.139 8.75552C60.6308 9.20381 60.3007 9.82374 60.2102 10.5C60.1196 11.1762 60.2748 11.8627 60.6468 12.4318C61.0188 13.0009 61.5823 13.4138 62.2326 13.5937C62.4743 13.6602 62.7227 13.6989 62.973 13.7091C63.6471 13.7109 64.2989 13.4647 64.8071 13.0164C65.3153 12.5682 65.6454 11.9482 65.7359 11.272C65.8265 10.5957 65.6713 9.90923 65.2993 9.34015C64.9273 8.77106 64.3638 8.35816 63.7135 8.17825ZM65.5363 1.32111C65.2945 1.25458 65.0461 1.21589 64.7958 1.20577C64.1217 1.20396 63.47 1.45009 62.9617 1.89838C62.4535 2.34667 62.1234 2.96659 62.0329 3.64284C61.9423 4.31908 62.0975 5.00559 62.4695 5.57468C62.8415 6.14376 63.4051 6.55666 64.0553 6.73657C64.2971 6.8031 64.5455 6.84179 64.7958 6.85191C65.4091 6.85473 66.0058 6.64986 66.4908 6.26989C66.9759 5.88993 67.3216 5.35667 67.4729 4.75492C67.5775 4.40105 67.61 4.02936 67.5683 3.66241C67.5267 3.29546 67.4118 2.9409 67.2307 2.62026C67.0496 2.29962 66.806 2.01959 66.5147 1.79716C66.2234 1.57474 65.8906 1.41456 65.5363 1.32635V1.32111ZM71.2841 11.4024C70.8478 11.1553 70.3597 11.0169 69.8601 10.9987C69.3758 10.9932 68.8988 11.1186 68.4783 11.3618C68.0578 11.6051 67.709 11.9575 67.4678 12.3827C67.2673 12.6949 67.1378 13.0482 67.0886 13.4172C67.0393 13.7861 67.0715 14.1616 67.1829 14.5164C67.2681 14.8821 67.4289 15.2254 67.6547 15.5236C67.8806 15.8218 68.1663 16.0682 68.493 16.2464C68.9293 16.4935 69.4175 16.6319 69.9171 16.6501C70.4 16.6486 70.8744 16.5204 71.2937 16.2778C71.713 16.0352 72.063 15.6866 72.3094 15.2661C72.5082 14.9532 72.6367 14.5999 72.6859 14.2312C72.7351 13.8626 72.7038 13.4875 72.5942 13.1324C72.5162 12.7644 72.3581 12.4186 72.1315 12.1203C71.9048 11.8219 71.6154 11.5785 71.2841 11.4076V11.4024ZM76.1775 7.02491C76.0924 6.65917 75.9316 6.31588 75.7057 6.01767C75.4799 5.71946 75.1942 5.47312 74.8674 5.29489C74.4312 5.04779 73.943 4.90941 73.4434 4.89122C72.9605 4.89265 72.4861 5.02093 72.0668 5.26352C71.6475 5.50611 71.2975 5.85471 71.0511 6.27524C70.8523 6.58813 70.7238 6.94138 70.6746 7.31005C70.6254 7.67872 70.6567 8.05383 70.7663 8.40892C70.8514 8.77465 71.0123 9.11795 71.2381 9.41616C71.4639 9.71437 71.7496 9.96071 72.0764 10.1389C72.5127 10.386 73.0008 10.5244 73.5004 10.5426C73.9847 10.5481 74.4617 10.4227 74.8822 10.1794C75.3027 9.93618 75.6515 9.58379 75.8927 9.15859C76.2439 8.50711 76.3453 7.74738 76.1775 7.02491ZM46.2422 6.90957C46.4925 6.89946 46.7409 6.86077 46.9827 6.79424C47.6375 6.61826 48.2064 6.20629 48.5824 5.63572C48.9584 5.06514 49.1157 4.3752 49.0248 3.69549C48.9339 3.01578 48.601 2.39305 48.0886 1.94427C47.5763 1.49548 46.9197 1.25152 46.2422 1.2582C45.9919 1.26832 45.7435 1.307 45.5017 1.37353C45.1476 1.46673 44.8155 1.63094 44.5252 1.85643C44.2349 2.08192 43.9923 2.36411 43.8117 2.68628C43.6311 3.00845 43.5162 3.36404 43.4739 3.73198C43.4315 4.09992 43.4625 4.47273 43.565 4.82832C43.7339 5.42011 44.0843 5.9422 44.5656 6.31915C45.0468 6.69609 45.634 6.90837 46.2422 6.9253V6.90957ZM94.1046 38.4797C94.1046 38.9107 94.2737 39.3241 94.5747 39.6289C94.8758 39.9336 95.2841 40.1049 95.7098 40.1049C96.1356 40.1049 96.5439 39.9336 96.8449 39.6289C97.1459 39.3241 97.3151 38.9107 97.3151 38.4797V27.135C97.2919 26.7234 97.114 26.3363 96.8179 26.0532C96.5219 25.77 96.13 25.6123 95.7228 25.6123C95.3155 25.6123 94.9237 25.77 94.6276 26.0532C94.3315 26.3363 94.1537 26.7234 94.1305 27.135L94.1046 38.4797ZM48.0183 36.907C47.9951 36.9105 47.9713 36.9085 47.949 36.901C47.9267 36.8936 47.9064 36.881 47.8897 36.8641C47.8731 36.8473 47.8606 36.8268 47.8533 36.8041C47.8459 36.7815 47.8439 36.7575 47.8474 36.734V27.3657C47.8242 26.954 47.6464 26.567 47.3503 26.2838C47.0542 26.0007 46.6624 25.843 46.2551 25.843C45.8479 25.843 45.456 26.0007 45.16 26.2838C44.8639 26.567 44.686 26.954 44.6628 27.3657V39.0616C44.6607 39.1758 44.6814 39.2892 44.7236 39.3951C44.7658 39.5011 44.8286 39.5973 44.9084 39.678C44.9881 39.7588 45.0832 39.8224 45.1878 39.8651C45.2924 39.9078 45.4045 39.9288 45.5172 39.9266H51.0269C51.4038 39.904 51.758 39.7365 52.0171 39.4583C52.2761 39.1801 52.4203 38.8122 52.4203 38.4299C52.4203 38.0476 52.2761 37.6797 52.0171 37.4015C51.758 37.1233 51.4038 36.9558 51.0269 36.9332L48.0183 36.907ZM85.5242 26.8834C85.3453 26.5427 85.0723 26.2621 84.7385 26.076C84.4047 25.8898 84.0246 25.806 83.6445 25.8349C83.1175 25.8403 82.6135 26.0547 82.2408 26.4321C81.8681 26.8094 81.6563 27.3196 81.6509 27.8532V38.6003C81.6507 38.8035 81.6912 39.0047 81.7702 39.1915C81.8491 39.3784 81.9647 39.5471 82.11 39.6873C82.2553 39.8275 82.4272 39.9364 82.6154 40.0073C82.8035 40.0781 83.0039 40.1096 83.2044 40.0996C83.4036 40.1045 83.6019 40.0696 83.7878 39.9969C83.9737 39.9241 84.1437 39.815 84.288 39.6758C84.4322 39.5366 84.548 39.3699 84.6286 39.1854C84.7092 39.0008 84.7532 38.802 84.7579 38.6003V32.0367C84.7602 32.0069 84.773 31.979 84.7939 31.9578C84.8147 31.9367 84.8424 31.9238 84.8718 31.9214L84.9287 31.979L88.7969 38.8939C88.9593 39.2105 89.2047 39.4758 89.5061 39.6607C89.8074 39.8456 90.1533 39.9431 90.5057 39.9423C91.0328 39.9369 91.5367 39.7225 91.9094 39.3451C92.2822 38.9678 92.4939 38.4576 92.4993 37.924V26.9463C92.477 26.5646 92.3115 26.206 92.0367 25.9438C91.7619 25.6816 91.3986 25.5355 91.0209 25.5355C90.6433 25.5355 90.2799 25.6816 90.0051 25.9438C89.7303 26.206 89.5649 26.5646 89.5425 26.9463V33.5308L89.4286 33.6461L89.3717 33.5885L85.5242 26.8834ZM102.882 26.8834C102.703 26.5427 102.43 26.2621 102.096 26.076C101.762 25.8898 101.382 25.806 101.002 25.8349C100.475 25.8403 99.9709 26.0547 99.5982 26.4321C99.2255 26.8094 99.0137 27.3196 99.0083 27.8532V38.6579C99.0081 38.8612 99.0487 39.0623 99.1276 39.2492C99.2065 39.4361 99.3221 39.6047 99.4674 39.745C99.6127 39.8852 99.7846 39.9941 99.9728 40.0649C100.161 40.1358 100.361 40.1672 100.562 40.1573C100.761 40.1622 100.959 40.1272 101.145 40.0545C101.331 39.9818 101.501 39.8727 101.645 39.7335C101.79 39.5942 101.905 39.4276 101.986 39.243C102.067 39.0585 102.111 38.8597 102.115 38.6579V32.0944C102.118 32.0646 102.13 32.0366 102.151 32.0155C102.172 31.9944 102.2 31.9814 102.229 31.979L102.286 32.0367L106.118 38.9463C106.28 39.2629 106.526 39.5282 106.827 39.7131C107.129 39.8981 107.474 39.9955 107.827 39.9948C108.357 39.9879 108.862 39.77 109.235 39.3883C109.607 39.0066 109.815 38.4918 109.815 37.9555V27.0197C109.793 26.638 109.628 26.2794 109.353 26.0172C109.078 25.755 108.715 25.6089 108.337 25.6089C107.959 25.6089 107.596 25.755 107.321 26.0172C107.046 26.2794 106.881 26.638 106.859 27.0197V33.5885L106.745 33.7038L106.688 33.6461L102.882 26.8834ZM29.3508 30.0288C29.3199 30.0329 29.2884 30.0298 29.2588 30.0198C29.2293 30.0098 29.2023 29.9932 29.1799 29.9712L25.7105 26.3015C25.5717 26.1527 25.4037 26.0348 25.2174 25.9553C25.0311 25.8759 24.8304 25.8367 24.6283 25.8401C24.2376 25.8469 23.8647 26.007 23.5884 26.2867C23.3121 26.5665 23.1539 26.9439 23.1473 27.3395C23.147 27.7068 23.2903 28.0592 23.546 28.3198L27.7456 33.2372L27.8025 38.422C27.8248 38.8037 27.9903 39.1623 28.2651 39.4245C28.5399 39.6867 28.9033 39.8328 29.2809 39.8328C29.6585 39.8328 30.0219 39.6867 30.2967 39.4245C30.5715 39.1623 30.737 38.8037 30.7593 38.422L30.8214 33.2372L35.0313 28.3408C35.2681 28.0679 35.4083 27.723 35.43 27.3604C35.4234 26.9649 35.2652 26.5874 34.9889 26.3077C34.7126 26.028 34.3398 25.8678 33.9491 25.8611C33.5426 25.8656 33.1541 26.0312 32.8668 26.3224L29.4544 29.9921C29.4803 30.0918 29.3974 30.0918 29.3404 30.0918L29.3508 30.0288ZM17.503 29.1534C18.2455 29.1534 18.9714 29.3763 19.5887 29.7939C20.2061 30.2115 20.6873 30.8051 20.9715 31.4996C21.2556 32.1941 21.33 32.9584 21.1851 33.6956C21.0402 34.4329 20.6827 35.1102 20.1576 35.6417C19.6326 36.1733 18.9637 36.5352 18.2354 36.6819C17.5072 36.8286 16.7523 36.7533 16.0663 36.4656C15.3803 36.1779 14.794 35.6908 14.3815 35.0657C13.969 34.4407 13.7488 33.7059 13.7488 32.9541C13.7488 31.9461 14.1443 30.9794 14.8484 30.2666C15.5524 29.5538 16.5073 29.1534 17.503 29.1534ZM24.447 32.9541C24.447 31.5637 24.0398 30.2045 23.2767 29.0484C22.5137 27.8923 21.4292 26.9912 20.1604 26.4591C18.8915 25.927 17.4953 25.7878 16.1483 26.0591C14.8013 26.3303 13.564 26.9999 12.5929 27.9831C11.6217 28.9663 10.9604 30.2189 10.6924 31.5826C10.4245 32.9463 10.562 34.3599 11.0876 35.6445C11.6132 36.9291 12.5032 38.027 13.6451 38.7995C14.7871 39.572 16.1296 39.9843 17.503 39.9843C18.4166 39.9906 19.3224 39.813 20.1677 39.4619C21.013 39.1108 21.7809 38.5932 22.427 37.9392C23.073 37.2851 23.5843 36.5076 23.9311 35.6519C24.2778 34.7961 24.4532 33.8791 24.447 32.9541ZM74.303 33.8768C74.303 33.9921 74.246 34.0498 74.1891 34.0498H72.7651V31.7431L74.303 33.8768ZM72.4233 26.3277C72.2762 26.1506 72.0933 26.0076 71.887 25.9081C71.6806 25.8086 71.4556 25.7551 71.2271 25.751C70.3727 25.751 69.6322 26.2123 69.6322 27.0773V38.3696C69.6322 38.7867 69.7959 39.1868 70.0873 39.4817C70.3786 39.7766 70.7737 39.9423 71.1857 39.9423C71.6028 39.9466 72.0046 39.7835 72.3035 39.4889C72.6023 39.1942 72.7738 38.7919 72.7806 38.3696V37.1062H76.6021L78.1556 39.2923C78.295 39.4823 78.4749 39.6381 78.6821 39.7479C78.8892 39.8577 79.1181 39.9188 79.3518 39.9266C79.5467 39.928 79.7399 39.8902 79.9202 39.8153C80.1005 39.7405 80.2643 39.6301 80.4021 39.4906C80.5399 39.3511 80.6489 39.1852 80.7228 39.0027C80.7968 38.8202 80.8341 38.6246 80.8328 38.4273C80.8258 38.0987 80.727 37.7788 80.548 37.5046L72.4233 26.3277ZM39.6399 31.7484V34.0551H38.2211C38.1917 34.0527 38.1641 34.0397 38.1432 34.0186C38.1223 33.9975 38.1096 33.9695 38.1072 33.9397V33.8821L39.6399 31.7484ZM31.7846 37.5151C31.5963 37.7847 31.4967 38.1076 31.4998 38.4378C31.4984 38.635 31.5358 38.8306 31.6097 39.0132C31.6836 39.1957 31.7927 39.3616 31.9305 39.5011C32.0683 39.6406 32.2321 39.751 32.4124 39.8258C32.5927 39.9007 32.7859 39.9385 32.9807 39.9371C33.2166 39.9413 33.4498 39.8854 33.6588 39.7745C33.8678 39.6637 34.046 39.5015 34.1769 39.3028L35.7718 37.1114H39.583V38.3801C39.5898 38.8023 39.7613 39.2047 40.0602 39.4994C40.359 39.794 40.7608 39.957 41.1779 39.9528C41.5899 39.9528 41.985 39.7871 42.2763 39.4922C42.5677 39.1972 42.7313 38.7972 42.7313 38.3801V27.3709C42.7221 26.9456 42.5511 26.5403 42.254 26.2395C41.9569 25.9387 41.5565 25.7656 41.1365 25.7562C40.908 25.7603 40.683 25.8139 40.4766 25.9133C40.2703 26.0128 40.0874 26.1559 39.9403 26.3329L31.7846 37.5151ZM56.7126 33.0223C56.697 34.8227 57.3693 36.5595 58.5891 37.8696C59.8089 39.1798 61.4817 39.9619 63.2579 40.0524C65.2515 40.0524 67.3538 39.1874 68.493 37.8034C68.7225 37.5305 68.8443 37.1814 68.8348 36.8231C68.8356 36.5652 68.7705 36.3115 68.6458 36.0867C68.5211 35.8618 68.3411 35.6735 68.1232 35.54C67.9053 35.4064 67.657 35.3323 67.4024 35.3247C67.1478 35.3171 66.8956 35.3764 66.6703 35.4967L65.4741 36.3041C64.8849 36.7013 64.1881 36.9029 63.4805 36.8807C62.4934 36.8439 61.5588 36.421 60.8733 35.7009C60.1877 34.9809 59.8047 34.0197 59.8047 33.0197C59.8047 32.0196 60.1877 31.0585 60.8733 30.3384C61.5588 29.6183 62.4934 29.1954 63.4805 29.1586C64.1844 29.1641 64.8736 29.3634 65.4741 29.7353L66.6703 30.5426C66.896 30.6632 67.1486 30.7224 67.4037 30.7146C67.6587 30.7068 67.9074 30.6322 68.1254 30.498C68.3435 30.3639 68.5234 30.1748 68.6478 29.9492C68.7721 29.7237 68.8365 29.4693 68.8348 29.211C68.8339 28.8545 68.7134 28.5088 68.493 28.2307C67.8981 27.5252 67.1553 26.9629 66.3186 26.5847C65.482 26.2065 64.5726 26.022 63.6566 26.0446C62.7469 26.0327 61.844 26.2044 61.0006 26.5496C60.1572 26.8949 59.3902 27.4067 58.7442 28.0553C58.0983 28.7038 57.5864 29.4762 57.2385 30.3272C56.8906 31.1782 56.7135 32.0908 56.7177 33.0118L56.7126 33.0223ZM5.4947 29.0957C5.91248 29.0771 6.32056 29.2265 6.62998 29.5113C6.93941 29.7961 7.12509 30.1932 7.14656 30.616C7.13735 30.8249 7.08706 31.0299 6.99865 31.219C6.91023 31.408 6.78546 31.5773 6.63165 31.7169C6.47783 31.8565 6.29805 31.9636 6.10282 32.0321C5.9076 32.1005 5.70086 32.1288 5.4947 32.1153C5.08504 32.1412 4.68191 32.0019 4.37337 31.7279C4.06483 31.4538 3.87596 31.0673 3.84803 30.6527C3.86288 30.2253 4.0446 29.8213 4.35332 29.5294C4.66203 29.2375 5.07252 29.0815 5.4947 29.0957ZM1.22784 38.4797C1.23317 38.8762 1.39075 39.2549 1.6672 39.5358C1.94364 39.8167 2.31723 39.9775 2.70882 39.9843C3.09949 39.9762 3.47178 39.8147 3.74712 39.534C4.02246 39.2533 4.17932 38.8753 4.18461 38.4797L4.24157 34.7366C4.24405 34.6915 4.26285 34.649 4.29437 34.617C4.3259 34.5851 4.36794 34.5661 4.41245 34.5636H4.46941L8.09417 39.5754C8.35155 39.8342 8.69971 39.9794 9.0625 39.979C9.44716 39.9847 9.81848 39.8364 10.0958 39.5665C10.3731 39.2965 10.534 38.9267 10.5435 38.5374C10.5479 38.3137 10.4886 38.0935 10.3726 37.903L8.11489 34.2857C8.73118 33.9244 9.24094 33.4029 9.59144 32.7753C9.94194 32.1476 10.1204 31.4365 10.1085 30.7156C10.1243 30.1057 10.0201 29.4987 9.80191 28.93C9.5837 28.3613 9.25588 27.8423 8.83754 27.4031C8.4192 26.964 7.91871 26.6135 7.36525 26.3722C6.81178 26.1309 6.2164 26.0034 5.6138 25.9974C4.99313 25.9484 4.36917 26.0307 3.78166 26.2392C3.19415 26.4477 2.65596 26.7778 2.20135 27.2084C1.2848 28.0577 1 29.3264 1 30.7104L1.22784 38.4797ZM102.814 49.5413V45.6304H103.384V49.0275H105.264V49.5518L102.814 49.5413ZM100.194 49.5413H100.764V45.6304H100.194V49.5413ZM96.9526 46.5531L96.326 48.2831H97.5222L96.9526 46.5531ZM97.9882 49.5465L97.7034 48.7392H96.15L95.8652 49.5465H95.2438L96.6678 45.6304H97.1235L98.5475 49.5465H97.9882ZM93.3278 46.2071V49.5465H92.7582V46.1494H91.676V45.6252H94.4101V46.1494L93.3278 46.2071ZM87.6939 49.5465V45.6304H90.2002V46.1547H88.3205V47.308H89.9154V47.8323H88.3205V49.0433H90.2002V49.5675L87.6939 49.5465ZM85.1877 47.5859C85.1877 47.0616 85.1877 46.6632 84.9598 46.4325C84.871 46.3402 84.7647 46.2671 84.6472 46.2175C84.5297 46.168 84.4035 46.143 84.2763 46.1442H83.5358V49.0275H84.2763C84.405 49.0419 84.5352 49.0229 84.6547 48.9725C84.7743 48.9221 84.8792 48.8418 84.9598 48.7392C85.1721 48.5714 85.1721 48.1101 85.1721 47.5911L85.1877 47.5859ZM85.7573 47.5859C85.8376 48.1561 85.6945 48.7356 85.3585 49.2005C85.0691 49.4446 84.6989 49.5682 84.3229 49.5465H82.9558V45.6304H84.3229C84.6976 45.6185 85.0644 45.7411 85.3585 45.9764C85.7987 46.4378 85.7417 47.0144 85.7417 47.5911L85.7573 47.5859ZM78.1556 47.9161V49.5308H77.586V47.9161L76.4468 45.6095H77.0734L77.8708 47.3395L78.6683 45.6095H79.2948L78.1556 47.9161ZM74.4014 46.7628C74.4034 46.6739 74.3866 46.5857 74.3522 46.5039C74.3178 46.4221 74.2665 46.3487 74.2017 46.2887C74.137 46.2286 74.0604 46.1833 73.9769 46.1556C73.8935 46.128 73.8051 46.1187 73.7179 46.1285H72.8635V47.3395H73.7179C74.1891 47.3919 74.4169 47.1874 74.4169 46.7838L74.4014 46.7628ZM74.4584 49.5308L73.6609 47.8585H72.9204V49.5308H72.3508V45.6304H73.8318C73.9877 45.6152 74.1451 45.6341 74.2932 45.6859C74.4413 45.7377 74.5766 45.8211 74.6901 45.9305C74.8036 46.0399 74.8924 46.1727 74.9507 46.3199C75.009 46.4671 75.0354 46.6253 75.028 46.7838C75.0415 47.0263 74.9684 47.2658 74.822 47.4583C74.6756 47.6508 74.4656 47.7835 74.2305 47.8323L75.1419 49.5623L74.4584 49.5308ZM67.97 49.5308V45.6304H70.4763V46.1547H68.5966V47.308H70.1915V47.8323H68.5966V49.0433H70.4763V49.5675L67.97 49.5308ZM65.122 49.5308H64.6922L63.4391 45.6147H64.0657L64.977 48.4981L65.8884 45.6147H66.515L65.122 49.5308ZM59.5451 49.5308V45.6304H62.0513V46.1547H60.1872V47.308H61.7821V47.8323H60.1872V49.0433H62.0669V49.5675L59.5451 49.5308ZM54.8847 49.5308L53.0619 46.7628V49.5308H52.4923V45.6304H53.0101L54.8536 48.3984V45.6304H55.4232V49.5465L54.8847 49.5308ZM49.8773 49.5308H50.4469V45.6304H49.8773V49.5308ZM43.4615 49.5518V45.6304H45.9677V46.1547H44.0829V47.308H45.6778V47.8323H44.0829V49.0433H45.9626V49.5675L43.4615 49.5518ZM39.3189 49.5518V45.6304H39.8885V49.0275H41.7682V49.5518H39.3189ZM36.7971 48.4404C36.8001 48.3588 36.7854 48.2776 36.7541 48.2023C36.7229 48.1271 36.6758 48.0596 36.6161 48.0047C36.5564 47.9498 36.4857 47.9087 36.4087 47.8844C36.3317 47.86 36.2505 47.853 36.1705 47.8637H35.2592V49.0747H36.1705C36.5693 49.0328 36.7971 48.8021 36.7971 48.4404ZM36.7298 46.7261C36.7327 46.6445 36.7181 46.5633 36.6868 46.488C36.6556 46.4128 36.6085 46.3453 36.5488 46.2904C36.4891 46.2355 36.4184 46.1945 36.3414 46.1701C36.2644 46.1457 36.1831 46.1387 36.1032 46.1494H35.2592V47.3028H36.1136C36.5123 47.3028 36.7298 47.1298 36.7298 46.7261ZM37.3667 48.4404C37.3756 48.5968 37.3497 48.7532 37.291 48.8982C37.2324 49.0431 37.1423 49.1729 37.0276 49.278C36.9128 49.3831 36.7763 49.4608 36.628 49.5055C36.4797 49.5502 36.3234 49.5606 36.1705 49.5361H34.5756V45.6304H36.1291C36.2819 45.6059 36.4382 45.6163 36.5866 45.661C36.7349 45.7056 36.8714 45.7834 36.9862 45.8885C37.1009 45.9936 37.1909 46.1234 37.2496 46.2683C37.3083 46.4133 37.3342 46.5697 37.3253 46.7261C37.3277 46.8975 37.2797 47.0657 37.1875 47.2094C37.0953 47.3532 36.9631 47.4659 36.8075 47.5334C36.9725 47.6199 37.1115 47.7498 37.2098 47.9093C37.3082 48.0689 37.3624 48.2523 37.3667 48.4404ZM32.0176 49.5518H32.5872V45.6304H32.0176V49.5518ZM29.5113 47.5911C29.5113 47.0669 29.5113 46.6684 29.2835 46.4378C29.1947 46.3455 29.0883 46.2723 28.9709 46.2228C28.8534 46.1732 28.7272 46.1483 28.6 46.1494H27.8595V49.0328H28.6C28.7287 49.0471 28.8589 49.0282 28.9784 48.9777C29.0979 48.9273 29.2029 48.8471 29.2835 48.7444C29.5113 48.5714 29.5113 48.1101 29.5113 47.5911ZM30.0809 47.5911C30.1613 48.1614 30.0182 48.7409 29.6822 49.2058C29.5512 49.325 29.3982 49.417 29.2321 49.4763C29.0659 49.5357 28.8898 49.5613 28.7139 49.5518H27.352V45.6304H28.7191C29.0938 45.6185 29.4606 45.7411 29.7547 45.9764C30.1379 46.4378 30.0809 47.0144 30.0809 47.5911ZM23.023 49.5518V45.6304H25.5293V46.1547H23.6496V47.308H25.2445V47.8323H23.6496V49.0433H25.5293V49.5675L23.023 49.5518ZM20.5219 46.7838C20.5239 46.6949 20.5072 46.6066 20.4727 46.5249C20.4383 46.4431 20.387 46.3697 20.3223 46.3097C20.2575 46.2496 20.1809 46.2042 20.0974 46.1766C20.014 46.149 19.9257 46.1397 19.8384 46.1494H18.984V47.3604H19.8384C20.2941 47.3919 20.5219 47.1874 20.5219 46.7838ZM20.5789 49.5518L19.7814 47.8794H19.041V49.5518H18.4713V45.6304H19.9523C20.1083 45.6152 20.2656 45.6341 20.4137 45.6859C20.5618 45.7377 20.6972 45.8211 20.8106 45.9305C20.9241 46.0399 21.013 46.1727 21.0713 46.3199C21.1296 46.4671 21.1559 46.6253 21.1485 46.7838C21.1621 47.0263 21.089 47.2658 20.9425 47.4583C20.7961 47.6508 20.5862 47.7835 20.351 47.8323L21.2624 49.5623L20.5789 49.5518ZM16.5968 49.1481C16.458 49.2969 16.29 49.4148 16.1037 49.4942C15.9174 49.5737 15.7167 49.6129 15.5146 49.6095C15.1335 49.6011 14.7672 49.4584 14.4789 49.2058C14.0802 48.8021 14.0802 48.3984 14.0802 47.5911C14.0802 46.7838 14.0802 46.3801 14.4789 46.0184C14.7685 45.7483 15.1507 45.6032 15.5443 45.614C15.9378 45.6248 16.3117 45.7905 16.5865 46.076L16.1877 46.4797C16.1083 46.3719 16.004 46.2854 15.884 46.2278C15.7639 46.1702 15.6318 46.1433 15.499 46.1494C15.2878 46.1537 15.0853 46.2357 14.9294 46.3801C14.7586 46.6108 14.7016 46.8414 14.7016 47.5911C14.7016 48.3408 14.7586 48.6396 14.9294 48.8021C14.9987 48.8845 15.0868 48.9486 15.186 48.9888C15.2853 49.029 15.3927 49.0441 15.499 49.0328C15.6332 49.0429 15.7676 49.0161 15.8879 48.9552C16.0083 48.8943 16.1101 48.8015 16.1826 48.6868L16.5968 49.1481ZM11.6464 49.5518L9.80299 46.7838V49.5518H9.23338V45.6304H9.75121L11.5739 48.3984V45.6304H12.1435V49.5465L11.6464 49.5518ZM6.63909 49.5518H7.21387V45.6304H6.64427L6.63909 49.5518Z" fill="#E2001A"/>
<path d="M113.113 27.6689C113.284 27.6689 113.341 27.6112 113.341 27.4959C113.344 27.4648 113.341 27.4334 113.33 27.4039C113.32 27.3744 113.303 27.3476 113.281 27.3255C113.26 27.3034 113.233 27.2865 113.204 27.2761C113.175 27.2656 113.144 27.2619 113.113 27.2652H112.771V27.6689H113.113ZM112.771 28.5339C112.775 28.565 112.771 28.5965 112.761 28.6259C112.75 28.6554 112.734 28.6822 112.712 28.7043C112.69 28.7264 112.664 28.7433 112.634 28.7538C112.605 28.7642 112.574 28.7679 112.544 28.7646C112.373 28.7646 112.373 28.7069 112.373 28.5339V27.1499C112.373 27.0346 112.43 26.9769 112.6 26.9769H113.118C113.46 26.9769 113.802 27.0922 113.802 27.5011C113.802 27.9101 113.631 27.9625 113.346 28.0254L113.688 28.5496V28.665C113.688 28.7803 113.631 28.838 113.46 28.838C113.289 28.838 113.289 28.7226 113.232 28.6073L112.947 28.0831H112.849V28.5444L112.771 28.5339ZM113.056 29.0582C113.304 29.0602 113.547 28.9877 113.755 28.8498C113.962 28.7119 114.124 28.5148 114.221 28.2835C114.317 28.0522 114.344 27.797 114.297 27.5504C114.25 27.3037 114.132 27.0767 113.958 26.898C113.784 26.7193 113.561 26.5971 113.318 26.5467C113.075 26.4963 112.823 26.52 112.593 26.6149C112.363 26.7098 112.167 26.8716 112.028 27.0798C111.889 27.2879 111.814 27.5331 111.813 27.7842C111.81 27.9509 111.84 28.1166 111.901 28.2714C111.962 28.4263 112.053 28.5671 112.169 28.6855C112.285 28.8038 112.423 28.8974 112.576 28.9605C112.728 29.0236 112.891 29.0551 113.056 29.0529V29.0582ZM113.056 26.1748C113.383 26.1748 113.702 26.2729 113.974 26.4566C114.246 26.6404 114.457 26.9016 114.582 27.2072C114.707 27.5127 114.74 27.849 114.676 28.1734C114.613 28.4978 114.455 28.7958 114.224 29.0297C113.993 29.2636 113.699 29.4228 113.378 29.4874C113.058 29.5519 112.726 29.5188 112.424 29.3922C112.122 29.2656 111.864 29.0513 111.683 28.7763C111.501 28.5012 111.404 28.1779 111.404 27.8471C111.404 27.4036 111.578 26.9782 111.888 26.6646C112.198 26.351 112.618 26.1748 113.056 26.1748Z" fill="#E2001A"/>
</g>
<defs>
<clipPath id="clip0_36_53">
<rect width="116" height="40" fill="white"/>
</clipPath>
</defs>
</svg>
