<svg width="65" height="27" viewBox="0 0 65 27" fill="none" xmlns="http://www.w3.org/2000/svg">
<path d="M12.5623 8.44677C12.4914 8.48768 12.43 8.53941 12.3506 8.55385C12.3157 8.56107 12.2965 8.56107 12.2628 8.57791C12.1858 8.61761 12.1136 8.67175 12.0366 8.71386C11.8898 8.79326 11.7599 8.89552 11.6263 8.99177C11.5313 9.06035 11.4387 9.1193 11.3388 9.18065C11.3027 9.20231 11.2678 9.22637 11.2329 9.24682C11.2053 9.26367 11.1511 9.29014 11.1367 9.31299C11.1981 9.29735 11.2558 9.25043 11.3184 9.25043C11.3172 9.25043 11.2486 9.36112 11.2414 9.36954C11.2161 9.39841 11.1872 9.4309 11.1547 9.45255C11.1367 9.46458 11.1198 9.47421 11.0994 9.48143C11.0609 9.49466 11.0272 9.49707 10.9935 9.52353C10.949 9.55842 10.9165 9.60534 10.8708 9.64023C10.8239 9.67512 10.7734 9.7064 10.7301 9.7461C10.6085 9.85799 10.4798 9.96266 10.3535 10.0697C10.244 10.1624 10.1093 10.2285 10.0118 10.3344C9.94203 10.4102 9.88308 10.5016 9.83135 10.5871C9.80247 10.6352 9.77239 10.6905 9.73991 10.7362C9.72307 10.7591 9.69901 10.7675 9.68096 10.788C9.6569 10.8156 9.64607 10.8626 9.6196 10.8926C9.54862 10.9793 9.49448 11.0731 9.42952 11.1633C9.30199 11.3402 9.17085 11.511 9.04694 11.6927C9.00723 11.7504 8.97836 11.801 8.92542 11.8491C8.87129 11.8996 8.84843 11.9598 8.80271 12.0151C8.74015 12.0909 8.63187 12.139 8.55969 12.1932C8.66436 12.1258 8.78827 12.0957 8.89054 12.032C8.96513 11.9862 9.05656 11.9333 9.14439 11.9153C9.12995 11.9778 9.06378 12.0259 9.02047 12.0681C8.95791 12.1282 8.89535 12.1872 8.83399 12.2485C8.78587 12.2954 8.73895 12.3484 8.68481 12.3881C8.64872 12.4133 8.60059 12.4278 8.57172 12.4579C8.66676 12.4927 8.76301 12.4278 8.85204 12.4133C8.84963 12.4446 8.77745 12.5084 8.75338 12.5276C8.70887 12.5649 8.65593 12.5962 8.61022 12.6323C8.57412 12.6612 8.54044 12.678 8.50194 12.7033C8.46344 12.7298 8.44058 12.7779 8.41291 12.8128C8.33591 12.9102 8.24328 13.0149 8.15064 13.0967C8.15064 13.0558 8.24087 13.0221 8.27095 13.0053C8.38404 12.9439 8.49472 12.8801 8.60781 12.8176C8.66556 12.7863 8.71849 12.749 8.77384 12.7153C8.79429 12.7033 8.81354 12.6913 8.83519 12.6816C8.84843 12.6756 8.86166 12.6756 8.87249 12.6636C8.78827 12.7322 8.73293 12.8272 8.65593 12.9018C8.61743 12.9391 8.57773 12.968 8.54405 13.0101C8.51878 13.0414 8.48871 13.0606 8.45743 13.0847C8.40208 13.1268 8.33351 13.1581 8.27456 13.1978C8.24568 13.2158 8.21681 13.2314 8.18673 13.2483C8.14703 13.2711 8.11334 13.2976 8.07364 13.3229C8.05078 13.3373 8.02191 13.3469 8.00146 13.3638C8.00868 13.3674 8.01349 13.3638 8.02191 13.3626C8.04838 13.359 8.07244 13.3542 8.10011 13.3542C8.14944 13.3542 8.20718 13.3457 8.25531 13.3554C8.26012 13.3698 8.24689 13.3902 8.24207 13.4035C8.23967 13.4083 8.22162 13.4444 8.22403 13.4492C8.23004 13.4684 8.27576 13.4576 8.2902 13.4576C8.31306 13.4576 8.42133 13.4408 8.43336 13.466C8.41411 13.4913 8.39847 13.5202 8.38043 13.5466C8.33952 13.6056 8.28779 13.6501 8.23004 13.691C8.17951 13.7259 8.11575 13.744 8.08447 13.8005C8.07484 13.8185 8.07003 13.8378 8.058 13.8546C8.05078 13.8655 8.04116 13.8751 8.03153 13.8835C7.96777 13.9389 7.89799 13.987 7.83302 14.0411C7.75121 14.1097 7.67783 14.1891 7.60083 14.2625C7.54188 14.319 7.49255 14.3972 7.41796 14.4381C7.53105 14.3635 7.64053 14.2661 7.77046 14.2216C7.84505 14.1951 7.9389 14.153 8.01589 14.1422C8.0171 14.1422 7.96296 14.2276 7.95815 14.2336C7.92085 14.2745 7.87273 14.3082 7.83182 14.3443C7.80656 14.3672 7.7825 14.3948 7.75121 14.4105C7.71873 14.4261 7.68023 14.4273 7.64655 14.4417C7.54428 14.4851 7.46729 14.5801 7.38909 14.6535C7.34217 14.698 7.30848 14.7557 7.26156 14.8027C7.199 14.864 7.12441 14.917 7.05343 14.9687C6.95357 15.0409 6.83807 15.0998 6.72017 15.1371C6.65882 15.1576 6.59625 15.1744 6.5361 15.1961C6.4976 15.2105 6.44467 15.249 6.40256 15.2442C6.47835 15.2538 6.56979 15.2334 6.64558 15.2237C6.731 15.2117 6.82243 15.2045 6.90424 15.1804C6.93673 15.1708 6.9644 15.1624 6.99929 15.1564C7.08711 15.1407 7.16892 15.1046 7.25194 15.0746C7.32051 15.0493 7.3927 15.0192 7.45165 14.9795C7.38788 15.03 7.32532 15.0842 7.26758 15.1407C7.22426 15.1828 7.17133 15.2057 7.12802 15.243C7.09433 15.2731 7.07989 15.3019 7.03779 15.3272C7.01613 15.3404 6.99207 15.3501 6.96921 15.3621C6.90665 15.3958 6.8477 15.4211 6.78273 15.4511C6.84048 15.4475 6.91627 15.4644 6.97162 15.4499C7.00771 15.4403 7.03297 15.4162 7.07268 15.4307C7.07989 15.4896 6.9271 15.5546 6.88259 15.5763C6.81401 15.6099 6.75266 15.6593 6.68047 15.6857C6.61189 15.711 6.54693 15.7435 6.47835 15.7687C6.39534 15.7988 6.30391 15.8289 6.24736 15.9011C6.30391 15.9276 6.40978 15.8806 6.47113 15.871C6.52407 15.8626 6.57701 15.865 6.62994 15.8566C6.70574 15.8433 6.77672 15.8445 6.85371 15.8373C6.77551 15.8782 6.68889 15.9179 6.6143 15.9648C6.56257 15.9973 6.51444 16.0274 6.46031 16.0575C6.43143 16.0731 6.40136 16.0876 6.37729 16.1104C6.41218 16.0852 6.45429 16.0912 6.49399 16.0876C6.52888 16.0852 6.56497 16.0683 6.59866 16.0683C6.46993 16.2428 6.24255 16.2452 6.05005 16.3101C6.00434 16.3258 5.96103 16.3354 5.9117 16.3366C5.87922 16.3378 5.85756 16.3474 5.8335 16.3534C5.77214 16.3667 5.69514 16.3607 5.63258 16.3583C5.66266 16.3883 5.71079 16.3799 5.75049 16.3799C5.82147 16.3787 5.89245 16.3787 5.96343 16.3775C6.05126 16.3775 6.14029 16.3763 6.22931 16.3763C6.29669 16.3763 6.35925 16.3655 6.42421 16.3522C6.48437 16.3402 6.55655 16.3065 6.61791 16.3113C6.51565 16.398 6.38451 16.4545 6.26059 16.5038C6.21127 16.5243 6.17638 16.5628 6.12946 16.588C6.08374 16.6133 6.03682 16.6458 5.9899 16.6687C6.04645 16.647 6.13307 16.5977 6.19563 16.6049C6.15954 16.6446 6.08013 16.665 6.03201 16.6867C5.9887 16.7059 5.94659 16.73 5.90207 16.7432C5.81906 16.7673 5.73244 16.8034 5.64822 16.8106C5.60852 16.8142 5.57363 16.8275 5.53513 16.8335C5.50025 16.8383 5.46415 16.8323 5.42926 16.8371C5.35227 16.8479 5.28489 16.8539 5.20549 16.8539C5.36791 16.8527 5.52912 16.8515 5.69154 16.8515C5.79259 16.8503 5.89486 16.8491 5.99712 16.8503C6.04524 16.8503 6.09216 16.8467 6.14029 16.8383C6.17518 16.8335 6.2221 16.8142 6.25578 16.8299C6.23894 16.8214 6.15713 16.884 6.14149 16.8936C6.10299 16.9177 6.06449 16.9442 6.02118 16.9586C6.00313 16.9646 5.98388 16.9682 5.96584 16.9754C5.92493 16.9923 5.88162 17.0043 5.83831 17.0151C5.75169 17.0356 5.66146 17.044 5.57243 17.0464C5.38716 17.0512 5.20429 17.0296 5.02022 17.0212C4.83614 17.0127 4.64606 17.0163 4.468 17.0741C4.83614 17.1318 5.20429 17.1884 5.57243 17.2461C5.5592 17.2437 5.52671 17.263 5.51468 17.2678C5.49182 17.2762 5.46776 17.2846 5.4437 17.2918C5.39798 17.3063 5.35227 17.3207 5.30655 17.3328C5.21271 17.358 5.11646 17.3785 5.02142 17.3941C4.92758 17.4098 4.83253 17.4206 4.73749 17.4266C4.62199 17.4338 4.50529 17.4278 4.3898 17.441C4.28874 17.4531 4.18167 17.4218 4.08542 17.4001C4.0397 17.3905 3.99519 17.3953 3.95549 17.3688C4.00722 17.3977 4.05053 17.4302 4.10707 17.4531C4.16362 17.4747 4.21896 17.5072 4.28032 17.5096C4.30919 17.5108 4.33566 17.5156 4.36453 17.5216C4.43552 17.5373 4.5077 17.5493 4.57868 17.5577C4.72305 17.5758 4.86863 17.5818 5.0154 17.5746C4.7423 17.6432 4.45356 17.6504 4.17926 17.5938C4.2731 17.6564 4.36694 17.7189 4.46078 17.7827C4.45356 17.7779 4.40785 17.7923 4.39702 17.7947C4.37416 17.7983 4.3501 17.802 4.32724 17.8044C4.27791 17.8104 4.22859 17.814 4.17926 17.8152C4.12993 17.8164 4.08061 17.8152 4.03128 17.8116C4.00842 17.8104 3.98436 17.808 3.9615 17.8056C3.91939 17.8008 3.8833 17.7887 3.84119 17.7815C3.80029 17.7743 3.75938 17.7887 3.71728 17.7791C3.6896 17.7731 3.65472 17.7683 3.62825 17.7598C3.58253 17.7454 3.5717 17.7226 3.51877 17.7177C3.44417 17.7117 3.39124 17.7045 3.3359 17.6552C3.32026 17.7382 3.49591 17.8236 3.54764 17.8717C3.57892 17.8994 3.60298 17.9319 3.63667 17.9584C3.65351 17.9716 3.67878 17.986 3.69562 18.0005C3.67757 18.0221 3.63065 18.0161 3.60418 18.0161C3.52478 18.0161 3.44418 18.0161 3.36477 18.0173C3.29379 18.0185 3.24326 18.0077 3.17468 17.9945C3.08806 17.9776 3.00264 17.9608 2.91602 17.9427C2.84745 17.9283 2.74518 17.9042 2.6754 17.909C2.68623 17.9295 2.72593 17.9343 2.74639 17.9427C2.77526 17.956 2.80293 17.974 2.8282 17.992C2.8703 18.0221 2.91843 18.0594 2.92444 18.1136C2.90399 18.1208 2.88474 18.116 2.86669 18.0967C2.78489 18.0714 2.70308 18.0462 2.62127 18.0197C2.52021 17.9884 2.41915 17.9463 2.31328 17.9319C2.30124 17.9692 2.33974 18.0522 2.34456 18.0907C2.34937 18.1292 2.35177 18.1617 2.34335 18.1978C2.3217 18.3073 2.29042 18.353 2.17492 18.3662C1.9704 18.3903 1.81159 18.2483 1.65519 18.146C1.6215 18.2242 1.71053 18.294 1.74903 18.3506C1.76467 18.3734 1.82362 18.4179 1.82723 18.4432C1.78753 18.4625 1.70692 18.448 1.66481 18.448C1.59744 18.448 1.53007 18.4492 1.4639 18.4492C1.37968 18.4492 1.25576 18.4276 1.17396 18.4552C1.192 18.5046 1.29306 18.5503 1.29065 18.602C1.24373 18.6201 1.19681 18.5792 1.14869 18.584C1.11861 18.5864 1.10297 18.6068 1.0741 18.6092C1.06327 18.6561 1.14147 18.6718 1.09696 18.7259C1.08493 18.7416 1.06688 18.744 1.05124 18.7536C1.02959 18.7668 1.01755 18.7825 0.999508 18.7957C0.922511 18.8523 0.772125 18.8089 0.679488 18.8294C0.644599 18.8366 0.612115 18.8498 0.577225 18.8523C0.553164 18.8547 0.529102 18.8522 0.503837 18.8498C0.416012 18.839 0.277658 18.8174 0.20427 18.7656C0.221113 18.827 0.29811 18.8715 0.340218 18.9148C0.361874 18.9377 0.385935 18.9593 0.407591 18.981C0.431652 19.005 0.480979 19.0484 0.482182 19.0832C0.449699 19.1073 0.376311 19.1025 0.340218 19.0869C0.293298 19.0676 0.248784 19.0435 0.209082 19.0147C0.174193 18.9894 0.140506 18.9425 0.133288 18.8992C0.121257 18.9016 0.124866 18.9256 0.123663 18.9365C0.11885 18.9641 0.115241 18.987 0.115241 19.0171C0.115241 19.0832 0.118851 19.1494 0.105617 19.2156C0.0959922 19.2685 0.111632 19.3178 0.112835 19.3708C0.112835 19.4009 0.121257 19.4321 0.129679 19.461C0.135694 19.4791 0.147725 19.4983 0.140506 19.5188C0.10682 19.4983 0.0659149 19.455 0.0418532 19.4249C0.0322285 19.4129 0.0226038 19.3804 0.00335449 19.378C-0.00747325 19.4141 0.0105729 19.4622 0.0201976 19.4947C0.0442593 19.5789 0.103211 19.6463 0.129679 19.7281C0.142913 19.7702 0.16938 19.8135 0.194645 19.8496C0.210285 19.8713 0.217504 19.9074 0.240362 19.923C0.229535 19.9122 0.213895 19.9074 0.201864 19.8989C0.182614 19.8857 0.168178 19.8677 0.148928 19.8544C0.127273 19.84 0.103211 19.8316 0.0839615 19.8171C0.0731337 19.8087 0.0635088 19.7967 0.0502748 19.7943C0.0538841 19.8063 0.0767431 19.8183 0.0863677 19.828C0.114039 19.8544 0.132085 19.8845 0.156146 19.9134C0.193442 19.9567 0.227129 20.0036 0.269237 20.0433C0.313751 20.0854 0.366686 20.1203 0.413606 20.1612C0.44248 20.1853 0.472558 20.2105 0.494213 20.2406C0.518275 20.2755 0.5279 20.3164 0.545946 20.3525C0.514666 20.3754 0.441277 20.3345 0.4112 20.3224C0.378717 20.3092 0.347437 20.296 0.314954 20.2827C0.288486 20.2707 0.265627 20.2647 0.241565 20.249C0.212691 20.231 0.183818 20.2274 0.152537 20.2141C0.179005 20.2298 0.189833 20.2755 0.207879 20.2996C0.289689 20.4114 0.377514 20.5149 0.467745 20.6208C0.482182 20.6388 0.495417 20.6569 0.505041 20.6773C0.519478 20.7086 0.526697 20.7423 0.547149 20.7712C0.578429 20.8145 0.626552 20.8446 0.673473 20.8698C0.728815 20.8987 0.780547 20.9324 0.837092 20.9601C0.875591 20.9793 0.909277 21.0058 0.946573 21.0274C0.986275 21.0503 1.02477 21.0756 1.06327 21.1008C1.11861 21.1369 1.17636 21.1706 1.23772 21.1995C1.29787 21.2271 1.37728 21.25 1.4254 21.2957C1.36645 21.3102 1.29547 21.3102 1.23411 21.3102C1.18358 21.3102 1.13305 21.3138 1.08252 21.3102C1.09215 21.3198 1.10418 21.3246 1.11621 21.3306C1.16553 21.3535 1.21366 21.3775 1.26178 21.4028C1.33276 21.4389 1.40495 21.4726 1.47834 21.5038C1.54691 21.5327 1.60947 21.5496 1.68406 21.5592C1.76347 21.57 1.84407 21.5869 1.92468 21.5784C1.86934 21.5905 1.82242 21.6001 1.76467 21.6025C1.69128 21.6061 1.61549 21.6181 1.5421 21.6133C1.57699 21.6169 1.60947 21.6278 1.64316 21.635C1.71414 21.6506 1.78994 21.6639 1.86212 21.6735C1.98724 21.6891 2.11116 21.7 2.23748 21.6987C2.35298 21.6975 2.47088 21.6975 2.58036 21.659C2.64773 21.635 2.72593 21.6145 2.7897 21.5784C2.7524 21.6302 2.65255 21.6374 2.5948 21.6627C2.52863 21.6915 2.45644 21.6987 2.39148 21.7288C2.33854 21.7529 2.27839 21.7601 2.22665 21.7842C2.23748 21.7878 2.24711 21.7866 2.25914 21.7854C2.30125 21.7842 2.34215 21.7926 2.38426 21.7938C2.47449 21.7974 2.56472 21.783 2.65616 21.783C2.76443 21.783 2.87271 21.7854 2.97979 21.7661C3.06641 21.7505 3.15062 21.7252 3.23725 21.7132C3.41169 21.6879 3.59336 21.6651 3.75818 21.6013C3.82315 21.5772 3.88691 21.5508 3.95308 21.5279C3.99158 21.5147 4.03609 21.4858 4.0782 21.4906C4.06256 21.5026 4.0397 21.5051 4.02166 21.5135C3.99759 21.5243 3.97594 21.5387 3.95188 21.5496C3.92661 21.558 3.90375 21.5688 3.87969 21.5808C3.87127 21.5893 3.86285 21.5965 3.85202 21.6025C3.82555 21.6169 3.79668 21.6205 3.77141 21.6374C3.70284 21.6819 3.63908 21.73 3.5693 21.7721C3.54042 21.789 3.40327 21.8443 3.4141 21.878C3.44418 21.8816 3.50674 21.8467 3.5308 21.8383C3.64268 21.7962 3.74856 21.7517 3.86405 21.724C3.90375 21.7144 3.94466 21.7036 3.98316 21.6903C4.01323 21.6807 4.0397 21.6723 4.07098 21.6687C4.10587 21.6639 4.13595 21.647 4.16723 21.6326C4.22017 21.6085 4.27551 21.5989 4.32965 21.576C4.36694 21.5592 4.40063 21.5387 4.43672 21.5183C4.48123 21.493 4.52815 21.475 4.57507 21.4545C4.59914 21.4437 4.63403 21.4353 4.65328 21.4172C4.64365 21.4341 4.62921 21.4425 4.61718 21.4569C4.60034 21.4762 4.58951 21.4966 4.56906 21.5123C4.53297 21.5423 4.49326 21.5676 4.45838 21.6001C4.36574 21.6855 4.2334 21.7324 4.16603 21.8419C4.18528 21.8275 4.20813 21.8166 4.22979 21.8046C4.28634 21.7745 4.33686 21.7348 4.39461 21.7072C4.5053 21.6542 4.61357 21.6013 4.71584 21.5327C4.77599 21.493 4.85419 21.4641 4.92397 21.4425C4.97089 21.4268 5.01661 21.4136 5.06353 21.4016C5.08398 21.3968 5.11767 21.3775 5.12729 21.3992C5.13692 21.4196 5.11165 21.4581 5.10564 21.4762C5.08639 21.5327 5.0539 21.5857 5.02262 21.6374C4.98412 21.7024 4.92156 21.7998 4.92999 21.8792C4.92517 21.8576 4.94683 21.8443 4.96126 21.8299C4.98653 21.8058 5.00097 21.7769 5.02383 21.7517C5.06353 21.7072 5.12849 21.6542 5.18384 21.6302C5.27046 21.5929 5.35467 21.5448 5.4413 21.5063C5.53754 21.4641 5.62657 21.4124 5.718 21.3631C5.78057 21.3294 5.84914 21.3102 5.90689 21.2668C5.92975 21.25 5.97907 21.2031 6.00795 21.1995C6.00554 21.2151 5.98509 21.232 5.97667 21.2464C5.96464 21.2692 5.9502 21.2897 5.93576 21.3114C5.90929 21.3535 5.87681 21.3944 5.85395 21.4389C5.82869 21.4894 5.77575 21.5363 5.73725 21.5784C5.72161 21.5953 5.70838 21.6121 5.69876 21.6326C5.68793 21.6554 5.66507 21.6855 5.66146 21.7084C5.70357 21.7336 5.78658 21.6217 5.81305 21.5965C5.86358 21.5484 5.91411 21.4978 5.95862 21.4449C6.05848 21.3258 6.1463 21.1995 6.24014 21.0768C6.27985 21.0238 6.32797 20.9757 6.37128 20.9264C6.40617 20.8867 6.43384 20.8421 6.46632 20.8012C6.51324 20.7423 6.56979 20.6918 6.61671 20.6316C6.63716 20.6039 6.66002 20.5594 6.69371 20.5438C6.68167 20.5558 6.67807 20.5871 6.67446 20.6003C6.66122 20.6436 6.64438 20.6785 6.62393 20.7182C6.59866 20.7676 6.56498 20.8121 6.54091 20.8626C6.50963 20.9252 6.46512 20.9817 6.43625 21.0455C6.41459 21.0936 6.39534 21.1453 6.3773 21.1947C6.46753 21.1393 6.53249 21.0395 6.60949 20.9685C6.7683 20.8205 6.91628 20.6509 7.08832 20.5173C7.05223 20.5426 7.04982 20.5727 7.02937 20.6051C7.01854 20.6232 7.0041 20.6388 6.99448 20.6581C6.98004 20.6882 6.9656 20.7194 6.95477 20.7519C6.94756 20.7724 6.94756 20.7856 6.94635 20.8073C6.94515 20.8241 6.93793 20.8385 6.93673 20.8566C6.93553 20.8746 6.93793 20.8939 6.93673 20.9119C6.93553 20.9264 6.9259 20.9384 6.9259 20.9528C6.94274 20.942 6.93793 20.9083 6.94515 20.8903C6.95598 20.8638 6.96801 20.8325 6.98365 20.8073C6.99809 20.7844 7.01854 20.7688 7.03418 20.7471C7.0438 20.7327 7.04741 20.7242 7.06065 20.7122C7.06907 20.705 7.07629 20.6942 7.08351 20.6857C7.10877 20.6581 7.13764 20.6364 7.16291 20.6088C7.18697 20.5823 7.21103 20.5558 7.24231 20.5366C7.29765 20.5017 7.35179 20.4668 7.40593 20.4295C7.42277 20.4187 7.53827 20.3272 7.52383 20.3958C7.52143 20.409 7.5106 20.4163 7.50699 20.4283C7.50098 20.4451 7.49857 20.4584 7.48894 20.474C7.47571 20.4981 7.4709 20.5245 7.45766 20.5486C7.44563 20.5703 7.4336 20.5883 7.4324 20.6136C7.4312 20.6376 7.42398 20.6593 7.42277 20.6833C7.42157 20.705 7.42277 20.7267 7.42277 20.7483C7.42277 20.7603 7.42518 20.776 7.42277 20.788C7.42037 20.8 7.41195 20.8073 7.41315 20.8193C7.41315 20.8049 7.42037 20.7892 7.42277 20.7748C7.42518 20.7627 7.42879 20.7471 7.4336 20.7351C7.44082 20.7182 7.44804 20.6966 7.45766 20.6809C7.47571 20.6509 7.50819 20.6232 7.53105 20.5955C7.5503 20.5739 7.57316 20.5558 7.59 20.533C7.60324 20.5149 7.62249 20.5017 7.63452 20.4836C7.65738 20.4499 7.68144 20.4139 7.70309 20.379C7.71512 20.3597 7.72114 20.3393 7.73437 20.32C7.75001 20.2984 7.76084 20.2743 7.77768 20.2526C7.80776 20.2141 7.83543 20.1744 7.86551 20.1359C7.88235 20.1143 7.8992 20.0914 7.91965 20.0722C7.94371 20.0505 7.97018 20.0313 7.99544 20.0096C8.01469 19.9928 8.03394 19.9747 8.05921 19.9675C8.07485 19.9627 8.0977 19.9615 8.11214 19.9711C8.11936 19.9759 8.12297 19.9807 8.12538 19.9892C8.1338 20.0228 8.10974 20.0722 8.09891 20.1023C8.08688 20.1383 8.07003 20.1708 8.0556 20.2057C8.04236 20.2382 8.02191 20.2671 8.00988 20.3008C7.98943 20.3549 7.96537 20.4066 7.94732 20.462C7.93769 20.4933 7.93048 20.5281 7.92687 20.5606C7.92446 20.5811 7.91965 20.6075 7.90762 20.6256C7.91604 20.6148 7.91363 20.6051 7.91724 20.5943C7.92687 20.5678 7.94491 20.5462 7.95454 20.5197C7.98221 20.4439 8.02913 20.385 8.07003 20.3152C8.0941 20.2731 8.12417 20.2382 8.15305 20.2009C8.16748 20.1817 8.17711 20.16 8.19155 20.1408C8.19997 20.1299 8.2108 20.1215 8.21681 20.1083C8.22042 20.1023 8.21922 20.095 8.22403 20.089C8.23365 20.0746 8.2505 20.0674 8.26012 20.0541C8.27696 20.0325 8.29261 20.0108 8.30704 19.988C8.31787 19.9711 8.33712 19.9663 8.34674 19.9495C8.35757 19.9326 8.3684 19.9146 8.37682 19.8965C8.39487 19.8616 8.41773 19.828 8.43818 19.7931C8.45141 19.7714 8.45743 19.7461 8.47066 19.7233C8.48389 19.7004 8.49232 19.674 8.50194 19.6487C8.51999 19.6006 8.53803 19.5536 8.56089 19.5079C8.58375 19.4622 8.61022 19.4117 8.6427 19.3708C8.67278 19.3335 8.69925 19.2926 8.73293 19.2589C8.74617 19.2457 8.7594 19.2312 8.77263 19.2192C8.78346 19.2084 8.79549 19.2023 8.80632 19.1927C8.79188 19.2023 8.79309 19.212 8.78707 19.224C8.77985 19.2396 8.76782 19.2517 8.7594 19.2673C8.74496 19.295 8.73293 19.3227 8.72331 19.3503C8.70406 19.4021 8.66436 19.443 8.66075 19.5007C8.65954 19.5188 8.66436 19.5356 8.66556 19.5536C8.67158 19.6162 8.64631 19.68 8.6415 19.7413C8.63909 19.7666 8.6403 19.7931 8.6403 19.8183C8.6403 19.8388 8.64751 19.8556 8.64992 19.8761C8.65233 19.8965 8.63789 19.9362 8.65594 19.9507C8.67518 19.8905 8.6812 19.8243 8.70406 19.7654C8.71729 19.7317 8.72812 19.6956 8.74136 19.6619C8.75579 19.627 8.78106 19.597 8.7967 19.5645C8.80271 19.5512 8.81234 19.5428 8.82196 19.532C8.85204 19.4923 8.88813 19.443 8.90618 19.3948C8.91099 19.3816 8.9134 19.3684 8.92061 19.3551C8.94227 19.3142 8.97596 19.2769 9.00483 19.2408C9.03852 19.1975 9.06017 19.1386 9.08183 19.0881C9.1107 19.0171 9.14319 18.9461 9.17086 18.8751C9.18529 18.8378 9.19612 18.8029 9.21417 18.768C9.23462 18.7295 9.23462 18.7043 9.26951 18.679C9.29116 18.6634 9.31162 18.6417 9.32244 18.6164C9.32846 18.6008 9.33688 18.5647 9.35854 18.5611C9.37177 18.6056 9.35132 18.6573 9.3429 18.6995C9.33327 18.7476 9.33087 18.7957 9.32004 18.8426C9.31402 18.8667 9.31041 18.8895 9.3056 18.9136C9.29959 18.9413 9.3068 18.9701 9.30199 18.999C9.29598 19.0327 9.29237 19.0592 9.29357 19.0941C9.29357 19.1181 9.27552 19.1542 9.28635 19.1759C9.30801 19.1723 9.30801 19.1362 9.31282 19.1205C9.31643 19.1109 9.31884 19.1049 9.32124 19.0941C9.32365 19.0808 9.32846 19.0676 9.33207 19.0544C9.34169 19.0183 9.35493 18.9834 9.36816 18.9485C9.39102 18.8883 9.40666 18.8246 9.43553 18.7668C9.4596 18.7187 9.48967 18.673 9.51494 18.6261C9.52576 18.6068 9.5378 18.5936 9.54983 18.5767C9.56186 18.5599 9.56787 18.5382 9.57509 18.519C9.59434 18.4721 9.60998 18.4227 9.6172 18.3734C9.62081 18.3518 9.61961 18.3301 9.62803 18.3109C9.64126 18.2772 9.66051 18.2423 9.66773 18.2074C9.67374 18.1797 9.68577 18.1653 9.72187 18.1605C9.73029 18.2002 9.71345 18.2399 9.71345 18.2796C9.71345 18.3253 9.70142 18.3722 9.69059 18.4155C9.67495 18.4721 9.64968 18.531 9.64848 18.59C9.64728 18.6249 9.64006 18.6586 9.63886 18.6934C9.63765 18.7079 9.63404 18.7331 9.64607 18.7416C9.65089 18.7295 9.64607 18.7187 9.64848 18.7079C9.65089 18.697 9.6569 18.6862 9.6581 18.6754C9.66653 18.6321 9.67976 18.596 9.6942 18.5551C9.70623 18.5226 9.72307 18.4841 9.74352 18.4552C9.78804 18.3963 9.82533 18.3385 9.85782 18.27C9.87105 18.2411 9.87947 18.2146 9.89511 18.1857C9.90714 18.1617 9.92519 18.1244 9.93 18.0991C9.94083 18.0498 9.94805 18.0065 9.9673 17.9572C9.97812 17.9307 9.98775 17.9066 9.99497 17.879C9.99858 17.8621 9.99256 17.8356 10.013 17.826C10.0299 17.8681 10.0082 17.9415 10.0046 17.986C10.001 18.0293 9.99737 18.0739 9.99376 18.1184C9.99136 18.146 9.98173 18.1797 9.99016 18.205C10.0443 18.1966 10.0431 18.1051 10.0551 18.0726C10.0804 17.9969 10.0672 17.9175 10.0888 17.8429C10.0972 17.8152 10.0996 17.7911 10.1008 17.7623C10.1032 17.6961 10.1032 17.6275 10.1273 17.5637C10.1466 17.5144 10.149 17.4603 10.1658 17.4098C10.1863 17.346 10.2211 17.2714 10.2584 17.2149C10.2669 17.2389 10.2645 17.2774 10.2681 17.3039C10.2717 17.3376 10.2765 17.37 10.2813 17.4037C10.2873 17.4555 10.2897 17.5036 10.2849 17.5565C10.2813 17.6059 10.2777 17.6552 10.2729 17.7045C10.2693 17.7406 10.2633 17.7791 10.2633 17.8152C10.2633 17.8344 10.2813 17.8525 10.2765 17.8705C10.2825 17.7009 10.3439 17.5409 10.3788 17.3773C10.3896 17.3303 10.3944 17.281 10.4076 17.2341C10.4173 17.2016 10.4293 17.1764 10.4317 17.1415C10.4341 17.1018 10.4377 17.0621 10.4413 17.0212C10.4473 16.9442 10.4726 16.866 10.4714 16.789C10.4726 16.8864 10.5051 16.9827 10.564 17.0645C10.564 17.02 10.5712 16.9754 10.5628 16.9321C10.5604 16.9165 10.564 16.902 10.5676 16.8864C10.5773 16.8491 10.5881 16.8106 10.6001 16.7733C10.6121 16.7348 10.6266 16.6975 10.6422 16.6602C10.6506 16.6422 10.6591 16.6229 10.6675 16.6049C10.6711 16.5965 10.6759 16.5868 10.6807 16.5784C10.6831 16.5748 10.694 16.558 10.6928 16.5544L10.7409 16.6807C10.7529 16.5243 10.8046 16.3691 10.8913 16.2283C10.8889 16.2608 10.8865 16.2945 10.8828 16.327C10.9081 16.2825 10.9334 16.2379 10.9586 16.1934C10.9647 16.2776 10.9454 16.3631 10.9045 16.4401C11.0477 16.2764 11.0441 16.0539 11.0128 15.853C11.0092 15.8277 11.0056 15.8012 11.0212 15.7796C11.032 15.7639 11.0633 15.7519 11.0826 15.7627C11.0898 15.7663 11.0922 15.7736 11.0958 15.7796C11.109 15.8012 11.1295 15.8193 11.1439 15.8409" fill="#F7DBE7"/>
<path d="M11.8899 8.71485C11.8033 8.75094 11.713 8.79185 11.6409 8.84478C11.6733 8.85922 11.7612 8.82192 11.7684 8.87366C11.6757 8.9711 11.5482 9.0481 11.4279 9.10585C11.31 9.1624 11.2005 9.24421 11.0983 9.32602C10.9575 9.43911 10.7746 9.54859 10.6627 9.69175C10.6279 9.73627 10.6086 9.788 10.5833 9.83733C10.5424 9.91793 10.4859 9.99012 10.4342 10.0647C10.2044 10.404 9.9818 10.7805 9.8254 11.1595C9.64975 11.5854 9.42237 11.9908 9.28882 12.4324C9.0434 13.5019 8.90865 14.4295 9.46929 15.9947C9.46568 15.8612 9.4753 15.7276 9.46929 15.5941C9.47049 15.6157 9.48252 15.6422 9.48854 15.6627C9.49816 15.6903 9.50779 15.7192 9.51861 15.7469C9.54027 15.8022 9.56553 15.8564 9.59321 15.9081C9.61366 15.9466 9.63291 15.9863 9.66178 16.0188C9.68945 16.0501 9.69547 16.0873 9.7075 16.1258C9.73758 16.2245 9.77607 16.3195 9.823 16.411L9.84585 16.3508C9.91323 16.4447 9.95654 16.5553 9.96977 16.6696C9.96977 16.6492 9.98541 16.6311 10.0047 16.6275C10.0648 16.7322 10.0817 16.8609 10.0492 16.9776C10.078 16.9343 10.0949 16.8898 10.1358 16.8537C10.143 16.8477 10.1514 16.8417 10.1611 16.8429C10.1767 16.8441 10.1839 16.8645 10.1863 16.8802C10.2164 17.063 10.2212 17.2495 10.1996 17.4336C10.2164 17.3855 10.2405 17.3386 10.2705 17.2964C10.2754 17.2904 10.2802 17.2844 10.2862 17.2832C10.3018 17.2796 10.3127 17.2977 10.3163 17.3133C10.3319 17.3674 10.3403 17.4264 10.3367 17.4829C10.3343 17.5202 10.3199 17.5551 10.3102 17.5912C10.2814 17.7031 10.2453 17.8041 10.1695 17.892C10.232 17.8487 10.2994 17.8126 10.3704 17.7849C10.2717 17.981 10.1719 18.1771 10.0732 18.372C10.1057 18.3347 10.1382 18.2974 10.1695 18.2601C10.155 18.277 10.149 18.3155 10.1406 18.3359C10.1298 18.3624 10.1178 18.3876 10.1045 18.4129C10.0793 18.4634 10.0492 18.5116 10.0167 18.5585C9.98421 18.6042 9.94812 18.6487 9.90962 18.6896C9.89037 18.7101 9.86751 18.7281 9.85067 18.7498C9.83864 18.7654 9.83262 18.7847 9.82059 18.8003C9.74961 18.8917 9.669 18.976 9.59441 19.0638C9.51982 19.1516 9.44643 19.2394 9.37785 19.3321C9.25273 19.5005 9.14325 19.6822 9.07588 19.8819C9.1228 19.8602 9.24672 19.7411 9.28522 19.7423C9.10836 20.0154 9.05663 20.3475 8.95798 20.6482C8.99046 20.629 9.05302 20.5111 9.08791 20.5255C8.99648 20.7722 8.93753 21.032 8.83887 21.2726C8.89061 21.2329 8.95557 21.192 8.99527 21.1379C8.94234 21.257 8.90384 21.3364 8.90504 21.4615C8.90865 22.0595 9.01693 22.8715 9.02054 23.4707C9.04941 23.9447 8.9652 24.444 9.07588 24.9048C9.16611 25.1177 9.38387 25.2536 9.50779 25.4461C9.54869 25.5087 9.58479 25.5676 9.64975 25.6086C10.137 25.8035 10.6976 25.7168 11.2126 25.7974C11.559 25.8035 11.9067 25.7385 12.234 25.6278C12.3399 25.6025 12.4048 25.5099 12.4012 25.4028C12.3904 25.3258 12.4012 25.3078 12.4277 25.2416C12.4229 25.1754 12.4132 25.1093 12.4048 25.0443C12.394 25.0395 12.3952 24.9721 12.3747 24.9312C12.3086 24.8205 12.2352 24.7123 12.1594 24.6076C12.0391 24.5065 11.9501 24.3754 11.8285 24.2791C11.5855 24.0999 11.073 24.4476 10.9804 24.0457C10.9996 23.4623 11.008 22.6514 11.0983 22.0691C11.1211 21.9608 11.1368 21.8357 11.1957 21.7394C11.3353 21.4868 11.393 21.1836 11.606 20.9707C11.6036 21.0248 11.5506 21.0886 11.5663 21.1379C11.8225 20.8143 12.234 20.6422 12.5672 20.41C12.5492 20.4425 12.4806 20.4654 12.4529 20.4991C12.4012 20.5736 12.3459 20.6579 12.3194 20.7421C12.4698 20.5556 12.5829 20.4124 12.8235 20.3451C13.1531 20.2332 13.4575 20.0515 13.7126 19.8265C13.644 19.9059 13.5778 19.9877 13.5393 20.0876C13.8245 19.8458 14.1613 19.6713 14.4176 19.397C14.3538 19.4825 14.2275 19.5667 14.2167 19.6761C14.2479 19.5871 14.3851 19.551 14.4428 19.4849C14.5583 19.3754 14.7027 19.2719 14.8302 19.1709C14.8615 19.154 14.8904 19.1336 14.9193 19.1131C14.9385 19.0902 14.9578 19.0662 14.9782 19.0433C15.0324 18.9952 15.149 18.9399 15.1647 18.8713C15.1695 18.976 15.2068 19.0626 15.1827 19.1721C15.2453 19.0939 15.3067 19.0157 15.3692 18.9387C15.2934 19.1311 15.1803 19.3092 15.0384 19.4632C15.1635 19.391 15.2886 19.3176 15.4137 19.2454C15.3415 19.3188 15.2694 19.3922 15.1972 19.4656C15.2549 19.4488 15.3127 19.4331 15.3704 19.4163C15.2706 19.5366 15.1707 19.6569 15.0708 19.7772C15.143 19.7122 15.2321 19.6653 15.3271 19.6413C15.2874 19.7014 15.2489 19.7616 15.2092 19.8217C15.297 19.788 15.3837 19.7531 15.4715 19.7195C15.3464 19.8494 15.2333 19.9902 15.1334 20.1393C15.1972 20.1093 15.2597 20.0804 15.3235 20.0503C15.2489 20.2596 15.2357 20.4894 15.2862 20.7048C15.3391 20.5893 15.4282 20.4894 15.5388 20.4233C15.4113 20.5616 15.3343 20.7421 15.3235 20.9262C15.368 20.8732 15.427 20.8311 15.4919 20.8046C15.427 21.0801 15.4306 21.3701 15.5016 21.6444C15.4907 21.5854 15.5232 21.5205 15.5773 21.4916C15.5954 21.654 15.6134 21.8164 15.6315 21.9776C15.6628 21.9103 15.6953 21.8441 15.7265 21.7767C15.7097 21.8874 15.7301 22.0029 15.7855 22.1016C15.812 21.9404 16.0129 21.9897 16.1043 22.1593C16.2956 22.4733 16.612 22.6718 16.8803 22.9076C17.4481 23.4274 18.0256 23.9387 18.6067 24.444C18.6873 24.4512 20.1767 24.5234 20.421 24.3838C21.203 24.4596 21.3125 23.911 20.8817 23.3624C20.6905 23.135 20.5292 22.7681 20.1803 22.8078C19.9494 22.8246 19.7051 22.7729 19.4826 22.8306C19.4561 22.8391 19.361 22.8643 19.3478 22.8511C18.958 22.4517 18.5646 22.1196 18.2686 21.6372C18.0389 21.3893 18.0942 21.0356 18.2638 20.7685C18.3793 20.5315 18.4154 20.2669 18.4503 20.007C18.4756 20.0611 18.4996 20.1153 18.5249 20.1682C18.567 19.841 18.5983 19.385 18.9424 19.2334C18.9484 19.2767 18.9436 19.3224 18.9291 19.3645C18.9749 19.2984 19.0446 19.2491 19.1228 19.2262C19.1228 19.2936 19.0458 19.3381 19.011 19.3946C19.0615 19.3345 19.1661 19.2755 19.2299 19.3489C19.2949 19.4139 19.2913 19.5125 19.3394 19.5859C19.3514 19.6076 19.3707 19.6292 19.3935 19.6376C19.414 19.6593 19.3959 19.6918 19.408 19.7146C19.4417 19.7676 19.5102 19.7158 19.5523 19.7002C19.574 19.6978 19.5969 19.6978 19.6161 19.6858C19.7099 19.6437 19.7954 19.5739 19.9048 19.5763C20.0203 19.5727 20.0985 19.6737 20.2128 19.687C20.5064 19.8109 20.8565 19.8301 21.1188 20.0046C21.209 20.0924 21.2836 20.2019 21.4027 20.2308C21.4111 20.2404 21.4171 20.2524 21.4279 20.2596C21.4845 20.2861 21.4845 20.2404 21.5122 20.2175C21.6024 20.2139 21.6481 20.1417 21.6878 20.0708C21.7119 20.0371 21.7456 20.0395 21.7853 20.0371C22.2124 19.9769 22.6683 19.9829 23.0762 19.8325C23.1772 19.8037 23.2819 19.8831 23.3842 19.8987C23.4648 19.9456 23.549 19.9926 23.6416 19.9962C23.6633 20.0238 23.709 20.0527 23.7174 19.995C23.7234 19.9637 23.7282 19.9312 23.7535 19.9095C23.8089 19.8301 23.8113 19.7267 23.8738 19.6521C23.9111 19.5919 23.9869 19.5919 24.0507 19.5811C24.3069 19.5366 24.5728 19.4452 24.7545 19.2551C24.7485 19.2912 24.7436 19.3285 24.7376 19.3645C24.8856 19.1696 25.0504 18.9627 25.2886 18.8965C25.2826 19.0349 25.1479 19.1311 25.0276 19.2069C25.2056 19.1612 25.3259 19.0096 25.4559 18.8893C25.5702 18.8003 25.7374 18.7811 25.8589 18.6932C25.8312 18.7401 25.8216 18.7955 25.8144 18.8484C25.9335 18.6668 26.1645 18.5669 26.3654 18.4995C26.6409 18.467 26.5278 18.8424 26.434 18.9759C26.4953 18.8857 26.5675 18.8027 26.6493 18.7293C26.6 18.8592 26.5495 18.9892 26.5001 19.1179C26.5567 19.0397 26.6373 18.9772 26.7287 18.9387C26.6193 19.089 26.5254 19.2503 26.4472 19.4187C26.523 19.3573 26.606 19.3044 26.6938 19.2611C26.6277 19.3381 26.5615 19.4151 26.4953 19.4921C26.6626 19.4115 26.8466 19.3621 27.0343 19.3501C26.8394 19.5787 26.695 19.847 26.6096 20.1321C26.7107 20.007 26.8382 19.9023 26.9826 19.8265C26.8755 19.995 26.7588 20.1658 26.6048 20.2957C26.6818 20.2464 26.7696 20.2031 26.8623 20.1875C26.8972 20.3475 26.7516 20.5171 26.6914 20.6627C26.6469 20.777 26.6806 20.9598 26.6253 21.1114C26.736 21.0092 26.8454 20.9081 26.9561 20.8058C26.5615 21.2979 27.1029 23.8629 27.2112 24.4283C27.234 24.6365 27.2581 24.8446 27.281 25.0539C27.2894 25.1285 27.3074 25.2163 27.3796 25.244C27.4025 25.2536 27.4289 25.2536 27.4518 25.2645C27.5336 25.3018 27.5047 25.4052 27.5565 25.4642C27.7129 25.6061 27.8584 25.7674 28.0184 25.9129C28.1147 25.9863 28.2591 25.9779 28.3734 25.9863C28.8823 26.0272 29.3924 26.0393 29.9025 26.0224C30.1142 26.0284 30.3645 25.9767 30.4246 25.7409C30.4595 25.6483 30.5798 25.611 30.5846 25.6458C30.6087 25.4582 30.4908 25.2945 30.3777 25.1574C30.2826 25.0166 30.2008 24.8518 30.1082 24.7123C29.9253 24.4283 29.2997 24.385 29.2997 24.385C29.1084 23.8472 29.1578 23.5453 29.2071 22.8908C29.2528 22.5972 29.236 22.288 29.3394 22.0077C29.3924 21.891 29.4561 21.7695 29.4537 21.6372C29.491 21.3376 29.6354 21.0513 29.6546 20.7517C29.6655 20.8155 29.6751 20.8792 29.6859 20.9418C29.7978 20.1826 30.0769 19.4632 30.3765 18.7666C30.3837 18.7401 30.4703 18.4707 30.4595 18.4658C30.4908 18.4815 30.5124 18.5128 30.5148 18.5464C30.5521 18.4406 30.6087 18.3407 30.6809 18.2541C30.6761 18.3323 30.7073 18.4105 30.7639 18.4658C30.7374 18.354 30.7783 18.2324 30.8601 18.1506C30.8541 18.1566 30.8926 18.2252 30.9046 18.2421C31.1128 18.5128 30.9852 18.8797 30.8722 19.1648L30.8625 19.1949C30.9648 19.1143 31.0574 19.0217 31.1368 18.9194C31.0598 19.1239 30.9816 19.3272 30.901 19.5306C31.0117 19.4536 31.1092 19.3585 31.1862 19.249C31.1152 19.3814 31.031 19.5065 30.9371 19.6244C30.9949 19.5847 31.0538 19.5438 31.1116 19.5041C31.0947 19.6208 31.0863 19.7399 31.0899 19.8578C31.1416 19.776 31.2066 19.7038 31.2836 19.6449C31.1741 19.7712 31.1019 19.9288 31.0803 20.0924C31.1922 19.8614 31.4725 19.8061 31.7083 19.7844C31.6145 19.9312 31.5002 20.0659 31.369 20.1838C31.4689 20.1153 31.5856 20.0708 31.7071 20.0551C31.6397 20.167 31.5447 20.2645 31.4316 20.3342C31.6457 20.3463 31.8623 20.3029 32.0548 20.2115C31.8707 20.3799 31.6878 20.5484 31.5038 20.7156C31.6253 20.6182 31.7685 20.5448 31.92 20.5003C31.8575 20.5905 31.7949 20.6819 31.7324 20.7722C31.7817 20.7613 31.831 20.7493 31.8791 20.7385C31.8238 20.9286 31.807 21.1283 31.8322 21.3232C31.8924 21.1968 32.0151 21.0994 32.1546 21.0681C32.0981 21.2702 32.0801 21.4808 32.1029 21.6889C32.1234 21.636 32.1595 21.5878 32.2064 21.5518C32.2244 21.7274 32.3664 22.1545 32.3471 22.3097C32.3592 22.2339 32.3808 22.1605 32.4121 22.0907C32.4446 22.2351 32.4891 22.3771 32.5444 22.5142C32.5757 22.4865 32.6082 22.4601 32.6395 22.4324C32.6383 22.4336 32.6972 22.6045 32.7021 22.6225C32.7129 22.6718 32.7177 22.7163 32.7466 22.7596C33.1303 23.3419 33.2073 24.0746 33.5983 24.6449C33.7018 24.8181 33.8943 24.8386 34.0808 24.8217C34.6535 24.8999 35.2225 25.0046 35.8036 24.8747C35.9143 24.859 36.0394 24.8362 36.102 24.7459C36.1344 24.6665 36.2006 24.6365 36.2812 24.6232C36.4027 24.5775 36.3991 24.4343 36.3859 24.3285C36.351 24.1468 36.3005 23.9363 36.1609 23.8003C36.0153 23.6596 35.8048 23.1952 35.563 23.2421C35.3212 23.289 35.0216 23.2421 35.0216 23.2421C35.0216 23.2421 34.852 22.815 34.7064 22.2989C34.568 21.8633 34.574 21.3893 34.4706 20.9466C34.4586 20.8864 34.4754 20.8179 34.479 20.7577C34.5259 20.2801 34.5079 19.7964 34.5271 19.32C34.6125 19.0602 34.5897 18.7762 34.6162 18.5055C34.6498 18.6006 34.6835 18.6956 34.7172 18.7895C34.704 18.6956 34.6919 18.603 34.6799 18.5092C34.6571 18.3215 34.6378 18.1338 34.6258 17.9461C34.615 17.7957 34.5993 17.6429 34.6186 17.4913C34.639 17.3301 34.6859 17.1737 34.7208 17.0149C34.7389 16.9355 34.7533 16.8561 34.7617 16.7755C34.7653 16.7442 34.7882 16.5638 34.7593 16.5457C34.8532 16.6035 34.9963 16.8573 35.089 16.9151C34.9879 16.6275 35.0011 16.3027 35.1166 16.0212C35.1624 15.9105 35.2249 15.8082 35.3139 15.7252C35.3284 15.712 35.3729 15.6627 35.397 15.6747C35.4102 15.6807 35.403 15.6927 35.4054 15.7036C35.415 15.7324 35.3789 15.807 35.3717 15.8323C35.3476 15.9237 35.3224 16.0152 35.2983 16.1066C35.5546 15.8287 35.7507 15.4966 35.871 15.1381C35.877 15.2753 35.883 15.4112 35.8902 15.5484C36.0177 15.2957 36.1164 15.0286 36.1874 14.7543C36.203 14.9288 36.2391 15.1008 36.2981 15.2656C36.2439 14.8205 36.3269 14.3597 36.5327 13.9627C36.5784 14.0746 36.6061 14.1925 36.6169 14.3128C36.7492 14.1179 36.8431 13.8977 36.8948 13.6679C36.9345 13.8243 36.9525 13.9856 36.9489 14.1468C37.2605 13.6054 36.973 12.8595 37.3038 12.3277C37.382 12.377 37.4458 12.4492 37.4855 12.5322C37.4759 12.3409 37.4675 12.1496 37.4578 11.9584C37.5613 12.1148 37.5926 12.3073 37.6203 12.4937C37.6443 11.8753 37.6371 11.2558 37.5986 10.6374C37.69 10.724 37.7827 10.8106 37.8741 10.8972C37.85 10.6987 37.838 10.499 37.838 10.2981C37.8825 10.404 37.9704 10.4906 38.075 10.5351C37.9992 10.3318 37.9234 10.1261 37.9018 9.91071C37.8885 9.78559 37.8885 9.49444 37.9222 9.37293C37.9367 9.31879 37.9583 9.26706 37.9848 9.21773C37.9956 9.19607 38.0028 9.17442 38.0137 9.15276C38.0245 9.13111 38.0365 9.11066 38.051 9.0902C38.0895 9.03486 38.1364 8.98553 38.1869 8.93982C38.2122 8.91696 38.2386 8.8953 38.2663 8.87365C38.2795 8.86282 38.2928 8.85199 38.3072 8.84237C38.318 8.83395 38.3397 8.82312 38.3457 8.81229C38.3084 8.87726 38.2844 8.94944 38.2759 9.02403C38.306 8.9723 38.3421 8.92538 38.3854 8.88448C38.4323 8.83876 38.4853 8.80026 38.5418 8.77018C38.5707 8.75454 38.6008 8.74131 38.6308 8.73048C38.6453 8.72567 38.6609 8.72206 38.6754 8.71364C38.691 8.70521 38.7078 8.69198 38.7271 8.69318C38.7343 8.70401 38.7259 8.75093 38.7114 8.75575C38.7933 8.72928 38.8751 8.70161 38.9569 8.67514C38.9196 8.71965 38.8835 8.76417 38.8462 8.80988C38.8715 8.79545 38.8979 8.78221 38.9244 8.76898C38.9485 8.75695 38.9737 8.75334 38.999 8.74612C39.0315 8.73529 39.0615 8.71604 39.094 8.70401C39.1638 8.67875 39.236 8.66672 39.3166 8.64747C39.4345 8.61859 39.5452 8.55603 39.6246 8.4634C39.6438 8.44054 39.6619 8.41527 39.6775 8.3888C39.6932 8.36113 39.7028 8.33106 39.7184 8.30339C39.7317 8.27932 39.7497 8.26248 39.7581 8.23601C39.7702 8.19992 39.7774 8.16142 39.7858 8.12533C39.7906 8.10488 39.7954 8.08322 39.8026 8.06277C39.8075 8.04833 39.8183 8.0351 39.8291 8.02427C39.846 8.00743 39.8664 7.9954 39.8857 7.98216C39.8953 7.97615 39.9037 7.97013 39.9121 7.96412C39.923 7.9581 39.9314 7.95449 39.941 7.94607C39.9891 7.90156 40.0348 7.85584 40.0794 7.80771C40.1564 7.7247 40.2261 7.63688 40.2887 7.54544C40.3525 7.45401 40.4078 7.35896 40.4559 7.26151C40.48 7.21219 40.5016 7.16286 40.5221 7.11354C40.5329 7.08827 40.5413 7.06301 40.551 7.03774C40.563 7.00526 40.5762 6.97277 40.5798 6.93909C40.581 6.93067 40.5774 6.92224 40.5786 6.91503C40.5798 6.9042 40.5919 6.89457 40.6003 6.88736C40.6232 6.8645 40.64 6.83562 40.6508 6.80795C40.6617 6.78148 40.6617 6.75501 40.658 6.72855C40.6496 6.67441 40.6268 6.62388 40.5991 6.57816C40.5871 6.55771 40.5762 6.53485 40.5582 6.51801C40.5522 6.51199 40.545 6.50718 40.5401 6.49996C40.5101 6.46026 40.4896 6.41334 40.4607 6.37244C40.4078 6.29544 40.3476 6.22205 40.2911 6.14866C40.1949 6.02474 40.0986 5.89962 40.0024 5.77571C39.9398 5.6951 39.8748 5.61088 39.8508 5.50982C39.8351 5.44726 39.8363 5.37989 39.8375 5.31252C39.8387 5.16695 39.8411 5.02137 39.8423 4.8758C39.8436 4.80602 39.8399 4.73624 39.8472 4.66526C39.8568 4.57623 39.8171 4.48961 39.7786 4.41141C39.7509 4.38374 39.7341 4.32599 39.7136 4.2911C39.692 4.25501 39.6667 4.22252 39.6487 4.18523C39.621 4.12989 39.5717 4.08537 39.532 4.03845L39.3984 3.88205C39.307 3.77618 39.2167 3.67031 39.1253 3.56323C39.0435 3.46699 38.9605 3.37074 38.8787 3.27449C38.8378 3.22637 38.7969 3.17825 38.7548 3.13012C38.6946 3.06034 38.6766 3.04591 38.6934 2.93883C38.7247 2.74273 38.7896 2.55986 38.7824 2.35895C38.7752 2.15923 38.7283 1.96313 38.7187 1.76462C38.7355 1.5216 38.7259 1.25452 38.7499 1.02473C38.6657 1.03315 38.6284 1.03555 38.5719 1.10293C38.3349 1.29783 37.9836 1.39167 37.7983 1.64792C37.684 1.75981 37.5998 2.06058 37.3917 1.93306C37.2208 1.81636 37.2449 1.57213 37.1342 1.40851C37.0716 1.2497 36.9574 1.10894 36.9249 0.940511C36.9068 0.83464 36.819 0.749221 36.7552 0.667412C36.6843 0.556728 36.6325 0.4292 36.6506 0.294455C36.6578 0.252347 36.6915 0.197005 36.6758 0.154897C36.6578 0.162116 36.6265 0.176553 36.6085 0.176553C36.6073 0.121211 36.6638 0.0791031 36.677 0.0297766C36.5988 0.0646661 36.3582 0.390702 36.3017 0.485746C36.1838 0.644553 36.0827 0.825015 35.9648 0.991041C35.7458 1.364 35.5149 1.92824 35.1455 2.13638C35.2249 2.12194 35.3043 2.08585 35.3801 2.0678C35.3464 2.15081 35.2153 2.18089 35.1804 2.25909C35.1996 2.34571 35.0841 2.3794 35.0432 2.43595C35.0757 2.43835 35.0914 2.43715 35.0745 2.47204C35.0096 2.60077 34.8544 2.61881 34.7569 2.71266C34.787 2.72108 34.8267 2.70423 34.8038 2.74754C34.4116 3.18186 33.7764 3.28893 33.3 3.61978C33.3938 3.57888 33.4889 3.56203 33.5851 3.54278C33.5935 3.58489 33.4516 3.64865 33.4263 3.6667C33.2591 3.82551 33.0076 3.8616 32.7851 3.88687C32.7718 3.88085 32.7598 3.88205 32.7502 3.88927C32.7983 3.91815 32.8633 3.88927 32.915 3.8989C32.9547 3.91333 32.9968 3.91815 33.0389 3.91213C32.9042 3.9795 32.773 4.07936 32.6166 4.07816C32.5829 4.07936 32.4963 4.06372 32.4735 4.08778C32.5481 4.11064 32.4963 4.14673 32.4494 4.14673C32.4602 4.15154 32.4698 4.16117 32.4723 4.17079C32.3026 4.26824 32.0873 4.32238 31.9585 4.47397C32.0295 4.44389 32.1234 4.39457 32.2028 4.39577C32.1113 4.49081 31.9513 4.53292 31.8551 4.63879C31.8803 4.61714 31.9441 4.63278 31.9706 4.64601C31.7179 4.92513 31.4172 5.2259 31.0394 5.33057C31.0562 5.32816 31.0719 5.32455 31.0875 5.32335C30.9937 5.64217 30.5846 5.6145 30.3536 5.78413C30.3909 5.7733 30.4306 5.7709 30.4691 5.77811C30.2574 6.06325 29.8832 6.18355 29.5861 6.36522C29.6342 6.36883 29.6823 6.3195 29.7256 6.34236C29.7846 6.38327 29.734 6.46628 29.6775 6.48432C29.5091 6.59501 29.3334 6.7093 29.1265 6.74058C28.8353 6.83923 28.5081 6.75382 28.2194 6.826C28.0413 6.89458 27.8608 6.95473 27.6768 7.00526C27.5661 7.03654 27.447 7.05338 27.3387 7.09188C27.2388 7.12677 27.1763 7.23144 27.068 7.24828C26.7504 7.34213 26.4653 7.53943 26.1164 7.50935C25.8132 7.5286 25.51 7.53823 25.2056 7.54063C25.1082 7.54184 25.0192 7.53823 24.9265 7.55748C24.8194 7.57913 24.7015 7.5659 24.5921 7.5659C24.432 7.5659 24.278 7.54184 24.1192 7.53823C24.0639 7.53703 24.0074 7.54184 23.9508 7.53943C23.8798 7.53703 23.8161 7.52018 23.7463 7.51176C23.697 7.50575 23.62 7.49973 23.5742 7.48529C23.5442 7.47567 23.5357 7.44198 23.4985 7.46243C23.5057 7.50214 23.5694 7.50454 23.5923 7.54184C23.3793 7.50334 23.158 7.49131 22.951 7.43116C22.8452 7.39987 22.7369 7.36619 22.6322 7.3313C22.5913 7.31686 22.4818 7.24949 22.4361 7.26994C22.4277 7.32769 22.5083 7.40348 22.5203 7.46003C22.4963 7.49732 22.2677 7.42273 22.2388 7.41311C22.1065 7.36619 21.9765 7.30964 21.843 7.26633C21.7107 7.22302 21.5663 7.18573 21.4279 7.16407C21.3534 7.15204 21.2776 7.14723 21.2018 7.1364C21.1248 7.12557 21.0454 7.14121 20.9696 7.12918C21.0189 7.12437 21.1464 7.20016 21.1777 7.23625C21.1452 7.23746 21.1175 7.22422 21.0863 7.21941C21.0093 7.20497 20.9275 7.21219 20.8493 7.21219C20.7915 7.21219 20.7338 7.21219 20.676 7.21219C20.6195 7.21219 20.5629 7.21219 20.5064 7.21099C20.4811 7.21099 20.445 7.20377 20.4222 7.21701C20.4101 7.22423 20.4065 7.24708 20.3945 7.2531C20.3392 7.28438 20.2369 7.26754 20.1767 7.26152C19.9866 7.24227 19.8074 7.20257 19.6221 7.15445C19.4236 7.10392 19.2167 7.12196 19.0158 7.09429C18.9604 7.08587 18.9063 7.07143 18.8497 7.06782C18.6657 7.057 18.4756 7.11835 18.2915 7.13039C17.9691 7.15084 17.6346 7.25551 17.3182 7.31566C17.1774 7.34213 17.0295 7.35897 16.8887 7.37702C16.8165 7.38664 16.7431 7.3686 16.6685 7.38183C16.5891 7.39627 16.523 7.40348 16.4412 7.40348C16.2763 7.40228 16.1127 7.40469 15.9479 7.40228C15.842 7.40108 15.7434 7.42755 15.6387 7.43116C15.5798 7.43356 15.5232 7.42033 15.4727 7.45883C15.5256 7.45522 15.6014 7.43356 15.6519 7.45642C15.7434 7.49733 15.6243 7.53342 15.5737 7.53943C15.5292 7.54425 15.4931 7.55507 15.4498 7.5635C15.4101 7.57192 15.368 7.55748 15.3283 7.5647C15.2778 7.57312 15.2236 7.58515 15.1743 7.59598C14.8808 7.65613 14.5812 7.72591 14.284 7.78366C14.1469 7.81013 14.0145 7.86306 13.8798 7.89795C13.7426 7.93405 13.5959 7.98819 13.4719 8.05556C13.3444 8.12413 13.1856 8.15782 13.0473 8.19872C12.9342 8.23241 12.8235 8.28294 12.72 8.33949C12.6863 8.35753 12.6551 8.37558 12.619 8.38761C12.5949 8.39603 12.5696 8.40205 12.5444 8.40806C12.4758 8.4249 12.3567 8.48506 12.2869 8.4622C12.311 8.47062 12.335 8.48145 12.3543 8.49709C12.2604 8.59213 12.098 8.62221 11.9813 8.67154C11.9549 8.68838 11.9224 8.70162 11.8899 8.71485Z" fill="#F7DBE7"/>
<path d="M64.2154 15.8225C64.2154 15.8225 64.2075 15.652 64.1284 15.5858C64.0506 15.5186 63.6092 15.2042 63.6713 14.9305C63.7323 14.6567 63.5584 13.8482 63.2164 13.5037C62.8733 13.158 62.31 12.9283 62.31 12.9283C62.31 12.9283 62.2807 12.629 62.6114 11.657C62.7695 11.1941 60.9386 12.2706 60.5999 12.5432C60.5886 12.5466 60.5751 12.5501 60.5672 12.5524C60.4679 12.578 59.9565 12.8273 59.4226 13.4015C59.3041 13.5291 59.1946 13.6811 59.0941 13.8295C58.9801 13.9595 58.8616 14.1114 58.7442 14.2947C58.6866 14.384 58.6347 14.4826 58.5861 14.5835C58.2272 15.0487 57.402 15.9175 56.0148 16.1587C55.6569 16.1413 55.2303 16.1216 54.7212 16.1088L54.6839 16.0949C52.5912 16.0137 51.8371 16.3083 51.2581 16.3593C50.679 16.4104 49.8843 16.5113 49.0739 15.7399C48.2623 14.9685 47.5591 13.9279 47.5174 13.1542C47.4756 12.3805 47.5332 11.949 47.5332 11.949C47.5332 11.949 47.5005 10.9781 46.979 11.0315C46.4575 11.0871 46.1809 11.6462 46.1843 12.8329C46.1888 14.0195 46.4122 15.4545 47.4586 16.5321C48.5061 17.6109 48.882 17.8267 48.882 17.8267C48.882 17.8267 48.9339 18.3823 48.663 18.8242C48.3921 19.2662 48.1166 19.8462 48.1098 20.0028C48.1019 20.1617 48.0331 20.4146 48.0331 20.4146C48.0331 20.4146 47.7215 20.4795 47.6414 20.5549C47.5612 20.6291 47.3276 20.7173 47.3276 20.7173C47.3276 20.7173 46.8941 20.9331 46.8896 21.0317C46.8851 21.1302 46.6221 21.3947 46.56 21.4898C46.4979 21.5861 46.2778 21.7729 46.2157 21.8691C46.1525 21.9654 45.9685 22.2125 45.9042 22.3679C45.8387 22.5245 45.4842 23.1393 45.4583 23.2762C45.4323 23.4131 45.1162 24.0302 45.2551 24.3538C45.3939 24.6763 45.7269 24.9883 45.824 24.9744C45.9199 24.9593 46.4583 24.9837 46.5419 24.8306C46.6254 24.6763 46.6582 24.4002 46.6582 24.4002L46.5848 23.8829L46.639 23.55L46.8828 23.2646L47.0544 22.8772L47.3535 23.0512C47.3535 23.0512 47.472 22.9967 47.5488 23.0002C47.6255 23.0036 47.7915 22.7357 47.9258 22.7415C48.0601 22.7473 48.1132 22.8494 48.1707 22.8528C48.2283 22.8563 48.2565 22.6591 48.3502 22.7229C48.4439 22.7867 48.7137 22.7798 48.7735 22.7253C48.8333 22.6684 49.0275 22.658 49.2013 22.6464C49.374 22.6336 49.339 22.5733 49.514 22.5234C49.689 22.4712 49.7386 22.6719 49.7341 22.7705C49.7296 22.8691 49.7781 23.0686 50.2556 23.5674C50.7331 24.0651 51.2083 24.601 51.8404 24.6718C52.4725 24.7414 53.0493 24.7298 53.0493 24.7298C53.0493 24.7298 53.4274 24.4711 53.345 24.1707C53.2627 23.8702 52.8484 23.6719 52.5797 23.6394C52.3122 23.6069 51.8223 23.3853 51.8223 23.3853L51.7738 23.1847L51.8009 23.0281L51.9036 22.875L52.2761 22.7149L52.4172 22.5641L52.7829 22.5618L53.0358 22.5154L53.3428 22.5293L53.555 22.52C53.555 22.52 53.9433 22.4388 54.0607 22.4052C54.1781 22.3716 54.4693 22.3263 54.4693 22.3263L54.7933 22.3809C54.7933 22.3809 55.0123 22.2335 55.1082 22.2382C55.2042 22.2428 55.2042 22.2231 55.3983 22.1929C55.5925 22.1628 55.6297 22.1651 55.7471 22.1315C55.8645 22.0978 55.8668 22.0584 55.9413 22.0816C56.0169 22.1048 55.9785 22.1036 56.1332 22.0909L56.2878 22.0793C56.2878 22.0793 56.5249 21.9529 56.5384 22.0712C56.552 22.1906 56.7201 22.2974 56.7145 22.4157C56.7088 22.534 56.9143 23.1175 56.9481 23.2184C56.982 23.3182 57.1084 23.9376 57.1028 24.0559C57.0971 24.1742 57.2043 24.7913 57.4301 24.9015C57.657 25.0117 58.2338 25.0187 58.2338 25.0187C58.2338 25.0187 58.8095 25.0466 58.9065 25.0129C59.0047 24.9781 59.1199 24.5478 58.9359 24.3807C58.7519 24.2137 58.4708 24.0223 58.4708 24.0223L58.3839 23.8402C58.3839 23.8402 58.3219 23.5015 58.3783 23.5432C58.4336 23.585 58.4618 23.3889 58.4618 23.3889C58.4618 23.3889 58.4314 23.2091 58.5104 23.1535C58.5905 23.0978 58.5239 22.8577 58.5239 22.8577L58.5521 22.6616L58.6029 22.4076L58.6504 22.1918L58.6379 22.0526L58.8152 21.9227L58.8061 21.7244C58.8061 21.7244 59.2723 22.2754 59.3445 22.3577C59.4179 22.4401 60.2859 23.2533 60.4372 23.2997C60.5884 23.3472 61.0219 23.5467 61.1686 23.7115C61.3142 23.8762 61.7003 24.0583 61.7579 24.0606C61.8154 24.063 61.9509 24.0514 62.0051 24.1326C62.0592 24.2138 62.1326 24.2961 62.2274 24.3205C62.3222 24.3437 62.3358 24.484 62.5074 24.5119C62.6789 24.5397 62.7941 24.5652 62.8866 24.629C62.9803 24.6917 63.2072 24.7624 63.346 24.6894C63.4837 24.6163 63.9646 24.2057 63.4973 23.8669C63.0323 23.5282 62.8607 23.4992 62.8607 23.4992L62.6643 23.1733L62.3708 22.8635L62.1879 22.6571C62.1879 22.6571 62.083 22.4343 62.048 22.3729C62.0119 22.3125 61.9046 22.1501 61.9046 22.1501C61.9046 22.1501 61.7139 22.0805 61.7173 22.0214C61.7206 21.9622 61.5739 21.7963 61.5739 21.7963L61.4486 21.5933L61.3256 21.3497L61.2003 21.1467L61.1077 21.0632C61.1077 21.0632 61.1913 20.9287 61.1574 20.8289C61.1235 20.728 61.0299 20.6642 61.0299 20.6642C61.0299 20.6642 61.0818 20.3696 61.0863 20.271C61.0908 20.1724 61.0186 20.0506 61.0186 20.0506L61.1078 19.7977L61.1044 19.4416C61.1044 19.4416 61.1315 19.2653 61.1349 19.1864C61.1371 19.1319 61.1687 19.0135 61.1902 18.9451L61.2048 18.9509C61.2048 18.9509 61.2861 18.8558 61.3324 18.7746C61.3448 18.7618 61.3584 18.7479 61.3685 18.7351C61.4317 18.654 61.4351 18.4394 61.4351 18.4394C61.4351 18.4394 61.5187 18.1702 61.5333 18.103C61.548 18.0357 61.6677 17.9174 61.6677 17.9174C61.6677 17.9174 61.9928 17.8269 62.1339 17.7167C62.275 17.6053 62.477 17.4371 62.5797 17.3908C62.6847 17.3432 62.9658 17.2516 63.0324 17.2666C63.099 17.2829 63.4963 17.233 63.6476 17.0265C63.7616 16.8723 63.9241 16.5973 63.9241 16.5973C63.9241 16.5973 64.1329 16.4199 64.1849 16.1914C64.2379 15.9605 64.2154 15.8225 64.2154 15.8225Z" fill="#A91255"/>
</svg>
