<svg width="48" height="48" viewBox="0 0 48 48" fill="none" xmlns="http://www.w3.org/2000/svg">
<circle cx="24" cy="24" r="24" fill="#E2001A"/>
<path d="M33.0002 33.0002L28.6572 28.6572M28.6572 28.6572C29.4001 27.9143 29.9894 27.0324 30.3914 26.0618C30.7935 25.0911 31.0004 24.0508 31.0004 23.0002C31.0004 21.9496 30.7935 20.9093 30.3914 19.9387C29.9894 18.968 29.4001 18.0861 28.6572 17.3432C27.9143 16.6003 27.0324 16.011 26.0618 15.609C25.0911 15.2069 24.0508 15 23.0002 15C21.9496 15 20.9093 15.2069 19.9387 15.609C18.968 16.011 18.0861 16.6003 17.3432 17.3432C15.8429 18.8435 15 20.8784 15 23.0002C15 25.122 15.8429 27.1569 17.3432 28.6572C18.8435 30.1575 20.8784 31.0004 23.0002 31.0004C25.122 31.0004 27.1569 30.1575 28.6572 28.6572ZM23.0002 20.0002V26.0002M20.0002 23.0002H26.0002" stroke="white" stroke-width="2" stroke-linecap="round" stroke-linejoin="round"/>
</svg>
